<svg xmlns="http://www.w3.org/2000/svg" width="406.508" height="381.155" viewBox="0 0 406.508 381.155">
  <g id="Grupo_93153" data-name="Grupo 93153" transform="translate(8744.625 366.999)">
    <path id="Trazado_187723" data-name="Trazado 187723" d="M2457.042,10c0-13.192.037-26.386-.038-39.579-.011-2.025.939-2.255,2.572-2.252q38.039.068,76.081.042c4.58-.008,4.235-.156,4.23,4.249q-.044,38.59.078,77.182c0,1.684-.594,2.163-2.175,2.162q-39.249-.049-78.5-.03c-1.251,0-2.322.047-2.316-1.759.041-13.338.021-26.676.021-40.015Zm3.447-.117h-.048c0,12.1.031,24.2-.036,36.3-.008,1.784.666,2.31,2.322,2.306q13.091-.038,26.178.037c1.336.007,1.882-.59,1.875-1.84-.01-1.759-.12-3.524-.028-5.278.2-3.746,1.636-6.742,5.111-8.651a4.509,4.509,0,0,0,1.779-2.624c.368-1.37-.488-2.276-1.83-2.826a7,7,0,0,1-4.588-5.25,38.73,38.73,0,0,1-.44-7.2c.051-3.7,1.461-6.729,5.037-8.32a2.912,2.912,0,0,0,1.9-3.089,3.383,3.383,0,0,0-1.863-3.129c-1.591-1.043-3.378-2.373-4.119-4.013a15.833,15.833,0,0,1-.175-12,10.615,10.615,0,0,1,4.092-4.564c1.479-1,2.273-1.828,1.958-3.648-.207-1.189-.071-2.633,1.48-2.684,1.667-.055,2.314,1.342,2.022,2.763-.418,2.045.587,2.849,2.189,3.688,2.781,1.455,4.456,3.712,4.3,7.066a52.353,52.353,0,0,0,.015,5.937c.246,3.584-1.609,5.919-4.547,7.348a3.294,3.294,0,0,0-2.088,3.362c-.078,1.755.793,2.446,2.154,3.129,2.916,1.463,4.621,3.734,4.444,7.184a40.537,40.537,0,0,0,.011,5.5c.324,3.821-1.494,6.318-4.737,7.9a2.931,2.931,0,0,0-1.882,2.873c-.058,1.537.735,2.192,1.94,2.824,3.108,1.629,4.863,4.127,4.7,7.785-.077,1.683.137,3.392-.069,5.053-.262,2.105.547,2.711,2.553,2.691,7.333-.074,14.667-.051,22-.01,5.5.031,4.448-.242,4.454-4.325q.044-34.87.057-69.742c0-1.814-.29-2.845-2.5-2.838q-35.746.1-71.5.038c-1.589,0-2.17.5-2.162,2.176C2460.519-14.168,2460.489-2.141,2460.489,9.884ZM2505.532,17c-.686-2.015-1.193-3.808-1.93-5.5-.246-.567-1.073-.881-1.636-1.311a17.874,17.874,0,0,1-1.072,1.7c-.544.689-1.172,1.309-1.764,1.96-.5-.72-1.281-1.387-1.425-2.172-.306-1.661-.9-1.9-2.135-.847-2.82,2.411-2.875,9.732-.058,12.088a2.284,2.284,0,0,0,1.547.5c.232-.024.339-.846.58-1.261.462-.8.977-1.568,1.47-2.35.611.769,1.25,1.52,1.824,2.316a12.349,12.349,0,0,1,.776,1.435c.549-.291,1.386-.448,1.594-.9C2504.138,20.855,2504.78,18.962,2505.532,17Zm.057-26.994c-.82-2.112-1.489-4.055-2.354-5.9-.2-.428-1.076-.543-1.64-.8a4.816,4.816,0,0,0-.509,1.521c.03,1.42-.314,2.64-1.924,2.588-1.557-.051-1.659-1.3-1.565-2.595a4.2,4.2,0,0,0-.536-1.523,4.917,4.917,0,0,0-1.509.643c-2.892,2.689-2.861,9.414.017,12.057,1.005.923,1.68,1.019,2.117-.588a7.5,7.5,0,0,1,1.48-2.084,9.255,9.255,0,0,1,1.661,1.984c.717,1.615,1.428,1.907,2.371.386A38.012,38.012,0,0,0,2505.588-9.99ZM2499.33,48.5v-.023a20.692,20.692,0,0,0,3.507-.054c.685-.12,1.76-.707,1.828-1.2.438-3.186.892-6.452-1.275-9.277a2.558,2.558,0,0,0-1.578-.92c-.259-.028-.579.853-.936,1.264-.568.648-1.192,1.247-1.793,1.866-.483-.646-1.216-1.23-1.4-1.954-.339-1.333-.835-1.649-1.933-.788-1.927,1.513-3.04,6.342-2.1,9.264.932,2.894,3.406,1.463,5.241,1.814A2.264,2.264,0,0,0,2499.33,48.5Z" transform="translate(-10902.736 -79.127)"/>
    <path id="Trazado_187740" data-name="Trazado 187740" d="M2459.484,8.883c0-12.026.03-24.053-.034-36.08-.009-1.673.573-2.177,2.162-2.176q35.749.032,71.5-.038c2.207-.007,2.5,1.024,2.5,2.838q-.061,34.872-.057,69.742c-.005,4.083,1.049,4.356-4.454,4.325-7.334-.041-14.668-.064-22,.01-2.006.02-2.815-.585-2.553-2.691.207-1.661-.007-3.371.069-5.053.164-3.658-1.591-6.156-4.7-7.785-1.2-.632-2-1.287-1.94-2.824a2.931,2.931,0,0,1,1.882-2.873c3.242-1.581,5.061-4.078,4.737-7.9a40.577,40.577,0,0,1-.011-5.5c.177-3.45-1.528-5.721-4.444-7.184-1.361-.683-2.231-1.374-2.154-3.129a3.293,3.293,0,0,1,2.088-3.362c2.938-1.43,4.793-3.764,4.547-7.348a52.353,52.353,0,0,1-.016-5.937c.154-3.354-1.52-5.611-4.3-7.066-1.6-.838-2.607-1.643-2.189-3.688.293-1.421-.354-2.818-2.021-2.763-1.551.051-1.687,1.495-1.48,2.684.315,1.82-.479,2.646-1.958,3.648a10.616,10.616,0,0,0-4.092,4.564,15.831,15.831,0,0,0,.175,12c.741,1.64,2.528,2.969,4.119,4.013a3.383,3.383,0,0,1,1.862,3.129,2.912,2.912,0,0,1-1.9,3.089c-3.576,1.591-4.985,4.619-5.037,8.32a38.688,38.688,0,0,0,.44,7.2,7,7,0,0,0,4.588,5.25c1.342.55,2.2,1.456,1.83,2.826a4.51,4.51,0,0,1-1.779,2.624c-3.476,1.909-4.915,4.905-5.111,8.651-.092,1.755.018,3.519.028,5.278.007,1.25-.539,1.847-1.875,1.84q-13.088-.066-26.178-.037c-1.656,0-2.33-.522-2.322-2.306.066-12.1.036-24.2.036-36.3Z" transform="translate(-10901.731 -78.125)" fill="#fff"/>
    <path id="Trazado_187741" data-name="Trazado 187741" d="M2494.86,4.7c-.752,1.958-1.394,3.852-2.23,5.653-.208.448-1.045.605-1.594.9a12.349,12.349,0,0,0-.776-1.435c-.574-.8-1.213-1.547-1.824-2.316-.493.782-1.008,1.55-1.47,2.35-.24.416-.348,1.237-.58,1.261a2.284,2.284,0,0,1-1.547-.5c-2.817-2.356-2.762-9.677.058-12.088,1.233-1.055,1.83-.814,2.135.847.144.785.93,1.452,1.425,2.172.592-.65,1.22-1.271,1.764-1.96a17.874,17.874,0,0,0,1.072-1.7c.563.43,1.39.744,1.636,1.311C2493.667.894,2494.174,2.687,2494.86,4.7Z" transform="translate(-10892.063 -66.824)" fill="#fff"/>
    <path id="Trazado_187742" data-name="Trazado 187742" d="M2494.926-14.418a38.012,38.012,0,0,1-2.391,5.683c-.943,1.521-1.654,1.229-2.371-.386a9.255,9.255,0,0,0-1.661-1.984,7.5,7.5,0,0,0-1.48,2.084c-.437,1.608-1.112,1.512-2.117.588-2.878-2.643-2.909-9.367-.017-12.057a4.917,4.917,0,0,1,1.509-.643,4.2,4.2,0,0,1,.536,1.523c-.093,1.3.009,2.544,1.565,2.595,1.61.052,1.954-1.168,1.924-2.588a4.816,4.816,0,0,1,.509-1.521c.564.259,1.439.373,1.64.8C2493.437-18.473,2494.105-16.531,2494.926-14.418Z" transform="translate(-10892.072 -74.697)" fill="#fff"/>
    <path id="Trazado_187743" data-name="Trazado 187743" d="M2488.692,28.366a2.264,2.264,0,0,1-.438,0c-1.835-.351-4.31,1.08-5.241-1.814-.94-2.923.172-7.751,2.1-9.264,1.1-.861,1.594-.546,1.933.788.184.724.917,1.308,1.4,1.954.6-.619,1.225-1.219,1.793-1.866.357-.411.677-1.292.936-1.264a2.557,2.557,0,0,1,1.578.92c2.168,2.825,1.714,6.091,1.275,9.277-.068.491-1.144,1.077-1.828,1.2a20.7,20.7,0,0,1-3.507.054Z" transform="translate(-10892.098 -58.994)" fill="#fff"/>
    <path id="Trazado_187727" data-name="Trazado 187727" d="M2471.214-171c0,13.27-.021,26.541.026,39.813.006,1.564-.572,2.062-2.06,2.06q-39.7-.036-79.409,0c-1.79,0-2.3-.583-2.275-2.483.161-9.968.152-19.941.146-29.912q-.015-24.635-.139-49.272c-.013-2.016,1.028-2.066,2.479-2.064q24.417.038,48.834.038c10.044,0,20.091,0,30.135-.088,1.776-.016,2.266.633,2.259,2.317-.048,13.2-.026,26.4-.026,39.595Zm-80.242-.24h.014c0,11.873.017,23.745-.011,35.618-.007,2.93-.014,2.995,2.832,2.995q32.979,0,65.958,0c1.759,0,3.518-.007,5.275.024,1.495.025,2.015-.638,2.012-2.155q-.067-36.056-.013-72.112c0-1.893-.465-2.579-2.445-2.573q-35.616.085-71.235.016c-1.77,0-2.442.441-2.429,2.347C2391.011-195.132,2390.972-183.186,2390.972-171.241Z" transform="translate(-10981.497 -154.086)"/>
    <path id="Trazado_187747" data-name="Trazado 187747" d="M2389.966-172.258c0-11.945.04-23.892-.041-35.837-.013-1.906.659-2.351,2.429-2.347q35.617.062,71.235-.016c1.98-.006,2.449.68,2.445,2.573q-.076,36.056.013,72.112c0,1.517-.518,2.18-2.012,2.155-1.757-.031-3.516-.024-5.275-.024q-32.981,0-65.958,0c-2.846,0-2.839-.065-2.832-2.995.028-11.873.011-23.745.011-35.617Zm51.638-30.769c-2.8,3.969-5.441,7.474-7.8,11.156-.99,1.545.482,1.571,1.547,1.53,2.959-.112,2.971-.117,2.973,2.763q.012,16.263.01,32.529c0,5.476-.438,4.228,4.618,4.491,1.56.081,2.046-.676,2.042-2.125-.033-11.5-.011-23.005-.051-34.508-.01-3.166-.076-3.145,3.039-3.129a7.088,7.088,0,0,0,1.632-.38,5.948,5.948,0,0,0-.5-1.762c-1.873-2.8-3.81-5.553-5.746-8.31C2442.882-201.461,2442.33-202.1,2441.6-203.027Zm-27.158-.083c-.6.786-1.041,1.322-1.434,1.89-1.913,2.771-3.832,5.538-5.7,8.338a13.88,13.88,0,0,0-.943,2.066,7.657,7.657,0,0,0,2.242.4c2.022-.249,2.739.485,2.728,2.547-.064,11.059.011,22.118-.031,33.178-.016,4.431-.475,4.018,4.132,4.136,1.753.044,2.293-.571,2.285-2.284-.061-11.351-.04-22.705-.057-34.058,0-3.425-.02-3.43,3.348-3.381,1.188.018,2.083-.305,1.2-1.625C2419.773-195.536,2417.233-199.1,2414.446-203.11Zm13.544,56.54v.117q-5.056,0-10.112,0c-3.371,0-6.74.02-10.111.02-4.917,0-4.878-.006-4.822,4.854.017,1.425.564,1.95,1.964,1.948,15.462-.021,30.923.006,46.385-.072.577,0,1.705-1.042,1.632-1.41-.362-1.807,1.157-3.993-.992-5.43-.154-.1-.428-.028-.648-.028Z" transform="translate(-10980.491 -153.07)" fill="#fff"/>
    <path id="Trazado_187774" data-name="Trazado 187774" d="M2428.854-205.2c.727.925,1.278,1.565,1.762,2.255,1.936,2.757,3.873,5.512,5.746,8.31a5.948,5.948,0,0,1,.5,1.762,7.088,7.088,0,0,1-1.632.38c-3.115-.016-3.049-.037-3.039,3.129.04,11.5.018,23.005.051,34.508,0,1.449-.482,2.206-2.042,2.125-5.056-.263-4.622.986-4.618-4.491q.015-16.265-.01-32.529c0-2.88-.014-2.875-2.973-2.763-1.065.041-2.537.016-1.547-1.53C2423.413-197.728,2426.05-201.233,2428.854-205.2Z" transform="translate(-10967.741 -150.895)"/>
    <path id="Trazado_187775" data-name="Trazado 187775" d="M2409.632-205.261c2.787,4.007,5.327,7.575,7.767,11.211.885,1.319-.01,1.643-1.2,1.625-3.368-.049-3.353-.044-3.348,3.381.017,11.353,0,22.707.057,34.058.009,1.712-.532,2.327-2.285,2.284-4.607-.117-4.147.3-4.132-4.136.042-11.06-.033-22.12.031-33.178.011-2.062-.706-2.8-2.728-2.547a7.657,7.657,0,0,1-2.242-.4,13.88,13.88,0,0,1,.943-2.066c1.869-2.8,3.788-5.567,5.7-8.338C2408.591-203.939,2409.032-204.475,2409.632-205.261Z" transform="translate(-10975.678 -150.918)"/>
    <path id="Trazado_187776" data-name="Trazado 187776" d="M2424.182-165.267h23.295c.219,0,.493-.074.648.028,2.149,1.437.631,3.623.992,5.43.073.368-1.054,1.407-1.632,1.41-15.461.078-30.923.051-46.385.072-1.4,0-1.947-.523-1.964-1.948-.057-4.86-.095-4.856,4.822-4.854,3.371,0,6.74-.017,10.111-.02s6.741,0,10.112,0Z" transform="translate(-10976.683 -134.373)"/>
    <path id="Trazado_187728" data-name="Trazado 187728" d="M2471.173-84.283c0,13.194-.028,26.387.034,39.581.007,1.705-.618,2.124-2.193,2.121q-39.47-.049-78.944.006c-2.167,0-2.574-.69-2.551-2.843.161-14.145.131-28.293.123-42.44q-.013-18.14-.147-36.281c-.019-1.926.929-2.141,2.45-2.138q21.769.038,43.54.02c11.875-.006,23.749-.01,35.623-.074,1.684-.008,2.111.674,2.105,2.247-.045,13.266-.025,26.533-.025,39.8Zm-4.122-.246h-.058c0-12.027-.041-24.054.044-36.081.013-1.864-.724-2.228-2.333-2.227q-35.643.045-71.285,0c-1.891,0-2.479.513-2.473,2.513q.119,35.861,0,71.723c-.006,1.98.534,2.569,2.448,2.548,6.672-.076,13.346-.027,20.02-.027q25.631,0,51.262.008c1.36,0,2.415-.041,2.406-1.934C2467.023-60.182,2467.051-72.355,2467.051-84.529Z" transform="translate(-10981.497 -118.246)"/>
    <path id="Trazado_187748" data-name="Trazado 187748" d="M2466.041-85.551c0,12.174-.028,24.347.03,36.52.009,1.893-1.046,1.934-2.406,1.934q-25.632-.019-51.262-.008c-6.674,0-13.348-.049-20.02.027-1.913.021-2.453-.568-2.448-2.548q.121-35.861,0-71.723c-.006-2,.582-2.515,2.473-2.513q35.642.064,71.285,0c1.609,0,2.346.363,2.333,2.227-.085,12.027-.044,24.054-.044,36.081Zm-38.127,2.778a12.589,12.589,0,0,1,1.311,1c4.128,4.158,8.271,8.3,12.334,12.521.932.967,1.651,1.359,2.729.322,1.094-1.053.691-1.832-.246-2.749-4.035-3.941-7.975-7.979-12.047-11.879-1.4-1.342-1.384-2.216.023-3.556,4.083-3.888,8.011-7.939,12.06-11.866.973-.943,1.258-1.714.243-2.757-1.106-1.135-1.838-.53-2.718.37-3.99,4.088-8.064,8.093-12.041,12.2-1.193,1.232-2.022,1.241-3.232-.025-3.946-4.13-8.021-8.137-12-12.238-.865-.892-1.571-1.247-2.551-.232-.863.891-.991,1.6.011,2.576,4.048,3.927,7.96,7.995,12.057,11.869,1.46,1.38,1.628,2.258.11,3.7-4.085,3.886-8.02,7.929-12.061,11.863-.937.912-1.362,1.673-.273,2.743s1.861.571,2.749-.342c3.983-4.095,8.01-8.147,12.033-12.2C2426.854-81.911,2427.368-82.3,2427.914-82.772Zm.4-31.438c2.783,0,5.568-.048,8.349.016a4.26,4.26,0,0,1,4.3,3.886,4.224,4.224,0,0,1-3.49,4.615c-.356.081-.819,0-1.063.2-.575.472-1.445,1.065-1.451,1.616s.809,1.381,1.429,1.586a4.1,4.1,0,0,0,2.548-.1c3.466-1.312,5.3-4.894,4.734-8.973a7.38,7.38,0,0,0-6.943-6.277c-5.78-.188-11.577-.223-17.355-.01a7.74,7.74,0,0,0-7.2,8.409,7.732,7.732,0,0,0,7.99,7.108c1.391-.025,2.784-.062,4.175-.03a2.6,2.6,0,0,1,2.866,2.884,53.313,53.313,0,0,1-.5,5.456c-.151,1.186-.522,2.65,1.011,2.835.576.069,1.786-1.434,1.95-2.354a43.866,43.866,0,0,0,.5-6.995,4.322,4.322,0,0,0-3.3-4.643,35.441,35.441,0,0,0-6.7-.619c-2.774-.112-4.865-1.866-4.9-4.283-.031-2.252,2.257-4.293,4.911-4.321C2422.9-114.232,2425.606-114.209,2428.317-114.21Zm-.822,34.9a9.64,9.64,0,0,0-1.628,1.123c-2.259,2.654-4.513,5.314-6.695,8.033a7.692,7.692,0,0,0-1.482,2.671c-1.23,4.553-.331,8.574,3.341,11.753a10.573,10.573,0,0,0,11.5,1.963,10.655,10.655,0,0,0,7.02-10.011,3.854,3.854,0,0,0-3.187-4.089c0,1.39,0,2.747,0,4.1-.022,4.969-5.825,9-10.473,7.262a8.089,8.089,0,0,1-5.529-6.561c-.525-3.183,1.036-5.639,3.484-7.341C2426.906-72.528,2427.491-75.455,2427.5-79.31Z" transform="translate(-10980.486 -117.223)" fill="#fff"/>
    <path id="Trazado_187777" data-name="Trazado 187777" d="M2421.752-89.069c-.546.472-1.059.861-1.507,1.314-4.023,4.057-8.05,8.109-12.033,12.2-.888.913-1.646,1.427-2.749.342s-.665-1.831.273-2.743c4.041-3.934,7.976-7.978,12.061-11.863,1.517-1.442,1.35-2.32-.11-3.7-4.1-3.874-8.009-7.942-12.057-11.869-1-.974-.874-1.685-.011-2.576.98-1.015,1.685-.66,2.551.232,3.976,4.1,8.051,8.108,12,12.238,1.21,1.267,2.039,1.257,3.232.025,3.977-4.1,8.051-8.108,12.041-12.2.879-.9,1.612-1.506,2.718-.37,1.015,1.043.73,1.814-.243,2.757-4.048,3.927-7.976,7.978-12.06,11.866-1.407,1.34-1.423,2.214-.023,3.556,4.072,3.9,8.011,7.938,12.047,11.879.938.916,1.34,1.7.246,2.749-1.077,1.036-1.8.645-2.729-.322-4.064-4.221-8.207-8.362-12.334-12.521A12.589,12.589,0,0,0,2421.752-89.069Z" transform="translate(-10974.326 -110.928)"/>
    <path id="Trazado_187778" data-name="Trazado 187778" d="M2421.809-115.985c-2.71,0-5.421-.023-8.13.007-2.654.028-4.942,2.069-4.911,4.321.032,2.416,2.124,4.171,4.9,4.283a35.441,35.441,0,0,1,6.7.619,4.322,4.322,0,0,1,3.3,4.643,43.866,43.866,0,0,1-.5,6.995c-.164.92-1.374,2.424-1.95,2.354-1.533-.185-1.162-1.649-1.011-2.835a53.313,53.313,0,0,0,.5-5.456,2.6,2.6,0,0,0-2.866-2.884c-1.391-.033-2.784,0-4.175.03a7.732,7.732,0,0,1-7.99-7.108,7.74,7.74,0,0,1,7.2-8.409c5.777-.214,11.575-.178,17.355.01a7.38,7.38,0,0,1,6.943,6.277c.565,4.079-1.268,7.661-4.734,8.973a4.1,4.1,0,0,1-2.548.1c-.621-.205-1.434-1.038-1.429-1.586s.875-1.144,1.451-1.616c.244-.2.707-.119,1.063-.2a4.224,4.224,0,0,0,3.49-4.615,4.26,4.26,0,0,0-4.3-3.886C2427.377-116.035,2424.592-115.986,2421.809-115.985Z" transform="translate(-10973.979 -115.447)"/>
    <path id="Trazado_187779" data-name="Trazado 187779" d="M2419.521-92.353c0,3.854-.589,6.781-3.646,8.906-2.448,1.7-4.009,4.158-3.484,7.341a8.089,8.089,0,0,0,5.528,6.561c4.648,1.734,10.451-2.293,10.473-7.262.006-1.357,0-2.715,0-4.1a3.854,3.854,0,0,1,3.187,4.089,10.655,10.655,0,0,1-7.02,10.011,10.573,10.573,0,0,1-11.5-1.963c-3.672-3.179-4.571-7.2-3.341-11.753A7.692,7.692,0,0,1,2411.2-83.2c2.182-2.719,4.436-5.379,6.695-8.033A9.646,9.646,0,0,1,2419.521-92.353Z" transform="translate(-10972.513 -104.18)"/>
    <path id="Trazado_187730" data-name="Trazado 187730" d="M2429.37,51.769q-19.8,0-39.594,0c-1.235,0-2.308.064-2.295-1.77q.144-21.114.157-42.229,0-18.8-.164-37.61c-.016-1.852.97-2,2.364-1.988,6.452.054,12.9.106,19.356.11q28.155.015,56.314-.013c5.68-.006,5.677-.045,5.676,5.579q0,37.946.022,75.891c0,1.506-.449,2.067-2.022,2.062-13.271-.049-26.543-.028-39.814-.028Zm-38.4-41.647h.038q0,17.7-.01,35.4c-.006,2.923-.057,2.945,2.881,2.947q34.188.03,68.376.038c4.708,0,4.729-.035,4.732-4.625q.019-34.959.048-69.917c0-1.889-.711-2.353-2.476-2.349q-35.4.078-70.8.051c-2.74,0-2.791.021-2.793,2.838Q2390.963-7.688,2390.969,10.122Z" transform="translate(-10981.506 -79.125)"/>
    <path id="Trazado_187750" data-name="Trazado 187750" d="M2389.947,9.115q0-17.809,0-35.619c0-2.817.052-2.838,2.793-2.838q35.4,0,70.8-.051c1.765,0,2.48.46,2.476,2.349q-.078,34.957-.048,69.917c0,4.59-.024,4.625-4.732,4.625q-34.19,0-68.376-.038c-2.938,0-2.887-.024-2.881-2.947q.034-17.7.01-35.4Zm38.044,6.346c-4.107,0-8.215.068-12.32-.03-1.947-.045-2.452.641-2.423,2.588.115,7.843.08,15.689-.028,23.534-.026,1.789.438,2.566,2.3,2.556q12.428-.064,24.859,0c1.791.007,2.46-.744,2.448-2.524-.059-7.846-.1-15.693,0-23.538.027-2.118-.813-2.651-2.732-2.609C2436.058,15.527,2432.023,15.465,2427.99,15.46Zm-.057-19.875c.621.52,1.2.933,1.691,1.431,4.023,4.058,8.057,8.109,12.024,12.222.952.987,1.717,1.25,2.742.2.932-.957,1.042-1.685-.049-2.735-4.171-4.013-8.2-8.175-12.371-12.187-1.263-1.212-1.28-2-.017-3.207,4.127-3.952,8.137-8.027,12.245-12,1.027-.993,1.077-1.8.078-2.77s-1.714-.578-2.572.3c-3.988,4.095-8.071,8.1-12.038,12.209-1.2,1.246-2.018,1.257-3.227,0-3.959-4.12-8.044-8.12-12.021-12.226-1.022-1.055-1.821-1.287-2.911-.14-1.072,1.13-.571,1.813.362,2.713,4.168,4.016,8.252,8.12,12.4,12.156,1.075,1.045,1.1,1.832-.017,2.916-4.1,3.979-8.092,8.075-12.2,12.044-1.072,1.035-1.3,1.854-.212,2.923,1.044,1.022,1.776.43,2.579-.387q6.008-6.115,12.073-12.176C2426.889-3.532,2427.337-3.888,2427.934-4.414Zm-30.818,18.8c-1.465-.068-1.721.426-1.192,2.023.8,2.425,1.581,4.856,2.405,7.272a7.713,7.713,0,0,0,.708,1.271,5.1,5.1,0,0,0,1.408-.834c1.652-1.951,3.235-3.959,4.837-5.953,1.2-1.5,1.029-2.108-.86-2.455-1.516-.279-2.572-.618-1.8-2.535.133-.334-.534-.99-.831-1.5-.451.277-1.234.495-1.3.841C2400.1,14.715,2398.856,15.077,2397.115,14.383Zm59.7,11.409c1.352-3.764,2.544-6.79,3.505-9.885.5-1.592-.715-1.6-1.838-1.4-2,.351-4.023.642-6,1.1a12.9,12.9,0,0,0-2.463,1.134c.444.717.861,1.452,1.34,2.144.415.6.9,1.144,1.355,1.715C2453.959,22.167,2455.2,23.743,2456.819,25.792ZM2449.844.275c-1.394-1.111-2.478-1.977-3.561-2.841-.343.474-1.062,1.261-.97,1.372a20.673,20.673,0,0,0,2.829,2.777C2448.244,1.666,2449.016.922,2449.844.275Zm-29.98-7.255c-1.041-.764-1.7-1.486-1.925-1.369a32.81,32.81,0,0,0-3.283,2.149c.417.413.985,1.253,1.225,1.168A36.9,36.9,0,0,0,2419.864-6.98ZM2405.671,6.63l-1.7-1.239a28.921,28.921,0,0,0-2.1,3.084c-.088.164.824.861,1.276,1.312Zm39.531-10.7c-1.6-1.068-2.659-1.852-3.809-2.455-.194-.1-.8.571-1.209.887a31.217,31.217,0,0,0,2.883,2.6C2443.281-2.879,2444.046-3.487,2445.2-4.066Zm8.2,9.86L2450.457,2.7c-.359.471-1.118,1.219-1.014,1.37a35.239,35.239,0,0,0,2.517,3Zm-47.257-1.126a42.032,42.032,0,0,0,2.552-3.62c.1-.168-.7-.847-1.086-1.288a36.2,36.2,0,0,0-2.681,2.961C2404.807,2.882,2405.493,3.651,2406.143,4.668Zm4.387-5.179c1.162-1.271,2.069-2.221,2.872-3.251a6.083,6.083,0,0,0-1.144-1.135,23.621,23.621,0,0,0-2.914,2.662A9.977,9.977,0,0,0,2410.531-.512Zm45.381,12.431-2.29-3.073c-.38.509-1.188,1.192-1.063,1.5a17.648,17.648,0,0,0,1.787,2.88ZM2439.336-7.651a18.539,18.539,0,0,0-3.484-1.516c-.4-.081-.977.756-1.473,1.176a21.932,21.932,0,0,0,3.013,1.705C2437.677-6.172,2438.294-6.893,2439.336-7.651Z" transform="translate(-10980.482 -78.117)" fill="#fff"/>
    <path id="Trazado_187788" data-name="Trazado 187788" d="M2421.177,2.34c4.033,0,8.068.065,12.1-.025,1.919-.042,2.759.491,2.732,2.609-.1,7.845-.059,15.692,0,23.538.013,1.78-.656,2.531-2.448,2.524q-12.429-.055-24.859,0c-1.858.01-2.322-.768-2.3-2.556.109-7.845.143-15.691.028-23.534-.028-1.947.476-2.633,2.423-2.588C2412.962,2.406,2417.069,2.338,2421.177,2.34Z" transform="translate(-10973.67 -64.996)"/>
    <path id="Trazado_187789" data-name="Trazado 187789" d="M2421.8-5.97c-.6.526-1.045.882-1.445,1.285q-6.049,6.076-12.073,12.176c-.8.817-1.535,1.41-2.579.387-1.092-1.069-.86-1.888.212-2.923,4.112-3.969,8.1-8.065,12.2-12.044,1.117-1.083,1.092-1.871.017-2.916-4.15-4.035-8.233-8.14-12.4-12.156-.933-.9-1.434-1.584-.362-2.713,1.09-1.147,1.889-.915,2.911.14,3.977,4.106,8.063,8.106,12.021,12.226,1.209,1.257,2.025,1.246,3.227,0,3.967-4.113,8.051-8.115,12.038-12.209.858-.881,1.571-1.27,2.572-.3s.948,1.777-.078,2.77c-4.107,3.972-8.117,8.047-12.245,12-1.263,1.209-1.246,2,.017,3.207,4.173,4.011,8.2,8.174,12.371,12.187,1.092,1.049.981,1.777.049,2.735-1.025,1.055-1.79.792-2.742-.2-3.967-4.113-8-8.164-12.024-12.222C2423-5.037,2422.419-5.45,2421.8-5.97Z" transform="translate(-10974.348 -76.563)"/>
    <path id="Trazado_187790" data-name="Trazado 187790" d="M2395.439,2.359c1.74.694,2.983.332,3.376-1.865.062-.346.845-.564,1.3-.841.3.506.964,1.162.831,1.5-.769,1.917.287,2.257,1.8,2.535,1.889.346,2.062.959.86,2.455-1.6,1.994-3.186,4-4.837,5.953a5.1,5.1,0,0,1-1.408.834,7.713,7.713,0,0,1-.708-1.271c-.824-2.416-1.6-4.847-2.405-7.272C2393.718,2.785,2393.974,2.291,2395.439,2.359Z" transform="translate(-10978.807 -66.094)"/>
    <path id="Trazado_187791" data-name="Trazado 187791" d="M2439.232,12.967c-1.618-2.049-2.86-3.625-4.1-5.2-.452-.571-.94-1.118-1.355-1.715-.479-.691-.9-1.427-1.34-2.144a12.9,12.9,0,0,1,2.463-1.134c1.981-.455,4-.747,6-1.1,1.123-.2,2.333-.188,1.838,1.4C2441.775,6.177,2440.583,9.2,2439.232,12.967Z" transform="translate(-10962.895 -65.291)"/>
    <path id="Trazado_187792" data-name="Trazado 187792" d="M2433.637-7.579c-.829.648-1.6,1.391-1.7,1.308a20.673,20.673,0,0,1-2.829-2.777c-.092-.11.627-.9.97-1.372C2431.159-9.556,2432.242-8.691,2433.637-7.579Z" transform="translate(-10964.275 -70.264)"/>
    <path id="Trazado_187793" data-name="Trazado 187793" d="M2412.629-13.138a36.9,36.9,0,0,1-3.983,1.948c-.239.085-.808-.755-1.225-1.168a32.785,32.785,0,0,1,3.283-2.149C2410.93-14.624,2411.589-13.9,2412.629-13.138Z" transform="translate(-10973.248 -71.961)"/>
    <path id="Trazado_187794" data-name="Trazado 187794" d="M2402.182-3.553,2399.655-.4c-.451-.451-1.363-1.148-1.276-1.312a28.923,28.923,0,0,1,2.1-3.084Z" transform="translate(-10976.993 -67.934)"/>
    <path id="Trazado_187795" data-name="Trazado 187795" d="M2430.494-10.759c-1.156.58-1.921,1.188-2.135,1.032a31.217,31.217,0,0,1-2.883-2.6c.413-.315,1.015-.99,1.209-.887C2427.834-12.612,2428.889-11.827,2430.494-10.759Z" transform="translate(-10965.774 -71.424)"/>
    <path id="Trazado_187796" data-name="Trazado 187796" d="M2435.984-3.6l-1.441,1.278a35.239,35.239,0,0,1-2.517-3c-.1-.151.655-.9,1.014-1.37Z" transform="translate(-10963.066 -68.723)"/>
    <path id="Trazado_187797" data-name="Trazado 187797" d="M2401.76-3.867c-.65-1.017-1.336-1.786-1.214-1.947a36.2,36.2,0,0,1,2.681-2.961c.385.441,1.182,1.12,1.086,1.288A42.032,42.032,0,0,1,2401.76-3.867Z" transform="translate(-10976.1 -69.582)"/>
    <path id="Trazado_187798" data-name="Trazado 187798" d="M2404.853-7.683a9.977,9.977,0,0,1-1.186-1.724,23.621,23.621,0,0,1,2.914-2.662,6.082,6.082,0,0,1,1.144,1.135C2406.922-9.9,2406.015-8.954,2404.853-7.683Z" transform="translate(-10974.805 -70.947)"/>
    <path id="Trazado_187799" data-name="Trazado 187799" d="M2437.584.725l-1.566,1.305a17.648,17.648,0,0,1-1.787-2.88c-.125-.305.683-.988,1.063-1.5Z" transform="translate(-10962.155 -66.922)"/>
    <path id="Trazado_187800" data-name="Trazado 187800" d="M2426.327-13.571c-1.042.758-1.659,1.479-1.944,1.366a21.932,21.932,0,0,1-3.013-1.705c.5-.42,1.076-1.257,1.473-1.176A18.539,18.539,0,0,1,2426.327-13.571Z" transform="translate(-10967.475 -72.197)"/>
    <path id="Trazado_187732" data-name="Trazado 187732" d="M2317.561-171.125c0-13.2.023-26.4-.032-39.6-.007-1.625.468-2.182,2.125-2.179q39.38.07,78.759.031c1.658,0,2.744.1,2.736,2.3q-.133,35.748-.1,71.5c0,2.493-.085,5,.11,7.474.148,1.885-.521,2.463-2.33,2.456q-21.12-.081-42.24-.057c-12.173,0-24.347-.013-36.52.076-2.019.016-2.58-.52-2.561-2.626C2317.623-144.871,2317.564-158,2317.561-171.125Zm80.2.112h-.03c0-12.023-.038-24.046.04-36.067.013-1.909-.677-2.357-2.442-2.353q-29.909.074-59.819.041c-4.1,0-8.211.034-12.314-.048-1.81-.037-2.453.6-2.358,2.459.155,3.071.047,6.155.047,9.235q0,31.118-.023,62.237c0,2.7.086,2.889,2.757,2.887q24.632-.006,49.262-.011,11.218,0,22.432.049c1.516.007,2.489-.222,2.479-2.144C2397.729-146.823,2397.76-158.918,2397.76-171.013Z" transform="translate(-11060.471 -154.082)"/>
    <path id="Trazado_187752" data-name="Trazado 187752" d="M2396.787-172.027c0,12.095-.031,24.19.031,36.285.01,1.922-.963,2.151-2.479,2.144q-11.215-.062-22.432-.049-24.631,0-49.262.011c-2.671,0-2.761-.188-2.757-2.887q.042-31.118.023-62.237c0-3.08.109-6.163-.047-9.235-.095-1.864.549-2.5,2.358-2.459,4.1.082,8.209.048,12.314.048q29.91,0,59.819-.041c1.765,0,2.455.444,2.442,2.353-.078,12.021-.04,24.044-.04,36.067Zm-38.515-32.382c-7.846,0-15.693.03-23.54-.025-1.671-.011-2.365.543-1.923,2.207a49.434,49.434,0,0,0,1.595,5.71c3.77,9.418,11.007,14.528,20.777,16.316,1.227.223,1.811.568,1.807,1.9q-.051,16.83-.01,33.659c0,1.623-.682,2.216-2.264,2.165-2.931-.095-5.865-.078-8.8-.107-1.4-.016-2.484.481-1.872,2.043.206.525,1.42.916,2.176.923,8.139.071,16.279.04,24.419.072,1.174.006,2.118-.147,2.023-1.594-.092-1.4-1.066-1.5-2.213-1.466-2.638.081-5.278.083-7.918.095-2.535.01-2.75-.281-2.742-2.752.035-10.779.1-21.559-.019-32.337-.018-1.813.441-2.4,2.169-2.7a25.984,25.984,0,0,0,21.811-21.539c.364-2.271.083-2.583-2.162-2.579Q2369.932-204.393,2358.272-204.409Z" transform="translate(-11059.497 -153.068)" fill="#fff"/>
    <path id="Trazado_187806" data-name="Trazado 187806" d="M2354.518-206.171q11.659,0,23.319-.006c2.245,0,2.525.308,2.162,2.579a25.984,25.984,0,0,1-21.811,21.539c-1.728.3-2.187.884-2.169,2.7.115,10.779.054,21.559.019,32.337-.009,2.47.206,2.761,2.742,2.752,2.64-.011,5.28-.014,7.918-.095,1.147-.035,2.121.069,2.213,1.466.095,1.446-.85,1.6-2.023,1.594-8.14-.033-16.28,0-24.419-.072-.756-.007-1.97-.4-2.176-.923-.612-1.562.469-2.059,1.872-2.043,2.933.03,5.866.013,8.8.107,1.582.051,2.268-.542,2.264-2.165q-.04-16.83.01-33.659c0-1.332-.58-1.677-1.807-1.9-9.769-1.787-17.007-6.9-20.777-16.316a49.434,49.434,0,0,1-1.595-5.71c-.442-1.664.252-2.219,1.923-2.207C2338.824-206.142,2346.672-206.171,2354.518-206.171Z" transform="translate(-11055.742 -151.307)"/>
    <path id="Trazado_187734" data-name="Trazado 187734" d="M2401.157,10.139c0,13.2-.026,26.4.03,39.592.007,1.752-.771,2.077-2.276,2.074q-37.946-.066-75.89-.072c-5.417,0-5.416,0-5.421-5.506q-.031-37.946-.089-75.89c0-1.612.529-2.179,2.175-2.173q38.054.1,76.109.109c5.239,0,5.239-.059,5.237,5.131V10.139Zm-3.4-.23h-.03q0-17.591,0-35.181c0-3.092.024-3.089-2.974-3.088q-35.73.011-71.458-.014c-1.988,0-2.442.713-2.437,2.593q.091,35.4.04,70.8c0,3.432-.041,3.449,3.326,3.444q26.6-.036,53.208-.082c6.009,0,12.02.045,18.028.1,1.472.016,2.326-.332,2.319-2.081C2397.729,34.238,2397.752,22.074,2397.752,9.908Z" transform="translate(-11060.467 -79.129)"/>
    <path id="Trazado_187754" data-name="Trazado 187754" d="M2396.772,8.895c0,12.166-.023,24.33.026,36.5.007,1.749-.847,2.1-2.319,2.081-6.008-.059-12.019-.109-18.028-.1q-26.6.021-53.208.082c-3.367,0-3.327-.013-3.326-3.444q.015-35.4-.04-70.8c0-1.881.45-2.6,2.438-2.593q35.729.068,71.458.014c3,0,2.976,0,2.974,3.088q-.015,17.591,0,35.181Zm-25.109,19.579c-1.975,0-3.952.038-5.926-.014-1.3-.034-1.882.482-1.872,1.8.028,3.952.014,7.9.011,11.855,0,1.339.584,2.011,2,2,3.8-.035,7.611-.025,11.416-.006,1.541.008,2.283-.657,2.268-2.245-.035-3.733-.063-7.466.01-11.2.032-1.625-.6-2.259-2.2-2.2C2375.469,28.532,2373.565,28.478,2371.663,28.474Zm-16.574-50.014c-.14-.246-.179-.413-.286-.491-4.645-3.429-15.262-3.531-19.847-.1a2,2,0,0,0-.24,1.916c1.789,3.016,3.651,6,5.66,8.867a3.491,3.491,0,0,0,2.323.848,23.605,23.605,0,0,0,4.17-.024c.754-.065,1.844-.219,2.159-.724C2351.152-14.638,2353.111-18.136,2355.089-21.541ZM2331.377-4.4V-4.4c-1.608,0-3.217.035-4.825-.01-1.639-.047-2.2.641-1.979,2.285a21.041,21.041,0,0,0,8.3,14.414c1.308,1.014,1.99.724,2.72-.591,1.171-2.107,2.36-4.212,3.7-6.211,1.5-2.245,3.1-4.372-.051-6.532a.3.3,0,0,1-.12-.18c-.547-3.344-2.935-3.439-5.554-3.177C2332.846-4.334,2332.108-4.4,2331.377-4.4Zm27.117.127v-.018a15.594,15.594,0,0,0-2.412.021c-1.575.247-3.446.192-4.611,1.053-1.294.956-1.974,2.773-2.828,4.267-.153.269.038.855.245,1.186,1.974,3.163,3.932,6.339,6.043,9.41a2.142,2.142,0,0,0,2.064.379,19.868,19.868,0,0,0,8.248-14.4c.129-1.306-.363-1.93-1.7-1.909C2361.86-4.249,2360.176-4.269,2358.493-4.269Zm13.028,21.093a11.847,11.847,0,0,0-1.42.43c-5.762,2.528-11.514,5.082-17.278,7.6-1.048.458-2.231.83-1.517,2.31.725,1.507,1.81.694,2.8.257,5.352-2.375,10.685-4.789,16.074-7.075a3.8,3.8,0,0,1,2.7.008c5.448,2.336,10.839,4.8,16.252,7.214.9.4,1.921,1.234,2.587-.219.615-1.34-.226-1.931-1.393-2.436-5.843-2.527-11.656-5.123-17.482-7.685A12.441,12.441,0,0,0,2371.522,16.824Zm-26.7-25.916a4.508,4.508,0,0,0-4.766,4.6,5.07,5.07,0,0,0,4.751,5.056,5.153,5.153,0,0,0,4.938-5.128A4.744,4.744,0,0,0,2344.823-9.092Z" transform="translate(-11059.488 -78.115)" fill="#fff"/>
    <path id="Trazado_187813" data-name="Trazado 187813" d="M2358.785,11.541c1.9,0,3.807.055,5.706-.014,1.6-.059,2.231.575,2.2,2.2-.073,3.73-.045,7.463-.01,11.2.015,1.588-.727,2.254-2.268,2.245-3.8-.02-7.611-.03-11.416.006-1.413.014-2-.657-2-2,0-3.951.017-7.9-.011-11.855-.01-1.316.577-1.832,1.872-1.8C2354.833,11.577,2356.81,11.539,2358.785,11.541Z" transform="translate(-11046.609 -61.18)"/>
    <path id="Trazado_187814" data-name="Trazado 187814" d="M2350.786-22.927c-1.978,3.4-3.937,6.9-6.062,10.3-.315.5-1.405.659-2.159.724a23.608,23.608,0,0,1-4.17.024,3.491,3.491,0,0,1-2.323-.848c-2.009-2.872-3.871-5.851-5.66-8.867a2,2,0,0,1,.24-1.916c4.585-3.434,15.2-3.333,19.847.1C2350.606-23.34,2350.646-23.173,2350.786-22.927Z" transform="translate(-11055.186 -76.729)"/>
    <path id="Trazado_187815" data-name="Trazado 187815" d="M2330.015-11.683c.731,0,1.469.062,2.193-.01,2.619-.262,5.007-.167,5.554,3.177a.3.3,0,0,0,.12.18c3.156,2.161,1.554,4.287.051,6.532-1.34,2-2.53,4.1-3.7,6.212-.731,1.315-1.413,1.6-2.72.591a21.041,21.041,0,0,1-8.3-14.414c-.221-1.644.341-2.332,1.979-2.285,1.608.045,3.217.01,4.825.01Z" transform="translate(-11058.127 -70.828)"/>
    <path id="Trazado_187816" data-name="Trazado 187816" d="M2350.088-11.606c1.683,0,3.367.02,5.049-.006,1.336-.021,1.828.6,1.7,1.909a19.868,19.868,0,0,1-8.248,14.4,2.142,2.142,0,0,1-2.064-.379c-2.111-3.071-4.069-6.247-6.043-9.41-.207-.331-.4-.918-.245-1.186.854-1.495,1.534-3.311,2.828-4.267,1.165-.861,3.036-.806,4.611-1.053a15.594,15.594,0,0,1,2.412-.021Z" transform="translate(-11051.082 -70.779)"/>
    <path id="Trazado_187817" data-name="Trazado 187817" d="M2362.384,3.3a12.441,12.441,0,0,1,1.315.409c5.827,2.562,11.64,5.158,17.482,7.685,1.166.5,2.008,1.1,1.393,2.436-.666,1.454-1.685.622-2.587.219-5.413-2.416-10.8-4.878-16.252-7.214a3.8,3.8,0,0,0-2.7-.008c-5.389,2.286-10.722,4.7-16.074,7.075-.986.437-2.07,1.25-2.8-.257-.714-1.48.469-1.852,1.517-2.31,5.764-2.522,11.517-5.076,17.278-7.6A11.847,11.847,0,0,1,2362.384,3.3Z" transform="translate(-11050.35 -64.586)"/>
    <path id="Trazado_187818" data-name="Trazado 187818" d="M2338.916-15.034a4.744,4.744,0,0,1,4.922,4.53,5.153,5.153,0,0,1-4.937,5.128,5.07,5.07,0,0,1-4.751-5.056A4.508,4.508,0,0,1,2338.916-15.034Z" transform="translate(-11053.58 -72.174)"/>
    <path id="Trazado_187735" data-name="Trazado 187735" d="M2457.044-170.972c0-13.269.039-26.537-.041-39.806-.013-1.971.943-2.11,2.44-2.105q23.863.051,47.724.051c10.116,0,20.232.016,30.35-.062,1.805-.013,2.419.522,2.414,2.383q-.1,38.484-.072,76.973c0,4.365,0,4.348-4.253,4.346q-37.937-.013-75.875-.01c-2.739,0-2.682-.038-2.674-2.843.042-12.976.019-25.952.019-38.926Zm3.416-.264h-.034c0,12.167.025,24.336-.028,36.5-.007,1.714.741,2.152,2.259,2.132q7.367-.093,14.734-.085,28.257.025,56.516.1c1.72.006,2.709-.266,2.7-2.387-.062-22.944-.035-45.888-.04-68.831,0-5.585-.01-5.584-5.583-5.585q-34.085,0-68.172-.031c-1.557,0-2.411.188-2.4,2.124C2460.5-195.28,2460.46-183.257,2460.46-171.236Z" transform="translate(-10902.724 -154.078)"/>
    <path id="Trazado_187755" data-name="Trazado 187755" d="M2459.466-172.252c0-12.021.042-24.044-.042-36.064-.014-1.936.84-2.127,2.4-2.124q34.086.051,68.172.031c5.574,0,5.582,0,5.583,5.585,0,22.943-.022,45.887.04,68.831.006,2.121-.983,2.392-2.7,2.387q-28.257-.087-56.516-.1-7.369-.006-14.734.085c-1.519.02-2.267-.419-2.259-2.132.053-12.167.028-24.336.028-36.5Zm23.012,23.091v-.069c-1.465,0-2.932.054-4.394-.016-1.479-.069-2.183.518-2.168,2.03.031,3.077-.079,6.158.093,9.226a2.423,2.423,0,0,0,1.622,1.707c3.142.168,6.3.078,9.448.071,1.385,0,1.938-.7,1.876-2.084-.081-1.828-.026-3.662-.041-5.495-.055-6.274.631-5.4-5.337-5.37C2483.211-149.158,2482.844-149.161,2482.478-149.161Zm16.6-32.415a5.386,5.386,0,0,0,5.416-5.23,5.617,5.617,0,0,0-5.379-5.356,5.464,5.464,0,0,0-5.247,5.213A5.2,5.2,0,0,0,2499.078-181.576Zm.438,32.708.16-.855a7.137,7.137,0,0,0-1.5-1.275c-4.861-2.2-9.731-4.385-14.648-6.452a3.527,3.527,0,0,0-2.448.2q-7.061,3.007-14.035,6.219c-.622.287-.984,1.138-1.466,1.729.8.158,1.756.677,2.387.417,3.981-1.649,7.932-3.386,11.808-5.27a5.594,5.594,0,0,1,5.378-.051c4.006,1.95,8.109,3.7,12.215,5.439C2497.964-148.514,2498.794-148.82,2499.516-148.868Zm31.175-4.9c-.428-.571-.735-1.049-1.109-1.468-7.223-8.078-14.435-16.163-21.723-24.181-.462-.509-1.521-.475-2.3-.694.183.74.144,1.67.587,2.19,2.182,2.562,4.515,5,6.753,7.514,5.06,5.687,10.087,11.4,15.164,17.076a2.046,2.046,0,0,0,1.471.6C2529.9-152.752,2530.233-153.328,2530.691-153.763Zm-66.653-22.9c.532-.127.747-.175.959-.23,7.655-2,15.32-3.966,22.951-6.056.69-.189,1.165-1.169,1.739-1.782-.819-.191-1.712-.694-2.443-.519-4.129.99-8.212,2.159-12.321,3.235-3.541.928-7.1,1.769-10.627,2.761a2.26,2.26,0,0,0-1.275,1.428C2462.94-177.52,2463.74-176.984,2464.039-176.663Zm67.774-1.461c.269-.215,1.058-.55,1.1-.963s-.556-1.117-1.035-1.335a14.884,14.884,0,0,0-2.75-.723c-5.911-1.384-11.812-2.8-17.742-4.1-.806-.177-2.411.086-2.512.457-.429,1.562,1.043,1.6,2.054,1.844,3.987.942,7.986,1.834,11.979,2.752C2525.758-179.534,2528.605-178.869,2531.813-178.124Zm-38.16-.686c-.351-.414-.7-1.1-.95-1.068a3.14,3.14,0,0,0-1.813.8c-4.317,4.676-8.6,9.379-12.81,14.152-.478.543-.413,1.564-.6,2.363.768-.263,1.779-.3,2.267-.823,4.341-4.653,8.591-9.39,12.861-14.108C2492.942-177.865,2493.229-178.275,2493.653-178.81Zm7.324,8.581h-.063c0-1.824-.04-3.648.014-5.471.035-1.188-.229-2.059-1.612-2.057-1.312,0-1.951.553-1.922,2.013.072,3.644.045,7.292-.042,10.937-.032,1.373.639,1.849,1.82,1.9,1.251.051,1.868-.522,1.821-1.854C2500.929-166.582,2500.977-168.406,2500.977-170.229Zm-26.885-26.547c-.225.175-.863.433-.9.758a1.733,1.733,0,0,0,.553,1.438,26.784,26.784,0,0,0,3.205,1.38c3.571,1.483,7.124,3.013,10.729,4.406.6.229,1.42-.137,2.138-.228-.083-.527-.013-1.42-.27-1.526C2484.5-192.645,2479.416-194.652,2474.092-196.776Zm35.359,7.412c.507-.129.721-.175.93-.239,4.69-1.415,9.393-2.8,14.052-4.306.54-.175.844-1.085,1.257-1.653-.676-.221-1.444-.768-2.012-.607-3.727,1.051-7.409,2.257-11.108,3.406a29.361,29.361,0,0,0-3.33,1.059,1.628,1.628,0,0,0-.756,1.336C2508.534-189.957,2509.178-189.624,2509.451-189.364Zm-12.081-11.9.15,0c-.058.943-.1,1.888-.175,2.829-.108,1.346.737,2.025,1.83,1.838a2.53,2.53,0,0,0,1.709-1.653,28.5,28.5,0,0,0,0-6.087c-.072-.669-1.046-1.24-1.608-1.855-.635.624-1.562,1.144-1.828,1.9A9.538,9.538,0,0,0,2497.37-201.263Zm8.481,6.9c.32-.13.588-.156.71-.3,1.626-1.96,3.268-3.911,4.795-5.946.17-.225-.211-1.2-.565-1.386a1.6,1.6,0,0,0-1.5.324c-1.492,1.7-2.9,3.473-4.263,5.28a1.7,1.7,0,0,0-.139,1.38C2505-194.707,2505.546-194.554,2505.851-194.363Zm-11.7-1.21a3.079,3.079,0,0,0-.283-.788c-1.515-1.858-3.01-3.737-4.616-5.513a1.541,1.541,0,0,0-1.517.021,1.53,1.53,0,0,0-.164,1.5c1.379,1.874,2.849,3.682,4.367,5.444a1.51,1.51,0,0,0,1.331.324C2493.651-194.717,2493.895-195.271,2494.148-195.574Z" transform="translate(-10901.73 -153.063)" fill="#fff"/>
    <path id="Trazado_187819" data-name="Trazado 187819" d="M2477.646-167.075c.366,0,.733,0,1.1,0,5.968-.033,5.283-.9,5.337,5.37.016,1.832-.039,3.666.041,5.495.062,1.389-.491,2.081-1.876,2.084-3.152.007-6.306.1-9.448-.071a2.423,2.423,0,0,1-1.622-1.707c-.173-3.068-.062-6.149-.093-9.226-.015-1.513.689-2.1,2.168-2.03,1.462.069,2.93.016,4.394.016Z" transform="translate(-10896.897 -135.148)"/>
    <path id="Trazado_187820" data-name="Trazado 187820" d="M2488.988-186.927a5.2,5.2,0,0,1-5.21-5.373,5.464,5.464,0,0,1,5.247-5.213,5.617,5.617,0,0,1,5.379,5.356A5.386,5.386,0,0,1,2488.988-186.927Z" transform="translate(-10891.641 -147.711)"/>
    <path id="Trazado_187821" data-name="Trazado 187821" d="M2497.708-164.339c-.723.048-1.552.353-2.148.1-4.106-1.735-8.209-3.49-12.215-5.439a5.594,5.594,0,0,0-5.378.051c-3.876,1.883-7.827,3.621-11.808,5.27-.631.26-1.583-.259-2.387-.417.482-.591.844-1.442,1.466-1.729q6.967-3.22,14.035-6.219a3.527,3.527,0,0,1,2.448-.2c4.918,2.067,9.787,4.252,14.648,6.452a7.137,7.137,0,0,1,1.5,1.275Z" transform="translate(-10899.922 -137.592)"/>
    <path id="Trazado_187822" data-name="Trazado 187822" d="M2517.179-162.644c-.458.435-.788,1.011-1.158,1.038a2.046,2.046,0,0,1-1.471-.6c-5.077-5.671-10.1-11.389-15.164-17.076-2.238-2.517-4.572-4.952-6.753-7.514-.442-.52-.4-1.451-.587-2.19.781.219,1.84.185,2.3.694,7.287,8.019,14.5,16.1,21.723,24.181C2516.444-163.693,2516.751-163.215,2517.179-162.644Z" transform="translate(-10888.218 -144.182)"/>
    <path id="Trazado_187823" data-name="Trazado 187823" d="M2462.981-184.027c-.3-.321-1.1-.857-1.018-1.162a2.26,2.26,0,0,1,1.275-1.428c3.522-.993,7.087-1.834,10.627-2.761,4.109-1.076,8.193-2.245,12.321-3.235.731-.175,1.625.328,2.443.519-.574.612-1.049,1.592-1.739,1.782-7.631,2.09-15.3,4.057-22.951,6.056C2463.728-184.2,2463.513-184.155,2462.981-184.027Z" transform="translate(-10900.673 -145.699)"/>
    <path id="Trazado_187824" data-name="Trazado 187824" d="M2517.352-185.485c-3.207-.745-6.054-1.41-8.905-2.066-3.993-.918-7.991-1.81-11.979-2.752-1.011-.239-2.483-.281-2.054-1.844.1-.37,1.706-.633,2.512-.457,5.93,1.3,11.832,2.713,17.742,4.1a14.884,14.884,0,0,1,2.75.723c.479.218,1.079.916,1.035,1.335S2517.62-185.7,2517.352-185.485Z" transform="translate(-10887.27 -145.701)"/>
    <path id="Trazado_187825" data-name="Trazado 187825" d="M2488.361-187.757c-.424.534-.711.945-1.045,1.312-4.27,4.718-8.52,9.455-12.861,14.108-.488.523-1.5.56-2.267.823.187-.8.121-1.82.6-2.363,4.206-4.773,8.493-9.476,12.81-14.152a3.14,3.14,0,0,1,1.813-.8C2487.662-188.857,2488.01-188.171,2488.361-187.757Z" transform="translate(-10896.438 -144.115)"/>
    <path id="Trazado_187826" data-name="Trazado 187826" d="M2489.868-179.8c0,1.823-.048,3.647.016,5.466.047,1.332-.57,1.9-1.821,1.854-1.181-.048-1.852-.525-1.82-1.9.088-3.645.115-7.293.042-10.937-.03-1.461.609-2.012,1.922-2.013,1.382,0,1.647.87,1.612,2.057-.054,1.823-.014,3.647-.014,5.471Z" transform="translate(-10890.62 -143.494)"/>
    <path id="Trazado_187827" data-name="Trazado 187827" d="M2470.057-200.776c5.323,2.124,10.408,4.13,15.456,6.228.258.106.187,1,.27,1.526-.718.091-1.543.457-2.138.228-3.605-1.393-7.159-2.923-10.729-4.406a26.784,26.784,0,0,1-3.205-1.38,1.733,1.733,0,0,1-.553-1.438C2469.195-200.343,2469.833-200.6,2470.057-200.776Z" transform="translate(-10897.695 -149.063)"/>
    <path id="Trazado_187828" data-name="Trazado 187828" d="M2495.083-193.533c-.273-.26-.917-.594-.967-1a1.629,1.629,0,0,1,.756-1.336,29.365,29.365,0,0,1,3.33-1.059c3.7-1.15,7.381-2.356,11.108-3.406.568-.161,1.336.386,2.012.607-.413.568-.717,1.478-1.257,1.653-4.659,1.51-9.362,2.89-14.052,4.306C2495.8-193.709,2495.591-193.662,2495.083-193.533Z" transform="translate(-10887.362 -148.893)"/>
    <path id="Trazado_187829" data-name="Trazado 187829" d="M2486.281-202.508a9.531,9.531,0,0,1,.075-3.027c.266-.754,1.193-1.274,1.828-1.9.561.615,1.536,1.186,1.607,1.855a28.5,28.5,0,0,1,0,6.087,2.53,2.53,0,0,1-1.709,1.653c-1.093.187-1.937-.492-1.83-1.838.075-.942.117-1.886.175-2.829Z" transform="translate(-10890.642 -151.818)"/>
    <path id="Trazado_187830" data-name="Trazado 187830" d="M2492.559-196.813c-.305-.191-.851-.344-.96-.65a1.7,1.7,0,0,1,.139-1.38c1.362-1.807,2.771-3.582,4.263-5.28a1.6,1.6,0,0,1,1.5-.324c.355.184.735,1.161.565,1.386-1.527,2.035-3.169,3.986-4.795,5.946C2493.147-196.968,2492.878-196.943,2492.559-196.813Z" transform="translate(-10888.438 -150.613)"/>
    <path id="Trazado_187831" data-name="Trazado 187831" d="M2485.94-198.026c-.253.3-.5.857-.882.984a1.511,1.511,0,0,1-1.331-.324c-1.519-1.762-2.989-3.57-4.367-5.444a1.531,1.531,0,0,1,.164-1.5,1.541,1.541,0,0,1,1.518-.021c1.606,1.776,3.1,3.655,4.616,5.513A3.079,3.079,0,0,1,2485.94-198.026Z" transform="translate(-10893.521 -150.611)"/>
    <path id="Trazado_187737" data-name="Trazado 187737" d="M2401.145-82.5c0,13.194-.037,26.387.038,39.581.013,2.026-1.049,2.043-2.5,2.042q-37.714-.032-75.427-.025c-1.246,0-2.494.014-3.737.085-1.475.083-2.044-.437-2.039-2.035q.108-39.471.1-78.942c0-2.624.07-2.672,2.674-2.672q39.141,0,78.283-.065c1.622,0,2.636.221,2.627,2.233-.057,13.266-.03,26.533-.03,39.8Zm-3.388.031h-.023q0-16.719-.006-33.439c-.007-5.08-.033-5.072-5.169-5.073q-34.542-.013-69.08-.062c-1.957,0-2.636.508-2.63,2.629q.114,35.748-.011,71.5c-.007,2.011.543,2.842,2.587,2.743s4.106,0,6.159,0q32.669-.009,65.34-.017c1.542,0,2.884.093,2.869-2.206C2397.715-58.418,2397.757-70.444,2397.757-82.469Z" transform="translate(-11060.48 -117.502)"/>
    <path id="Trazado_187757" data-name="Trazado 187757" d="M2396.774-83.491c0,12.026-.042,24.051.036,36.076.016,2.3-1.326,2.206-2.869,2.206q-32.671,0-65.34.017c-2.053,0-4.11-.1-6.159,0s-2.595-.732-2.588-2.743q.11-35.75.011-71.5c-.006-2.121.673-2.633,2.63-2.629q34.54.085,69.08.062c5.137,0,5.163-.007,5.169,5.073q.026,16.719.006,33.439Zm-14.94-.888a6.012,6.012,0,0,0-.175-1.192,4.1,4.1,0,0,0-.58-.926c-5.462-6.815-12.419-11.07-21.151-12.18-1.374-.174-1.922-.655-1.913-2.066,0-.547-.646-1.1-1-1.646-.373.527-1.051,1.051-1.061,1.585-.025,1.355-.449,1.967-1.875,2.114-9.131.939-16.275,5.39-21.827,12.566a16.75,16.75,0,0,0-1.085,2.172c3.884-1.575,6.831-1.154,8.655,1.121,2.37-.776,4.308-1.934,6.22-1.89,1.884.044,3.737,1.305,5.8,2.107a14.431,14.431,0,0,1,1.916-1.753c1.22-.826,2.176-.549,2.175,1.083-.006,8.358-.023,16.716-.123,25.074a4.6,4.6,0,0,1-3.745,4.3c-2.026.256-3.777-1.2-4.614-3.582-.235-.669-1-1.152-1.521-1.721-.352.793-1.071,1.623-1,2.373a6.89,6.89,0,0,0,7.112,6.148,6.547,6.547,0,0,0,6.141-6.777c.024-8.211-.069-16.42-.075-24.631a14.848,14.848,0,0,1,.4-2.463,8.154,8.154,0,0,1,2.342,1.222c1.018,1.069,1.615.933,2.7.008a8.517,8.517,0,0,1,3.492-1.5c2.588-.618,4.409.912,6.208,3.051C2375.3-85.664,2378.528-85.063,2381.834-84.379ZM2347.1-101.918l.823.153c.768-1.2,1.558-2.39,2.252-3.632.051-.089-.826-.865-.882-.822a25.444,25.444,0,0,0-3.109,2.733C2346.063-103.357,2346.773-102.459,2347.1-101.918Zm16.934-6.318-.88-.875a22.043,22.043,0,0,0-3.051,2.125c-.364.345-.2,1.244-.274,1.892.676.033,1.657.362,1.967.041A22.3,22.3,0,0,0,2364.033-108.235Zm5.258-7.347.328-1.059c-.475-.144-1.131-.563-1.394-.387a24.383,24.383,0,0,0-3.208,2.627c-.039.035.751.953,1.156,1.461Zm13.674,15.534c1.128-1.586,1.947-2.682,2.657-3.843a3.427,3.427,0,0,0-1.012-.939,20.538,20.538,0,0,0-2.965,2.585C2381.525-102.114,2382.255-101.208,2382.966-100.048Zm-3.552-11.979c-1.079-.491-1.728-.967-1.9-.833-1.018.8-1.925,1.735-2.868,2.626a17.556,17.556,0,0,0,1.273,1.329C2376.986-109.747,2377.97-110.691,2379.414-112.027Zm-5.3,8.045c-1.067-.519-1.715-1.017-1.885-.887-1.044.8-1.979,1.735-2.951,2.626a12.917,12.917,0,0,0,1.3,1.325C2371.663-101.735,2372.655-102.671,2374.115-103.982Z" transform="translate(-11059.497 -116.479)" fill="#fff"/>
    <path id="Trazado_187834" data-name="Trazado 187834" d="M2378.522-90.139c-3.307-.684-6.537-1.285-8.58,2.592-1.8-2.139-3.62-3.669-6.208-3.051a8.517,8.517,0,0,0-3.492,1.5c-1.086.925-1.682,1.06-2.7-.008a8.154,8.154,0,0,0-2.342-1.222,14.848,14.848,0,0,0-.4,2.463c.006,8.211.1,16.42.075,24.631a6.547,6.547,0,0,1-6.141,6.777,6.89,6.89,0,0,1-7.112-6.148c-.075-.749.644-1.579,1-2.373.522.568,1.287,1.052,1.521,1.721.837,2.383,2.587,3.837,4.614,3.582a4.6,4.6,0,0,0,3.745-4.3c.1-8.358.117-16.716.123-25.074,0-1.632-.955-1.909-2.175-1.083a14.431,14.431,0,0,0-1.916,1.753c-2.063-.8-3.917-2.063-5.8-2.107-1.912-.044-3.85,1.114-6.22,1.89-1.824-2.275-4.771-2.7-8.655-1.121a16.75,16.75,0,0,1,1.085-2.172c5.552-7.176,12.7-11.627,21.827-12.566,1.425-.147,1.849-.759,1.875-2.114.01-.534.687-1.058,1.061-1.585.352.549,1,1.1,1,1.646-.009,1.411.539,1.892,1.913,2.066,8.733,1.11,15.689,5.365,21.151,12.18a4.1,4.1,0,0,1,.58.926A6.012,6.012,0,0,1,2378.522-90.139Z" transform="translate(-11056.185 -110.719)"/>
    <path id="Trazado_187835" data-name="Trazado 187835" d="M2339.4-106.556c-.326-.542-1.037-1.439-.916-1.568a25.444,25.444,0,0,1,3.109-2.733c.057-.044.933.732.882.822-.694,1.243-1.485,2.431-2.252,3.632Z" transform="translate(-11051.793 -111.84)"/>
    <path id="Trazado_187836" data-name="Trazado 187836" d="M2352.33-112.028a22.3,22.3,0,0,1-2.238,3.183c-.31.321-1.291-.008-1.967-.041.075-.648-.089-1.547.274-1.892a22.043,22.043,0,0,1,3.051-2.125Z" transform="translate(-11047.795 -112.688)"/>
    <path id="Trazado_187837" data-name="Trazado 187837" d="M2356.07-117.044l-3.119,2.641c-.4-.508-1.195-1.425-1.156-1.461a24.383,24.383,0,0,1,3.208-2.627c.263-.175.919.243,1.394.387Z" transform="translate(-11046.275 -115.018)"/>
    <path id="Trazado_187838" data-name="Trazado 187838" d="M2364.879-105.093c-.711-1.159-1.441-2.066-1.321-2.2a20.564,20.564,0,0,1,2.965-2.585,3.421,3.421,0,0,1,1.012.939C2366.827-107.776,2366.008-106.68,2364.879-105.093Z" transform="translate(-11041.411 -111.434)"/>
    <path id="Trazado_187839" data-name="Trazado 187839" d="M2363.372-114.715c-1.444,1.336-2.428,2.281-3.492,3.122a17.556,17.556,0,0,1-1.273-1.329c.943-.891,1.85-1.83,2.868-2.626C2361.644-115.683,2362.293-115.206,2363.372-114.715Z" transform="translate(-11043.455 -113.791)"/>
    <path id="Trazado_187840" data-name="Trazado 187840" d="M2359.645-109.01c-1.459,1.311-2.452,2.247-3.534,3.064a12.917,12.917,0,0,1-1.3-1.325c.971-.891,1.907-1.83,2.951-2.626C2357.93-110.027,2358.577-109.529,2359.645-109.01Z" transform="translate(-11045.027 -111.451)"/>
    <path id="Trazado_187739" data-name="Trazado 187739" d="M2457.03-82.686c0-13.2.039-26.394-.04-39.591-.013-2.05.973-2.254,2.579-2.244,11.07.069,22.141.132,33.212.123q22.433-.015,44.866-.153c1.736-.01,2.274.66,2.272,2.36q-.03,39.7.061,79.4c.005,1.906-1.055,1.92-2.407,1.917q-29.254-.042-58.509-.058c-6.6,0-13.2-.018-19.8.052-1.814.02-2.275-.536-2.258-2.439.12-13.123.064-26.247.064-39.37Zm3.451-.03h.024c0,11.88.021,23.759-.016,35.637-.009,2.736.024,2.89,2.728,2.893q20.569.023,41.137.028c9.9,0,19.8-.025,29.7-.013,1.5,0,2.552-.243,2.549-2.131q-.057-36.3-.024-72.592c0-1.7-.786-2.121-2.293-2.12q-35.856.038-71.716.007c-1.646,0-2.127.6-2.118,2.213C2460.506-106.767,2460.481-94.741,2460.481-82.715Z" transform="translate(-10902.729 -117.508)"/>
    <path id="Trazado_187759" data-name="Trazado 187759" d="M2459.468-83.751c0-12.026.025-24.051-.031-36.077-.009-1.618.472-2.214,2.118-2.213q35.858.042,71.716-.007c1.507,0,2.3.416,2.293,2.12q-.034,36.3.024,72.592c0,1.888-1.046,2.132-2.549,2.131-9.9-.013-19.8.013-29.7.013q-20.569,0-41.137-.028c-2.7,0-2.736-.157-2.728-2.893.037-11.879.016-23.757.016-35.637Zm40.624-25.446h.065c0-2.565.031-5.131-.009-7.7-.035-2.322-1.84-1.567-3.088-1.657-1.229-.088-2.331-.042-2.28,1.782.119,4.174.1,8.352.112,12.53.011,3.6,0,3.594-3.275,4.894a6.716,6.716,0,0,0-1.584.754,21.315,21.315,0,0,0-1.782,1.671c.659.665,1.215,1.577,2.012,1.907.563.235,1.506-.212,2.187-.542,1.8-.874,2.38-.591,2.438,1.415a41.126,41.126,0,0,1-.03,5.707,2.492,2.492,0,0,1-1.61,1.753,50.6,50.6,0,0,1-6.581,0c-1.306-.055-1.667-.773-.99-1.93a10.385,10.385,0,0,0,.683-1.126c.7-1.65-.531-2.5-1.606-3.149-.269-.161-1.452.747-1.871,1.387a9.057,9.057,0,0,0-1.076,2.862c-.369,1.561-1.237,2.1-2.839,2.053-4.688-.129-9.382-.062-14.07-.189-1.8-.048-2.128.855-2.006,2.32.111,1.362-.54,3.138,1.913,3.1,4.762-.065,9.527-.006,14.288-.14a2.262,2.262,0,0,1,2.558,1.811,29.892,29.892,0,0,0,1.63,4.069,1.73,1.73,0,0,0,1.463.768,2.736,2.736,0,0,0,1.413-3.747,13.839,13.839,0,0,1-.59-2.391c.83-.136,1.656-.3,2.489-.4a10.828,10.828,0,0,1,1.318.028c5.526.055,5.526.055,5.493,5.734-.021,3.734.016,3.582-3.476,2.742-.836-.2-2.007.986-3.023,1.534.478.662.823,1.544,1.465,1.933a16,16,0,0,0,3.272,1.241,2.349,2.349,0,0,1,1.825,2.6c-.1,4.615.027,9.237-.151,13.848-.081,2.071.93,2.3,2.529,2.281,1.547-.018,2.95.093,2.866-2.2-.133-3.587.21-7.208-.133-10.767-.351-3.641.357-6.141,4.431-6.623a.785.785,0,0,0,.393-.188c.621-.533,1.232-1.08,1.845-1.622-.7-.721-1.28-1.724-2.128-2.067-.6-.242-1.588.344-2.354.674-1.591.687-2.156.345-2.159-1.4,0-1.9.065-3.811-.031-5.71-.088-1.7.681-2.227,2.252-2.1a34.261,34.261,0,0,0,3.514.085c3.815-.072,3.815-.085,2.735,3.386-.044.14-.165.329-.115.413.584.953,1.195,1.89,1.8,2.832.605-.477,1.417-.834,1.768-1.452a18.721,18.721,0,0,0,1.35-3.467,2.257,2.257,0,0,1,2.565-1.8c4.688.129,9.382.013,14.07.124,2.321.055,2.108-1.405,2.146-2.923.04-1.63-.254-2.616-2.292-2.531-4.025.167-8.061.078-12.092.107-3.689.028-3.685.035-5.027-3.473a4.119,4.119,0,0,0-.65-1.384c-.565-.592-1.681-1.6-1.855-1.475-1.067.786-2.368,1.619-1.535,3.381,1.346,2.853,1.214,3.023-1.871,2.882-.365-.017-.732-.023-1.1-.023-5.64.008-5.64.008-5.564-5.592.048-3.524.019-3.367,3.471-2.718.868.164,1.991-1.034,3-1.606-.455-.618-.786-1.438-1.393-1.806a10.411,10.411,0,0,0-3.246-1.284c-1.554-.315-1.994-1.1-1.909-2.621C2500.186-104.648,2500.092-106.924,2500.092-109.2Z" transform="translate(-10901.717 -116.473)" fill="#fff"/>
    <path id="Trazado_187848" data-name="Trazado 187848" d="M2499.087-110.207c0,2.272.094,4.549-.034,6.814-.085,1.517.355,2.306,1.909,2.621a10.411,10.411,0,0,1,3.246,1.284c.607.368.938,1.188,1.393,1.806-1.005.573-2.128,1.77-3,1.606-3.453-.649-3.423-.806-3.471,2.718-.076,5.6-.076,5.6,5.564,5.592.366,0,.734.006,1.1.023,3.085.141,3.217-.028,1.871-2.882-.833-1.762.468-2.595,1.535-3.381.174-.129,1.29.882,1.855,1.475a4.119,4.119,0,0,1,.65,1.384c1.342,3.508,1.338,3.5,5.027,3.473,4.031-.03,8.067.059,12.092-.107,2.038-.085,2.332.9,2.292,2.531-.038,1.517.174,2.978-2.146,2.923-4.688-.112-9.382,0-14.07-.124a2.257,2.257,0,0,0-2.565,1.8,18.721,18.721,0,0,1-1.35,3.467c-.351.618-1.162.976-1.768,1.452-.6-.942-1.214-1.879-1.8-2.832-.051-.083.071-.273.115-.413,1.08-3.471,1.08-3.459-2.735-3.386a34.261,34.261,0,0,1-3.514-.085c-1.571-.13-2.34.4-2.252,2.1.1,1.9.03,3.806.031,5.71,0,1.745.568,2.087,2.159,1.4.766-.331,1.755-.916,2.354-.674.848.344,1.431,1.346,2.128,2.067-.614.542-1.225,1.089-1.845,1.622a.785.785,0,0,1-.393.188c-4.074.482-4.782,2.982-4.431,6.623.343,3.559,0,7.18.133,10.767.083,2.295-1.319,2.183-2.866,2.2-1.6.021-2.61-.209-2.529-2.281.178-4.611.047-9.233.151-13.848a2.349,2.349,0,0,0-1.825-2.6,16,16,0,0,1-3.272-1.241c-.642-.389-.987-1.271-1.465-1.933,1.017-.549,2.188-1.735,3.023-1.534,3.491.84,3.454.993,3.476-2.742.032-5.678.032-5.678-5.493-5.734a10.828,10.828,0,0,0-1.318-.028c-.833.1-1.659.26-2.489.4a13.839,13.839,0,0,0,.59,2.391,2.736,2.736,0,0,1-1.413,3.747,1.73,1.73,0,0,1-1.463-.768,29.892,29.892,0,0,1-1.63-4.069,2.262,2.262,0,0,0-2.558-1.811c-4.761.134-9.526.075-14.288.14-2.453.034-1.8-1.742-1.913-3.1-.122-1.465.209-2.368,2.006-2.32,4.688.127,9.382.061,14.07.189,1.6.045,2.47-.492,2.839-2.053a9.057,9.057,0,0,1,1.076-2.862c.418-.641,1.6-1.548,1.871-1.387,1.075.65,2.311,1.5,1.606,3.149a10.385,10.385,0,0,1-.683,1.126c-.677,1.157-.317,1.875.99,1.93a50.6,50.6,0,0,0,6.581,0,2.492,2.492,0,0,0,1.61-1.753,41.126,41.126,0,0,0,.03-5.707c-.058-2.006-.636-2.289-2.438-1.415-.681.329-1.625.776-2.187.542-.8-.331-1.353-1.243-2.012-1.907a21.315,21.315,0,0,1,1.782-1.671,6.716,6.716,0,0,1,1.584-.754c3.272-1.3,3.286-1.3,3.275-4.894-.014-4.178.007-8.356-.112-12.53-.051-1.824,1.052-1.869,2.28-1.782,1.249.09,3.053-.665,3.088,1.657.04,2.565.009,5.131.009,7.7Z" transform="translate(-10900.711 -115.463)"/>
    <path id="Trazado_210575" data-name="Trazado 210575" d="M23.344,11.977H18.57V17h-1.5V5.625h7.047V6.852H18.57v3.9h4.773ZM29.57,9.844a4.331,4.331,0,0,0-.711-.055A1.9,1.9,0,0,0,26.93,11v6H25.484V8.547h1.406l.023.977A2.251,2.251,0,0,1,28.93,8.391a1.477,1.477,0,0,1,.641.109ZM36.117,17a3.036,3.036,0,0,1-.2-.891,3.225,3.225,0,0,1-2.406,1.047,2.984,2.984,0,0,1-2.051-.707,2.287,2.287,0,0,1-.8-1.793,2.39,2.39,0,0,1,1-2.051,4.733,4.733,0,0,1,2.824-.73h1.406v-.664A1.623,1.623,0,0,0,35.438,10,1.821,1.821,0,0,0,34.1,9.555a2.107,2.107,0,0,0-1.3.391,1.151,1.151,0,0,0-.523.945H30.828a2,2,0,0,1,.449-1.223A3.066,3.066,0,0,1,32.5,8.734a4.1,4.1,0,0,1,1.691-.344,3.342,3.342,0,0,1,2.289.73,2.635,2.635,0,0,1,.859,2.012v3.891a4.757,4.757,0,0,0,.3,1.852V17Zm-2.4-1.1a2.54,2.54,0,0,0,1.289-.352,2.127,2.127,0,0,0,.883-.914V12.9H34.758q-2.656,0-2.656,1.555a1.316,1.316,0,0,0,.453,1.063A1.742,1.742,0,0,0,33.719,15.9ZM35.055,5H36.8L34.711,7.3l-1.164,0Zm4.2,7.7a4.968,4.968,0,0,1,.914-3.145,3.151,3.151,0,0,1,4.836-.074l.07-.937H46.4V16.8a3.439,3.439,0,0,1-.973,2.586,3.589,3.589,0,0,1-2.613.945,4.348,4.348,0,0,1-1.789-.391,3.08,3.08,0,0,1-1.336-1.07l.75-.867a2.826,2.826,0,0,0,2.273,1.148,2.214,2.214,0,0,0,1.645-.594,2.269,2.269,0,0,0,.59-1.672v-.727a2.971,2.971,0,0,1-2.367,1,2.887,2.887,0,0,1-2.4-1.2A5.224,5.224,0,0,1,39.258,12.7Zm1.453.164a3.79,3.79,0,0,0,.586,2.246,1.9,1.9,0,0,0,1.641.816,2.117,2.117,0,0,0,2.008-1.242V10.828a2.142,2.142,0,0,0-1.992-1.211,1.921,1.921,0,0,0-1.648.82A4.128,4.128,0,0,0,40.711,12.867ZM50.148,17H48.7V8.547h1.445ZM48.586,6.3a.863.863,0,0,1,.215-.594.807.807,0,0,1,.637-.242.819.819,0,0,1,.641.242A.854.854,0,0,1,50.3,6.3a.826.826,0,0,1-.219.586.834.834,0,0,1-.641.234.821.821,0,0,1-.637-.234A.834.834,0,0,1,48.586,6.3ZM54.031,17H52.586V5h1.445Z" transform="translate(-8738 -272)" fill="#12263f"/>
    <path id="Trazado_210576" data-name="Trazado 210576" d="M3.875,12.547V17h-1.5V5.625h4.2A4.215,4.215,0,0,1,9.5,6.578,3.231,3.231,0,0,1,10.555,9.1,3.189,3.189,0,0,1,9.52,11.652a4.4,4.4,0,0,1-2.965.895Zm0-1.227h2.7a2.7,2.7,0,0,0,1.844-.567,2.075,2.075,0,0,0,.641-1.64,2.143,2.143,0,0,0-.641-1.628,2.525,2.525,0,0,0-1.758-.634H3.875ZM16.328,9.844a4.331,4.331,0,0,0-.711-.055A1.9,1.9,0,0,0,13.688,11v6H12.242V8.547h1.406l.023.977a2.251,2.251,0,0,1,2.016-1.133,1.477,1.477,0,0,1,.641.109Zm.789,2.852a4.993,4.993,0,0,1,.488-2.234A3.643,3.643,0,0,1,18.965,8.93a3.7,3.7,0,0,1,1.988-.539,3.565,3.565,0,0,1,2.793,1.2,4.6,4.6,0,0,1,1.066,3.18v.1a5.036,5.036,0,0,1-.473,2.215,3.589,3.589,0,0,1-1.352,1.527,3.743,3.743,0,0,1-2.02.547,3.556,3.556,0,0,1-2.785-1.2A4.575,4.575,0,0,1,17.117,12.8Zm1.453.172a3.616,3.616,0,0,0,.652,2.258,2.211,2.211,0,0,0,3.5-.012,3.955,3.955,0,0,0,.648-2.418,3.61,3.61,0,0,0-.66-2.254,2.1,2.1,0,0,0-1.754-.863,2.075,2.075,0,0,0-1.727.852A3.925,3.925,0,0,0,18.57,12.867ZM28.586,6.5V8.547h1.578V9.664H28.586v5.249a1.173,1.173,0,0,0,.211.763.888.888,0,0,0,.719.254,3.5,3.5,0,0,0,.688-.094V17a4.215,4.215,0,0,1-1.109.155,1.8,1.8,0,0,1-1.461-.586,2.517,2.517,0,0,1-.492-1.664V9.664H25.6V8.547h1.539V6.5Zm6.773,10.656a3.693,3.693,0,0,1-2.8-1.129,4.19,4.19,0,0,1-1.078-3.02v-.266a5.073,5.073,0,0,1,.48-2.246,3.748,3.748,0,0,1,1.344-1.547,3.378,3.378,0,0,1,1.871-.559,3.166,3.166,0,0,1,2.563,1.086,4.7,4.7,0,0,1,.914,3.109v.6H32.93a3,3,0,0,0,.73,2.02,2.3,2.3,0,0,0,1.777.77,2.517,2.517,0,0,0,1.3-.312,3.259,3.259,0,0,0,.93-.828l.883.688A3.55,3.55,0,0,1,35.359,17.156Zm-.18-7.578a1.928,1.928,0,0,0-1.469.637A3.1,3.1,0,0,0,32.977,12h4.234v-.109a2.753,2.753,0,0,0-.594-1.707A1.815,1.815,0,0,0,35.18,9.578ZM35.883,5h1.75L35.539,7.3l-1.164,0ZM41.82,8.547v9.43q0,2.438-2.211,2.438a2.7,2.7,0,0,1-.883-.14V19.125a2.794,2.794,0,0,0,.656.063.982.982,0,0,0,.738-.262,1.3,1.3,0,0,0,.254-.911V8.547ZM40.227,6.3a.867.867,0,0,1,.215-.59.79.79,0,0,1,.629-.246.819.819,0,0,1,.641.242.854.854,0,0,1,.219.594.826.826,0,0,1-.219.586.834.834,0,0,1-.641.234.808.808,0,0,1-.633-.234A.843.843,0,0,1,40.227,6.3ZM49.367,17a3.036,3.036,0,0,1-.2-.891,3.225,3.225,0,0,1-2.406,1.047,2.984,2.984,0,0,1-2.051-.707,2.287,2.287,0,0,1-.8-1.793,2.39,2.39,0,0,1,1-2.051,4.733,4.733,0,0,1,2.824-.73h1.406v-.664A1.623,1.623,0,0,0,48.688,10a1.821,1.821,0,0,0-1.336-.449,2.107,2.107,0,0,0-1.3.391,1.151,1.151,0,0,0-.523.945H44.078a2,2,0,0,1,.449-1.223,3.066,3.066,0,0,1,1.219-.934,4.1,4.1,0,0,1,1.691-.344,3.342,3.342,0,0,1,2.289.73,2.635,2.635,0,0,1,.859,2.012v3.891a4.757,4.757,0,0,0,.3,1.852V17Zm-2.4-1.1a2.54,2.54,0,0,0,1.289-.352,2.127,2.127,0,0,0,.883-.914V12.9H48.008q-2.656,0-2.656,1.555a1.316,1.316,0,0,0,.453,1.063A1.742,1.742,0,0,0,46.969,15.9Zm10.8-1.141a1.064,1.064,0,0,0-.441-.91,4.249,4.249,0,0,0-1.539-.559,7.277,7.277,0,0,1-1.742-.562,2.479,2.479,0,0,1-.953-.781,1.869,1.869,0,0,1-.309-1.078,2.193,2.193,0,0,1,.879-1.758,3.432,3.432,0,0,1,2.246-.719,3.532,3.532,0,0,1,2.332.742,2.357,2.357,0,0,1,.895,1.9H57.688a1.3,1.3,0,0,0-.5-1.023,1.888,1.888,0,0,0-1.27-.43,1.976,1.976,0,0,0-1.234.344,1.082,1.082,0,0,0-.445.9.877.877,0,0,0,.414.789,5.1,5.1,0,0,0,1.5.508A7.8,7.8,0,0,1,57.9,12.7a2.558,2.558,0,0,1,1,.809,1.988,1.988,0,0,1,.324,1.152,2.163,2.163,0,0,1-.906,1.816,3.8,3.8,0,0,1-2.352.684,4.257,4.257,0,0,1-1.8-.359,2.922,2.922,0,0,1-1.223-1A2.42,2.42,0,0,1,52.5,14.4h1.445a1.5,1.5,0,0,0,.582,1.152,2.258,2.258,0,0,0,1.434.426,2.331,2.331,0,0,0,1.316-.332A1.02,1.02,0,0,0,57.773,14.758Zm6.836,2.4a3.693,3.693,0,0,1-2.8-1.129,4.19,4.19,0,0,1-1.078-3.02v-.266a5.073,5.073,0,0,1,.48-2.246,3.748,3.748,0,0,1,1.344-1.547,3.378,3.378,0,0,1,1.871-.559,3.166,3.166,0,0,1,2.563,1.086,4.7,4.7,0,0,1,.914,3.109v.6H62.18a3,3,0,0,0,.73,2.02,2.3,2.3,0,0,0,1.777.77,2.517,2.517,0,0,0,1.3-.312,3.259,3.259,0,0,0,.93-.828l.883.688A3.55,3.55,0,0,1,64.609,17.156Zm-.18-7.578a1.928,1.928,0,0,0-1.469.637A3.1,3.1,0,0,0,62.227,12h4.234v-.109a2.753,2.753,0,0,0-.594-1.707A1.815,1.815,0,0,0,64.43,9.578ZM73.188,12.7a4.952,4.952,0,0,1,.922-3.129,3.137,3.137,0,0,1,4.766-.168V5H80.32V17H78.992l-.07-.906a2.943,2.943,0,0,1-2.414,1.063,2.887,2.887,0,0,1-2.395-1.2,5.008,5.008,0,0,1-.926-3.141Zm1.445.164a3.749,3.749,0,0,0,.594,2.25,1.92,1.92,0,0,0,1.641.813A2.108,2.108,0,0,0,78.875,14.7V10.813a2.125,2.125,0,0,0-1.992-1.2,1.929,1.929,0,0,0-1.656.82A4.128,4.128,0,0,0,74.633,12.867ZM86.07,17.156a3.693,3.693,0,0,1-2.8-1.129,4.19,4.19,0,0,1-1.078-3.02v-.266a5.073,5.073,0,0,1,.48-2.246A3.748,3.748,0,0,1,84.02,8.949a3.378,3.378,0,0,1,1.871-.559,3.166,3.166,0,0,1,2.563,1.086,4.7,4.7,0,0,1,.914,3.109v.6H83.641a3,3,0,0,0,.73,2.02,2.3,2.3,0,0,0,1.777.77,2.517,2.517,0,0,0,1.3-.312,3.259,3.259,0,0,0,.93-.828l.883.688A3.55,3.55,0,0,1,86.07,17.156Zm-.18-7.578a1.928,1.928,0,0,0-1.469.637A3.1,3.1,0,0,0,83.688,12h4.234v-.109a2.753,2.753,0,0,0-.594-1.707A1.815,1.815,0,0,0,85.891,9.578ZM6.449,37H5V25H6.449Zm7.531,0a3.036,3.036,0,0,1-.2-.891,3.225,3.225,0,0,1-2.406,1.047,2.984,2.984,0,0,1-2.051-.707,2.287,2.287,0,0,1-.8-1.793,2.39,2.39,0,0,1,1-2.051,4.733,4.733,0,0,1,2.824-.73h1.406v-.664A1.623,1.623,0,0,0,13.3,30a1.821,1.821,0,0,0-1.336-.449,2.108,2.108,0,0,0-1.3.391,1.151,1.151,0,0,0-.523.945H8.691a2,2,0,0,1,.449-1.223,3.066,3.066,0,0,1,1.219-.934,4.1,4.1,0,0,1,1.691-.344,3.342,3.342,0,0,1,2.289.73,2.635,2.635,0,0,1,.859,2.012v3.891a4.757,4.757,0,0,0,.3,1.852V37Zm-2.4-1.1a2.54,2.54,0,0,0,1.289-.352,2.127,2.127,0,0,0,.883-.914V32.9H12.621q-2.656,0-2.656,1.555a1.316,1.316,0,0,0,.453,1.063A1.742,1.742,0,0,0,11.582,35.9ZM22.871,29.57a3.073,3.073,0,0,1,2.5-1.18q2.68,0,2.7,3.023V37H26.629V31.406a1.946,1.946,0,0,0-.418-1.352,1.675,1.675,0,0,0-1.277-.437,2.086,2.086,0,0,0-1.234.375,2.546,2.546,0,0,0-.828.984V37H21.426V25h1.445Zm12.586,6.594a3.07,3.07,0,0,1-2.477.992,2.628,2.628,0,0,1-2.059-.785,3.4,3.4,0,0,1-.715-2.324v-5.5h1.445v5.461q0,1.922,1.563,1.922a2.163,2.163,0,0,0,2.2-1.234V28.547h1.445V37H35.488Zm4.961-7.617.039.938a3.122,3.122,0,0,1,2.508-1.094,2.417,2.417,0,0,1,2.414,1.359,3.2,3.2,0,0,1,1.1-.984,3.242,3.242,0,0,1,1.6-.375q2.781,0,2.828,2.945V37H49.457V31.422a1.941,1.941,0,0,0-.414-1.355,1.823,1.823,0,0,0-1.391-.449,1.916,1.916,0,0,0-1.336.48,1.949,1.949,0,0,0-.617,1.293V37H44.246V31.461a1.613,1.613,0,0,0-1.8-1.844A1.934,1.934,0,0,0,40.5,30.828V37H39.051V28.547ZM56.59,37.156a3.693,3.693,0,0,1-2.8-1.129,4.19,4.19,0,0,1-1.078-3.02v-.266A5.073,5.073,0,0,1,53.2,30.5a3.748,3.748,0,0,1,1.344-1.547,3.378,3.378,0,0,1,1.871-.559,3.166,3.166,0,0,1,2.563,1.086,4.7,4.7,0,0,1,.914,3.109v.6H54.16a3,3,0,0,0,.73,2.02,2.3,2.3,0,0,0,1.777.77,2.517,2.517,0,0,0,1.3-.312,3.258,3.258,0,0,0,.93-.828l.883.688A3.55,3.55,0,0,1,56.59,37.156Zm-.18-7.578a1.928,1.928,0,0,0-1.469.637A3.1,3.1,0,0,0,54.207,32h4.234v-.109a2.753,2.753,0,0,0-.594-1.707A1.815,1.815,0,0,0,56.41,29.578Zm4.8,3.125a4.952,4.952,0,0,1,.922-3.129,3.137,3.137,0,0,1,4.766-.168V25H68.34V37H67.012l-.07-.906a2.943,2.943,0,0,1-2.414,1.063,2.887,2.887,0,0,1-2.395-1.2,5.008,5.008,0,0,1-.926-3.141Zm1.445.164a3.749,3.749,0,0,0,.594,2.25,1.92,1.92,0,0,0,1.641.813A2.108,2.108,0,0,0,66.895,34.7V30.813a2.125,2.125,0,0,0-1.992-1.2,1.929,1.929,0,0,0-1.656.82A4.128,4.128,0,0,0,62.652,32.867ZM75.8,37a3.036,3.036,0,0,1-.2-.891,3.225,3.225,0,0,1-2.406,1.047,2.984,2.984,0,0,1-2.051-.707,2.288,2.288,0,0,1-.8-1.793,2.39,2.39,0,0,1,1-2.051,4.733,4.733,0,0,1,2.824-.73h1.406v-.664A1.623,1.623,0,0,0,75.121,30a1.821,1.821,0,0,0-1.336-.449,2.108,2.108,0,0,0-1.3.391,1.151,1.151,0,0,0-.523.945H70.512a2,2,0,0,1,.449-1.223,3.066,3.066,0,0,1,1.219-.934,4.1,4.1,0,0,1,1.691-.344,3.342,3.342,0,0,1,2.289.73,2.635,2.635,0,0,1,.859,2.012v3.891a4.757,4.757,0,0,0,.3,1.852V37Zm-2.4-1.1a2.54,2.54,0,0,0,1.289-.352,2.127,2.127,0,0,0,.883-.914V32.9H74.441q-2.656,0-2.656,1.555a1.316,1.316,0,0,0,.453,1.063A1.742,1.742,0,0,0,73.4,35.9Zm5.531-3.2a4.952,4.952,0,0,1,.922-3.129,3.137,3.137,0,0,1,4.766-.168V25h1.445V37H84.738l-.07-.906a2.943,2.943,0,0,1-2.414,1.063,2.887,2.887,0,0,1-2.395-1.2,5.008,5.008,0,0,1-.926-3.141Zm1.445.164a3.749,3.749,0,0,0,.594,2.25,1.92,1.92,0,0,0,1.641.813A2.108,2.108,0,0,0,84.621,34.7V30.813a2.125,2.125,0,0,0-1.992-1.2,1.929,1.929,0,0,0-1.656.82A4.128,4.128,0,0,0,80.379,32.867Z" transform="translate(-8747 -154)" fill="#12263f"/>
    <path id="Trazado_210577" data-name="Trazado 210577" d="M22,14.023H17.238L16.168,17H14.621L18.965,5.625h1.313L24.629,17H23.09ZM17.691,12.8h3.867l-1.937-5.32ZM27.5,17H26.059V5H27.5Zm5.82.156a3.693,3.693,0,0,1-2.8-1.129,4.19,4.19,0,0,1-1.078-3.02v-.266a5.073,5.073,0,0,1,.48-2.246,3.748,3.748,0,0,1,1.344-1.547,3.378,3.378,0,0,1,1.871-.559,3.166,3.166,0,0,1,2.563,1.086,4.7,4.7,0,0,1,.914,3.109v.6H30.895a3,3,0,0,0,.73,2.02,2.3,2.3,0,0,0,1.777.77,2.517,2.517,0,0,0,1.3-.312,3.259,3.259,0,0,0,.93-.828l.883.688A3.55,3.55,0,0,1,33.324,17.156Zm-.18-7.578a1.928,1.928,0,0,0-1.469.637A3.1,3.1,0,0,0,30.941,12h4.234v-.109a2.753,2.753,0,0,0-.594-1.707A1.815,1.815,0,0,0,33.145,9.578Zm6.641-1.031v9.43q0,2.438-2.211,2.438a2.7,2.7,0,0,1-.883-.14V19.125a2.794,2.794,0,0,0,.656.063.982.982,0,0,0,.738-.262,1.3,1.3,0,0,0,.254-.911V8.547ZM38.191,6.3a.867.867,0,0,1,.215-.59.79.79,0,0,1,.629-.246.819.819,0,0,1,.641.242.854.854,0,0,1,.219.594.826.826,0,0,1-.219.586.834.834,0,0,1-.641.234.808.808,0,0,1-.633-.234A.843.843,0,0,1,38.191,6.3ZM47.332,17a3.036,3.036,0,0,1-.2-.891,3.225,3.225,0,0,1-2.406,1.047,2.984,2.984,0,0,1-2.051-.707,2.287,2.287,0,0,1-.8-1.793,2.39,2.39,0,0,1,1-2.051,4.733,4.733,0,0,1,2.824-.73h1.406v-.664A1.623,1.623,0,0,0,46.652,10a1.821,1.821,0,0,0-1.336-.449,2.107,2.107,0,0,0-1.3.391,1.151,1.151,0,0,0-.523.945H42.043a2,2,0,0,1,.449-1.223,3.066,3.066,0,0,1,1.219-.934A4.1,4.1,0,0,1,45.4,8.391a3.342,3.342,0,0,1,2.289.73,2.635,2.635,0,0,1,.859,2.012v3.891a4.757,4.757,0,0,0,.3,1.852V17Zm-2.4-1.1a2.54,2.54,0,0,0,1.289-.352,2.127,2.127,0,0,0,.883-.914V12.9H45.973q-2.656,0-2.656,1.555a1.316,1.316,0,0,0,.453,1.063A1.742,1.742,0,0,0,44.934,15.9ZM54.9,9.844a4.331,4.331,0,0,0-.711-.055A1.9,1.9,0,0,0,52.262,11v6H50.816V8.547h1.406l.023.977a2.251,2.251,0,0,1,2.016-1.133A1.477,1.477,0,0,1,54.9,8.5ZM59.84,12.7a4.952,4.952,0,0,1,.922-3.129,3.137,3.137,0,0,1,4.766-.168V5h1.445V17H65.645l-.07-.906a2.943,2.943,0,0,1-2.414,1.063,2.887,2.887,0,0,1-2.395-1.2,5.008,5.008,0,0,1-.926-3.141Zm1.445.164a3.749,3.749,0,0,0,.594,2.25,1.92,1.92,0,0,0,1.641.813A2.108,2.108,0,0,0,65.527,14.7V10.813a2.125,2.125,0,0,0-1.992-1.2,1.929,1.929,0,0,0-1.656.82A4.128,4.128,0,0,0,61.285,12.867Zm11.438,4.289a3.693,3.693,0,0,1-2.8-1.129,4.19,4.19,0,0,1-1.078-3.02v-.266a5.073,5.073,0,0,1,.48-2.246,3.748,3.748,0,0,1,1.344-1.547,3.378,3.378,0,0,1,1.871-.559,3.166,3.166,0,0,1,2.563,1.086,4.7,4.7,0,0,1,.914,3.109v.6H70.293a3,3,0,0,0,.73,2.02,2.3,2.3,0,0,0,1.777.77,2.517,2.517,0,0,0,1.3-.312,3.259,3.259,0,0,0,.93-.828l.883.688A3.55,3.55,0,0,1,72.723,17.156Zm-.18-7.578a1.928,1.928,0,0,0-1.469.637A3.1,3.1,0,0,0,70.34,12h4.234v-.109a2.753,2.753,0,0,0-.594-1.707A1.815,1.815,0,0,0,72.543,9.578ZM20.488,37V29.664H19.152V28.547h1.336V27.68a2.878,2.878,0,0,1,.727-2.1,2.745,2.745,0,0,1,2.055-.742,3.816,3.816,0,0,1,.992.132l-.078,1.165a4.151,4.151,0,0,0-.781-.07,1.41,1.41,0,0,0-1.086.411,1.669,1.669,0,0,0-.383,1.18v.893h1.8v1.117h-1.8V37Zm10.063-.836a3.07,3.07,0,0,1-2.477.992,2.628,2.628,0,0,1-2.059-.785,3.4,3.4,0,0,1-.715-2.324v-5.5h1.445v5.461q0,1.922,1.563,1.922a2.163,2.163,0,0,0,2.2-1.234V28.547h1.445V37H30.582Zm7.109.992a3.693,3.693,0,0,1-2.8-1.129,4.19,4.19,0,0,1-1.078-3.02v-.266a5.073,5.073,0,0,1,.48-2.246,3.748,3.748,0,0,1,1.344-1.547,3.378,3.378,0,0,1,1.871-.559,3.166,3.166,0,0,1,2.563,1.086,4.7,4.7,0,0,1,.914,3.109v.6H35.23a3,3,0,0,0,.73,2.02,2.3,2.3,0,0,0,1.777.77,2.517,2.517,0,0,0,1.3-.312,3.258,3.258,0,0,0,.93-.828l.883.688A3.55,3.55,0,0,1,37.66,37.156Zm-.18-7.578a1.928,1.928,0,0,0-1.469.637A3.1,3.1,0,0,0,35.277,32h4.234v-.109a2.753,2.753,0,0,0-.594-1.707A1.815,1.815,0,0,0,37.48,29.578ZM44,28.547l.047,1.063a3.08,3.08,0,0,1,2.531-1.219q2.68,0,2.7,3.023V37H47.832V31.406a1.946,1.946,0,0,0-.418-1.352,1.675,1.675,0,0,0-1.277-.437,2.086,2.086,0,0,0-1.234.375,2.546,2.546,0,0,0-.828.984V37H42.629V28.547ZM53.418,26.5v2.047H55v1.117H53.418v5.249a1.173,1.173,0,0,0,.211.763.888.888,0,0,0,.719.254,3.5,3.5,0,0,0,.688-.094V37a4.215,4.215,0,0,1-1.109.155,1.8,1.8,0,0,1-1.461-.586,2.517,2.517,0,0,1-.492-1.664V29.664H50.434V28.547h1.539V26.5Zm6.773,10.656a3.693,3.693,0,0,1-2.8-1.129,4.19,4.19,0,0,1-1.078-3.02v-.266A5.073,5.073,0,0,1,56.8,30.5a3.748,3.748,0,0,1,1.344-1.547,3.378,3.378,0,0,1,1.871-.559,3.166,3.166,0,0,1,2.563,1.086,4.7,4.7,0,0,1,.914,3.109v.6H57.762a3,3,0,0,0,.73,2.02,2.3,2.3,0,0,0,1.777.77,2.517,2.517,0,0,0,1.3-.312,3.258,3.258,0,0,0,.93-.828l.883.688A3.55,3.55,0,0,1,60.191,37.156Zm-.18-7.578a1.928,1.928,0,0,0-1.469.637A3.1,3.1,0,0,0,57.809,32h4.234v-.109a2.753,2.753,0,0,0-.594-1.707A1.815,1.815,0,0,0,60.012,29.578Zm10.07,5.18a1.064,1.064,0,0,0-.441-.91,4.249,4.249,0,0,0-1.539-.559,7.277,7.277,0,0,1-1.742-.562,2.479,2.479,0,0,1-.953-.781,1.869,1.869,0,0,1-.309-1.078,2.193,2.193,0,0,1,.879-1.758,3.432,3.432,0,0,1,2.246-.719,3.532,3.532,0,0,1,2.332.742,2.357,2.357,0,0,1,.895,1.9H70a1.3,1.3,0,0,0-.5-1.023,1.888,1.888,0,0,0-1.27-.43,1.976,1.976,0,0,0-1.234.344,1.082,1.082,0,0,0-.445.9.877.877,0,0,0,.414.789,5.1,5.1,0,0,0,1.5.508,7.8,7.8,0,0,1,1.754.578,2.558,2.558,0,0,1,1,.809,1.988,1.988,0,0,1,.324,1.152,2.163,2.163,0,0,1-.906,1.816,3.8,3.8,0,0,1-2.352.684,4.257,4.257,0,0,1-1.8-.359,2.922,2.922,0,0,1-1.223-1,2.42,2.42,0,0,1-.441-1.395h1.445a1.5,1.5,0,0,0,.582,1.152,2.258,2.258,0,0,0,1.434.426,2.331,2.331,0,0,0,1.316-.332A1.02,1.02,0,0,0,70.082,34.758Z" transform="translate(-8750 -23)" fill="#12263f"/>
    <path id="Trazado_210578" data-name="Trazado 210578" d="M12,17H10.492V11.742H4.758V17h-1.5V5.625h1.5v4.891h5.734V5.625H12Zm7.656,0a3.036,3.036,0,0,1-.2-.891,3.225,3.225,0,0,1-2.406,1.047A2.984,2.984,0,0,1,15,16.449a2.287,2.287,0,0,1-.8-1.793,2.39,2.39,0,0,1,1-2.051,4.733,4.733,0,0,1,2.824-.73H19.43v-.664A1.623,1.623,0,0,0,18.977,10a1.821,1.821,0,0,0-1.336-.449,2.107,2.107,0,0,0-1.3.391,1.151,1.151,0,0,0-.523.945H14.367a2,2,0,0,1,.449-1.223,3.066,3.066,0,0,1,1.219-.934,4.1,4.1,0,0,1,1.691-.344,3.342,3.342,0,0,1,2.289.73,2.635,2.635,0,0,1,.859,2.012v3.891a4.757,4.757,0,0,0,.3,1.852V17Zm-2.4-1.1a2.54,2.54,0,0,0,1.289-.352,2.127,2.127,0,0,0,.883-.914V12.9H18.3q-2.656,0-2.656,1.555a1.316,1.316,0,0,0,.453,1.063A1.742,1.742,0,0,0,17.258,15.9Zm9.273.078a2.082,2.082,0,0,0,1.352-.469,1.649,1.649,0,0,0,.641-1.172h1.367a2.621,2.621,0,0,1-.5,1.383,3.293,3.293,0,0,1-1.23,1.047,3.55,3.55,0,0,1-1.629.391A3.482,3.482,0,0,1,23.785,16a4.59,4.59,0,0,1-1.02-3.152v-.242a5.089,5.089,0,0,1,.453-2.2,3.451,3.451,0,0,1,1.3-1.492,3.7,3.7,0,0,1,2-.531,3.39,3.39,0,0,1,2.363.852,3.043,3.043,0,0,1,1,2.211H28.523a1.992,1.992,0,0,0-.621-1.348,1.932,1.932,0,0,0-1.379-.527,2.023,2.023,0,0,0-1.707.793,3.724,3.724,0,0,0-.605,2.293v.273a3.65,3.65,0,0,0,.6,2.25A2.033,2.033,0,0,0,26.531,15.977ZM33.086,17H31.641V8.547h1.445ZM31.523,6.3a.863.863,0,0,1,.215-.594.807.807,0,0,1,.637-.242.819.819,0,0,1,.641.242.854.854,0,0,1,.219.594.826.826,0,0,1-.219.586.834.834,0,0,1-.641.234.821.821,0,0,1-.637-.234A.834.834,0,0,1,31.523,6.3ZM40.617,17a3.036,3.036,0,0,1-.2-.891,3.225,3.225,0,0,1-2.406,1.047,2.984,2.984,0,0,1-2.051-.707,2.287,2.287,0,0,1-.8-1.793,2.39,2.39,0,0,1,1-2.051,4.733,4.733,0,0,1,2.824-.73h1.406v-.664A1.623,1.623,0,0,0,39.938,10,1.821,1.821,0,0,0,38.6,9.555a2.107,2.107,0,0,0-1.3.391,1.151,1.151,0,0,0-.523.945H35.328a2,2,0,0,1,.449-1.223A3.066,3.066,0,0,1,37,8.734a4.1,4.1,0,0,1,1.691-.344,3.342,3.342,0,0,1,2.289.73,2.635,2.635,0,0,1,.859,2.012v3.891a4.757,4.757,0,0,0,.3,1.852V17Zm-2.4-1.1a2.54,2.54,0,0,0,1.289-.352,2.127,2.127,0,0,0,.883-.914V12.9H39.258q-2.656,0-2.656,1.555a1.316,1.316,0,0,0,.453,1.063A1.742,1.742,0,0,0,38.219,15.9ZM53.281,17a3.036,3.036,0,0,1-.2-.891,3.225,3.225,0,0,1-2.406,1.047,2.984,2.984,0,0,1-2.051-.707,2.287,2.287,0,0,1-.8-1.793,2.39,2.39,0,0,1,1-2.051,4.733,4.733,0,0,1,2.824-.73h1.406v-.664A1.623,1.623,0,0,0,52.6,10a1.821,1.821,0,0,0-1.336-.449,2.107,2.107,0,0,0-1.3.391,1.151,1.151,0,0,0-.523.945H47.992a2,2,0,0,1,.449-1.223,3.066,3.066,0,0,1,1.219-.934,4.1,4.1,0,0,1,1.691-.344,3.342,3.342,0,0,1,2.289.73,2.635,2.635,0,0,1,.859,2.012v3.891a4.757,4.757,0,0,0,.3,1.852V17Zm-2.4-1.1a2.54,2.54,0,0,0,1.289-.352,2.127,2.127,0,0,0,.883-.914V12.9H51.922q-2.656,0-2.656,1.555a1.316,1.316,0,0,0,.453,1.063A1.742,1.742,0,0,0,50.883,15.9Zm9.969-6.055a4.331,4.331,0,0,0-.711-.055A1.9,1.9,0,0,0,58.211,11v6H56.766V8.547h1.406l.023.977a2.251,2.251,0,0,1,2.016-1.133,1.477,1.477,0,0,1,.641.109Zm5.414,0a4.331,4.331,0,0,0-.711-.055A1.9,1.9,0,0,0,63.625,11v6H62.18V8.547h1.406l.023.977a2.251,2.251,0,0,1,2.016-1.133,1.477,1.477,0,0,1,.641.109ZM69.164,17H67.719V8.547h1.445ZM67.6,6.3a.863.863,0,0,1,.215-.594.807.807,0,0,1,.637-.242.819.819,0,0,1,.641.242.854.854,0,0,1,.219.594.826.826,0,0,1-.219.586.834.834,0,0,1-.641.234.821.821,0,0,1-.637-.234A.834.834,0,0,1,67.6,6.3Zm11.031,6.563a5.026,5.026,0,0,1-.891,3.113,2.846,2.846,0,0,1-2.391,1.176,2.947,2.947,0,0,1-2.477-1.133L72.8,17H71.477V5h1.445V9.477a2.93,2.93,0,0,1,2.414-1.086,2.863,2.863,0,0,1,2.418,1.164,5.177,5.177,0,0,1,.879,3.188ZM77.188,12.7a3.906,3.906,0,0,0-.57-2.281,1.888,1.888,0,0,0-1.641-.8,2.122,2.122,0,0,0-2.055,1.328V14.6a2.181,2.181,0,0,0,2.07,1.328,1.878,1.878,0,0,0,1.617-.8A4.153,4.153,0,0,0,77.188,12.7ZM85.672,17a3.036,3.036,0,0,1-.2-.891,3.225,3.225,0,0,1-2.406,1.047,2.984,2.984,0,0,1-2.051-.707,2.288,2.288,0,0,1-.8-1.793,2.39,2.39,0,0,1,1-2.051,4.733,4.733,0,0,1,2.824-.73h1.406v-.664A1.623,1.623,0,0,0,84.992,10a1.821,1.821,0,0,0-1.336-.449,2.108,2.108,0,0,0-1.3.391,1.151,1.151,0,0,0-.523.945H80.383a2,2,0,0,1,.449-1.223,3.066,3.066,0,0,1,1.219-.934,4.1,4.1,0,0,1,1.691-.344,3.342,3.342,0,0,1,2.289.73,2.635,2.635,0,0,1,.859,2.012v3.891a4.757,4.757,0,0,0,.3,1.852V17Zm-2.4-1.1a2.54,2.54,0,0,0,1.289-.352,2.127,2.127,0,0,0,.883-.914V12.9H84.313q-2.656,0-2.656,1.555a1.316,1.316,0,0,0,.453,1.063A1.742,1.742,0,0,0,83.273,15.9Z" transform="translate(-8596 -272)" fill="#12263f"/>
    <path id="Trazado_210579" data-name="Trazado 210579" d="M27.223,17H25.715L19.988,8.234V17H18.48V5.625h1.508l5.742,8.8v-8.8h1.492Zm2.055-4.3a4.993,4.993,0,0,1,.488-2.234A3.643,3.643,0,0,1,31.125,8.93a3.7,3.7,0,0,1,1.988-.539,3.565,3.565,0,0,1,2.793,1.2,4.6,4.6,0,0,1,1.066,3.18v.1a5.036,5.036,0,0,1-.473,2.215,3.589,3.589,0,0,1-1.352,1.527,3.743,3.743,0,0,1-2.02.547,3.556,3.556,0,0,1-2.785-1.2A4.575,4.575,0,0,1,29.277,12.8Zm1.453.172a3.616,3.616,0,0,0,.652,2.258,2.211,2.211,0,0,0,3.5-.012,3.955,3.955,0,0,0,.648-2.418,3.61,3.61,0,0,0-.66-2.254,2.1,2.1,0,0,0-1.754-.863,2.075,2.075,0,0,0-1.727.852A3.925,3.925,0,0,0,30.73,12.867Zm17.234,3.3a3.07,3.07,0,0,1-2.477.992,2.628,2.628,0,0,1-2.059-.785,3.4,3.4,0,0,1-.715-2.324v-5.5H44.16v5.461q0,1.922,1.563,1.922a2.163,2.163,0,0,0,2.2-1.234V8.547h1.445V17H48Zm8.523-1.406a1.064,1.064,0,0,0-.441-.91,4.249,4.249,0,0,0-1.539-.559,7.277,7.277,0,0,1-1.742-.562,2.479,2.479,0,0,1-.953-.781,1.869,1.869,0,0,1-.309-1.078,2.193,2.193,0,0,1,.879-1.758,3.432,3.432,0,0,1,2.246-.719,3.532,3.532,0,0,1,2.332.742,2.357,2.357,0,0,1,.895,1.9H56.4a1.3,1.3,0,0,0-.5-1.023,1.888,1.888,0,0,0-1.27-.43,1.976,1.976,0,0,0-1.234.344,1.082,1.082,0,0,0-.445.9.877.877,0,0,0,.414.789,5.1,5.1,0,0,0,1.5.508,7.8,7.8,0,0,1,1.754.578,2.558,2.558,0,0,1,1,.809,1.988,1.988,0,0,1,.324,1.152,2.163,2.163,0,0,1-.906,1.816,3.8,3.8,0,0,1-2.352.684,4.257,4.257,0,0,1-1.8-.359,2.922,2.922,0,0,1-1.223-1,2.42,2.42,0,0,1-.441-1.395H52.66a1.5,1.5,0,0,0,.582,1.152,2.258,2.258,0,0,0,1.434.426,2.331,2.331,0,0,0,1.316-.332A1.02,1.02,0,0,0,56.488,14.758ZM65.035,17a3.036,3.036,0,0,1-.2-.891,3.225,3.225,0,0,1-2.406,1.047,2.984,2.984,0,0,1-2.051-.707,2.287,2.287,0,0,1-.8-1.793,2.39,2.39,0,0,1,1-2.051,4.733,4.733,0,0,1,2.824-.73h1.406v-.664A1.623,1.623,0,0,0,64.355,10a1.821,1.821,0,0,0-1.336-.449,2.107,2.107,0,0,0-1.3.391,1.151,1.151,0,0,0-.523.945H59.746A2,2,0,0,1,60.2,9.668a3.066,3.066,0,0,1,1.219-.934,4.1,4.1,0,0,1,1.691-.344,3.342,3.342,0,0,1,2.289.73,2.635,2.635,0,0,1,.859,2.012v3.891a4.757,4.757,0,0,0,.3,1.852V17Zm-2.4-1.1a2.54,2.54,0,0,0,1.289-.352,2.127,2.127,0,0,0,.883-.914V12.9H63.676q-2.656,0-2.656,1.555a1.316,1.316,0,0,0,.453,1.063A1.742,1.742,0,0,0,62.637,15.9Zm9.969-6.055a4.331,4.331,0,0,0-.711-.055A1.9,1.9,0,0,0,69.965,11v6H68.52V8.547h1.406l.023.977a2.251,2.251,0,0,1,2.016-1.133,1.477,1.477,0,0,1,.641.109ZM19.34,32.7a4.968,4.968,0,0,1,.914-3.145,3.151,3.151,0,0,1,4.836-.074l.07-.937h1.32V36.8a3.439,3.439,0,0,1-.973,2.586,3.589,3.589,0,0,1-2.613.945,4.348,4.348,0,0,1-1.789-.391,3.08,3.08,0,0,1-1.336-1.07L20.52,38a2.826,2.826,0,0,0,2.273,1.148,2.214,2.214,0,0,0,1.645-.594,2.269,2.269,0,0,0,.59-1.672v-.727a2.971,2.971,0,0,1-2.367,1,2.887,2.887,0,0,1-2.4-1.2A5.224,5.224,0,0,1,19.34,32.7Zm1.453.164a3.79,3.79,0,0,0,.586,2.246,1.9,1.9,0,0,0,1.641.816,2.117,2.117,0,0,0,2.008-1.242V30.828a2.142,2.142,0,0,0-1.992-1.211,1.921,1.921,0,0,0-1.648.82A4.128,4.128,0,0,0,20.793,32.867ZM33.879,37a3.036,3.036,0,0,1-.2-.891,3.225,3.225,0,0,1-2.406,1.047,2.984,2.984,0,0,1-2.051-.707,2.287,2.287,0,0,1-.8-1.793,2.39,2.39,0,0,1,1-2.051,4.733,4.733,0,0,1,2.824-.73h1.406v-.664A1.623,1.623,0,0,0,33.2,30a1.821,1.821,0,0,0-1.336-.449,2.108,2.108,0,0,0-1.3.391,1.151,1.151,0,0,0-.523.945H28.59a2,2,0,0,1,.449-1.223,3.066,3.066,0,0,1,1.219-.934,4.1,4.1,0,0,1,1.691-.344,3.342,3.342,0,0,1,2.289.73,2.635,2.635,0,0,1,.859,2.012v3.891a4.757,4.757,0,0,0,.3,1.852V37Zm-2.4-1.1a2.54,2.54,0,0,0,1.289-.352,2.127,2.127,0,0,0,.883-.914V32.9H32.52q-2.656,0-2.656,1.555a1.316,1.316,0,0,0,.453,1.063A1.742,1.742,0,0,0,31.48,35.9Zm7.25-7.352.047,1.063a3.08,3.08,0,0,1,2.531-1.219q2.68,0,2.7,3.023V37H42.566V31.406a1.946,1.946,0,0,0-.418-1.352,1.675,1.675,0,0,0-1.277-.437,2.086,2.086,0,0,0-1.234.375,2.546,2.546,0,0,0-.828.984V37H37.363V28.547Zm10.852,7.43a2.082,2.082,0,0,0,1.352-.469,1.649,1.649,0,0,0,.641-1.172h1.367a2.621,2.621,0,0,1-.5,1.383,3.293,3.293,0,0,1-1.23,1.047,3.55,3.55,0,0,1-1.629.391A3.482,3.482,0,0,1,46.836,36a4.59,4.59,0,0,1-1.02-3.152v-.242a5.089,5.089,0,0,1,.453-2.2,3.451,3.451,0,0,1,1.3-1.492,3.7,3.7,0,0,1,2-.531,3.39,3.39,0,0,1,2.363.852,3.043,3.043,0,0,1,1,2.211H51.574a1.992,1.992,0,0,0-.621-1.348,1.932,1.932,0,0,0-1.379-.527,2.023,2.023,0,0,0-1.707.793,3.724,3.724,0,0,0-.605,2.293v.273a3.65,3.65,0,0,0,.6,2.25A2.033,2.033,0,0,0,49.582,35.977Zm6.43-6.406a3.073,3.073,0,0,1,2.5-1.18q2.68,0,2.7,3.023V37H59.77V31.406a1.946,1.946,0,0,0-.418-1.352,1.675,1.675,0,0,0-1.277-.437,2.086,2.086,0,0,0-1.234.375,2.546,2.546,0,0,0-.828.984V37H54.566V25h1.445ZM63,32.7a4.993,4.993,0,0,1,.488-2.234,3.643,3.643,0,0,1,1.359-1.531,3.7,3.7,0,0,1,1.988-.539,3.565,3.565,0,0,1,2.793,1.2,4.6,4.6,0,0,1,1.066,3.18v.1a5.036,5.036,0,0,1-.473,2.215,3.589,3.589,0,0,1-1.352,1.527,3.743,3.743,0,0,1-2.02.547,3.556,3.556,0,0,1-2.785-1.2A4.575,4.575,0,0,1,63,32.8Zm1.453.172a3.616,3.616,0,0,0,.652,2.258,2.211,2.211,0,0,0,3.5-.012,3.955,3.955,0,0,0,.648-2.418,3.61,3.61,0,0,0-.66-2.254,2.1,2.1,0,0,0-1.754-.863,2.075,2.075,0,0,0-1.727.852A3.925,3.925,0,0,0,64.449,32.867Z" transform="translate(-8596 -156)" fill="#12263f"/>
    <path id="Trazado_210580" data-name="Trazado 210580" d="M25.953,17H24.445L18.719,8.234V17H17.211V5.625h1.508l5.742,8.8v-8.8h1.492Zm2.055-4.3a4.993,4.993,0,0,1,.488-2.234A3.643,3.643,0,0,1,29.855,8.93a3.7,3.7,0,0,1,1.988-.539,3.565,3.565,0,0,1,2.793,1.2,4.6,4.6,0,0,1,1.066,3.18v.1a5.036,5.036,0,0,1-.473,2.215,3.589,3.589,0,0,1-1.352,1.527,3.743,3.743,0,0,1-2.02.547,3.556,3.556,0,0,1-2.785-1.2A4.575,4.575,0,0,1,28.008,12.8Zm1.453.172a3.616,3.616,0,0,0,.652,2.258,2.211,2.211,0,0,0,3.5-.012,3.955,3.955,0,0,0,.648-2.418,3.61,3.61,0,0,0-.66-2.254,2.1,2.1,0,0,0-1.754-.863,2.075,2.075,0,0,0-1.727.852A3.925,3.925,0,0,0,29.461,12.867Zm16.1-3.023a4.331,4.331,0,0,0-.711-.055A1.9,1.9,0,0,0,42.922,11v6H41.477V8.547h1.406l.023.977a2.251,2.251,0,0,1,2.016-1.133,1.477,1.477,0,0,1,.641.109Zm.789,2.852a4.993,4.993,0,0,1,.488-2.234A3.643,3.643,0,0,1,48.2,8.93a3.7,3.7,0,0,1,1.988-.539,3.565,3.565,0,0,1,2.793,1.2,4.6,4.6,0,0,1,1.066,3.18v.1a5.036,5.036,0,0,1-.473,2.215,3.589,3.589,0,0,1-1.352,1.527,3.743,3.743,0,0,1-2.02.547,3.556,3.556,0,0,1-2.785-1.2A4.575,4.575,0,0,1,46.352,12.8Zm1.453.172a3.616,3.616,0,0,0,.652,2.258,2.211,2.211,0,0,0,3.5-.012A3.955,3.955,0,0,0,52.6,12.7a3.61,3.61,0,0,0-.66-2.254,2.1,2.1,0,0,0-1.754-.863,2.075,2.075,0,0,0-1.727.852A3.925,3.925,0,0,0,47.8,12.867ZM57.82,6.5V8.547H59.4V9.664H57.82v5.249a1.173,1.173,0,0,0,.211.763.888.888,0,0,0,.719.254,3.5,3.5,0,0,0,.688-.094V17a4.215,4.215,0,0,1-1.109.155,1.8,1.8,0,0,1-1.461-.586,2.517,2.517,0,0,1-.492-1.664V9.664H54.836V8.547h1.539V6.5ZM66.3,17a3.036,3.036,0,0,1-.2-.891A3.225,3.225,0,0,1,63.7,17.156a2.984,2.984,0,0,1-2.051-.707,2.287,2.287,0,0,1-.8-1.793,2.39,2.39,0,0,1,1-2.051,4.733,4.733,0,0,1,2.824-.73h1.406v-.664A1.623,1.623,0,0,0,65.625,10a1.821,1.821,0,0,0-1.336-.449,2.107,2.107,0,0,0-1.3.391,1.151,1.151,0,0,0-.523.945H61.016a2,2,0,0,1,.449-1.223,3.066,3.066,0,0,1,1.219-.934,4.1,4.1,0,0,1,1.691-.344,3.342,3.342,0,0,1,2.289.73,2.635,2.635,0,0,1,.859,2.012v3.891a4.757,4.757,0,0,0,.3,1.852V17Zm-2.4-1.1a2.54,2.54,0,0,0,1.289-.352,2.127,2.127,0,0,0,.883-.914V12.9H64.945q-2.656,0-2.656,1.555a1.316,1.316,0,0,0,.453,1.063A1.742,1.742,0,0,0,63.906,15.9Zm9.969-6.055a4.331,4.331,0,0,0-.711-.055A1.9,1.9,0,0,0,71.234,11v6H69.789V8.547H71.2l.023.977a2.251,2.251,0,0,1,2.016-1.133,1.477,1.477,0,0,1,.641.109Z" transform="translate(-8596 -16)" fill="#12263f"/>
    <path id="Trazado_210581" data-name="Trazado 210581" d="M11.7,12.547V17H10.2V5.625h4.2a4.215,4.215,0,0,1,2.926.953A3.231,3.231,0,0,1,18.383,9.1a3.189,3.189,0,0,1-1.035,2.551,4.4,4.4,0,0,1-2.965.895Zm0-1.227h2.7a2.7,2.7,0,0,0,1.844-.567,2.075,2.075,0,0,0,.641-1.64,2.143,2.143,0,0,0-.641-1.628,2.525,2.525,0,0,0-1.758-.634H11.7ZM24.156,9.844a4.331,4.331,0,0,0-.711-.055A1.9,1.9,0,0,0,21.516,11v6H20.07V8.547h1.406l.023.977a2.251,2.251,0,0,1,2.016-1.133,1.477,1.477,0,0,1,.641.109Zm.789,2.852a4.993,4.993,0,0,1,.488-2.234A3.643,3.643,0,0,1,26.793,8.93a3.7,3.7,0,0,1,1.988-.539,3.565,3.565,0,0,1,2.793,1.2,4.6,4.6,0,0,1,1.066,3.18v.1a5.036,5.036,0,0,1-.473,2.215,3.589,3.589,0,0,1-1.352,1.527,3.743,3.743,0,0,1-2.02.547,3.556,3.556,0,0,1-2.785-1.2A4.575,4.575,0,0,1,24.945,12.8Zm1.453.172a3.616,3.616,0,0,0,.652,2.258,2.211,2.211,0,0,0,3.5-.012A3.955,3.955,0,0,0,31.2,12.7a3.61,3.61,0,0,0-.66-2.254,2.1,2.1,0,0,0-1.754-.863,2.075,2.075,0,0,0-1.727.852A3.925,3.925,0,0,0,26.4,12.867ZM36.414,6.5V8.547h1.578V9.664H36.414v5.249a1.173,1.173,0,0,0,.211.763.888.888,0,0,0,.719.254,3.5,3.5,0,0,0,.688-.094V17a4.215,4.215,0,0,1-1.109.155,1.8,1.8,0,0,1-1.461-.586,2.517,2.517,0,0,1-.492-1.664V9.664H33.43V8.547h1.539V6.5Zm6.773,10.656a3.693,3.693,0,0,1-2.8-1.129,4.19,4.19,0,0,1-1.078-3.02v-.266a5.073,5.073,0,0,1,.48-2.246,3.748,3.748,0,0,1,1.344-1.547,3.378,3.378,0,0,1,1.871-.559A3.166,3.166,0,0,1,45.57,9.477a4.7,4.7,0,0,1,.914,3.109v.6H40.758a3,3,0,0,0,.73,2.02,2.3,2.3,0,0,0,1.777.77,2.517,2.517,0,0,0,1.3-.312,3.259,3.259,0,0,0,.93-.828l.883.688A3.55,3.55,0,0,1,43.188,17.156Zm-.18-7.578a1.928,1.928,0,0,0-1.469.637A3.1,3.1,0,0,0,40.8,12h4.234v-.109a2.753,2.753,0,0,0-.594-1.707A1.815,1.815,0,0,0,43.008,9.578ZM43.711,5h1.75L43.367,7.3l-1.164,0Zm5.938,3.547v9.43q0,2.438-2.211,2.438a2.7,2.7,0,0,1-.883-.14V19.125a2.794,2.794,0,0,0,.656.063.982.982,0,0,0,.738-.262,1.3,1.3,0,0,0,.254-.911V8.547ZM48.055,6.3a.867.867,0,0,1,.215-.59.79.79,0,0,1,.629-.246.819.819,0,0,1,.641.242.854.854,0,0,1,.219.594.826.826,0,0,1-.219.586.834.834,0,0,1-.641.234.808.808,0,0,1-.633-.234A.843.843,0,0,1,48.055,6.3ZM57.2,17a3.036,3.036,0,0,1-.2-.891,3.225,3.225,0,0,1-2.406,1.047,2.984,2.984,0,0,1-2.051-.707,2.287,2.287,0,0,1-.8-1.793,2.39,2.39,0,0,1,1-2.051,4.733,4.733,0,0,1,2.824-.73h1.406v-.664A1.623,1.623,0,0,0,56.516,10a1.821,1.821,0,0,0-1.336-.449,2.107,2.107,0,0,0-1.3.391,1.151,1.151,0,0,0-.523.945H51.906a2,2,0,0,1,.449-1.223,3.066,3.066,0,0,1,1.219-.934,4.1,4.1,0,0,1,1.691-.344,3.342,3.342,0,0,1,2.289.73,2.635,2.635,0,0,1,.859,2.012v3.891a4.757,4.757,0,0,0,.3,1.852V17Zm-2.4-1.1a2.54,2.54,0,0,0,1.289-.352,2.127,2.127,0,0,0,.883-.914V12.9H55.836q-2.656,0-2.656,1.555a1.316,1.316,0,0,0,.453,1.063A1.742,1.742,0,0,0,54.8,15.9Zm10.8-1.141a1.064,1.064,0,0,0-.441-.91,4.249,4.249,0,0,0-1.539-.559,7.277,7.277,0,0,1-1.742-.562,2.479,2.479,0,0,1-.953-.781,1.869,1.869,0,0,1-.309-1.078A2.193,2.193,0,0,1,61.5,9.109a3.432,3.432,0,0,1,2.246-.719,3.532,3.532,0,0,1,2.332.742,2.357,2.357,0,0,1,.895,1.9H65.516a1.3,1.3,0,0,0-.5-1.023,1.888,1.888,0,0,0-1.27-.43,1.976,1.976,0,0,0-1.234.344,1.082,1.082,0,0,0-.445.9.877.877,0,0,0,.414.789,5.1,5.1,0,0,0,1.5.508,7.8,7.8,0,0,1,1.754.578,2.558,2.558,0,0,1,1,.809,1.988,1.988,0,0,1,.324,1.152,2.163,2.163,0,0,1-.906,1.816,3.8,3.8,0,0,1-2.352.684,4.257,4.257,0,0,1-1.8-.359,2.922,2.922,0,0,1-1.223-1,2.42,2.42,0,0,1-.441-1.395h1.445a1.5,1.5,0,0,0,.582,1.152,2.258,2.258,0,0,0,1.434.426,2.331,2.331,0,0,0,1.316-.332A1.02,1.02,0,0,0,65.6,14.758Zm6.836,2.4a3.693,3.693,0,0,1-2.8-1.129,4.19,4.19,0,0,1-1.078-3.02v-.266a5.073,5.073,0,0,1,.48-2.246,3.748,3.748,0,0,1,1.344-1.547,3.378,3.378,0,0,1,1.871-.559A3.166,3.166,0,0,1,74.82,9.477a4.7,4.7,0,0,1,.914,3.109v.6H70.008a3,3,0,0,0,.73,2.02,2.3,2.3,0,0,0,1.777.77,2.517,2.517,0,0,0,1.3-.312,3.259,3.259,0,0,0,.93-.828l.883.688A3.55,3.55,0,0,1,72.438,17.156Zm-.18-7.578a1.928,1.928,0,0,0-1.469.637A3.1,3.1,0,0,0,70.055,12h4.234v-.109a2.753,2.753,0,0,0-.594-1.707A1.815,1.815,0,0,0,72.258,9.578ZM81.016,12.7a4.952,4.952,0,0,1,.922-3.129A3.137,3.137,0,0,1,86.7,9.406V5h1.445V17H86.82l-.07-.906a2.943,2.943,0,0,1-2.414,1.063,2.887,2.887,0,0,1-2.395-1.2,5.008,5.008,0,0,1-.926-3.141Zm1.445.164a3.749,3.749,0,0,0,.594,2.25,1.92,1.92,0,0,0,1.641.813A2.108,2.108,0,0,0,86.7,14.7V10.813a2.125,2.125,0,0,0-1.992-1.2,1.929,1.929,0,0,0-1.656.82A4.128,4.128,0,0,0,82.461,12.867ZM93.9,17.156a3.693,3.693,0,0,1-2.8-1.129,4.19,4.19,0,0,1-1.078-3.02v-.266A5.073,5.073,0,0,1,90.5,10.5a3.748,3.748,0,0,1,1.344-1.547,3.378,3.378,0,0,1,1.871-.559,3.166,3.166,0,0,1,2.563,1.086,4.7,4.7,0,0,1,.914,3.109v.6H91.469a3,3,0,0,0,.73,2.02,2.3,2.3,0,0,0,1.777.77,2.517,2.517,0,0,0,1.3-.312,3.259,3.259,0,0,0,.93-.828l.883.688A3.55,3.55,0,0,1,93.9,17.156Zm-.18-7.578a1.928,1.928,0,0,0-1.469.637A3.1,3.1,0,0,0,91.516,12H95.75v-.109a2.753,2.753,0,0,0-.594-1.707A1.815,1.815,0,0,0,93.719,9.578ZM100.438,17H98.992V5h1.445Zm9.664-1.023a2.082,2.082,0,0,0,1.352-.469,1.649,1.649,0,0,0,.641-1.172h1.367a2.621,2.621,0,0,1-.5,1.383,3.293,3.293,0,0,1-1.23,1.047,3.55,3.55,0,0,1-1.629.391A3.482,3.482,0,0,1,107.355,16a4.59,4.59,0,0,1-1.02-3.152v-.242a5.089,5.089,0,0,1,.453-2.2,3.451,3.451,0,0,1,1.3-1.492,3.7,3.7,0,0,1,2-.531,3.39,3.39,0,0,1,2.363.852,3.043,3.043,0,0,1,1,2.211h-1.367a1.992,1.992,0,0,0-.621-1.348,1.932,1.932,0,0,0-1.379-.527,2.023,2.023,0,0,0-1.707.793,3.724,3.724,0,0,0-.605,2.293v.273a3.65,3.65,0,0,0,.6,2.25A2.033,2.033,0,0,0,110.1,15.977ZM120.3,17a3.036,3.036,0,0,1-.2-.891,3.225,3.225,0,0,1-2.406,1.047,2.984,2.984,0,0,1-2.051-.707,2.288,2.288,0,0,1-.8-1.793,2.39,2.39,0,0,1,1-2.051,4.733,4.733,0,0,1,2.824-.73h1.406v-.664A1.623,1.623,0,0,0,119.625,10a1.821,1.821,0,0,0-1.336-.449,2.108,2.108,0,0,0-1.3.391,1.151,1.151,0,0,0-.523.945h-1.453a2,2,0,0,1,.449-1.223,3.066,3.066,0,0,1,1.219-.934,4.1,4.1,0,0,1,1.691-.344,3.342,3.342,0,0,1,2.289.73,2.635,2.635,0,0,1,.859,2.012v3.891a4.757,4.757,0,0,0,.3,1.852V17Zm-2.4-1.1a2.54,2.54,0,0,0,1.289-.352,2.127,2.127,0,0,0,.883-.914V12.9h-1.133q-2.656,0-2.656,1.555a1.316,1.316,0,0,0,.453,1.063A1.742,1.742,0,0,0,117.906,15.9Zm7.453,1.1h-1.445V5h1.445Zm1.93-4.3a4.993,4.993,0,0,1,.488-2.234,3.642,3.642,0,0,1,1.359-1.531,3.7,3.7,0,0,1,1.988-.539,3.565,3.565,0,0,1,2.793,1.2,4.6,4.6,0,0,1,1.066,3.18v.1a5.036,5.036,0,0,1-.473,2.215,3.589,3.589,0,0,1-1.352,1.527,3.743,3.743,0,0,1-2.02.547,3.556,3.556,0,0,1-2.785-1.2,4.575,4.575,0,0,1-1.066-3.164Zm1.453.172a3.616,3.616,0,0,0,.652,2.258,2.211,2.211,0,0,0,3.5-.012,3.954,3.954,0,0,0,.648-2.418,3.61,3.61,0,0,0-.66-2.254,2.1,2.1,0,0,0-1.754-.863,2.075,2.075,0,0,0-1.727.852A3.925,3.925,0,0,0,128.742,12.867Zm12.141-3.023a4.331,4.331,0,0,0-.711-.055A1.9,1.9,0,0,0,138.242,11v6H136.8V8.547H138.2l.023.977a2.251,2.251,0,0,1,2.016-1.133,1.477,1.477,0,0,1,.641.109Z" transform="translate(-8479 -272)" fill="#12263f"/>
    <path id="Trazado_210582" data-name="Trazado 210582" d="M20.293,13.391a4.185,4.185,0,0,1-1.332,2.785,4.365,4.365,0,0,1-2.98.98,4.008,4.008,0,0,1-3.23-1.445,5.815,5.815,0,0,1-1.215-3.867V10.75A6.481,6.481,0,0,1,12.1,7.961a4.231,4.231,0,0,1,1.605-1.848,4.47,4.47,0,0,1,2.406-.645A4.11,4.11,0,0,1,19.02,6.48a4.235,4.235,0,0,1,1.273,2.8H18.785a3.268,3.268,0,0,0-.848-1.975A2.565,2.565,0,0,0,16.113,6.7a2.684,2.684,0,0,0-2.254,1.063,4.882,4.882,0,0,0-.816,3.026v1.1a5.018,5.018,0,0,0,.773,2.948A2.5,2.5,0,0,0,15.98,15.93a2.886,2.886,0,0,0,1.918-.566,3.143,3.143,0,0,0,.887-1.973Zm5.328,3.766a3.693,3.693,0,0,1-2.8-1.129,4.19,4.19,0,0,1-1.078-3.02v-.266a5.073,5.073,0,0,1,.48-2.246A3.748,3.748,0,0,1,23.57,8.949a3.378,3.378,0,0,1,1.871-.559A3.166,3.166,0,0,1,28,9.477a4.7,4.7,0,0,1,.914,3.109v.6H23.191a3,3,0,0,0,.73,2.02,2.3,2.3,0,0,0,1.777.77,2.517,2.517,0,0,0,1.3-.312,3.259,3.259,0,0,0,.93-.828l.883.688A3.55,3.55,0,0,1,25.621,17.156Zm-.18-7.578a1.928,1.928,0,0,0-1.469.637A3.1,3.1,0,0,0,23.238,12h4.234v-.109a2.753,2.753,0,0,0-.594-1.707A1.815,1.815,0,0,0,25.441,9.578Zm6.516-1.031L32,9.609a3.08,3.08,0,0,1,2.531-1.219q2.68,0,2.7,3.023V17H35.793V11.406a1.946,1.946,0,0,0-.418-1.352A1.675,1.675,0,0,0,34.1,9.617a2.086,2.086,0,0,0-1.234.375,2.546,2.546,0,0,0-.828.984V17H30.59V8.547ZM41.379,6.5V8.547h1.578V9.664H41.379v5.249a1.173,1.173,0,0,0,.211.763.888.888,0,0,0,.719.254A3.5,3.5,0,0,0,43,15.836V17a4.215,4.215,0,0,1-1.109.155,1.8,1.8,0,0,1-1.461-.586,2.517,2.517,0,0,1-.492-1.664V9.664H38.395V8.547h1.539V6.5ZM48.73,9.844a4.331,4.331,0,0,0-.711-.055A1.9,1.9,0,0,0,46.09,11v6H44.645V8.547h1.406l.023.977A2.251,2.251,0,0,1,48.09,8.391a1.477,1.477,0,0,1,.641.109ZM49.52,12.7a4.993,4.993,0,0,1,.488-2.234A3.643,3.643,0,0,1,51.367,8.93a3.7,3.7,0,0,1,1.988-.539,3.565,3.565,0,0,1,2.793,1.2,4.6,4.6,0,0,1,1.066,3.18v.1a5.036,5.036,0,0,1-.473,2.215,3.589,3.589,0,0,1-1.352,1.527,3.743,3.743,0,0,1-2.02.547,3.556,3.556,0,0,1-2.785-1.2A4.575,4.575,0,0,1,49.52,12.8Zm1.453.172a3.616,3.616,0,0,0,.652,2.258,2.211,2.211,0,0,0,3.5-.012A3.955,3.955,0,0,0,55.77,12.7a3.61,3.61,0,0,0-.66-2.254,2.1,2.1,0,0,0-1.754-.863,2.075,2.075,0,0,0-1.727.852A3.925,3.925,0,0,0,50.973,12.867ZM62.637,12.7a4.952,4.952,0,0,1,.922-3.129,3.137,3.137,0,0,1,4.766-.168V5H69.77V17H68.441l-.07-.906a2.943,2.943,0,0,1-2.414,1.063,2.887,2.887,0,0,1-2.395-1.2,5.008,5.008,0,0,1-.926-3.141Zm1.445.164a3.749,3.749,0,0,0,.594,2.25,1.92,1.92,0,0,0,1.641.813A2.108,2.108,0,0,0,68.324,14.7V10.813a2.125,2.125,0,0,0-1.992-1.2,1.929,1.929,0,0,0-1.656.82A4.128,4.128,0,0,0,64.082,12.867ZM75.52,17.156a3.693,3.693,0,0,1-2.8-1.129,4.19,4.19,0,0,1-1.078-3.02v-.266a5.073,5.073,0,0,1,.48-2.246,3.748,3.748,0,0,1,1.344-1.547,3.378,3.378,0,0,1,1.871-.559A3.166,3.166,0,0,1,77.9,9.477a4.7,4.7,0,0,1,.914,3.109v.6H73.09a3,3,0,0,0,.73,2.02,2.3,2.3,0,0,0,1.777.77,2.517,2.517,0,0,0,1.3-.312,3.259,3.259,0,0,0,.93-.828l.883.688A3.55,3.55,0,0,1,75.52,17.156Zm-.18-7.578a1.928,1.928,0,0,0-1.469.637A3.1,3.1,0,0,0,73.137,12h4.234v-.109a2.753,2.753,0,0,0-.594-1.707A1.815,1.815,0,0,0,75.34,9.578ZM12.93,32.7a4.968,4.968,0,0,1,.914-3.145,2.923,2.923,0,0,1,2.422-1.168,2.908,2.908,0,0,1,2.414,1.094l.07-.937h1.32V36.8a3.439,3.439,0,0,1-.973,2.586,3.589,3.589,0,0,1-2.613.945,4.348,4.348,0,0,1-1.789-.391,3.08,3.08,0,0,1-1.336-1.07l.75-.867a2.826,2.826,0,0,0,2.273,1.148,2.214,2.214,0,0,0,1.645-.594,2.269,2.269,0,0,0,.59-1.672v-.727a2.971,2.971,0,0,1-2.367,1,2.887,2.887,0,0,1-2.4-1.2A5.224,5.224,0,0,1,12.93,32.7Zm1.453.164a3.79,3.79,0,0,0,.586,2.246,1.9,1.9,0,0,0,1.641.816,2.117,2.117,0,0,0,2.008-1.242V30.828a2.142,2.142,0,0,0-1.992-1.211,1.921,1.921,0,0,0-1.648.82A4.128,4.128,0,0,0,14.383,32.867Zm11.953-3.023a4.331,4.331,0,0,0-.711-.055A1.9,1.9,0,0,0,23.7,31v6H22.25V28.547h1.406l.023.977A2.251,2.251,0,0,1,25.7,28.391a1.477,1.477,0,0,1,.641.109ZM32.57,37a3.036,3.036,0,0,1-.2-.891,3.225,3.225,0,0,1-2.406,1.047,2.984,2.984,0,0,1-2.051-.707,2.287,2.287,0,0,1-.8-1.793,2.39,2.39,0,0,1,1-2.051,4.733,4.733,0,0,1,2.824-.73h1.406v-.664A1.623,1.623,0,0,0,31.891,30a1.821,1.821,0,0,0-1.336-.449,2.108,2.108,0,0,0-1.3.391,1.151,1.151,0,0,0-.523.945H27.281a2,2,0,0,1,.449-1.223,3.066,3.066,0,0,1,1.219-.934,4.1,4.1,0,0,1,1.691-.344,3.342,3.342,0,0,1,2.289.73,2.635,2.635,0,0,1,.859,2.012v3.891a4.757,4.757,0,0,0,.3,1.852V37Zm-2.4-1.1a2.54,2.54,0,0,0,1.289-.352,2.127,2.127,0,0,0,.883-.914V32.9H31.211q-2.656,0-2.656,1.555a1.316,1.316,0,0,0,.453,1.063A1.742,1.742,0,0,0,30.172,35.9Zm8.555-.859,2.094-6.492H42.3L39.266,37h-1.1L35.1,28.547h1.477ZM47.2,37.156a3.693,3.693,0,0,1-2.8-1.129,4.19,4.19,0,0,1-1.078-3.02v-.266A5.073,5.073,0,0,1,43.8,30.5a3.748,3.748,0,0,1,1.344-1.547,3.378,3.378,0,0,1,1.871-.559,3.166,3.166,0,0,1,2.563,1.086,4.7,4.7,0,0,1,.914,3.109v.6H44.766a3,3,0,0,0,.73,2.02,2.3,2.3,0,0,0,1.777.77,2.517,2.517,0,0,0,1.3-.312,3.258,3.258,0,0,0,.93-.828l.883.688A3.55,3.55,0,0,1,47.2,37.156Zm-.18-7.578a1.928,1.928,0,0,0-1.469.637A3.1,3.1,0,0,0,44.813,32h4.234v-.109a2.753,2.753,0,0,0-.594-1.707A1.815,1.815,0,0,0,47.016,29.578Zm4.8,3.125a4.952,4.952,0,0,1,.922-3.129,3.137,3.137,0,0,1,4.766-.168V25h1.445V37H57.617l-.07-.906a2.943,2.943,0,0,1-2.414,1.063,2.887,2.887,0,0,1-2.395-1.2,5.008,5.008,0,0,1-.926-3.141Zm1.445.164a3.749,3.749,0,0,0,.594,2.25,1.919,1.919,0,0,0,1.641.813A2.108,2.108,0,0,0,57.5,34.7V30.813a2.125,2.125,0,0,0-1.992-1.2,1.929,1.929,0,0,0-1.656.82A4.128,4.128,0,0,0,53.258,32.867ZM66.406,37a3.036,3.036,0,0,1-.2-.891A3.225,3.225,0,0,1,63.8,37.156a2.984,2.984,0,0,1-2.051-.707,2.287,2.287,0,0,1-.8-1.793,2.39,2.39,0,0,1,1-2.051,4.733,4.733,0,0,1,2.824-.73H66.18v-.664A1.623,1.623,0,0,0,65.727,30a1.821,1.821,0,0,0-1.336-.449,2.107,2.107,0,0,0-1.3.391,1.151,1.151,0,0,0-.523.945H61.117a2,2,0,0,1,.449-1.223,3.066,3.066,0,0,1,1.219-.934,4.1,4.1,0,0,1,1.691-.344,3.342,3.342,0,0,1,2.289.73,2.635,2.635,0,0,1,.859,2.012v3.891a4.757,4.757,0,0,0,.3,1.852V37Zm-2.4-1.1a2.54,2.54,0,0,0,1.289-.352,2.127,2.127,0,0,0,.883-.914V32.9H65.047q-2.656,0-2.656,1.555a1.316,1.316,0,0,0,.453,1.063A1.742,1.742,0,0,0,64.008,35.9Zm5.531-3.2a4.952,4.952,0,0,1,.922-3.129,3.137,3.137,0,0,1,4.766-.168V25h1.445V37H75.344l-.07-.906a2.943,2.943,0,0,1-2.414,1.063,2.887,2.887,0,0,1-2.395-1.2,5.008,5.008,0,0,1-.926-3.141Zm1.445.164a3.749,3.749,0,0,0,.594,2.25,1.92,1.92,0,0,0,1.641.813A2.108,2.108,0,0,0,75.227,34.7V30.813a2.125,2.125,0,0,0-1.992-1.2,1.929,1.929,0,0,0-1.656.82A4.128,4.128,0,0,0,70.984,32.867Z" transform="translate(-8450 -156)" fill="#12263f"/>
    <path id="Trazado_210583" data-name="Trazado 210583" d="M9,11.742H4.074v4.031H9.8V17H2.574V5.625H9.723V6.852H4.074v3.664H9Zm7.359,3.016a1.064,1.064,0,0,0-.441-.91,4.249,4.249,0,0,0-1.539-.559,7.277,7.277,0,0,1-1.742-.562,2.479,2.479,0,0,1-.953-.781,1.869,1.869,0,0,1-.309-1.078,2.193,2.193,0,0,1,.879-1.758A3.432,3.432,0,0,1,14.5,8.391a3.532,3.532,0,0,1,2.332.742,2.357,2.357,0,0,1,.895,1.9H16.277a1.3,1.3,0,0,0-.5-1.023,1.888,1.888,0,0,0-1.27-.43,1.976,1.976,0,0,0-1.234.344,1.082,1.082,0,0,0-.445.9.877.877,0,0,0,.414.789,5.1,5.1,0,0,0,1.5.508,7.8,7.8,0,0,1,1.754.578,2.558,2.558,0,0,1,1,.809,1.988,1.988,0,0,1,.324,1.152,2.163,2.163,0,0,1-.906,1.816,3.8,3.8,0,0,1-2.352.684,4.257,4.257,0,0,1-1.8-.359,2.922,2.922,0,0,1-1.223-1A2.42,2.42,0,0,1,11.09,14.4h1.445a1.5,1.5,0,0,0,.582,1.152,2.258,2.258,0,0,0,1.434.426,2.331,2.331,0,0,0,1.316-.332A1.02,1.02,0,0,0,16.363,14.758ZM21.262,17H19.816V5h1.445Zm3.883,0H23.7V8.547h1.445ZM23.582,6.3a.863.863,0,0,1,.215-.594.807.807,0,0,1,.637-.242.819.819,0,0,1,.641.242.854.854,0,0,1,.219.594.826.826,0,0,1-.219.586.834.834,0,0,1-.641.234.821.821,0,0,1-.637-.234A.834.834,0,0,1,23.582,6.3Zm5.242,2.242.047,1.063A3.08,3.08,0,0,1,31.4,8.391q2.68,0,2.7,3.023V17H32.66V11.406a1.946,1.946,0,0,0-.418-1.352,1.675,1.675,0,0,0-1.277-.437,2.086,2.086,0,0,0-1.234.375,2.546,2.546,0,0,0-.828.984V17H27.457V8.547ZM35.941,12.7a4.968,4.968,0,0,1,.914-3.145,3.151,3.151,0,0,1,4.836-.074l.07-.937h1.32V16.8a3.439,3.439,0,0,1-.973,2.586,3.589,3.589,0,0,1-2.613.945,4.348,4.348,0,0,1-1.789-.391,3.08,3.08,0,0,1-1.336-1.07l.75-.867a2.826,2.826,0,0,0,2.273,1.148,2.214,2.214,0,0,0,1.645-.594,2.269,2.269,0,0,0,.59-1.672v-.727a2.971,2.971,0,0,1-2.367,1,2.887,2.887,0,0,1-2.4-1.2A5.224,5.224,0,0,1,35.941,12.7Zm1.453.164a3.79,3.79,0,0,0,.586,2.246,1.9,1.9,0,0,0,1.641.816,2.117,2.117,0,0,0,2.008-1.242V10.828a2.142,2.142,0,0,0-1.992-1.211,1.921,1.921,0,0,0-1.648.82A4.128,4.128,0,0,0,37.395,12.867ZM50.48,17a3.036,3.036,0,0,1-.2-.891,3.225,3.225,0,0,1-2.406,1.047,2.984,2.984,0,0,1-2.051-.707,2.287,2.287,0,0,1-.8-1.793,2.39,2.39,0,0,1,1-2.051,4.733,4.733,0,0,1,2.824-.73h1.406v-.664A1.623,1.623,0,0,0,49.8,10a1.821,1.821,0,0,0-1.336-.449,2.107,2.107,0,0,0-1.3.391,1.151,1.151,0,0,0-.523.945H45.191a2,2,0,0,1,.449-1.223,3.066,3.066,0,0,1,1.219-.934,4.1,4.1,0,0,1,1.691-.344,3.342,3.342,0,0,1,2.289.73,2.635,2.635,0,0,1,.859,2.012v3.891a4.757,4.757,0,0,0,.3,1.852V17Zm-2.4-1.1a2.54,2.54,0,0,0,1.289-.352,2.127,2.127,0,0,0,.883-.914V12.9H49.121q-2.656,0-2.656,1.555a1.316,1.316,0,0,0,.453,1.063A1.742,1.742,0,0,0,48.082,15.9Zm9.969-6.055a4.331,4.331,0,0,0-.711-.055A1.9,1.9,0,0,0,55.41,11v6H53.965V8.547h1.406l.023.977A2.251,2.251,0,0,1,57.41,8.391a1.477,1.477,0,0,1,.641.109ZM68.559,17a3.036,3.036,0,0,1-.2-.891,3.225,3.225,0,0,1-2.406,1.047,2.984,2.984,0,0,1-2.051-.707,2.287,2.287,0,0,1-.8-1.793,2.39,2.39,0,0,1,1-2.051,4.733,4.733,0,0,1,2.824-.73h1.406v-.664A1.623,1.623,0,0,0,67.879,10a1.821,1.821,0,0,0-1.336-.449,2.108,2.108,0,0,0-1.3.391,1.151,1.151,0,0,0-.523.945H63.27a2,2,0,0,1,.449-1.223,3.066,3.066,0,0,1,1.219-.934,4.1,4.1,0,0,1,1.691-.344,3.342,3.342,0,0,1,2.289.73,2.635,2.635,0,0,1,.859,2.012v3.891a4.757,4.757,0,0,0,.3,1.852V17Zm-2.4-1.1a2.54,2.54,0,0,0,1.289-.352,2.127,2.127,0,0,0,.883-.914V12.9H67.2q-2.656,0-2.656,1.555A1.316,1.316,0,0,0,65,15.516,1.742,1.742,0,0,0,66.16,15.9Zm5.531-3.2a4.961,4.961,0,0,1,.914-3.152,3.226,3.226,0,0,1,4.82-.152l.063-.852h1.328v11.7H77.371V16.219a3.033,3.033,0,0,1-2.328.938A2.915,2.915,0,0,1,72.6,15.965a5.072,5.072,0,0,1-.91-3.16Zm1.445.164a3.761,3.761,0,0,0,.613,2.281,1.951,1.951,0,0,0,1.652.828,2.164,2.164,0,0,0,1.969-1.141V10.7a2.171,2.171,0,0,0-1.953-1.117,1.965,1.965,0,0,0-1.664.832A4.094,4.094,0,0,0,73.137,12.867Zm13.219,3.3a3.07,3.07,0,0,1-2.477.992,2.628,2.628,0,0,1-2.059-.785,3.4,3.4,0,0,1-.715-2.324v-5.5h1.445v5.461q0,1.922,1.563,1.922a2.163,2.163,0,0,0,2.2-1.234V8.547h1.445V17H86.387ZM91.527,17H90.082V8.547h1.445ZM89.965,6.3a.863.863,0,0,1,.215-.594.807.807,0,0,1,.637-.242.819.819,0,0,1,.641.242.854.854,0,0,1,.219.594.826.826,0,0,1-.219.586.834.834,0,0,1-.641.234.821.821,0,0,1-.637-.234A.834.834,0,0,1,89.965,6.3Z" transform="translate(-8450 -16)" fill="#12263f"/>
  </g>
</svg>
