<svg xmlns="http://www.w3.org/2000/svg" width="160" height="160" viewBox="0 0 160 160">
  <g id="Grupo_83862" data-name="Grupo 83862" transform="translate(-978 -10886)">
    <g id="Elipse_4182" data-name="Elipse 4182" transform="translate(978 10886)" fill="#fff" stroke="#472ea6" stroke-width="4">
      <circle cx="80" cy="80" r="80" stroke="none"/>
      <circle cx="80" cy="80" r="78" fill="none"/>
    </g>
    <g id="Grupo_83861" data-name="Grupo 83861" transform="translate(748.989 10546.785)">
      <g id="Grupo_83846" data-name="Grupo 83846" transform="translate(265.69 376.382)">
        <g id="Grupo_83845" data-name="Grupo 83845">
          <path id="Trazado_187863" data-name="Trazado 187863" d="M268.927,403.506l42.421-33.266-.716-.684a1.481,1.481,0,0,0-2.1.054l-43.016,33.9Z" transform="translate(-265.516 -369.146)" fill="#444248"/>
        </g>
      </g>
      <g id="Grupo_83848" data-name="Grupo 83848" transform="translate(307.88 376.382)">
        <g id="Grupo_83847" data-name="Grupo 83847">
          <path id="Trazado_187864" data-name="Trazado 187864" d="M325.765,403.506l-28.9-33.266.715-.684a1.481,1.481,0,0,1,2.1.054l29.5,33.9Z" transform="translate(-296.867 -369.146)" fill="#444248"/>
        </g>
      </g>
      <g id="Grupo_83850" data-name="Grupo 83850" transform="translate(276.681 376.382)">
        <g id="Grupo_83849" data-name="Grupo 83849">
          <path id="Trazado_187865" data-name="Trazado 187865" d="M277.094,403.506l31.431-33.266-.716-.684a1.481,1.481,0,0,0-2.1.054l-32.025,33.9Z" transform="translate(-273.683 -369.146)" fill="#807f83"/>
        </g>
      </g>
      <g id="Grupo_83851" data-name="Grupo 83851" transform="translate(299.744 348.215)">
        <path id="Trazado_187866" data-name="Trazado 187866" d="M301.526,358.468l1.292-2.288h-6.407l2.658,5.854.034.058a5.938,5.938,0,0,1,1.616-.248,6.013,6.013,0,1,1-5.885,6.979h1.322l-2.644-3.9-2.69,3.9h1.705c.55,3.8,2.554,8.7,9.368,8.7,5.309,0,7.606-3.788,9.055-6.859a8.082,8.082,0,0,0-1.39-8.561C307.363,359.554,305.676,358.468,301.526,358.468Z" transform="translate(-290.821 -345.462)" fill="#a9afba"/>
        <rect id="Rectángulo_36499" data-name="Rectángulo 36499" width="12.072" height="16.389" transform="translate(2.387 -5)" fill="#444248"/>
        <rect id="Rectángulo_36500" data-name="Rectángulo 36500" width="12.072" height="2.92" transform="translate(2.387 8.469)" fill="#a9afba"/>
      </g>
      <g id="Grupo_83852" data-name="Grupo 83852" transform="translate(307.402 375.984)">
        <path id="Trazado_187867" data-name="Trazado 187867" d="M340.267,403.609,300.1,369.348a5.035,5.035,0,0,0-3.586-.295l40.4,34.555Z" transform="translate(-296.512 -368.85)" fill="#807f83"/>
      </g>
      <g id="Grupo_83860" data-name="Grupo 83860" transform="translate(265.011 409.649)">
        <rect id="Rectángulo_36501" data-name="Rectángulo 36501" width="88.959" height="47.367" fill="#a25c25"/>
        <rect id="Rectángulo_36502" data-name="Rectángulo 36502" width="74.076" height="47.367" transform="translate(14.883)" fill="#c68c65"/>
        <rect id="Rectángulo_36503" data-name="Rectángulo 36503" width="65.098" height="36.471" transform="translate(19.372 5.448)" fill="#b46d3b"/>
        <path id="Trazado_187868" data-name="Trazado 187868" d="M279.407,397.914v1.5h63.754v34.973H344.5V397.914Z" transform="translate(-260.035 -392.467)" fill="#ae8c65" opacity="0.75" style="mix-blend-mode: multiply;isolation: isolate"/>
        <g id="Grupo_83853" data-name="Grupo 83853" transform="translate(25.334 5.448)">
          <rect id="Rectángulo_36504" data-name="Rectángulo 36504" width="3.307" height="36.471" fill="#c68c65"/>
          <rect id="Rectángulo_36505" data-name="Rectángulo 36505" width="3.307" height="36.471" transform="translate(9.973)" fill="#c68c65"/>
          <rect id="Rectángulo_36506" data-name="Rectángulo 36506" width="3.307" height="36.471" transform="translate(19.946)" fill="#c68c65"/>
          <rect id="Rectángulo_36507" data-name="Rectángulo 36507" width="3.307" height="36.471" transform="translate(29.919)" fill="#c68c65"/>
          <rect id="Rectángulo_36508" data-name="Rectángulo 36508" width="3.307" height="36.471" transform="translate(39.893)" fill="#c68c65"/>
          <rect id="Rectángulo_36509" data-name="Rectángulo 36509" width="3.307" height="36.471" transform="translate(49.866)" fill="#c68c65"/>
        </g>
        <g id="Grupo_83854" data-name="Grupo 83854" transform="translate(25.334 5.448)" opacity="0.55" style="mix-blend-mode: multiply;isolation: isolate">
          <rect id="Rectángulo_36510" data-name="Rectángulo 36510" width="1.149" height="36.471" fill="#c68c65"/>
        </g>
        <g id="Grupo_83855" data-name="Grupo 83855" transform="translate(35.303 5.448)" opacity="0.55" style="mix-blend-mode: multiply;isolation: isolate">
          <rect id="Rectángulo_36511" data-name="Rectángulo 36511" width="1.148" height="36.471" fill="#c68c65"/>
        </g>
        <g id="Grupo_83856" data-name="Grupo 83856" transform="translate(45.272 5.448)" opacity="0.55" style="mix-blend-mode: multiply;isolation: isolate">
          <rect id="Rectángulo_36512" data-name="Rectángulo 36512" width="1.149" height="36.471" fill="#c68c65"/>
        </g>
        <g id="Grupo_83857" data-name="Grupo 83857" transform="translate(55.241 5.448)" opacity="0.55" style="mix-blend-mode: multiply;isolation: isolate">
          <rect id="Rectángulo_36513" data-name="Rectángulo 36513" width="1.148" height="36.471" fill="#c68c65"/>
        </g>
        <g id="Grupo_83858" data-name="Grupo 83858" transform="translate(65.21 5.448)" opacity="0.55" style="mix-blend-mode: multiply;isolation: isolate">
          <rect id="Rectángulo_36514" data-name="Rectángulo 36514" width="1.149" height="36.471" fill="#c68c65"/>
        </g>
        <g id="Grupo_83859" data-name="Grupo 83859" transform="translate(75.179 5.448)" opacity="0.55" style="mix-blend-mode: multiply;isolation: isolate">
          <rect id="Rectángulo_36515" data-name="Rectángulo 36515" width="1.148" height="36.471" fill="#c68c65"/>
        </g>
      </g>
    </g>
  </g>
</svg>
