<svg xmlns="http://www.w3.org/2000/svg" width="268" height="51.24" viewBox="0 0 268 51.24">
  <g id="Grupo_93226" data-name="Grupo 93226" transform="translate(-539 -23407.955)">
    <g id="Grupo_93225" data-name="Grupo 93225">
      <path id="Trazado_210659" data-name="Trazado 210659" d="M3.535-1.533h6.738V0H1.65V-14.219H3.535ZM18.652,0A3.8,3.8,0,0,1,18.4-1.113,4.031,4.031,0,0,1,15.391.2a3.73,3.73,0,0,1-2.563-.884,2.859,2.859,0,0,1-1-2.241,2.987,2.987,0,0,1,1.255-2.563,5.916,5.916,0,0,1,3.53-.913h1.758v-.83A2.029,2.029,0,0,0,17.8-8.745a2.276,2.276,0,0,0-1.67-.562,2.634,2.634,0,0,0-1.621.488,1.439,1.439,0,0,0-.654,1.182H12.041A2.493,2.493,0,0,1,12.6-9.165a3.832,3.832,0,0,1,1.523-1.167,5.125,5.125,0,0,1,2.114-.43,4.177,4.177,0,0,1,2.861.913,3.294,3.294,0,0,1,1.074,2.515v4.863a5.946,5.946,0,0,0,.371,2.314V0Zm-3-1.377a3.175,3.175,0,0,0,1.611-.439,2.658,2.658,0,0,0,1.1-1.143V-5.127H16.953q-3.32,0-3.32,1.943A1.645,1.645,0,0,0,14.2-1.855,2.177,2.177,0,0,0,15.654-1.377ZM28.115-8.945a5.414,5.414,0,0,0-.889-.068A2.381,2.381,0,0,0,24.814-7.5V0H23.008V-10.566h1.758l.029,1.221a2.813,2.813,0,0,1,2.52-1.416,1.846,1.846,0,0,1,.8.137Zm1.23,3.574A6.21,6.21,0,0,1,30.488-9.3a3.654,3.654,0,0,1,3.027-1.46,3.635,3.635,0,0,1,3.018,1.367l.088-1.172h1.65V-.254a4.3,4.3,0,0,1-1.216,3.232A4.487,4.487,0,0,1,33.789,4.16a5.435,5.435,0,0,1-2.236-.488,3.85,3.85,0,0,1-1.67-1.338L30.82,1.25a3.533,3.533,0,0,0,2.842,1.436,2.768,2.768,0,0,0,2.056-.742,2.837,2.837,0,0,0,.737-2.09v-.908A3.713,3.713,0,0,1,33.5.2a3.609,3.609,0,0,1-3-1.494A6.529,6.529,0,0,1,29.346-5.371Zm1.816.205a4.738,4.738,0,0,0,.732,2.808,2.38,2.38,0,0,0,2.051,1.021,2.646,2.646,0,0,0,2.51-1.553V-7.715a2.677,2.677,0,0,0-2.49-1.514A2.4,2.4,0,0,0,31.9-8.2,5.16,5.16,0,0,0,31.162-5.166Zm9.355-.215a6.241,6.241,0,0,1,.61-2.793,4.553,4.553,0,0,1,1.7-1.914,4.626,4.626,0,0,1,2.485-.674A4.456,4.456,0,0,1,48.8-9.268a5.748,5.748,0,0,1,1.333,3.975v.127A6.3,6.3,0,0,1,49.546-2.4,4.486,4.486,0,0,1,47.856-.488,4.679,4.679,0,0,1,45.332.2,4.445,4.445,0,0,1,41.851-1.3a5.719,5.719,0,0,1-1.333-3.955Zm1.816.215a4.52,4.52,0,0,0,.815,2.822,2.61,2.61,0,0,0,2.183,1.064A2.594,2.594,0,0,0,47.52-2.358a4.943,4.943,0,0,0,.811-3.022A4.513,4.513,0,0,0,47.5-8.2a2.623,2.623,0,0,0-2.192-1.079,2.594,2.594,0,0,0-2.158,1.064A4.906,4.906,0,0,0,42.334-5.166ZM59.316-9.4l-3.066-.868.576-1.766,3.037,1.219-.2-3.4h1.914l-.2,3.473,2.959-1.2.576,1.785L61.8-9.292l2.051,2.6-1.553,1.1L60.518-8.442,58.76-5.688,57.207-6.743ZM79.5-3.721H73.545L72.207,0H70.273L75.7-14.219h1.641L82.783,0H80.859ZM74.111-5.254h4.834L76.523-11.9ZM86.377,0H84.57V-15h1.807Zm5.342-13.125v2.559h1.973v1.4H91.719v6.561a1.467,1.467,0,0,0,.264.953,1.11,1.11,0,0,0,.9.318,4.374,4.374,0,0,0,.859-.117V0A5.268,5.268,0,0,1,92.354.2a2.25,2.25,0,0,1-1.826-.732,3.147,3.147,0,0,1-.615-2.08V-9.17H87.988v-1.4h1.924v-2.559Zm3.408,7.744a6.241,6.241,0,0,1,.61-2.793,4.553,4.553,0,0,1,1.7-1.914,4.626,4.626,0,0,1,2.485-.674,4.456,4.456,0,0,1,3.491,1.494,5.748,5.748,0,0,1,1.333,3.975v.127a6.3,6.3,0,0,1-.591,2.769,4.486,4.486,0,0,1-1.689,1.909A4.679,4.679,0,0,1,99.941.2,4.445,4.445,0,0,1,96.46-1.3a5.719,5.719,0,0,1-1.333-3.955Zm1.816.215a4.52,4.52,0,0,0,.815,2.822,2.61,2.61,0,0,0,2.183,1.064,2.594,2.594,0,0,0,2.188-1.079,4.943,4.943,0,0,0,.811-3.022,4.513,4.513,0,0,0-.825-2.817,2.623,2.623,0,0,0-2.192-1.079,2.594,2.594,0,0,0-2.158,1.064A4.906,4.906,0,0,0,96.943-5.166ZM113.926-9.4l-3.066-.868.576-1.766,3.037,1.219-.2-3.4h1.914l-.2,3.473,2.959-1.2.576,1.785-3.125.868,2.051,2.6-1.553,1.1-1.777-2.852-1.758,2.754-1.553-1.055Zm20.186,5.679h-5.957L126.816,0h-1.934l5.43-14.219h1.641L137.393,0h-1.924Zm-5.391-1.533h4.834l-2.422-6.65Zm12.012-5.312.059,1.328a3.851,3.851,0,0,1,3.164-1.523q3.35,0,3.379,3.779V0h-1.807V-6.992A2.433,2.433,0,0,0,145-8.682a2.094,2.094,0,0,0-1.6-.547,2.607,2.607,0,0,0-1.543.469,3.183,3.183,0,0,0-1.035,1.23V0h-1.807V-10.566ZM154.3-1.279a2.6,2.6,0,0,0,1.689-.586,2.061,2.061,0,0,0,.8-1.465H158.5a3.276,3.276,0,0,1-.625,1.729,4.116,4.116,0,0,1-1.538,1.309A4.438,4.438,0,0,1,154.3.2a4.353,4.353,0,0,1-3.433-1.44,5.737,5.737,0,0,1-1.274-3.94v-.3a6.361,6.361,0,0,1,.566-2.744,4.314,4.314,0,0,1,1.626-1.865,4.619,4.619,0,0,1,2.5-.664A4.238,4.238,0,0,1,157.241-9.7,3.8,3.8,0,0,1,158.5-6.934h-1.709a2.49,2.49,0,0,0-.776-1.685,2.415,2.415,0,0,0-1.724-.659,2.529,2.529,0,0,0-2.134.991A4.655,4.655,0,0,0,151.4-5.42v.342a4.562,4.562,0,0,0,.752,2.813A2.541,2.541,0,0,0,154.3-1.279Zm8.037-8.008a3.841,3.841,0,0,1,3.125-1.475q3.35,0,3.379,3.779V0h-1.807V-6.992a2.433,2.433,0,0,0-.522-1.689,2.094,2.094,0,0,0-1.6-.547,2.607,2.607,0,0,0-1.543.469,3.183,3.183,0,0,0-1.035,1.23V0h-1.807V-15h1.807Zm8.73,3.906a6.241,6.241,0,0,1,.61-2.793,4.553,4.553,0,0,1,1.7-1.914,4.626,4.626,0,0,1,2.485-.674,4.456,4.456,0,0,1,3.491,1.494,5.748,5.748,0,0,1,1.333,3.975v.127a6.3,6.3,0,0,1-.591,2.769A4.486,4.486,0,0,1,178.4-.488,4.679,4.679,0,0,1,175.879.2,4.445,4.445,0,0,1,172.4-1.3a5.719,5.719,0,0,1-1.333-3.955Zm1.816.215a4.52,4.52,0,0,0,.815,2.822,2.61,2.61,0,0,0,2.183,1.064,2.594,2.594,0,0,0,2.188-1.079,4.943,4.943,0,0,0,.811-3.022,4.513,4.513,0,0,0-.825-2.817,2.623,2.623,0,0,0-2.192-1.079A2.594,2.594,0,0,0,173.7-8.213,4.906,4.906,0,0,0,172.881-5.166Zm14.951-.605a15.1,15.1,0,0,1,.591-4.238,12.312,12.312,0,0,1,1.763-3.691,7.5,7.5,0,0,1,2.432-2.344l.371,1.191a7.778,7.778,0,0,0-2.339,3.34,14.479,14.479,0,0,0-1,5.029l-.01.83A14.554,14.554,0,0,0,191.016.889a7.815,7.815,0,0,0,1.973,2.6l-.371,1.1a7.74,7.74,0,0,1-2.48-2.422A13.574,13.574,0,0,1,187.832-5.771Zm11.143,4.492a2.6,2.6,0,0,0,1.689-.586,2.061,2.061,0,0,0,.8-1.465h1.709a3.276,3.276,0,0,1-.625,1.729,4.116,4.116,0,0,1-1.538,1.309A4.438,4.438,0,0,1,198.975.2a4.353,4.353,0,0,1-3.433-1.44,5.737,5.737,0,0,1-1.274-3.94v-.3a6.361,6.361,0,0,1,.566-2.744A4.314,4.314,0,0,1,196.46-10.1a4.619,4.619,0,0,1,2.5-.664A4.238,4.238,0,0,1,201.919-9.7a3.8,3.8,0,0,1,1.255,2.764h-1.709a2.49,2.49,0,0,0-.776-1.685,2.415,2.415,0,0,0-1.724-.659,2.529,2.529,0,0,0-2.134.991,4.655,4.655,0,0,0-.757,2.866v.342a4.562,4.562,0,0,0,.752,2.813A2.541,2.541,0,0,0,198.975-1.279Zm7.93-9.287.049,1.172a3.9,3.9,0,0,1,3.135-1.367,3.021,3.021,0,0,1,3.018,1.7,4,4,0,0,1,1.372-1.23,4.052,4.052,0,0,1,2-.469q3.477,0,3.535,3.682V0H218.2V-6.973a2.426,2.426,0,0,0-.518-1.694,2.279,2.279,0,0,0-1.738-.562,2.4,2.4,0,0,0-1.67.6,2.436,2.436,0,0,0-.771,1.616V0h-1.816V-6.924a2.016,2.016,0,0,0-2.256-2.3A2.417,2.417,0,0,0,207-7.715V0H205.2V-10.566ZM228.887-2.8a1.33,1.33,0,0,0-.552-1.138,5.311,5.311,0,0,0-1.924-.7,9.1,9.1,0,0,1-2.178-.7,3.1,3.1,0,0,1-1.191-.977,2.336,2.336,0,0,1-.386-1.348,2.741,2.741,0,0,1,1.1-2.2,4.291,4.291,0,0,1,2.808-.9,4.415,4.415,0,0,1,2.915.928A2.947,2.947,0,0,1,230.6-7.461h-1.816a1.631,1.631,0,0,0-.63-1.279,2.36,2.36,0,0,0-1.587-.537,2.47,2.47,0,0,0-1.543.43,1.353,1.353,0,0,0-.557,1.123,1.1,1.1,0,0,0,.518.986,6.368,6.368,0,0,0,1.87.635,9.744,9.744,0,0,1,2.192.723,3.2,3.2,0,0,1,1.245,1.011,2.485,2.485,0,0,1,.405,1.44,2.7,2.7,0,0,1-1.133,2.271A4.752,4.752,0,0,1,226.621.2a5.321,5.321,0,0,1-2.246-.449,3.653,3.653,0,0,1-1.528-1.255,3.025,3.025,0,0,1-.552-1.743H224.1a1.87,1.87,0,0,0,.728,1.44,2.822,2.822,0,0,0,1.792.532,2.913,2.913,0,0,0,1.646-.415A1.275,1.275,0,0,0,228.887-2.8Zm8.33-2.871a15.106,15.106,0,0,1-.571,4.175A12.345,12.345,0,0,1,234.9,2.188a7.659,7.659,0,0,1-2.466,2.4l-.381-1.1a7.851,7.851,0,0,0,2.417-3.579,15.484,15.484,0,0,0,.933-5.386v-.312a16.077,16.077,0,0,0-.43-3.813,12.87,12.87,0,0,0-1.2-3.159,7.3,7.3,0,0,0-1.724-2.178l.381-1.1a7.629,7.629,0,0,1,2.456,2.383,12.371,12.371,0,0,1,1.748,3.682A15.454,15.454,0,0,1,237.217-5.674Z" transform="translate(553.5 23424)" fill="#12263f"/>
      <path id="Trazado_210660" data-name="Trazado 210660" d="M8.271-14.229V-12.7H7.939a4.757,4.757,0,0,0-3.359,1.25A5.2,5.2,0,0,0,3.135-8.037,3.856,3.856,0,0,1,6.2-9.326,3.687,3.687,0,0,1,9.165-8.018a5.047,5.047,0,0,1,1.108,3.379,5.031,5.031,0,0,1-1.2,3.516A4.119,4.119,0,0,1,5.869.2,4.059,4.059,0,0,1,2.559-1.372,6.212,6.212,0,0,1,1.289-5.41V-6.1a9.36,9.36,0,0,1,1.675-6,6.151,6.151,0,0,1,4.985-2.124ZM5.9-7.822a2.882,2.882,0,0,0-1.709.557,2.9,2.9,0,0,0-1.084,1.4v.664A4.664,4.664,0,0,0,3.9-2.373,2.37,2.37,0,0,0,5.869-1.3a2.3,2.3,0,0,0,1.919-.9,3.728,3.728,0,0,0,.7-2.354,3.729,3.729,0,0,0-.708-2.368A2.269,2.269,0,0,0,5.9-7.822Zm15.43,1.758a8.263,8.263,0,0,1-1.084,4.717A3.855,3.855,0,0,1,16.855.2a3.883,3.883,0,0,1-3.369-1.509A7.843,7.843,0,0,1,12.354-5.82V-8.232a8.079,8.079,0,0,1,1.084-4.658,3.885,3.885,0,0,1,3.4-1.523,3.92,3.92,0,0,1,3.379,1.47,7.8,7.8,0,0,1,1.113,4.536ZM19.521-8.535a6.62,6.62,0,0,0-.645-3.345,2.218,2.218,0,0,0-2.041-1.05,2.189,2.189,0,0,0-2.021,1.045,6.464,6.464,0,0,0-.654,3.213v2.891a6.726,6.726,0,0,0,.669,3.4,2.214,2.214,0,0,0,2.026,1.1,2.184,2.184,0,0,0,1.987-1.035,6.483,6.483,0,0,0,.679-3.262ZM32.559-6.064a8.263,8.263,0,0,1-1.084,4.717A3.855,3.855,0,0,1,28.086.2a3.883,3.883,0,0,1-3.369-1.509A7.843,7.843,0,0,1,23.584-5.82V-8.232a8.079,8.079,0,0,1,1.084-4.658,3.885,3.885,0,0,1,3.4-1.523,3.92,3.92,0,0,1,3.379,1.47,7.8,7.8,0,0,1,1.113,4.536ZM30.752-8.535a6.62,6.62,0,0,0-.645-3.345,2.218,2.218,0,0,0-2.041-1.05,2.189,2.189,0,0,0-2.021,1.045,6.464,6.464,0,0,0-.654,3.213v2.891a6.726,6.726,0,0,0,.669,3.4,2.214,2.214,0,0,0,2.026,1.1,2.184,2.184,0,0,0,1.987-1.035,6.483,6.483,0,0,0,.679-3.262ZM43.789-6.064a8.263,8.263,0,0,1-1.084,4.717A3.855,3.855,0,0,1,39.316.2a3.883,3.883,0,0,1-3.369-1.509A7.843,7.843,0,0,1,34.814-5.82V-8.232A8.079,8.079,0,0,1,35.9-12.891a3.885,3.885,0,0,1,3.4-1.523,3.92,3.92,0,0,1,3.379,1.47,7.8,7.8,0,0,1,1.113,4.536ZM41.982-8.535a6.62,6.62,0,0,0-.645-3.345A2.218,2.218,0,0,0,39.3-12.93a2.189,2.189,0,0,0-2.021,1.045,6.464,6.464,0,0,0-.654,3.213v2.891a6.726,6.726,0,0,0,.669,3.4,2.214,2.214,0,0,0,2.026,1.1A2.184,2.184,0,0,0,41.3-2.314a6.483,6.483,0,0,0,.679-3.262Z" transform="translate(649.5 23459)" fill="#12263f"/>
      <path id="Trazado_210661" data-name="Trazado 210661" d="M0,0H268" transform="translate(539 23433.34)" fill="none" stroke="#472ea6" stroke-width="2"/>
    </g>
  </g>
</svg>
