<svg xmlns="http://www.w3.org/2000/svg" xmlns:xlink="http://www.w3.org/1999/xlink" width="171" height="241" viewBox="0 0 171 241">
  <defs>
    <clipPath id="clip-path">
      <rect id="Rect치ngulo_36980" data-name="Rect치ngulo 36980" width="171" height="241" rx="22" transform="translate(1161 28609)" fill="#35e9d0"/>
    </clipPath>
  </defs>
  <g id="Grupo_93235" data-name="Grupo 93235" transform="translate(2610 -16811)">
    <g id="Grupo_93234" data-name="Grupo 93234">
      <g id="Grupo_93233" data-name="Grupo 93233">
        <g id="Enmascarar_grupo_183" data-name="Enmascarar grupo 183" transform="translate(-3771 -11798)" clip-path="url(#clip-path)">
          <g id="Grupo_87877" data-name="Grupo 87877">
            <rect id="Rect치ngulo_36979" data-name="Rect치ngulo 36979" width="171" height="241" rx="22" transform="translate(1161 28609)" fill="#bbabf5"/>
            <g id="Grupo_87876" data-name="Grupo 87876" transform="translate(114.386 28661.047)">
              <path id="Trazado_197595" data-name="Trazado 197595" d="M1277.556,213.959l67.63,72.063s90.865-17.973,103.4-82.8l-123.916-97.214Z" transform="translate(-151.473 -84.417)" fill="#9988d8"/>
              <g id="Grupo_87875" data-name="Grupo 87875" transform="translate(1071.902 11.762)">
                <g id="Grupo_87874" data-name="Grupo 87874" transform="translate(0)">
                  <path id="Trazado_197596" data-name="Trazado 197596" d="M1235,92.35h-62.511s-4.773,8.392-11.317,9.15c-23.215,80.35,42.536,100.2,42.573,100.208h0c.041-.012,65.792-19.858,42.578-100.208C1239.761,100.737,1235,92.35,1235,92.35Z" transform="translate(-1149.102 -87.82)" fill="#472ea6"/>
                  <path id="Trazado_197597" data-name="Trazado 197597" d="M1237.731,105.4H1180.88s-4.341,7.582-10.293,8.267c-21.112,72.6,38.686,90.527,38.719,90.538h0c.037-.011,59.836-17.942,38.724-90.538C1242.064,112.982,1237.731,105.4,1237.731,105.4Z" transform="translate(-1155.142 -95.809)" fill="#fd8f25"/>
                  <path id="Trazado_197598" data-name="Trazado 197598" d="M1240.764,92.422,1240.2,90.5l-2.238-.256c-4.249-.48-8.415-6.054-9.533-7.974l-.944-1.6h-70.855l-.931,1.6c-1.119,1.916-5.25,7.487-9.536,7.97l-2.243.256-.566,1.921c-25.569,86.429,47.015,107.89,47.762,108.084l.965.249.968-.256C1193.78,200.3,1266.143,178.2,1240.764,92.422Zm-48.7,102.139c-8.749-2.976-63.707-24.894-42.726-98.959,5.5-1.638,9.475-6.461,11.287-9.051H1223.5c1.812,2.591,5.786,7.417,11.287,9.051C1255.767,169.672,1200.8,191.585,1192.06,194.561Z" transform="translate(-1137.897 -80.673)" fill="#fff"/>
                </g>
                <path id="Trazado_197599" data-name="Trazado 197599" d="M1261.306,168.886h-2.183c0-9.7-5.815-15.284-13.829-15.284s-13.828,5.586-13.828,15.284h-2.184c-3.216,0-4.282,1.2-4.282,4.412v20.379c0,3.216,1.067,6.245,4.282,6.245h32.024c3.216,0,5.2-3.029,5.2-6.245V173.3C1266.511,170.083,1264.522,168.886,1261.306,168.886Zm-12.373,24.829h-7.278l1.4-10.169a5,5,0,0,1-2.4-4.279,4.768,4.768,0,0,1,4.685-4.781,4.645,4.645,0,0,1,4.685,4.638,5.272,5.272,0,0,1-2.484,4.493Zm-13.1-24.829c0-8.923,4.752-10.918,9.461-10.918s9.462,1.995,9.462,10.918Z" transform="translate(-1191.208 -125.309)" fill="#fff"/>
              </g>
            </g>
          </g>
        </g>
      </g>
    </g>
  </g>
</svg>
