<svg xmlns="http://www.w3.org/2000/svg" width="118" height="118" viewBox="0 0 118 118">
  <g id="Grupo_93156" data-name="Grupo 93156" transform="translate(5004 -13006)">
    <g id="Grupo_93155" data-name="Grupo 93155" transform="translate(-5360 -11614)">
      <g id="Elipse_4980" data-name="Elipse 4980" transform="translate(356 24620)" fill="#fff" stroke="#472ea6" stroke-width="3" stroke-dasharray="3 4">
        <circle cx="59" cy="59" r="59" stroke="none"/>
        <circle cx="59" cy="59" r="57.5" fill="none"/>
      </g>
      <circle id="Elipse_4981" data-name="Elipse 4981" cx="47" cy="47" r="47" transform="translate(368 24632)" fill="#bbabf5"/>
      <g id="Grupo_87544" data-name="Grupo 87544" transform="translate(-1124.256 24946.057)">
        <path id="Trazado_196486" data-name="Trazado 196486" d="M1781.953-251.118a12.755,12.755,0,0,1,8.958-12.438,12.6,12.6,0,0,1,14.341,5.4A12.578,12.578,0,0,1,1803.2-242.3a4.165,4.165,0,0,0-.824,1.1q-2.992,5.817-5.948,11.652c-.073.144-.151.286-.222.431a1.774,1.774,0,0,1-1.636,1.152,1.821,1.821,0,0,1-1.674-1.191c-1.01-2-2.033-3.994-3.051-5.99-1.063-2.086-2.115-4.179-3.2-6.254a4.012,4.012,0,0,0-.8-.972A12.3,12.3,0,0,1,1781.953-251.118Zm7.278-.373a5.36,5.36,0,0,0,5.321,5.337,5.376,5.376,0,0,0,5.342-5.323,5.379,5.379,0,0,0-5.327-5.338A5.36,5.36,0,0,0,1789.231-251.491Z" transform="translate(-239.007 -26.512)" fill="#472ea6"/>
        <path id="Trazado_196487" data-name="Trazado 196487" d="M1546.874-115.144v3.374c-.142.007-.333.025-.524.025-9.092,0-18.184.019-27.275,0a8.969,8.969,0,0,1-9.086-9.479,8.933,8.933,0,0,1,8.526-8.438c3.776-.089,7.556-.011,11.334-.038a5.614,5.614,0,0,0,5.581-5.489,5.616,5.616,0,0,0-5.425-5.641c-1.8-.04-3.6-.01-5.394-.012h-.618v-3.365c.119-.011.275-.036.431-.036,1.859,0,3.718-.029,5.576.008a8.95,8.95,0,0,1,8.827,9.31,8.91,8.91,0,0,1-8.542,8.6c-3.756.091-7.515.012-11.273.036a5.627,5.627,0,0,0-5.629,5.446,5.63,5.63,0,0,0,5.382,5.685c1.312.04,2.626.013,3.939.013h24.169Z" transform="translate(0 -131.812)" fill="#472ea6"/>
        <path id="Trazado_196488" data-name="Trazado 196488" d="M1517.2-283.57c0,1.337-.016,2.587.019,3.836a.748.748,0,0,0,.409.485,5.318,5.318,0,0,1,2.46,7.6,5.353,5.353,0,0,1-5.652,2.516,5.354,5.354,0,0,1-4.174-4.288,5.226,5.226,0,0,1,3.14-5.809c.4-.181.394-.436.393-.765q0-6.09,0-12.179c0-1.435.633-2.069,2.065-2.07q5.119,0,10.238,0a1.755,1.755,0,0,1,2.011,2q.006,3.3,0,6.6c0,1.452-.615,2.075-2.052,2.076q-4.059,0-8.118,0Z" transform="translate(-0.187)" fill="#472ea6"/>
        <path id="Trazado_196489" data-name="Trazado 196489" d="M1841.977,71.278a5.334,5.334,0,1,1,5.309,5.341A5.359,5.359,0,0,1,1841.977,71.278Z" transform="translate(-291.755 -316.54)" fill="#472ea6"/>
      </g>
    </g>
  </g>
</svg>
