<svg xmlns="http://www.w3.org/2000/svg" width="118" height="118" viewBox="0 0 118 118">
  <g id="Grupo_93155" data-name="Grupo 93155" transform="translate(-356 -24946)">
    <g id="Elipse_4984" data-name="Elipse 4984" transform="translate(356 24946)" fill="#fff" stroke="#472ea6" stroke-width="3" stroke-dasharray="3 4">
      <circle cx="59" cy="59" r="59" stroke="none"/>
      <circle cx="59" cy="59" r="57.5" fill="none"/>
    </g>
    <circle id="Elipse_4985" data-name="Elipse 4985" cx="47" cy="47" r="47" transform="translate(368 24958)" fill="#bbabf5"/>
    <g id="Grupo_87548" data-name="Grupo 87548" transform="translate(-1581.108 24675.988)">
      <path id="Trazado_196500" data-name="Trazado 196500" d="M1994.848,592.92v3.766c.3,0,.577-.012.853,0,.608.033.929.305.937.9q.035,2.7,0,5.4c-.007.616-.348.912-.977.945-.26.014-.522,0-.856,0v3.726c0,1.745-.057,1.8-1.784,1.8h-22.51c-1.186,0-1.4-.213-1.4-1.381q0-2.239,0-4.477c0-1.187.183-1.369,1.385-1.395.12,0,.241-.017.409-.03v-3.774c-.307,0-.59.018-.869,0a.872.872,0,0,1-.915-.942q-.025-2.667,0-5.335c.005-.666.315-.941,1-.969.242-.01.485,0,.835,0V590.1c0-1.1,0-2.208,0-3.312,0-.866.281-1.165,1.122-1.166q11.715-.006,23.429,0c.865,0,1.14.281,1.145,1.145.01,1.594.005,3.189,0,4.783,0,1.084-.234,1.309-1.346,1.336C1995.168,592.887,1995.027,592.906,1994.848,592.92Zm.069-1.805c0-1.074-.034-2.093.013-3.109.026-.564-.178-.672-.7-.671q-10.453.024-20.906.012c-.2,0-.393.023-.6.037v3.731Zm-1.871,1.817h-22.163v3.7h22.163Zm1.845,5.529h-22.163v3.7h22.163Zm-24.029,9.236h22.173V603.99h-22.173Z" transform="translate(0 -250.575)" fill="#472ea6"/>
      <path id="Trazado_196501" data-name="Trazado 196501" d="M2206.579,343.325c0-.533,0-1,0-1.46s-.011-.9.021-1.348a.777.777,0,0,1,.785-.787.734.734,0,0,1,.869.681c.05,1.3.048,2.613.011,3.918a.765.765,0,0,1-.795.714c-.285.022-.572.018-.858.018q-5.8,0-11.593,0c-1.129,0-1.358-.232-1.358-1.374q0-12.726,0-25.452c0-.823,0-.824-.839-.824-1.472,0-2.944,0-4.416,0-.448,0-.874-.039-1.093-.5a1.027,1.027,0,0,1,.289-1.167q6.166-7.475,12.322-14.958c.052-.063.1-.125.158-.187.669-.776,1.144-.782,1.792,0q1.646,1.981,3.278,3.974l9.083,11.03c.078.095.2.18.225.287.082.335.269.748.147,1a1.16,1.16,0,0,1-.871.5c-1.553.05-3.107.024-4.661.025h-.727c-.013.292-.032.529-.032.765q0,8.862,0,17.724a1.56,1.56,0,0,1-.1.833,1.22,1.22,0,0,1-.826.537c-.27-.017-.564-.367-.758-.636-.11-.153-.05-.435-.05-.66q0-9.476,0-18.951c0-1.141.212-1.349,1.37-1.35,1.3,0,2.6,0,4.1,0l-11.069-13.443-11.033,13.4c.337.022.541.045.744.046,1.125,0,2.249,0,3.374,0,1.094,0,1.335.242,1.336,1.337q0,12.634,0,25.268c0,1.2-.144,1.039,1.039,1.042,3.108.007,6.216,0,9.323,0Z" transform="translate(-191.364)" fill="#472ea6"/>
      <path id="Trazado_196502" data-name="Trazado 196502" d="M1994.869,387.924a12.843,12.843,0,1,1-12.861-12.839A12.889,12.889,0,0,1,1994.869,387.924Zm-12.855,11.122a11.117,11.117,0,1,0-11.1-11.135A11.128,11.128,0,0,0,1982.014,399.046Z" transform="translate(-0.066 -65.866)" fill="#472ea6"/>
      <path id="Trazado_196503" data-name="Trazado 196503" d="M2247.352,765.974q2.974,0,5.947,0a2.869,2.869,0,0,1,.61.032.8.8,0,0,1,.683.825.811.811,0,0,1-.679.832,2.393,2.393,0,0,1-.549.032q-6.069,0-12.138,0a3.075,3.075,0,0,1-.429-.011.812.812,0,0,1-.793-.851.789.789,0,0,1,.789-.846,9.361,9.361,0,0,1,.98-.015Z" transform="translate(-237.672 -408.81)" fill="#472ea6"/>
      <path id="Trazado_196504" data-name="Trazado 196504" d="M2247.225,728.264q3,0,6.008,0c.223,0,.511-.048.656.068a1.617,1.617,0,0,1,.619.8.725.725,0,0,1-.654.824,2.939,2.939,0,0,1-.609.041q-5.977,0-11.955,0c-.952,0-1.353-.257-1.356-.859s.417-.878,1.344-.878Z" transform="translate(-237.611 -375.722)" fill="#472ea6"/>
      <path id="Trazado_196505" data-name="Trazado 196505" d="M2247.05,692.607c-2.042,0-4.086.02-6.128-.02a1.481,1.481,0,0,1-.991-.438.786.786,0,0,1,.518-1.232,3.183,3.183,0,0,1,.671-.036q5.945,0,11.889,0c.123,0,.245,0,.367,0,.626.024,1,.332,1.016.83.015.517-.383.888-1.03.891C2251.258,692.615,2249.154,692.607,2247.05,692.607Z" transform="translate(-237.467 -342.929)" fill="#472ea6"/>
      <path id="Trazado_196506" data-name="Trazado 196506" d="M2043.614,400.276a14.238,14.238,0,0,1,2.366,1.147,3.814,3.814,0,0,1,1.272,3.816.745.745,0,0,1-.877.674.788.788,0,0,1-.786-.785c-.028-.325,0-.654-.025-.98a1.888,1.888,0,0,0-1.886-1.879,9.012,9.012,0,0,0-1.772.054,2.3,2.3,0,0,0-1.966,2.428,2.327,2.327,0,0,0,2.151,2.209c.487.044.981.02,1.469.063a4.059,4.059,0,0,1,.63,7.989c-.488.114-.624.318-.584.782a7.309,7.309,0,0,1-.012,1.286.851.851,0,1,1-1.7-.055,11.485,11.485,0,0,1,0-1.287c.036-.448-.128-.588-.574-.637a3.562,3.562,0,0,1-3.1-3.353c-.022-.622.262-1.008.773-1.05.488-.04.82.264.932.854a1.932,1.932,0,0,0,2.256,1.878c.388,0,.778.008,1.165-.018a2.338,2.338,0,0,0,.058-4.667c-.508-.044-1.023-.016-1.53-.068a4.067,4.067,0,0,1-.51-8.009c.456-.1.559-.286.531-.695a11.936,11.936,0,0,1,0-1.226c.021-.586.33-.94.816-.962.507-.023.861.341.9.95.019.285.006.572.007.858S2043.614,400.159,2043.614,400.276Z" transform="translate(-60.63 -85.779)" fill="#472ea6"/>
    </g>
  </g>
</svg>
