<svg xmlns="http://www.w3.org/2000/svg" xmlns:xlink="http://www.w3.org/1999/xlink" width="85" height="85" viewBox="0 0 85 85">
  <defs>
    <clipPath id="clip-path">
      <rect id="Rectángulo_36690" data-name="Rectángulo 36690" width="85" height="85" transform="translate(371 6754)" fill="#fff" stroke="#707070" stroke-width="1"/>
    </clipPath>
  </defs>
  <g id="Enmascarar_grupo_176" data-name="Enmascarar grupo 176" transform="translate(-371 -6754)" clip-path="url(#clip-path)">
    <g id="Grupo_87270" data-name="Grupo 87270" transform="translate(375.072 6763.867)">
      <path id="Trazado_195710" data-name="Trazado 195710" d="M2208.256-492.8c-1.281.1-1.281.1-1.281,1.419,0,1.632.019,3.264-.011,4.9-.009.509.11.69.656.679,1.711-.036,3.424-.013,5.136-.013,1.113,0,1.113,0,1.184-1.118a1.26,1.26,0,0,1-.028-.318c.109-.658-.134-.893-.818-.843-.854.062-1.715.016-2.573.017-1.29,0-1.3,0-1.286-1.321.015-1.242-.216-1.085,1.118-1.086q34.148-.005,68.3,0c.347,0,.695.022,1.042.034.453-.017.91,0,1.356-.057.729-.1.955.166.925.911-.062,1.539-.019,1.543-1.569,1.532-.239,0-.478-.03-.716-.046-.267.011-.534.033-.8.033q-28.522,0-57.044,0c-.214,0-.429.014-.642,0-.372-.029-.548.11-.518.5a4.671,4.671,0,0,1-.035.638,4.3,4.3,0,0,1,.037.638c-.035.409.167.511.528.491.32-.018.643,0,.965,0q30.563,0,61.127.017c.722,0,.944-.161.92-.908-.059-1.821-.032-3.646-.01-5.468.005-.441-.108-.672-.571-.578-1.467.3-2.428-.423-3.377-1.448-1.636-1.769-3.394-3.426-5.279-5.308h2.931c1.618,0,1.618,0,1.618-1.619a4.952,4.952,0,0,0,0-.643c-.185-1.409.007-2.342,1.716-2.857a4.69,4.69,0,0,0,2.918-4.976,5.091,5.091,0,0,0-3.968-4.516c-.524-.112-.7-.287-.674-.825.047-.963-.038-1.933.029-2.893.051-.743-.111-1.044-.932-.973-.984.086-1.983,0-2.973.029-.447.012-.656-.047-.654-.591,0-1.674-.026-1.674-1.715-1.675-1.474,0-2.949.02-4.424-.011-.487-.01-.633.113-.634.619,0,1.741-.024,1.72-1.741,1.662-.455-.015-.511-.189-.511-.573q.016-5.63,0-11.259c0-.481.113-.645.622-.646,1.641-.005,1.641-.028,1.642-1.686,0-1.474-.015-2.949.009-4.423.007-.455-.064-.671-.6-.668q-6.233.032-12.467.008c-.416,0-.555.122-.551.547q.029,2.855,0,5.71c-.006.448.175.54.57.532.531-.011,1.253-.173,1.549.1.4.367.137,1.111.139,1.69.014,3.324-.009,6.649.021,9.972,0,.578-.161.7-.713.7q-6.072-.037-12.145,0c-.542,0-.719-.1-.717-.686q.031-14.034,0-28.068c0-.568.146-.73.709-.705,1.071.046,2.145-.006,3.217.022.438.011.6-.1.6-.569-.026-1.9-.02-3.807,0-5.71,0-.372-.085-.558-.486-.5a2.983,2.983,0,0,1-.4,0q-17.252,0-34.5-.018c-.707,0-.868.166-.866.869.027,9.222.009,18.444.034,27.666,0,.726-.168.972-.916.923-1.041-.068-2.091,0-3.135-.025-.417-.01-.609.045-.608.546.02,7.935,0,15.87.035,23.805a11.614,11.614,0,0,0,1.51,5.2,14.166,14.166,0,0,0,2.968,3.231Zm45.414-2.017,1.627,2.009h-8.2a15.329,15.329,0,0,0,1.759-2.039,1.544,1.544,0,0,1,2.023-1.316,2.112,2.112,0,0,0,.8,0C2252.822-496.41,2253.4-495.853,2253.67-494.82Zm-16.341.825a4.59,4.59,0,0,1-1.649-1.47c-.124-.159-.336-.32-.2-.556.11-.192.336-.121.511-.12q4.076,0,8.151.021c.668-.007,1.336-.02,2-.018.176,0,.409-.078.512.117.121.228-.1.392-.205.563a5.564,5.564,0,0,1-1.824,1.658C2242.385-492.384,2239.055-492.48,2237.329-493.995Zm26.439-41.72a9.975,9.975,0,0,1,1.74-.063c.336-.02.444.132.475.469.166,1.813.161,1.83-1.607,1.807-.209,0-.418-.042-.627-.064-1.762.016-3.524.037-5.286.045-1.618.008-1.618,0-1.57-1.607a1.254,1.254,0,0,0,0-.16c-.035-.346.127-.473.466-.47C2259.494-535.738,2261.631-535.728,2263.768-535.715Zm-36.429,40.866c.538-1.31.538-1.31,1.9-1.31a10.967,10.967,0,0,0,1.831-.017,1.8,1.8,0,0,1,2.319,1.5l1.54,1.847h-9.24Zm32.241-36.358,1.78.009c.435-.2.9-.038,1.343-.1.789-.116,1.068.154,1.053,1-.053,2.971-.01,5.943-.029,8.914,0,.823.358,1.889-.146,2.405-.542.556-1.624.167-2.469.178-2.219.029-2.22.011-1.911-2.253-.118-3.185-.069-6.369-.021-9.554,0-.22-.05-.507.276-.6C2259.5-531.291,2259.537-531.272,2259.579-531.207Zm10.816,33.156c.011-.077,0-.2.039-.226a3.692,3.692,0,0,1,2.927.32q2.187,2.187,4.367,4.381c.214.217.522.371.6.743h-10.858a12.794,12.794,0,0,0,1.74-2.007A12.589,12.589,0,0,0,2270.4-498.051Zm-12.454,4.206a4.761,4.761,0,0,1-1.916-1.656c-.121-.155-.355-.326-.21-.552.107-.167.346-.087.526-.088,1.659-.006,3.319.007,4.977-.01a3.25,3.25,0,0,0,2.841-1.378,3.417,3.417,0,0,0,.224-3.652,3.048,3.048,0,0,0-2.939-1.732q-2.568,0-5.138,0c-.184,0-.409.037-.508-.156s.087-.338.191-.487a6.364,6.364,0,0,1,1.531-1.518c3.244-2.358,8.245-1.161,9.83,2.352,1.93,2.864.633,7.334-2.641,9.114A6.514,6.514,0,0,1,2257.941-493.845Zm-44.033-58.741c0-.1.055-.138.149-.132l.483-.005c.322-.011.643-.031.964-.031q13.314,0,26.627,0c.294,0,.588.02.883.031l.318,0c.586-.008,1.171-.011,1.757-.027.319-.009.464.1.5.447.2,1.754.167,1.807-1.542,1.805-.239,0-.478-.016-.717-.024q-11.622.012-23.244.022c-2.01,0-4.021-.016-6.031-.025-.1.007-.15-.034-.15-.135Zm63.338,48.736c.012.45-.008.9.045,1.349.073.6-.151.762-.746.752-1.56-.027-1.562,0-1.544-1.542,0-.184.027-.369.041-.553l-.024-6.889a6.76,6.76,0,0,0-2.258-.076l-.046,7.918c.014.581.02,1.163.045,1.744.015.331-.11.452-.451.487-1.783.181-1.826.154-1.816-1.587,0-.21.028-.42.042-.631q-.016-7.152-.031-14.3c0-1.707,0-1.691,1.712-1.627.425.016.548.143.539.56-.025,1.178-.009,2.357-.009,3.536,0,1.656,0,1.638,1.686,1.585.462-.014.6-.166.588-.611-.019-.883.012-1.766.023-2.649-.02-.129.042-.162.156-.132l1.922.007c.114-.03.157.012.127.127Q2277.246-510.118,2277.245-503.85Zm-16.878,5.386c-.214.013-.427.036-.64.036q-18.483,0-36.966,0c-.266,0-.532-.031-.8-.048a.263.263,0,0,1-.34-.086.7.7,0,0,1-.528-.4.767.767,0,0,1,.017-1.2.853.853,0,0,1,.672-.42,1.281,1.281,0,0,1,.854-.121q18.637-.007,37.274,0c.509,0,1.018-.006,1.525.021a1.067,1.067,0,0,1,1.116,1.121,1.089,1.089,0,0,1-1.154,1.164A9.062,9.062,0,0,1,2260.367-498.465ZM2213.885-494a3.035,3.035,0,0,1-.365-.159,9.063,9.063,0,0,1-4.119-9.313,9.126,9.126,0,0,1,6.824-7.122,8.868,8.868,0,0,1,9.909,4.475,4.907,4.907,0,0,1,.927,2.18c.277,1.038.171,1.128-.961.95-1.491.162-2.989.012-4.482.087-.106.014-.139-.047-.142-.139a3.483,3.483,0,0,0-3.657-2.167,3.425,3.425,0,0,0-2.952,3.625,3.43,3.43,0,0,0,3.562,3.194c.294,0,.583-.056.752.3a3.5,3.5,0,0,0,2.761,1.96c.881,0,1.762-.012,2.644-.006.17,0,.412-.094.491.137.071.207-.135.332-.265.452-.352.326-.709.648-1.082.949A8.942,8.942,0,0,1,2213.885-494Zm.142-54.2.374-.013c.293-.012.587-.036.88-.036q9.877,0,19.756,0c.775,0,1.55.023,2.325.036h1.167a14.954,14.954,0,0,0,1.683-.035c.73-.093.884.18.882.881q-.037,13.864,0,27.727c0,.762-.253.852-.908.851q-12.1-.03-24.192-.013c-2.248,0-2.248,0-2.088-2.257-.012-.187-.035-.373-.035-.559q0-12.977,0-25.954c0-.185.035-.37.053-.555C2213.912-548.212,2213.956-548.221,2214.026-548.194Zm52,31.691c.481-.015.966,0,1.442-.052.66-.078.8.209.8.823-.027,3.108-.01,6.216-.016,9.324,0,.2.088.432-.153.6l-2.358-1.748c-.173-.071-.349-.137-.519-.214a8.729,8.729,0,0,0-11.043,2.972,3.5,3.5,0,0,1-3.835,1.909,1.332,1.332,0,0,1-1.229-.773,8.73,8.73,0,0,0-7.917-4.919,8.431,8.431,0,0,0-7.774,4.3,2.256,2.256,0,0,1-2.58,1.361.529.529,0,0,0-.081,0c-1.179,0-1.179,0-1.406-1.157a11.311,11.311,0,0,0-18.1-6.57,14.546,14.546,0,0,0-2.024,2.038v-1.364q0-5.83,0-11.659c0-1.754,0-1.734,1.757-1.7.5.011.64.18.634.659-.021,1.661-.012,3.323,0,4.985,0,1.268-.127,1.137,1.1,1.137l52.189,0C2265.279-516.542,2265.653-516.517,2266.027-516.5Zm-24.944,13.587c-1.687,0-3.374,0-5.062,0-.206,0-.476.067-.575-.169-.09-.217.092-.409.234-.564a15.1,15.1,0,0,1,1.062-1.095,6.819,6.819,0,0,1,9.714,1.078c.123.171.321.356.243.568-.108.294-.414.177-.636.179C2244.4-502.914,2242.743-502.918,2241.083-502.916Zm38.452-6.3h0c0-.749.014-1.5-.006-2.248-.012-.427.141-.5.526-.375a3.046,3.046,0,0,1,1.9,2.721,3.136,3.136,0,0,1-1.922,2.639c-.433.14-.5-.035-.5-.409C2279.545-507.664,2279.535-508.441,2279.535-509.217Zm-61.282,6.253a1.174,1.174,0,0,1,1.188,1.149,1.156,1.156,0,0,1-1.166,1.165,1.16,1.16,0,0,1-1.147-1.1A1.168,1.168,0,0,1,2218.253-502.964Z" transform="translate(-2206.963 555.02)" fill="#040505"/>
      <path id="Trazado_195711" data-name="Trazado 195711" d="M2246.554-150.584a4.67,4.67,0,0,0,.035-.638c-.03-.393.146-.531.518-.5.213.017.429,0,.643,0q28.522,0,57.044,0c.267,0,.533-.022.8-.033q0-1.17,0-2.34c-.347-.012-.7-.034-1.042-.034q-34.148,0-68.3,0c-1.334,0-1.1-.156-1.117,1.086-.016,1.322,0,1.322,1.285,1.321.858,0,1.72.046,2.573-.017.684-.05.927.185.817.843a1.272,1.272,0,0,0,.028.318l2.189,0c.078-1.139.078-1.139,1.172-1.14s1.079,0,1.166,1.14Z" transform="translate(-2232.87 218.655)" fill="#c3d7ea"/>
      <path id="Trazado_195712" data-name="Trazado 195712" d="M2341.307-506.3v.963c0,1.389,0,1.35,1.383,1.4.684.026.95-.121.9-.864-.069-1.092-.033-2.193-.01-3.289.009-.42-.133-.54-.55-.556-1.727-.064-1.726-.079-1.726,1.622Z" transform="translate(-2287.959 516.126)" fill="#040505"/>
      <path id="Trazado_195713" data-name="Trazado 195713" d="M2298.641-489.65c.149.161.27.3.4.427,1.136,1.168,1.139,1.17,2.281.041.609-.6,1.2-1.227,1.82-1.811.31-.29.281-.463,0-.761-1.19-1.245-1.182-1.257-2.408-.038q-.882.877-1.753,1.765C2298.864-489.916,2298.767-489.793,2298.641-489.65Z" transform="translate(-2240.854 502.727)" fill="#040505"/>
      <path id="Trazado_195714" data-name="Trazado 195714" d="M2368.843-491.652c.106.131.179.239.27.33q1.327,1.335,2.661,2.663c.122.122.252.348.457.156.447-.419.885-.851,1.3-1.3.186-.2-.041-.336-.164-.459-.884-.891-1.781-1.769-2.655-2.669-.244-.251-.415-.259-.647,0-.3.336-.638.646-.955.971C2369.022-491.872,2368.945-491.771,2368.843-491.652Z" transform="translate(-2322.395 503.085)" fill="#040505"/>
      <path id="Trazado_195715" data-name="Trazado 195715" d="M2658.974-185.294h3.221a14.162,14.162,0,0,1-2.968-3.231C2658.8-187.474,2659.065-186.37,2658.974-185.294Z" transform="translate(-2657.682 247.511)" fill="#88ceea"/>
      <path id="Trazado_195716" data-name="Trazado 195716" d="M2617.873-138c-.087-1.141-.087-1.141-1.167-1.14s-1.094,0-1.172,1.14a4.249,4.249,0,0,1,.031.633c-.036.39.133.528.5.495.184-.017.371,0,.557,0C2617.788-136.873,2617.788-136.873,2617.873-138Z" transform="translate(-2606.37 206.072)" fill="#040505"/>
      <path id="Trazado_195717" data-name="Trazado 195717" d="M2376.827-351.328c-.374-.014-.749-.039-1.123-.039q-26.095,0-52.189,0c-1.225,0-1.093.131-1.1-1.137-.008-1.662-.016-3.324.006-4.985.006-.478-.134-.648-.634-.658-1.758-.037-1.757-.056-1.757,1.7q0,5.83,0,11.659v1.364a14.478,14.478,0,0,1,2.024-2.038,11.311,11.311,0,0,1,18.1,6.57c.227,1.157.227,1.157,1.406,1.157a.542.542,0,0,1,.081,0,2.256,2.256,0,0,0,2.581-1.361,8.432,8.432,0,0,1,7.776-4.3,8.729,8.729,0,0,1,7.915,4.919,1.333,1.333,0,0,0,1.23.773,3.5,3.5,0,0,0,3.835-1.909,8.73,8.73,0,0,1,11.043-2.972c.17.077.346.143.519.214.3-.044.282-.27.28-.485q-.018-1.952-.037-3.9c-.585.02-1.172.034-1.756.063-.428.021-.639-.135-.629-.6.048-2.259-.3-1.793,1.77-1.847a5.732,5.732,0,0,1,.636.052Z" transform="translate(-2317.763 389.844)" fill="#9984e7"/>
      <path id="Trazado_195718" data-name="Trazado 195718" d="M2488.866-512.6c-.018.185-.053.37-.053.555q0,12.977,0,25.954c0,.186.024.373.036.559h4.5q9.682,0,19.362,0c1.056,0,1.059,0,1.056-1.083,0-1.151-.012-2.3-.018-3.454-5.841.006-11.682.006-17.523.03-.524,0-.615-.193-.612-.658.018-2.786.009-5.573.009-8.359,0-1.13,0-1.13,1.1-1.254q-.01-1.068-.019-2.136c-1.081-.108-1.08-.108-1.081-1.263,0-2.035.012-4.07-.01-6.1-.005-.478.118-.651.625-.649q8.755.032,17.51.026c-.1-.749.329-1.564-.279-2.25H2512.3c-.235.191-.513.111-.773.111q-10.708.007-21.417,0c-.259,0-.538.081-.773-.111l-.374.013A.081.081,0,0,1,2488.866-512.6Z" transform="translate(-2481.902 519.502)" fill="#bbabf5"/>
      <path id="Trazado_195719" data-name="Trazado 195719" d="M2580.248-272.392c1.493-.075,2.991.075,4.482-.086q.017-1.565.034-3.13a8.869,8.869,0,0,0-9.909-4.475,9.124,9.124,0,0,0-6.824,7.122,9.06,9.06,0,0,0,4.117,9.313,3.056,3.056,0,0,0,.365.159c.608-.291,1.161.123,1.75.144a11.235,11.235,0,0,0,5.858-1.6c.257-.141.512-.314.449-.681a3.5,3.5,0,0,1-2.761-1.96c-.17-.351-.459-.292-.752-.3a3.43,3.43,0,0,1-3.562-3.194,3.425,3.425,0,0,1,2.953-3.625,3.483,3.483,0,0,1,3.656,2.167Z" transform="translate(-2565.594 324.513)" fill="#56738a"/>
      <path id="Trazado_195720" data-name="Trazado 195720" d="M2499.882-490.346c.006,1.151.015,2.3.018,3.454,0,1.078,0,1.082-1.056,1.083q-9.681,0-19.362,0h-4.5c-.16,2.257-.16,2.257,2.087,2.257q12.1,0,24.193.013c.655,0,.911-.089.908-.85q-.048-13.864,0-27.727c0-.7-.152-.974-.882-.881a14.945,14.945,0,0,1-1.683.035c.609.686.175,1.5.279,2.25Z" transform="translate(-2468.036 519.776)" fill="#7b66c9"/>
      <path id="Trazado_195721" data-name="Trazado 195721" d="M2353.982-216.841a.854.854,0,0,0-.673.42q-.008.6-.017,1.2a.7.7,0,0,0,.528.4c.165-.174.26-.077.34.086.266.017.532.048.8.048q18.483,0,36.966,0c.213,0,.426-.024.639-.037.641-1.47.3-2.028-1.235-2.028q-18.327,0-36.654,0C2354.443-216.743,2354.192-216.659,2353.982-216.841Z" transform="translate(-2339.161 271.269)" fill="#e2ecf4"/>
      <path id="Trazado_195722" data-name="Trazado 195722" d="M2254.841-322.057l.025,6.889,2.2-.007V-327.71l-.127-.127-1.922-.007-.156.132c-.011.883-.042,1.767-.023,2.649.01.445-.126.6-.588.611-1.687.053-1.686.071-1.686-1.585,0-1.179-.017-2.358.009-3.536.008-.417-.115-.544-.539-.56-1.713-.064-1.715-.08-1.712,1.627q.014,7.152.031,14.3l2.18-.012.047-7.918a2.693,2.693,0,0,1,2.239-.075C2254.852-322.186,2254.837-322.108,2254.841-322.057Z" transform="translate(-2186.788 366.344)" fill="#c3d7ea"/>
      <path id="Trazado_195723" data-name="Trazado 195723" d="M2460.544-540.753l-.484,0-.149.132q0,.964,0,1.928l.15.135c2.011.009,4.021.026,6.031.025q11.622-.006,23.244-.022a3.4,3.4,0,0,0,0-2.2l-.319,0c-.256.221-.564.129-.849.129q-13.387.007-26.774,0C2461.108-540.624,2460.8-540.532,2460.544-540.753Z" transform="translate(-2452.967 543.049)" fill="#56738a"/>
      <path id="Trazado_195724" data-name="Trazado 195724" d="M2323.4-248.746c-1.585-3.513-6.587-4.71-9.831-2.352a6.382,6.382,0,0,0-1.531,1.518c-.1.149-.293.288-.191.487s.325.155.509.156q2.568.006,5.138,0a3.049,3.049,0,0,1,2.939,1.732,3.416,3.416,0,0,1-.224,3.652,3.25,3.25,0,0,1-2.84,1.378c-1.659.017-3.318,0-4.977.01-.18,0-.418-.079-.526.088-.145.226.09.4.21.553a4.755,4.755,0,0,0,1.916,1.655c.322-.008.643-.033.964-.02a8.061,8.061,0,0,0,8.3-7.12C2323.318-247.584,2323.051-248.2,2323.4-248.746Z" transform="translate(-2263.016 301.039)" fill="#56738a"/>
      <path id="Trazado_195725" data-name="Trazado 195725" d="M2333.712-397.537c-.308,2.263-.308,2.282,1.911,2.253.844-.011,1.927.378,2.469-.178.5-.516.142-1.583.147-2.405.019-2.971-.024-5.943.028-8.914.015-.845-.265-1.115-1.054-1-.444.065-.908-.1-1.343.1q0,4,0,8C2335.871-397.526,2335.87-397.526,2333.712-397.537Z" transform="translate(-2281.475 431.5)" fill="#472ea6"/>
      <path id="Trazado_195726" data-name="Trazado 195726" d="M2245.373-199.945a12.794,12.794,0,0,1-1.739,2.007h10.858c-.073-.371-.382-.526-.6-.743q-2.174-2.2-4.368-4.381a3.691,3.691,0,0,0-2.926-.32c-.044.029-.027.148-.039.226.126.03.293.018.371.1q1.264,1.27,2.5,2.567c.1.11.255.275.234.386-.045.238-.294.169-.469.169C2247.925-199.936,2246.648-199.942,2245.373-199.945Z" transform="translate(-2183.131 260.124)" fill="#88ceea"/>
      <path id="Trazado_195727" data-name="Trazado 195727" d="M2445.665-248.941c1.661,0,3.321,0,4.981-.006.222,0,.529.116.636-.178.078-.212-.121-.4-.244-.568a6.819,6.819,0,0,0-9.714-1.078,14.912,14.912,0,0,0-1.061,1.095c-.144.155-.326.347-.235.564.1.237.369.169.575.169Q2443.135-248.936,2445.665-248.941Z" transform="translate(-2411.546 301.044)" fill="#56738a"/>
      <path id="Trazado_195728" data-name="Trazado 195728" d="M2349.1-396.913c2.157.011,2.158.011,2.159-2.139q0-4,0-8l-1.779-.009-.062.009-.062-.009c-.326.089-.272.375-.276.6C2349.034-403.282,2348.985-400.1,2349.1-396.913Z" transform="translate(-2296.865 430.876)" fill="#7b5eec"/>
      <path id="Trazado_195729" data-name="Trazado 195729" d="M2306.355-311.488q.019,1.952.037,3.9c0,.215.016.441-.28.485l2.359,1.748c.24-.168.152-.4.152-.6.006-3.108-.01-6.216.017-9.324.005-.613-.138-.9-.8-.823-.476.056-.961.038-1.442.052l-.023,2.228q-.021.245-.041.49,0,.77-.008,1.541C2306.337-311.686,2306.346-311.587,2306.355-311.488Z" transform="translate(-2247.336 354.562)" fill="#472ea6"/>
      <path id="Trazado_195730" data-name="Trazado 195730" d="M2315.619-230.11c-.35.548-.083,1.163-.147,1.742a8.061,8.061,0,0,1-8.3,7.12c-.32-.013-.642.012-.964.02a6.513,6.513,0,0,0,6.767.232C2316.252-222.776,2317.549-227.246,2315.619-230.11Z" transform="translate(-2255.234 282.403)" fill="#495e71"/>
      <path id="Trazado_195731" data-name="Trazado 195731" d="M2341.6-217.547c.209.182.461.1.694.1q18.326,0,36.653,0c1.536,0,1.876.558,1.235,2.028a9.074,9.074,0,0,0,1.034.055,1.09,1.09,0,0,0,1.154-1.164,1.067,1.067,0,0,0-1.116-1.121c-.508-.027-1.017-.021-1.526-.021q-18.637,0-37.273,0C2342.168-217.668,2341.862-217.746,2341.6-217.547Z" transform="translate(-2326.779 271.976)" fill="#a1b0be"/>
      <path id="Trazado_195732" data-name="Trazado 195732" d="M2514.926-181.16l-1.653,2.016h9.24l-1.54-1.847a9.683,9.683,0,0,0-1.977-.153C2517.64-181.134,2516.282-181.153,2514.926-181.16Z" transform="translate(-2494.551 241.331)" fill="#88ceea"/>
      <path id="Trazado_195733" data-name="Trazado 195733" d="M2340.962-435.3c-2.136-.013-4.273-.023-6.409-.043-.339,0-.5.124-.466.47a1.255,1.255,0,0,1,0,.16c-.049,1.609-.049,1.615,1.57,1.607,1.762-.009,3.524-.03,5.286-.045Q2340.952-434.226,2340.962-435.3Z" transform="translate(-2284.158 454.605)" fill="#c3d7ea"/>
      <path id="Trazado_195734" data-name="Trazado 195734" d="M2582.432-189.255c.063.367-.193.541-.449.681a11.235,11.235,0,0,1-5.858,1.6c-.589-.021-1.143-.435-1.751-.144a8.942,8.942,0,0,0,9.846-.6c.373-.3.731-.623,1.083-.949.129-.12.336-.245.264-.452-.079-.231-.322-.136-.492-.137C2584.193-189.267,2583.312-189.258,2582.432-189.255Z" transform="translate(-2567.452 248.143)" fill="#495e71"/>
      <path id="Trazado_195735" data-name="Trazado 195735" d="M2464.719-189.239q-4.076-.013-8.151-.021c-.176,0-.4-.071-.511.12-.135.236.076.4.2.556a4.577,4.577,0,0,0,1.649,1.47,1.6,1.6,0,0,1,.478-.02,6.554,6.554,0,0,0,4.132-.511A3.921,3.921,0,0,0,2464.719-189.239Z" transform="translate(-2427.54 248.139)" fill="#56738a"/>
      <path id="Trazado_195736" data-name="Trazado 195736" d="M2388.462-181.17a15.4,15.4,0,0,1-1.759,2.039h8.2l-1.627-2.009Z" transform="translate(-2346.567 241.34)" fill="#88ceea"/>
      <path id="Trazado_195737" data-name="Trazado 195737" d="M2446.971-189.229a3.921,3.921,0,0,1-2.2,1.594,6.555,6.555,0,0,1-4.132.511,1.6,1.6,0,0,0-.478.02c1.726,1.515,5.055,1.611,7.3.2a5.552,5.552,0,0,0,1.824-1.658c.109-.171.326-.335.206-.563-.1-.194-.336-.116-.512-.117C2448.307-189.249,2447.639-189.236,2446.971-189.229Z" transform="translate(-2409.793 248.129)" fill="#495e71"/>
      <path id="Trazado_195738" data-name="Trazado 195738" d="M2221.109-284.4c0,.776.01,1.552,0,2.328-.008.374.065.55.5.409a3.137,3.137,0,0,0,1.922-2.639,3.045,3.045,0,0,0-1.9-2.721c-.384-.128-.538-.052-.526.375.02.749.006,1.5.006,2.248Z" transform="translate(-2148.538 330.202)" fill="#f1da26"/>
      <path id="Trazado_195739" data-name="Trazado 195739" d="M2273.584-197.848c1.275,0,2.552.009,3.827.008.175,0,.424.069.468-.169.021-.111-.129-.277-.234-.386q-1.24-1.293-2.5-2.567c-.077-.078-.244-.066-.371-.1A12.588,12.588,0,0,1,2273.584-197.848Z" transform="translate(-2211.343 258.027)" fill="#b5e5f9"/>
      <path id="Trazado_195740" data-name="Trazado 195740" d="M2522.84-188.333c1.357.007,2.714.026,4.071.017a9.675,9.675,0,0,1,1.977.153,1.8,1.8,0,0,0-2.318-1.5,10.966,10.966,0,0,1-1.832.017C2523.378-189.644,2523.378-189.644,2522.84-188.333Z" transform="translate(-2502.466 248.505)" fill="#b5e5f9"/>
      <path id="Trazado_195741" data-name="Trazado 195741" d="M2396.811-188.327l4.811.03c-.268-1.033-.848-1.589-1.991-1.347a2.113,2.113,0,0,1-.8,0A1.544,1.544,0,0,0,2396.811-188.327Z" transform="translate(-2354.915 248.497)" fill="#b5e5f9"/>
      <path id="Trazado_195742" data-name="Trazado 195742" d="M2220.946-154.288q0,1.17,0,2.34c.239.016.477.044.716.046,1.55.011,1.507.007,1.569-1.532.03-.745-.2-1.007-.926-.911C2221.855-154.287,2221.4-154.3,2220.946-154.288Z" transform="translate(-2148.219 218.848)" fill="#a1b0be"/>
      <path id="Trazado_195743" data-name="Trazado 195743" d="M2319.908-435.442q-.009,1.074-.02,2.148c.209.022.418.062.627.065,1.769.022,1.773.005,1.608-1.807-.031-.336-.138-.488-.474-.469A9.983,9.983,0,0,0,2319.908-435.442Z" transform="translate(-2263.104 454.747)" fill="#a1b0be"/>
      <path id="Trazado_195744" data-name="Trazado 195744" d="M2280.422-231.123l-2.18.012c-.015.21-.041.42-.042.631-.01,1.742.033,1.768,1.816,1.587.341-.035.467-.155.452-.487C2280.442-229.96,2280.437-230.542,2280.422-231.123Z" transform="translate(-2214.672 283.253)" fill="#a1b0be"/>
      <path id="Trazado_195745" data-name="Trazado 195745" d="M2446.483-540.875a3.4,3.4,0,0,1,0,2.2c.239.008.478.024.718.024,1.709,0,1.743-.051,1.542-1.805-.041-.351-.186-.456-.5-.447C2447.654-540.886,2447.069-540.883,2446.483-540.875Z" transform="translate(-2410.116 543.175)" fill="#495e71"/>
      <path id="Trazado_195746" data-name="Trazado 195746" d="M2252.216-237.09l-2.2.007c-.014.184-.04.368-.041.553-.018,1.545-.017,1.515,1.543,1.542.6.01.82-.15.746-.752C2252.207-236.186,2252.229-236.64,2252.216-237.09Z" transform="translate(-2181.935 288.259)" fill="#a1b0be"/>
      <path id="Trazado_195747" data-name="Trazado 195747" d="M2463.029-540.921c.255.22.564.129.849.129q13.387.007,26.774,0c.285,0,.594.092.849-.129-.294-.011-.588-.031-.883-.031q-13.312,0-26.626,0C2463.671-540.952,2463.35-540.932,2463.029-540.921Z" transform="translate(-2455.453 543.217)" fill="#495e71"/>
      <path id="Trazado_195748" data-name="Trazado 195748" d="M2610.606-231.583a1.167,1.167,0,0,0-1.124,1.209,1.159,1.159,0,0,0,1.147,1.1,1.156,1.156,0,0,0,1.166-1.165A1.174,1.174,0,0,0,2610.606-231.583Z" transform="translate(-2599.316 283.639)" fill="#a1b0be"/>
      <path id="Trazado_195749" data-name="Trazado 195749" d="M2498.131-512.884c.235.192.514.111.773.111q10.708.006,21.416,0c.26,0,.538.08.773-.111-.775-.012-1.551-.035-2.325-.036q-9.878,0-19.757,0C2498.717-512.919,2498.424-512.9,2498.131-512.884Z" transform="translate(-2490.694 519.697)" fill="#56de74"/>
      <path id="Trazado_195750" data-name="Trazado 195750" d="M2561.371-251.166q-.016,1.565-.034,3.13c1.132.178,1.238.088.961-.95A4.91,4.91,0,0,0,2561.371-251.166Z" transform="translate(-2542.2 300.07)" fill="#495e71"/>
      <path id="Trazado_195751" data-name="Trazado 195751" d="M2266.434-281.726c0-.052.01-.129-.018-.151a2.694,2.694,0,0,0-2.24.075A6.759,6.759,0,0,1,2266.434-281.726Z" transform="translate(-2198.38 326.013)" fill="#a1b0be"/>
      <path id="Trazado_195752" data-name="Trazado 195752" d="M2599.384-213.025q.008-.6.017-1.2A.767.767,0,0,0,2599.384-213.025Z" transform="translate(-2585.252 269.079)" fill="#a1b0be"/>
      <path id="Trazado_195753" data-name="Trazado 195753" d="M2594.155-204.636c-.079-.163-.176-.26-.34-.086A.263.263,0,0,0,2594.155-204.636Z" transform="translate(-2579.156 261.179)" fill="#a1b0be"/>
      <path id="Trazado_195754" data-name="Trazado 195754" d="M2642.939-540.591l.149-.132C2642.994-540.729,2642.936-540.694,2642.939-540.591Z" transform="translate(-2635.995 543.024)" fill="#495e71"/>
      <path id="Trazado_195755" data-name="Trazado 195755" d="M2360.093-407.354l.062.008.062-.009C2360.175-407.419,2360.134-407.439,2360.093-407.354Z" transform="translate(-2307.601 431.168)" fill="#04bd14"/>
      <path id="Trazado_195756" data-name="Trazado 195756" d="M2596.1-231.906l-.142-.139C2595.958-231.953,2595.991-231.892,2596.1-231.906Z" transform="translate(-2581.442 284.026)" fill="#495e71"/>
      <path id="Trazado_195757" data-name="Trazado 195757" d="M2250.269-315.812l.128.127C2250.426-315.8,2250.383-315.841,2250.269-315.812Z" transform="translate(-2180.114 354.319)" fill="#a1b0be"/>
      <path id="Trazado_195758" data-name="Trazado 195758" d="M2263.062-315.732l.156-.132C2263.1-315.894,2263.042-315.861,2263.062-315.732Z" transform="translate(-2194.985 354.363)" fill="#a1b0be"/>
      <path id="Trazado_195759" data-name="Trazado 195759" d="M2643.127-512.6a.081.081,0,0,0,.1-.072C2643.156-512.7,2643.112-512.695,2643.127-512.6Z" transform="translate(-2636.163 519.503)" fill="#56de74"/>
      <path id="Trazado_195760" data-name="Trazado 195760" d="M2643.088-527.784l-.151-.135C2642.938-527.818,2642.991-527.777,2643.088-527.784Z" transform="translate(-2635.995 532.281)" fill="#495e71"/>
      <path id="Trazado_195761" data-name="Trazado 195761" d="M2322.539-301.676q.021-.245.041-.49a5.762,5.762,0,0,0-.636-.052c-2.07.054-1.722-.411-1.77,1.847-.01.463.2.618.629.6.585-.029,1.171-.043,1.756-.063q-.015-.149-.028-.3a5.625,5.625,0,0,1-1.577.1c-.329.012-.615-.1-.577-.481.05-.5-.319-1.226.253-1.433A1.671,1.671,0,0,1,2322.539-301.676Z" transform="translate(-2263.54 342.91)" fill="#8ae497"/>
      <path id="Trazado_195762" data-name="Trazado 195762" d="M2507.28-478.479v-20.366q-8.755-.009-17.511-.027c-.508,0-.631.17-.625.648.022,2.035.01,4.069.01,6.1,0,1.154,0,1.154,1.081,1.263,1.19-.143,1.189-.143,1.19-1.4s.009-2.516,0-3.773c0-.389.092-.58.537-.577,3.611.027,7.223.035,10.834.049.561-.014,1.121-.013,1.681-.047.411-.025.561.115.56.544q-.018,7.384,0,14.767c0,.394-.085.574-.53.572-4.28-.023-8.56-.026-12.84-.035-.07.037-.121.03-.135-.06a6.376,6.376,0,0,1-.051-2.15c-.016-1.472-.039-2.945-.048-4.418-.008-1.195,0-1.195-1.173-1.339-1.1.124-1.1.124-1.1,1.254,0,2.786.009,5.573-.008,8.359,0,.465.088.66.612.658C2495.6-478.473,2501.439-478.473,2507.28-478.479Z" transform="translate(-2475.434 507.909)" fill="#020704"/>
      <path id="Trazado_195763" data-name="Trazado 195763" d="M2516.975-476.895c1.17.145,1.164.145,1.172,1.339.01,1.473.032,2.945.049,4.418,3.5,0,7.005,0,10.508.016.566,0,.827-.159.822-.773-.025-2.807-.019-5.614-.023-8.421a4.885,4.885,0,0,1-.694.166c-1.657.157-1.647.115-1.573-1.529.033-.738.317-.928.97-.87.423.037.852.023,1.277.032q.016-1.106.031-2.213c-3.611-.014-7.223-.022-10.834-.049-.444,0-.54.188-.537.577.013,1.258,0,2.515,0,3.773s0,1.254-1.189,1.4Zm5.635-4.434c0-1.215,0-1.215,1.085-1.216,1.312,0,1.312,0,1.314,1.146,0,1.254,0,1.254-1.045,1.256C2522.61-480.14,2522.61-480.14,2522.609-481.329Z" transform="translate(-2502.155 496.083)" fill="#b5e5f9"/>
      <path id="Trazado_195764" data-name="Trazado 195764" d="M2322.665-301.153a1.671,1.671,0,0,0-1.909-.275c-.572.207-.2.937-.254,1.434-.038.377.25.493.578.481a5.619,5.619,0,0,0,1.576-.1Q2322.661-300.383,2322.665-301.153Z" transform="translate(-2263.666 342.388)" fill="#f7f8fa"/>
      <path id="Trazado_195765" data-name="Trazado 195765" d="M2514.5-484.732q-.015,1.106-.031,2.212l.02,2.2c0,2.807,0,5.615.023,8.421.005.614-.256.776-.822.773-3.5-.018-7.006-.013-10.509-.016a6.373,6.373,0,0,0,.051,2.149l.135.06c4.28.009,8.56.013,12.84.035.444,0,.531-.178.53-.572q-.014-7.384,0-14.767c0-.429-.149-.57-.56-.544C2515.618-484.745,2515.057-484.746,2514.5-484.732Z" transform="translate(-2487.14 496.087)" fill="#8cd7f4"/>
      <path id="Trazado_195766" data-name="Trazado 195766" d="M2586.328-386.612l-.135-.06C2586.207-386.581,2586.258-386.575,2586.328-386.612Z" transform="translate(-2570.102 413.767)" fill="#8ae497"/>
      <path id="Trazado_195767" data-name="Trazado 195767" d="M2545.021-469.682c0,1.189,0,1.189,1.353,1.186,1.047,0,1.047,0,1.045-1.256,0-1.147,0-1.147-1.314-1.146C2545.02-470.9,2545.02-470.9,2545.021-469.682Z" transform="translate(-2524.567 484.437)" fill="#f7f8fa"/>
      <path id="Trazado_195768" data-name="Trazado 195768" d="M2519.393-468.742q-.01-1.1-.021-2.2c-.426-.009-.854.006-1.277-.032-.653-.058-.936.132-.969.87-.074,1.644-.083,1.686,1.573,1.529A4.906,4.906,0,0,0,2519.393-468.742Z" transform="translate(-2492.047 484.51)" fill="#f7f8fa"/>
    </g>
  </g>
</svg>
