<svg xmlns="http://www.w3.org/2000/svg" xmlns:xlink="http://www.w3.org/1999/xlink" width="400" height="254" viewBox="0 0 400 254">
  <defs>
    <clipPath id="clip-path">
      <path id="Rectángulo_36674" data-name="Rectángulo 36674" d="M0,0H400a0,0,0,0,1,0,0V211a43,43,0,0,1-43,43H0a0,0,0,0,1,0,0V0A0,0,0,0,1,0,0Z" transform="translate(814 6855)" fill="#fff"/>
    </clipPath>
  </defs>
  <g id="Enmascarar_grupo_169" data-name="Enmascarar grupo 169" transform="translate(-814 -6855)" clip-path="url(#clip-path)">
    <g id="Rectángulo_36673" data-name="Rectángulo 36673" transform="translate(806 6843)" fill="#fff" stroke="#707070" stroke-width="1">
      <rect width="414" height="272" stroke="none"/>
      <rect x="0.5" y="0.5" width="413" height="271" fill="none"/>
    </g>
    <g id="Grupo_86980" data-name="Grupo 86980" transform="translate(547.406 6557.145)">
      <path id="Trazado_194967" data-name="Trazado 194967" d="M577.686,459.869a4.893,4.893,0,0,1-4.892,4.892H356.567a4.893,4.893,0,0,1-4.892-4.892h0a4.891,4.891,0,0,1,4.892-4.889H572.794a4.891,4.891,0,0,1,4.892,4.889Z" transform="translate(1.893 27.93)" fill="#dfe4eb"/>
      <g id="Grupo_86979" data-name="Grupo 86979" transform="translate(344.629 351.022)">
        <g id="Grupo_86970" data-name="Grupo 86970" transform="translate(10.484 63.783)">
          <path id="Trazado_194968" data-name="Trazado 194968" d="M355.938,448.282a3.05,3.05,0,0,1-2.99-3.622l8-40.9a3.046,3.046,0,0,1,5.982,1.154l-6.135,31.243,10.718-10.584a3.047,3.047,0,1,1,4.28,4.336L358.079,447.4A3.042,3.042,0,0,1,355.938,448.282Z" transform="translate(-352.893 -401.298)" fill="#224b87"/>
        </g>
        <g id="Grupo_86971" data-name="Grupo 86971" transform="translate(204.944 63.783)">
          <path id="Trazado_194969" data-name="Trazado 194969" d="M526.932,448.282a3.05,3.05,0,0,0,2.989-3.622l-8-40.9a3.046,3.046,0,0,0-5.982,1.154l6.135,31.243-10.718-10.584a3.047,3.047,0,0,0-4.282,4.336L524.789,447.4A3.047,3.047,0,0,0,526.932,448.282Z" transform="translate(-506.173 -401.298)" fill="#224b87"/>
        </g>
        <path id="Trazado_194970" data-name="Trazado 194970" d="M545.927,400.3a16.2,16.2,0,0,0-16.065-14.2c-.121,0-.237.015-.358.018A16.2,16.2,0,0,0,515.482,373.4a16.185,16.185,0,0,0-23.836-10.789,16.191,16.191,0,0,0-30.584-1.34,16.135,16.135,0,0,0-20.178-1.205,16.187,16.187,0,0,0-14.1,2.176,16.144,16.144,0,0,0-18.595,2.88,16.206,16.206,0,0,0-9.931,14.944c0,.228.024.452.033.679-.032,0-.062-.005-.1-.005a16.193,16.193,0,0,0-14.708,9.436A16.218,16.218,0,0,0,379,392.309a16.2,16.2,0,1,0,4.9,29.009,16.085,16.085,0,0,0,17.3-6.073,16.191,16.191,0,0,0,29.543,6.863,16.17,16.17,0,0,0,21.012-4.76,16.178,16.178,0,0,0,29.344.01,16.147,16.147,0,0,0,21.922.482,16.145,16.145,0,0,0,22.27,3.222A16.193,16.193,0,1,0,545.927,400.3Z" transform="translate(-340.885 -351.022)" fill="#262626"/>
        <path id="Trazado_194971" data-name="Trazado 194971" d="M522.305,401.009a12.7,12.7,0,0,0-12.594-11.13c-.1,0-.188.011-.28.011a12.7,12.7,0,0,0-10.99-9.968,12.685,12.685,0,0,0-18.682-8.454,12.69,12.69,0,0,0-23.971-1.05,12.652,12.652,0,0,0-15.816-.946,12.7,12.7,0,0,0-11.049,1.706,17.858,17.858,0,0,0-22.36,13.971c0,.179.02.354.027.533-.025,0-.048-.005-.075-.005a12.69,12.69,0,0,0-11.528,7.4,12.578,12.578,0,0,0-3.517,1.676,12.693,12.693,0,1,0,3.836,22.734,12.608,12.608,0,0,0,13.561-4.76,12.688,12.688,0,0,0,23.154,5.379,12.673,12.673,0,0,0,16.47-3.73,12.679,12.679,0,0,0,23,.005,12.652,12.652,0,0,0,17.184.379,12.652,12.652,0,0,0,17.454,2.527,12.692,12.692,0,1,0,16.178-16.274Z" transform="translate(-336.349 -347.969)" fill="#3d3d3d"/>
        <path id="Trazado_194972" data-name="Trazado 194972" d="M385.19,412.154a12.7,12.7,0,0,1,12.594-11.131c.1,0,.186.013.279.013a12.7,12.7,0,0,1,10.99-9.968,12.685,12.685,0,0,1,18.682-8.454,12.69,12.69,0,0,1,23.971-1.052,12.652,12.652,0,0,1,15.816-.946,12.691,12.691,0,0,1,11.049,1.708,17.855,17.855,0,0,1,22.36,13.97c0,.178-.019.354-.025.533.024,0,.048-.005.074-.005a12.687,12.687,0,0,1,11.528,7.4,12.635,12.635,0,0,1,3.518,1.675,12.693,12.693,0,1,1-3.838,22.734,12.6,12.6,0,0,1-13.559-4.76,12.689,12.689,0,0,1-23.156,5.379A12.674,12.674,0,0,1,459,425.517a12.678,12.678,0,0,1-23,.005,12.652,12.652,0,0,1-17.184.379,12.656,12.656,0,0,1-17.454,2.527,12.692,12.692,0,1,1-16.178-16.274Z" transform="translate(-336.003 -344.975)" fill="#4a4a4a"/>
        <path id="Trazado_194973" data-name="Trazado 194973" d="M544.357,450.2H386.83l-42.2-67.353H586.559Z" transform="translate(-344.629 -342.473)" fill="#3f6fb3"/>
        <path id="Trazado_194974" data-name="Trazado 194974" d="M534.424,450H390.675l-34.72-59.88h213.19Z" transform="translate(-341.586 -340.519)" fill="#2f5ea3"/>
        <path id="Trazado_194975" data-name="Trazado 194975" d="M544.357,440.5H386.83l-42.2-57.655,42.2,67.353H544.357l42.2-67.353Z" transform="translate(-344.629 -342.473)" fill="#224b87"/>
        <rect id="Rectángulo_36685" data-name="Rectángulo 36685" width="227.628" height="16.047" transform="translate(7.15 101.453)" fill="#3f6fb3"/>
        <path id="Trazado_194976" data-name="Trazado 194976" d="M577.893,443.639H350.265l8.789,10.412H569.1Z" transform="translate(-343.115 -326.139)" fill="#262626"/>
        <g id="Grupo_86978" data-name="Grupo 86978" transform="translate(22.851 120.16)">
          <g id="Grupo_86974" data-name="Grupo 86974">
            <g id="Grupo_86972" data-name="Grupo 86972">
              <path id="Trazado_194977" data-name="Trazado 194977" d="M380.171,454.5a8.765,8.765,0,1,1-8.765-8.768A8.765,8.765,0,0,1,380.171,454.5Z" transform="translate(-362.641 -445.736)" fill="#4e4e4e"/>
              <path id="Trazado_194978" data-name="Trazado 194978" d="M377.049,453.957a6.189,6.189,0,1,1-6.189-6.187A6.188,6.188,0,0,1,377.049,453.957Z" transform="translate(-362.095 -445.19)" fill="#262626"/>
            </g>
            <g id="Grupo_86973" data-name="Grupo 86973" transform="translate(44.939)">
              <path id="Trazado_194979" data-name="Trazado 194979" d="M415.593,454.5a8.765,8.765,0,1,1-8.766-8.768A8.765,8.765,0,0,1,415.593,454.5Z" transform="translate(-398.063 -445.736)" fill="#4e4e4e"/>
              <path id="Trazado_194980" data-name="Trazado 194980" d="M412.47,453.957a6.188,6.188,0,1,1-6.189-6.187A6.188,6.188,0,0,1,412.47,453.957Z" transform="translate(-397.517 -445.19)" fill="#262626"/>
            </g>
            <path id="Trazado_194981" data-name="Trazado 194981" d="M400.121,453.958a6.188,6.188,0,0,1-6.189,6.187h-8.849a6.188,6.188,0,0,1-6.187-6.187h0a6.188,6.188,0,0,1,6.187-6.19h8.849a6.187,6.187,0,0,1,6.189,6.19Z" transform="translate(-358.274 -445.19)" fill="#4e4e4e"/>
          </g>
          <g id="Grupo_86977" data-name="Grupo 86977" transform="translate(133.759)">
            <g id="Grupo_86975" data-name="Grupo 86975">
              <path id="Trazado_194982" data-name="Trazado 194982" d="M485.6,454.5a8.765,8.765,0,1,1-8.764-8.768A8.766,8.766,0,0,1,485.6,454.5Z" transform="translate(-468.074 -445.736)" fill="#4e4e4e"/>
              <path id="Trazado_194983" data-name="Trazado 194983" d="M482.479,453.957a6.187,6.187,0,1,1-6.186-6.187A6.187,6.187,0,0,1,482.479,453.957Z" transform="translate(-467.528 -445.19)" fill="#262626"/>
            </g>
            <g id="Grupo_86976" data-name="Grupo 86976" transform="translate(44.937)">
              <path id="Trazado_194984" data-name="Trazado 194984" d="M521.025,454.5a8.765,8.765,0,1,1-8.765-8.768A8.766,8.766,0,0,1,521.025,454.5Z" transform="translate(-503.495 -445.736)" fill="#4e4e4e"/>
              <path id="Trazado_194985" data-name="Trazado 194985" d="M517.9,453.957a6.188,6.188,0,1,1-6.189-6.187A6.188,6.188,0,0,1,517.9,453.957Z" transform="translate(-502.949 -445.19)" fill="#262626"/>
            </g>
            <path id="Trazado_194986" data-name="Trazado 194986" d="M505.552,453.958a6.188,6.188,0,0,1-6.187,6.187h-8.849a6.187,6.187,0,0,1-6.187-6.187h0a6.187,6.187,0,0,1,6.187-6.19h8.849a6.188,6.188,0,0,1,6.187,6.19Z" transform="translate(-463.707 -445.19)" fill="#4e4e4e"/>
          </g>
        </g>
        <path id="Trazado_194987" data-name="Trazado 194987" d="M583.729,437.715a1.834,1.834,0,0,1-1.771,1.89H348.242a1.833,1.833,0,0,1-1.771-1.89h0a1.832,1.832,0,0,1,1.771-1.889H581.958a1.832,1.832,0,0,1,1.771,1.889Z" transform="translate(-344.135 -328.238)" fill="#224b87"/>
      </g>
    </g>
  </g>
</svg>
