<svg xmlns="http://www.w3.org/2000/svg" xmlns:xlink="http://www.w3.org/1999/xlink" width="400" height="254" viewBox="0 0 400 254">
  <defs>
    <clipPath id="clip-path">
      <path id="Rect치ngulo_36672" data-name="Rect치ngulo 36672" d="M0,0H400a0,0,0,0,1,0,0V211a43,43,0,0,1-43,43H0a0,0,0,0,1,0,0V0A0,0,0,0,1,0,0Z" transform="translate(814 6855)" fill="#fff"/>
    </clipPath>
    <linearGradient id="linear-gradient" x1="1.764" y1="1.185" x2="2.148" y2="-0.185" gradientUnits="objectBoundingBox">
      <stop offset="0.112" stop-color="#aeacba"/>
      <stop offset="0.987" stop-color="#7b738c"/>
    </linearGradient>
  </defs>
  <g id="Enmascarar_grupo_168" data-name="Enmascarar grupo 168" transform="translate(-814 -6855)" clip-path="url(#clip-path)">
    <g id="Rect치ngulo_36671" data-name="Rect치ngulo 36671" transform="translate(806 6843)" fill="#fff" stroke="#707070" stroke-width="1">
      <rect width="414" height="272" stroke="none"/>
      <rect x="0.5" y="0.5" width="413" height="271" fill="none"/>
    </g>
    <g id="Grupo_86894" data-name="Grupo 86894" transform="translate(310.061 6271.833)">
      <path id="Trazado_193653" data-name="Trazado 193653" d="M603.829,652.432,686.954,700.4l-37.162-47.966L848.067,766.845l-44.018,25.367H758.085L559.81,677.8Z" transform="translate(0 44.955)" fill="url(#linear-gradient)" style="mix-blend-mode: multiply;isolation: isolate"/>
      <g id="Grupo_86855" data-name="Grupo 86855" transform="translate(573.079 663.65)">
        <g id="Grupo_86839" data-name="Grupo 86839" transform="translate(53.01 12.409)">
          <path id="Trazado_193654" data-name="Trazado 193654" d="M611.12,654.933l-.489-.836,2.012-1.127a4.165,4.165,0,0,1,.935-.524l.017-.008,0,0c1.544-.613,3.539-.369,5.72.891,4.885,2.821,8.847,9.652,8.847,15.256,0,2.534-.811,4.379-2.148,5.386l-.012.014-.025.012a4.074,4.074,0,0,1-.755.446l-2.018,1.189-.477-.817a8.594,8.594,0,0,1-3.411-1.187c-4.885-2.821-8.847-9.652-8.847-15.256A8.456,8.456,0,0,1,611.12,654.933Z" transform="translate(-572.206 -631.438)" fill="#514741"/>
          <path id="Trazado_193655" data-name="Trazado 193655" d="M593.762,644.912l-.489-.836,2.012-1.127a4.158,4.158,0,0,1,.935-.524l.016-.008,0,0c1.544-.613,3.539-.37,5.72.891,4.887,2.819,8.847,9.652,8.847,15.256,0,2.534-.811,4.379-2.148,5.386l-.012.015-.023.012a4.222,4.222,0,0,1-.755.446l-2.02,1.189-.477-.817a8.59,8.59,0,0,1-3.411-1.187c-4.885-2.821-8.845-9.651-8.845-15.256A8.46,8.46,0,0,1,593.762,644.912Z" transform="translate(-590.667 -642.097)" fill="#514741"/>
          <path id="Trazado_193656" data-name="Trazado 193656" d="M591.928,649.038c0,5.607,3.96,12.438,8.845,15.259s8.847.561,8.847-5.043-3.96-12.437-8.847-15.259S591.928,643.433,591.928,649.038Z" transform="translate(-591.928 -641.37)" fill="#37302c"/>
          <path id="Trazado_193657" data-name="Trazado 193657" d="M609.285,659.059c0,5.607,3.96,12.438,8.845,15.259s8.847.563,8.847-5.044-3.96-12.437-8.847-15.258S609.285,653.454,609.285,659.059Z" transform="translate(-573.467 -630.711)" fill="#37302c"/>
          <path id="Trazado_193658" data-name="Trazado 193658" d="M610.324,658.879a14.768,14.768,0,0,0,6.7,11.556c3.7,2.136,6.7.425,6.7-3.82a14.765,14.765,0,0,0-6.7-11.558C613.325,652.921,610.324,654.632,610.324,658.879Z" transform="translate(-572.361 -629.291)" fill="#2d2622"/>
          <path id="Trazado_193659" data-name="Trazado 193659" d="M613.442,654.162a5.071,5.071,0,0,0-1.422,3.9,14.762,14.762,0,0,0,6.7,11.556,5.6,5.6,0,0,0,3.583.871c-1.228,1.092-3.133,1.154-5.279-.085a14.768,14.768,0,0,1-6.7-11.556C610.324,656.118,611.57,654.445,613.442,654.162Z" transform="translate(-572.361 -629.264)" fill="#453c37"/>
          <path id="Trazado_193660" data-name="Trazado 193660" d="M615.065,663.311l-3.081-5.176,1.738-1,.049-.029.01,0h0a1.529,1.529,0,0,1,1.478.171,4.709,4.709,0,0,1,2.14,3.688,1.518,1.518,0,0,1-.578,1.341l0,0-.033.019-.037.021Z" transform="translate(-570.596 -626.269)" fill="#514741"/>
          <path id="Trazado_193661" data-name="Trazado 193661" d="M606.367,656.595c0,4.245-3,5.956-6.7,3.82a14.766,14.766,0,0,1-6.7-11.556c0-4.247,3-5.958,6.7-3.822A14.763,14.763,0,0,1,606.367,656.595Z" transform="translate(-590.822 -639.949)" fill="#2d2622"/>
          <path id="Trazado_193662" data-name="Trazado 193662" d="M596.086,644.141a5.063,5.063,0,0,0-1.424,3.9,14.762,14.762,0,0,0,6.7,11.556,5.588,5.588,0,0,0,3.582.871c-1.228,1.092-3.133,1.154-5.279-.085a14.766,14.766,0,0,1-6.7-11.556C592.968,646.1,594.212,644.424,596.086,644.141Z" transform="translate(-590.822 -639.923)" fill="#453c37"/>
          <path id="Trazado_193663" data-name="Trazado 193663" d="M597.708,653.29l-3.081-5.176,1.738-1,.05-.029.01,0h0a1.529,1.529,0,0,1,1.478.171,4.709,4.709,0,0,1,2.14,3.688,1.522,1.522,0,0,1-.576,1.341v0l-.033.019-.037.021Z" transform="translate(-589.057 -636.928)" fill="#514741"/>
          <path id="Trazado_193664" data-name="Trazado 193664" d="M594.307,648.973a4.712,4.712,0,0,0,2.138,3.688c1.182.683,2.14.136,2.14-1.22a4.709,4.709,0,0,0-2.14-3.688C595.265,647.071,594.307,647.617,594.307,648.973Z" transform="translate(-589.398 -636.393)" fill="#403935"/>
          <path id="Trazado_193665" data-name="Trazado 193665" d="M594.515,642.9l-1.8,1.038,1.8,5.784,2.447,1.414v-2.582l3.985,2.307,5.947,10.613,21.9,12.644,5.941-3.752,3.991,2.3v2.577l2.447,1.414V669.84l-2.447-1.414v0l-41.764-24.116Zm17.24,12.617,12.182,7.033v6.393l-12.182-7.033Z" transform="translate(-591.089 -641.242)" fill="#514741"/>
          <path id="Trazado_193666" data-name="Trazado 193666" d="M595.7,649.652l-1.8,1.038V644.3l1.8,1.039Z" transform="translate(-589.828 -639.757)" fill="#37302c"/>
          <path id="Trazado_193667" data-name="Trazado 193667" d="M611.664,658.994a4.709,4.709,0,0,0,2.138,3.688c1.18.683,2.138.136,2.138-1.22a4.713,4.713,0,0,0-2.138-3.688C612.622,657.092,611.664,657.639,611.664,658.994Z" transform="translate(-570.936 -625.735)" fill="#403935"/>
          <path id="Trazado_193668" data-name="Trazado 193668" d="M592.717,643.4v6.822l2.448,1.414v-2.582l3.985,2.307,5.948,10.613,21.9,12.644,5.943-3.752,3.989,2.3v2.577l2.448,1.414v-6.822l-2.448-1.414v0l-41.762-24.116h0Zm17.238,12.617,12.182,7.033v6.393l-12.182-7.033Z" transform="translate(-591.089 -640.707)" fill="#403935"/>
          <path id="Trazado_193669" data-name="Trazado 193669" d="M617.124,655.955l-1.8,1.038v6.823l1.8-1.038Z" transform="translate(-567.041 -627.357)" fill="#37302c"/>
          <path id="Trazado_193670" data-name="Trazado 193670" d="M602.868,654.874l-1.8,1.038v-6.393l1.8,1.039Z" transform="translate(-582.204 -634.203)" fill="#37302c"/>
        </g>
        <g id="Grupo_86840" data-name="Grupo 86840" transform="translate(182.664 87.264)">
          <path id="Trazado_193671" data-name="Trazado 193671" d="M673.947,691.207l-.489-.838,2.012-1.125a4.164,4.164,0,0,1,.935-.524l.016-.01,0,0c1.544-.611,3.539-.367,5.72.891,4.885,2.821,8.847,9.654,8.847,15.258,0,2.532-.811,4.379-2.148,5.386l-.012.012-.025.014a4.071,4.071,0,0,1-.755.444l-2.018,1.189-.477-.815a8.594,8.594,0,0,1-3.411-1.187c-4.885-2.821-8.845-9.652-8.845-15.259A8.456,8.456,0,0,1,673.947,691.207Z" transform="translate(-635.033 -667.712)" fill="#514741"/>
          <path id="Trazado_193672" data-name="Trazado 193672" d="M656.59,681.186l-.489-.838,2.012-1.125a4.152,4.152,0,0,1,.935-.524l.016-.01,0,0c1.544-.611,3.539-.367,5.72.891,4.887,2.821,8.847,9.652,8.847,15.259,0,2.532-.811,4.379-2.148,5.386l-.012.012-.023.014a4.149,4.149,0,0,1-.757.444l-2.018,1.189-.477-.815a8.594,8.594,0,0,1-3.411-1.186c-4.885-2.821-8.845-9.652-8.845-15.259A8.457,8.457,0,0,1,656.59,681.186Z" transform="translate(-653.495 -678.371)" fill="#514741"/>
          <path id="Trazado_193673" data-name="Trazado 193673" d="M654.756,685.313c0,5.607,3.96,12.438,8.845,15.259s8.847.561,8.847-5.044-3.96-12.437-8.847-15.258S654.756,679.706,654.756,685.313Z" transform="translate(-654.756 -677.644)" fill="#37302c"/>
          <path id="Trazado_193674" data-name="Trazado 193674" d="M672.113,695.334c0,5.607,3.96,12.438,8.845,15.259s8.847.561,8.847-5.044-3.96-12.437-8.847-15.258S672.113,689.727,672.113,695.334Z" transform="translate(-636.295 -666.985)" fill="#37302c"/>
          <path id="Trazado_193675" data-name="Trazado 193675" d="M673.152,695.151a14.769,14.769,0,0,0,6.7,11.558c3.7,2.136,6.7.425,6.7-3.822a14.765,14.765,0,0,0-6.7-11.556C676.153,689.2,673.152,690.906,673.152,695.151Z" transform="translate(-635.19 -665.564)" fill="#2d2622"/>
          <path id="Trazado_193676" data-name="Trazado 193676" d="M676.272,690.436a5.057,5.057,0,0,0-1.424,3.9,14.765,14.765,0,0,0,6.7,11.556,5.585,5.585,0,0,0,3.582.869c-1.228,1.094-3.132,1.156-5.279-.083a14.769,14.769,0,0,1-6.7-11.558C673.152,692.392,674.4,690.719,676.272,690.436Z" transform="translate(-635.19 -665.538)" fill="#453c37"/>
          <path id="Trazado_193677" data-name="Trazado 193677" d="M677.893,699.583l-3.081-5.174,1.738-1,.05-.029.01-.006v0a1.53,1.53,0,0,1,1.478.171,4.706,4.706,0,0,1,2.14,3.688,1.516,1.516,0,0,1-.576,1.339v0l-.033.019-.037.021Z" transform="translate(-633.424 -662.542)" fill="#514741"/>
          <path id="Trazado_193678" data-name="Trazado 193678" d="M669.2,692.866c0,4.247-3,5.958-6.7,3.822a14.767,14.767,0,0,1-6.7-11.558c0-4.245,3-5.956,6.7-3.82A14.76,14.76,0,0,1,669.2,692.866Z" transform="translate(-653.65 -676.223)" fill="#2d2622"/>
          <path id="Trazado_193679" data-name="Trazado 193679" d="M658.914,680.415a5.057,5.057,0,0,0-1.424,3.9,14.762,14.762,0,0,0,6.7,11.556,5.6,5.6,0,0,0,3.582.871c-1.228,1.092-3.133,1.154-5.279-.084a14.767,14.767,0,0,1-6.7-11.558C655.8,682.371,657.04,680.7,658.914,680.415Z" transform="translate(-653.65 -676.196)" fill="#453c37"/>
          <path id="Trazado_193680" data-name="Trazado 193680" d="M660.536,689.562l-3.081-5.174,1.738-1,.049-.029.01-.006v0a1.533,1.533,0,0,1,1.478.169,4.713,4.713,0,0,1,2.14,3.69,1.516,1.516,0,0,1-.576,1.339v0l-.033.019-.037.021Z" transform="translate(-651.885 -673.201)" fill="#514741"/>
          <path id="Trazado_193681" data-name="Trazado 193681" d="M657.135,685.245a4.713,4.713,0,0,0,2.138,3.69c1.182.683,2.14.136,2.14-1.22a4.706,4.706,0,0,0-2.14-3.688C658.093,683.345,657.135,683.892,657.135,685.245Z" transform="translate(-652.226 -672.667)" fill="#403935"/>
          <path id="Trazado_193682" data-name="Trazado 193682" d="M657.342,679.175l-1.8,1.038,1.8,5.784,2.447,1.414v-2.582l3.985,2.307,5.949,10.611,21.9,12.644,5.941-3.75,3.991,2.3v2.579L704,712.936v-6.822l-2.447-1.414v0L659.79,680.589Zm17.24,12.617,12.182,7.033v6.393l-12.182-7.033Z" transform="translate(-653.917 -677.515)" fill="#514741"/>
          <path id="Trazado_193683" data-name="Trazado 193683" d="M658.528,685.926l-1.8,1.038v-6.393l1.8,1.039Z" transform="translate(-652.656 -676.031)" fill="#37302c"/>
          <path id="Trazado_193684" data-name="Trazado 193684" d="M674.492,695.267a4.713,4.713,0,0,0,2.138,3.69c1.182.683,2.14.136,2.14-1.22a4.713,4.713,0,0,0-2.14-3.69C675.45,693.366,674.492,693.911,674.492,695.267Z" transform="translate(-633.764 -662.009)" fill="#403935"/>
          <path id="Trazado_193685" data-name="Trazado 193685" d="M655.545,679.678V686.5l2.448,1.414v-2.582l3.985,2.307,5.947,10.611,21.9,12.644,5.943-3.75,3.991,2.3v2.58l2.445,1.414v-6.823l-2.445-1.414v0l-41.764-24.114h0ZM672.783,692.3l12.182,7.033v6.393l-12.182-7.033Z" transform="translate(-653.917 -676.98)" fill="#403935"/>
          <path id="Trazado_193686" data-name="Trazado 193686" d="M679.952,692.229l-1.8,1.038v6.822l1.8-1.038Z" transform="translate(-629.869 -663.631)" fill="#37302c"/>
          <path id="Trazado_193687" data-name="Trazado 193687" d="M665.7,691.147l-1.8,1.038v-6.393l1.8,1.039Z" transform="translate(-645.032 -670.477)" fill="#37302c"/>
        </g>
        <g id="Grupo_86841" data-name="Grupo 86841" transform="translate(133.114 115.872)">
          <path id="Trazado_193688" data-name="Trazado 193688" d="M649.936,705.068l-.489-.836,2.012-1.125a4.155,4.155,0,0,1,.935-.524l.016-.01,0,0c1.544-.611,3.539-.367,5.72.891,4.885,2.821,8.847,9.652,8.847,15.259,0,2.532-.811,4.379-2.148,5.386l-.012.012-.025.015a4.077,4.077,0,0,1-.755.444l-2.018,1.189-.477-.815a8.59,8.59,0,0,1-3.411-1.187c-4.885-2.821-8.845-9.652-8.845-15.258A8.474,8.474,0,0,1,649.936,705.068Z" transform="translate(-611.022 -681.575)" fill="#514741"/>
          <path id="Trazado_193689" data-name="Trazado 193689" d="M632.58,695.049l-.489-.838,2.012-1.125a4.162,4.162,0,0,1,.935-.524l.016-.01,0,0c1.544-.611,3.539-.367,5.72.891,4.885,2.821,8.847,9.652,8.847,15.259,0,2.532-.811,4.379-2.148,5.386l-.012.012-.025.014a4.068,4.068,0,0,1-.755.444l-2.018,1.189-.477-.815a8.593,8.593,0,0,1-3.411-1.187c-4.885-2.821-8.847-9.652-8.847-15.258A8.454,8.454,0,0,1,632.58,695.049Z" transform="translate(-629.485 -692.234)" fill="#514741"/>
          <path id="Trazado_193690" data-name="Trazado 193690" d="M630.745,699.176c0,5.6,3.96,12.437,8.845,15.256s8.847.563,8.847-5.041-3.96-12.438-8.847-15.259S630.745,693.569,630.745,699.176Z" transform="translate(-630.745 -691.507)" fill="#37302c"/>
          <path id="Trazado_193691" data-name="Trazado 193691" d="M648.1,709.2c0,5.6,3.96,12.438,8.845,15.256s8.847.563,8.847-5.044-3.962-12.435-8.847-15.256S648.1,703.59,648.1,709.2Z" transform="translate(-612.284 -680.848)" fill="#37302c"/>
          <path id="Trazado_193692" data-name="Trazado 193692" d="M649.141,709.014a14.762,14.762,0,0,0,6.7,11.556c3.7,2.138,6.7.427,6.7-3.82a14.762,14.762,0,0,0-6.7-11.556C652.142,703.058,649.141,704.767,649.141,709.014Z" transform="translate(-611.179 -679.427)" fill="#2d2622"/>
          <path id="Trazado_193693" data-name="Trazado 193693" d="M652.259,704.3a5.064,5.064,0,0,0-1.422,3.9,14.76,14.76,0,0,0,6.7,11.556,5.582,5.582,0,0,0,3.58.869c-1.226,1.094-3.13,1.156-5.277-.084a14.762,14.762,0,0,1-6.7-11.556C649.141,706.255,650.388,704.582,652.259,704.3Z" transform="translate(-611.179 -679.401)" fill="#453c37"/>
          <path id="Trazado_193694" data-name="Trazado 193694" d="M653.882,713.447l-3.081-5.173,1.738-1,.05-.029.01-.006h0a1.541,1.541,0,0,1,1.478.171,4.714,4.714,0,0,1,2.14,3.69,1.514,1.514,0,0,1-.578,1.339l0,0-.033.019-.037.021Z" transform="translate(-609.413 -676.406)" fill="#514741"/>
          <path id="Trazado_193695" data-name="Trazado 193695" d="M645.185,706.73c0,4.247-3,5.958-6.7,3.82a14.762,14.762,0,0,1-6.7-11.557c0-4.247,3-5.956,6.7-3.82A14.762,14.762,0,0,1,645.185,706.73Z" transform="translate(-629.64 -690.086)" fill="#2d2622"/>
          <path id="Trazado_193696" data-name="Trazado 193696" d="M634.9,694.277a5.072,5.072,0,0,0-1.422,3.906,14.765,14.765,0,0,0,6.7,11.556,5.584,5.584,0,0,0,3.582.869c-1.228,1.094-3.133,1.156-5.279-.084a14.762,14.762,0,0,1-6.7-11.557C631.784,696.235,633.03,694.562,634.9,694.277Z" transform="translate(-629.64 -690.06)" fill="#453c37"/>
          <path id="Trazado_193697" data-name="Trazado 193697" d="M636.525,703.425l-3.081-5.173,1.738-1,.049-.029.01-.006v0a1.533,1.533,0,0,1,1.478.169,4.713,4.713,0,0,1,2.14,3.69,1.514,1.514,0,0,1-.578,1.339l0,0-.033.019-.037.021Z" transform="translate(-627.874 -687.064)" fill="#514741"/>
          <path id="Trazado_193698" data-name="Trazado 193698" d="M633.123,699.109a4.71,4.71,0,0,0,2.14,3.69c1.18.683,2.14.136,2.14-1.22a4.719,4.719,0,0,0-2.14-3.69C634.081,697.208,633.123,697.753,633.123,699.109Z" transform="translate(-628.216 -686.53)" fill="#403935"/>
          <path id="Trazado_193699" data-name="Trazado 193699" d="M633.331,693.038l-1.8,1.038,1.8,5.784,2.447,1.412v-2.58L639.764,701l5.947,10.613,21.9,12.644,5.943-3.75,3.991,2.3v2.58l2.448,1.414v-6.824l-2.448-1.412v0l-41.764-24.116Zm17.237,12.617,12.182,7.033v6.393l-12.182-7.033Z" transform="translate(-629.906 -691.378)" fill="#514741"/>
          <path id="Trazado_193700" data-name="Trazado 193700" d="M634.517,699.789l-1.8,1.038v-6.393l1.8,1.039Z" transform="translate(-628.645 -689.894)" fill="#37302c"/>
          <path id="Trazado_193701" data-name="Trazado 193701" d="M650.48,709.13a4.71,4.71,0,0,0,2.14,3.69c1.18.683,2.138.136,2.138-1.22a4.717,4.717,0,0,0-2.138-3.69C651.438,707.229,650.48,707.774,650.48,709.13Z" transform="translate(-609.754 -675.872)" fill="#403935"/>
          <path id="Trazado_193702" data-name="Trazado 193702" d="M631.534,693.541v6.822l2.445,1.414V699.2l3.987,2.305,5.947,10.613,21.9,12.644,5.943-3.75,3.991,2.3v2.58l2.445,1.414v-6.824l-2.445-1.412v0l-41.766-24.114v0Zm17.238,12.617,12.182,7.033v6.393l-12.182-7.033Z" transform="translate(-629.906 -690.843)" fill="#403935"/>
          <path id="Trazado_193703" data-name="Trazado 193703" d="M655.941,706.091l-1.8,1.038v6.823l1.8-1.038Z" transform="translate(-605.858 -677.494)" fill="#37302c"/>
          <path id="Trazado_193704" data-name="Trazado 193704" d="M641.685,705.01l-1.8,1.038v-6.393l1.8,1.039Z" transform="translate(-621.021 -684.34)" fill="#37302c"/>
        </g>
        <path id="Trazado_193705" data-name="Trazado 193705" d="M568.612,667.474v5.335l2.473,2.885,47.052-27.165,2.473-5.741v-5.335Z" transform="translate(-563.718 -634.628)" fill="#37302c"/>
        <g id="Grupo_86842" data-name="Grupo 86842" transform="translate(47.103)">
          <path id="Trazado_193706" data-name="Trazado 193706" d="M589.066,637.453,780.257,747.837v5.336L589.066,642.789Z" transform="translate(-589.066 -634.628)" fill="#473e39"/>
          <path id="Trazado_193707" data-name="Trazado 193707" d="M593.96,636.084,785.151,746.468l-4.894,2.826L589.066,638.91Z" transform="translate(-589.066 -636.084)" fill="#514741"/>
        </g>
        <path id="Trazado_193708" data-name="Trazado 193708" d="M570.981,663.2v5.335l2.473,2.885,37.273-21.52,2.473-5.74v-5.336Z" transform="translate(-561.198 -633.167)" fill="#37302c"/>
        <g id="Grupo_86844" data-name="Grupo 86844" transform="translate(191.191 107.559)">
          <g id="Grupo_86843" data-name="Grupo 86843">
            <path id="Trazado_193709" data-name="Trazado 193709" d="M658.888,715.4l4.894,2.826v4l39.736-22.942,7.367-8.25-4.894-2.826Z" transform="translate(-658.888 -688.205)" fill="#514741"/>
          </g>
        </g>
        <path id="Trazado_193710" data-name="Trazado 193710" d="M568.612,663.279l4.894,2.826,47.1-27.195-4.894-2.826Z" transform="translate(-563.718 -636.084)" fill="#514741"/>
        <g id="Grupo_86845" data-name="Grupo 86845" transform="translate(48.942 58.277)">
          <path id="Trazado_193711" data-name="Trazado 193711" d="M589.957,664.324l4.894,2.826v5.335l-4.894-2.826Z" transform="translate(-589.957 -664.324)" fill="#473e39"/>
          <path id="Trazado_193712" data-name="Trazado 193712" d="M594.8,671.164l4.894,2.826-2.473-2.885-4.894-2.826Z" transform="translate(-587.434 -660.118)" fill="#3b312c"/>
        </g>
        <g id="Grupo_86846" data-name="Grupo 86846" transform="translate(27.716 17.542)">
          <path id="Trazado_193713" data-name="Trazado 193713" d="M579.671,645.62l58.44,33.74-3.967,2.29L579.671,650.2Z" transform="translate(-579.671 -643.483)" fill="#473e39"/>
          <path id="Trazado_193714" data-name="Trazado 193714" d="M583.373,644.585l63.334,36.566-3.7,2.137-63.334-36.566Z" transform="translate(-579.671 -644.585)" fill="#514741"/>
          <path id="Trazado_193715" data-name="Trazado 193715" d="M627.9,696.06v5.335l2.473,2.885,37.272-21.519,2.473-5.741v-5.335Z" transform="translate(-528.375 -615.76)" fill="#37302c"/>
          <path id="Trazado_193716" data-name="Trazado 193716" d="M599.294,679.545v5.335l2.473,2.885,37.273-21.519,2.473-5.741V655.17Z" transform="translate(-558.8 -633.326)" fill="#37302c"/>
          <path id="Trazado_193717" data-name="Trazado 193717" d="M625.527,694.69l4.894,2.826,42.218-24.375-4.894-2.825Z" transform="translate(-530.898 -617.216)" fill="#514741"/>
          <path id="Trazado_193718" data-name="Trazado 193718" d="M625.527,682.127l4.894,2.826v5.335l-4.894-2.826Z" transform="translate(-530.898 -604.653)" fill="#473e39"/>
          <path id="Trazado_193719" data-name="Trazado 193719" d="M628,687.6l4.895,2.826-2.473-2.885-4.894-2.826Z" transform="translate(-530.898 -601.903)" fill="#3b312c"/>
        </g>
        <path id="Trazado_193720" data-name="Trazado 193720" d="M607.99,661.97l54.118,31.245-3.966,2.29L607.99,666.55Z" transform="translate(-521.834 -608.551)" fill="#473e39"/>
        <path id="Trazado_193721" data-name="Trazado 193721" d="M611.692,660.935l63.924,36.907-3.7,2.137L607.99,663.072Z" transform="translate(-521.834 -609.652)" fill="#514741"/>
        <g id="Grupo_86847" data-name="Grupo 86847" transform="translate(3.46 41.016)">
          <path id="Trazado_193722" data-name="Trazado 193722" d="M587.109,668.8l-.489-.838,2.012-1.125a4.157,4.157,0,0,1,.935-.524l.016-.01,0,0c1.544-.611,3.539-.367,5.72.894,4.885,2.819,8.845,9.652,8.845,15.256,0,2.532-.809,4.379-2.146,5.386l-.012.012-.025.015a4.214,4.214,0,0,1-.755.446l-2.02,1.189-.475-.817a8.593,8.593,0,0,1-3.411-1.187c-4.885-2.821-8.847-9.652-8.847-15.258A8.453,8.453,0,0,1,587.109,668.8Z" transform="translate(-548.195 -645.301)" fill="#514741"/>
          <path id="Trazado_193723" data-name="Trazado 193723" d="M569.751,658.775l-.489-.838,2.012-1.125a4.161,4.161,0,0,1,.935-.524l.017-.008h0c1.544-.611,3.539-.367,5.72.892,4.885,2.821,8.847,9.651,8.847,15.258,0,2.534-.811,4.379-2.148,5.386l-.012.012-.025.015a4.068,4.068,0,0,1-.755.444l-2.018,1.189-.477-.815a8.594,8.594,0,0,1-3.411-1.187c-4.885-2.821-8.845-9.652-8.845-15.258A8.456,8.456,0,0,1,569.751,658.775Z" transform="translate(-566.656 -655.96)" fill="#514741"/>
          <path id="Trazado_193724" data-name="Trazado 193724" d="M567.917,662.9c0,5.607,3.96,12.437,8.845,15.258s8.847.561,8.847-5.044-3.96-12.437-8.847-15.258S567.917,657.295,567.917,662.9Z" transform="translate(-567.917 -655.233)" fill="#37302c"/>
          <path id="Trazado_193725" data-name="Trazado 193725" d="M585.274,672.923c0,5.607,3.96,12.438,8.845,15.258s8.847.561,8.847-5.044-3.96-12.437-8.847-15.258S585.274,667.318,585.274,672.923Z" transform="translate(-549.456 -644.574)" fill="#37302c"/>
          <path id="Trazado_193726" data-name="Trazado 193726" d="M586.313,672.74a14.769,14.769,0,0,0,6.7,11.558c3.7,2.136,6.7.425,6.7-3.822a14.765,14.765,0,0,0-6.7-11.556C589.314,666.784,586.313,668.5,586.313,672.74Z" transform="translate(-548.35 -643.153)" fill="#2d2622"/>
          <path id="Trazado_193727" data-name="Trazado 193727" d="M589.431,668.025a5.064,5.064,0,0,0-1.422,3.9,14.757,14.757,0,0,0,6.7,11.556,5.583,5.583,0,0,0,3.58.869c-1.226,1.094-3.131,1.156-5.277-.083a14.769,14.769,0,0,1-6.7-11.558C586.313,669.981,587.559,668.308,589.431,668.025Z" transform="translate(-548.35 -643.127)" fill="#453c37"/>
          <path id="Trazado_193728" data-name="Trazado 193728" d="M591.054,677.172,587.973,672l1.738-1,.049-.029.01,0h0a1.53,1.53,0,0,1,1.478.171,4.712,4.712,0,0,1,2.14,3.688,1.512,1.512,0,0,1-.578,1.339l0,0-.033.019-.037.021Z" transform="translate(-546.585 -640.132)" fill="#514741"/>
          <path id="Trazado_193729" data-name="Trazado 193729" d="M582.357,670.456c0,4.247-3,5.958-6.7,3.822a14.769,14.769,0,0,1-6.7-11.558c0-4.245,3-5.956,6.7-3.82A14.76,14.76,0,0,1,582.357,670.456Z" transform="translate(-566.812 -653.812)" fill="#2d2622"/>
          <path id="Trazado_193730" data-name="Trazado 193730" d="M572.074,658a5.064,5.064,0,0,0-1.422,3.9,14.762,14.762,0,0,0,6.7,11.556,5.6,5.6,0,0,0,3.582.871c-1.228,1.092-3.133,1.154-5.279-.085a14.769,14.769,0,0,1-6.7-11.558C568.956,659.96,570.2,658.287,572.074,658Z" transform="translate(-566.812 -653.785)" fill="#453c37"/>
          <path id="Trazado_193731" data-name="Trazado 193731" d="M573.7,667.153l-3.081-5.176,1.738-1,.05-.029.01-.006v0a1.533,1.533,0,0,1,1.478.169,4.713,4.713,0,0,1,2.14,3.69,1.512,1.512,0,0,1-.578,1.339l0,0-.033.018-.037.021Z" transform="translate(-565.046 -650.79)" fill="#514741"/>
          <path id="Trazado_193732" data-name="Trazado 193732" d="M570.3,662.834a4.714,4.714,0,0,0,2.138,3.69c1.181.683,2.138.136,2.138-1.22a4.709,4.709,0,0,0-2.138-3.688C571.254,660.934,570.3,661.481,570.3,662.834Z" transform="translate(-565.387 -650.256)" fill="#403935"/>
          <path id="Trazado_193733" data-name="Trazado 193733" d="M570.5,656.764l-1.8,1.038,1.8,5.784L572.951,665v-2.582l3.985,2.307,5.948,10.613,21.9,12.642,5.943-3.75,3.991,2.3v2.579l2.445,1.414V683.7l-2.445-1.414v0l-41.764-24.114Zm17.237,12.617,12.184,7.033v6.393l-12.184-7.033Z" transform="translate(-567.078 -655.104)" fill="#514741"/>
          <path id="Trazado_193734" data-name="Trazado 193734" d="M571.69,663.515l-1.8,1.038V658.16l1.8,1.039Z" transform="translate(-565.817 -653.62)" fill="#37302c"/>
          <path id="Trazado_193735" data-name="Trazado 193735" d="M587.652,672.857a4.715,4.715,0,0,0,2.14,3.688c1.18.683,2.138.136,2.138-1.22a4.709,4.709,0,0,0-2.138-3.688C588.612,670.955,587.652,671.5,587.652,672.857Z" transform="translate(-546.926 -639.597)" fill="#403935"/>
          <path id="Trazado_193736" data-name="Trazado 193736" d="M568.706,657.267v6.822l2.445,1.414v-2.582l3.987,2.307,5.948,10.611,21.9,12.646,5.943-3.752,3.989,2.3v2.58l2.447,1.414v-6.823l-2.447-1.414v0l-41.764-24.115h0Zm17.238,12.617,12.182,7.033v6.393l-12.182-7.033Z" transform="translate(-567.078 -654.569)" fill="#403935"/>
          <path id="Trazado_193737" data-name="Trazado 193737" d="M593.113,669.818l-1.8,1.038v6.823l1.8-1.038Z" transform="translate(-543.03 -641.22)" fill="#37302c"/>
          <path id="Trazado_193738" data-name="Trazado 193738" d="M578.857,668.736l-1.8,1.038v-6.393l1.8,1.039Z" transform="translate(-558.193 -648.066)" fill="#37302c"/>
        </g>
        <path id="Trazado_193739" data-name="Trazado 193739" d="M571.134,649.262,762.326,759.646l-4.894,2.826L566.24,652.088Z" transform="translate(-566.24 -622.067)" fill="#514741"/>
        <path id="Trazado_193740" data-name="Trazado 193740" d="M566.24,650.632,757.431,761.016v5.335L566.24,655.967Z" transform="translate(-566.24 -620.611)" fill="#403935"/>
        <path id="Trazado_193741" data-name="Trazado 193741" d="M636.6,678.485l63.924,36.907-3.966,2.29L636.6,683.065Z" transform="translate(-491.409 -590.985)" fill="#473e39"/>
        <path id="Trazado_193742" data-name="Trazado 193742" d="M640.3,677.45l68.819,39.732-3.7,2.138L636.6,679.587Z" transform="translate(-491.409 -592.086)" fill="#514741"/>
        <path id="Trazado_193743" data-name="Trazado 193743" d="M596.922,678.175,601.816,681l42.218-24.375L639.14,653.8Z" transform="translate(-533.606 -617.24)" fill="#514741"/>
        <g id="Grupo_86854" data-name="Grupo 86854" transform="translate(59.51 32.466)">
          <g id="Grupo_86850" data-name="Grupo 86850" transform="translate(59.03 34.081)">
            <g id="Grupo_86848" data-name="Grupo 86848" transform="translate(0 20.373)">
              <path id="Trazado_193744" data-name="Trazado 193744" d="M630.969,680.2l8.7-1.993,4.894,2.826-17.4,1.961L623.683,685V680.9Z" transform="translate(-623.683 -678.204)" fill="#728f4c"/>
              <path id="Trazado_193745" data-name="Trazado 193745" d="M633.34,681.566l8.7-1.993v1.064L629.86,687.67l-3.806-1.3v-4.095Z" transform="translate(-621.16 -676.747)" fill="#42522f"/>
              <path id="Trazado_193746" data-name="Trazado 193746" d="M623.683,679.878l4.894,2.825,7.286-.708-4.894-2.826Z" transform="translate(-623.683 -677.177)" fill="#8ea15d"/>
              <path id="Trazado_193747" data-name="Trazado 193747" d="M623.683,679.513l4.894,2.825v4.095l-4.894-2.826Z" transform="translate(-623.683 -676.812)" fill="#728f4c"/>
            </g>
            <g id="Grupo_86849" data-name="Grupo 86849" transform="translate(33.843)">
              <path id="Trazado_193748" data-name="Trazado 193748" d="M648.783,670.341l-8.7,8.054v1.064l8.7.652,8.374-8.953-4.894-2.826Z" transform="translate(-640.082 -668.331)" fill="#8ea15d"/>
              <path id="Trazado_193749" data-name="Trazado 193749" d="M651.155,671.71l-8.7,8.054v1.064l8.7-5.023,3.48-2.01V669.7Z" transform="translate(-637.56 -666.875)" fill="#42522f"/>
              <path id="Trazado_193750" data-name="Trazado 193750" d="M640.082,673.208l4.894,2.825V677.1l-4.894-2.826Z" transform="translate(-640.082 -663.145)" fill="#728f4c"/>
              <path id="Trazado_193751" data-name="Trazado 193751" d="M640.082,677.359l4.894,2.825,8.7-8.054-4.894-2.826Z" transform="translate(-640.082 -667.296)" fill="#799453"/>
            </g>
          </g>
          <g id="Grupo_86853" data-name="Grupo 86853">
            <g id="Grupo_86851" data-name="Grupo 86851" transform="translate(0 20.372)">
              <path id="Trazado_193752" data-name="Trazado 193752" d="M602.364,663.682l8.7-1.993,4.894,2.826-17.4,1.96-3.481,2.01V664.39Z" transform="translate(-595.078 -661.689)" fill="#728f4c"/>
              <path id="Trazado_193753" data-name="Trazado 193753" d="M604.736,665.051l8.7-1.993v1.064l-12.181,7.033-3.805-1.3v-4.094Z" transform="translate(-592.555 -660.232)" fill="#42522f"/>
              <path id="Trazado_193754" data-name="Trazado 193754" d="M595.078,663.362l4.894,2.826,7.286-.708-4.894-2.826Z" transform="translate(-595.078 -660.661)" fill="#8ea15d"/>
              <path id="Trazado_193755" data-name="Trazado 193755" d="M595.078,663l4.894,2.826v4.094l-4.894-2.826Z" transform="translate(-595.078 -660.297)" fill="#728f4c"/>
            </g>
            <g id="Grupo_86852" data-name="Grupo 86852" transform="translate(33.843)">
              <path id="Trazado_193756" data-name="Trazado 193756" d="M620.178,653.826l-8.7,8.054v1.064l8.7.652,8.375-8.954-4.894-2.825Z" transform="translate(-611.478 -651.817)" fill="#8ea15d"/>
              <path id="Trazado_193757" data-name="Trazado 193757" d="M622.55,655.2l-8.7,8.054v1.064l8.7-5.023,3.48-2.009v-4.095Z" transform="translate(-608.955 -650.36)" fill="#42522f"/>
              <path id="Trazado_193758" data-name="Trazado 193758" d="M611.478,656.693l4.894,2.826v1.064l-4.894-2.826Z" transform="translate(-611.478 -646.63)" fill="#728f4c"/>
              <path id="Trazado_193759" data-name="Trazado 193759" d="M611.478,660.844l4.894,2.826,8.7-8.054-4.895-2.826Z" transform="translate(-611.478 -650.781)" fill="#799453"/>
            </g>
          </g>
        </g>
      </g>
      <path id="Trazado_193760" data-name="Trazado 193760" d="M656,716.5l-1.125-.649v-8.628l1.125.649Z" transform="translate(101.113 103.233)" fill="#403935"/>
      <path id="Trazado_193761" data-name="Trazado 193761" d="M656.87,715.328l-1.451.838v-8.628l1.451.837Z" transform="translate(101.693 103.567)" fill="#2d2622"/>
      <path id="Trazado_193762" data-name="Trazado 193762" d="M661.644,714.382v.674l-6.034-3.483V710.9Z" transform="translate(101.896 107.142)" fill="#403935"/>
      <path id="Trazado_193763" data-name="Trazado 193763" d="M661.644,712.217v.674l-6.034-3.484v-.674Z" transform="translate(101.896 104.839)" fill="#403935"/>
      <g id="Grupo_86856" data-name="Grupo 86856" transform="translate(757.509 817.435)">
        <path id="Trazado_193764" data-name="Trazado 193764" d="M655.612,711.213l6.033,3.486v-1.215l-4.988-2.879Z" transform="translate(-655.612 -710.606)" fill="#514741"/>
      </g>
      <g id="Grupo_86857" data-name="Grupo 86857" transform="translate(757.509 812.965)">
        <path id="Trazado_193765" data-name="Trazado 193765" d="M655.612,709.047l6.033,3.486v-1.216l-4.988-2.878Z" transform="translate(-655.612 -708.439)" fill="#514741"/>
      </g>
      <g id="Grupo_86893" data-name="Grupo 86893" transform="translate(565.898 610.167)">
        <g id="Grupo_86875" data-name="Grupo 86875" transform="translate(0 0.001)">
          <g id="Grupo_86869" data-name="Grupo 86869">
            <path id="Trazado_193766" data-name="Trazado 193766" d="M562.762,679.764l195.584,112.92V737.637L562.762,624.717Z" transform="translate(-562.759 -594.692)" fill="#4e683d"/>
            <g id="Grupo_86858" data-name="Grupo 86858" transform="translate(62.869 92.068)">
              <path id="Trazado_193767" data-name="Trazado 193767" d="M616.05,669.01l-22.825-13.178v-1.051l22.825,13.178Z" transform="translate(-593.226 -654.781)" fill="#3f4f34"/>
              <path id="Trazado_193768" data-name="Trazado 193768" d="M616.05,669.187l-22.825-13.178v-.719l22.825,13.178Z" transform="translate(-593.226 -654.24)" fill="#6a8546"/>
            </g>
            <g id="Grupo_86859" data-name="Grupo 86859" transform="translate(62.869 80.626)">
              <path id="Trazado_193769" data-name="Trazado 193769" d="M616.05,663.465l-22.825-13.178v-1.05l22.825,13.178Z" transform="translate(-593.226 -649.237)" fill="#3f4f34"/>
              <path id="Trazado_193770" data-name="Trazado 193770" d="M616.05,663.642l-22.825-13.178v-.719l22.825,13.178Z" transform="translate(-593.226 -648.696)" fill="#6a8546"/>
            </g>
            <g id="Grupo_86860" data-name="Grupo 86860" transform="translate(91.364 108.52)">
              <path id="Trazado_193771" data-name="Trazado 193771" d="M629.859,676.982,607.034,663.8v-1.05l22.825,13.178Z" transform="translate(-607.034 -662.754)" fill="#3f4f34"/>
              <path id="Trazado_193772" data-name="Trazado 193772" d="M629.859,677.159l-22.825-13.178v-.719l22.825,13.178Z" transform="translate(-607.034 -662.213)" fill="#6a8546"/>
            </g>
            <g id="Grupo_86861" data-name="Grupo 86861" transform="translate(91.364 97.077)">
              <path id="Trazado_193773" data-name="Trazado 193773" d="M629.859,671.438,607.034,658.26v-1.05l22.825,13.178Z" transform="translate(-607.034 -657.209)" fill="#3f4f34"/>
              <path id="Trazado_193774" data-name="Trazado 193774" d="M629.859,671.615l-22.825-13.178v-.719L629.859,670.9Z" transform="translate(-607.034 -656.668)" fill="#6a8546"/>
            </g>
            <path id="Trazado_193775" data-name="Trazado 193775" d="M567.348,628.522v49.271l1.795-1.036v-47.2Z" transform="translate(-557.881 -590.644)" fill="#344236"/>
            <path id="Trazado_193776" data-name="Trazado 193776" d="M654.3,677.567v60.517l3.763,2.17,1.793-.2,1.763,1.02v1.236l2.145,1.241V683.032l-2.145-1.241-3.556-2.049v-.005Z" transform="translate(-465.395 -538.479)" fill="#728f4c"/>
            <path id="Trazado_193777" data-name="Trazado 193777" d="M656.124,678.723V739.24l1.793-.2,1.763,1.02V680.777l.181-1.13-1.944-1.126Z" transform="translate(-463.456 -537.464)" fill="#4e683d"/>
            <path id="Trazado_193778" data-name="Trazado 193778" d="M656.124,678.724v60.515l1.793-.2V678.521Z" transform="translate(-463.456 -537.464)" fill="#344236"/>
            <path id="Trazado_193779" data-name="Trazado 193779" d="M567.348,652.934l179.439,103.6,1.793-1.035-179.439-103.6Z" transform="translate(-557.881 -565.785)" fill="#95af67"/>
            <path id="Trazado_193780" data-name="Trazado 193780" d="M562.76,625.253,755.429,736.486l1.793-.2,1.4.809.547.316-.181,1.13.352.206,1.793,1.035,1.793-1.035-3.587-2.069L564.554,624.213Z" transform="translate(-562.76 -595.228)" fill="#95af67"/>
            <path id="Trazado_193781" data-name="Trazado 193781" d="M563.631,624.751,762,739.28l1.793-1.035L565.424,623.711Z" transform="translate(-561.835 -595.761)" fill="#95af67"/>
            <path id="Trazado_193782" data-name="Trazado 193782" d="M586.22,611.708,784.59,726.237l1.793-1.035L588.014,610.668Z" transform="translate(-537.808 -609.634)" fill="#95af67"/>
            <path id="Trazado_193783" data-name="Trazado 193783" d="M587.089,611.207,781.867,723.661l1.8,1.04,1.793,1.035,1.793-1.035-1.793-1.035-.005-.005-1.788.2-1.07-.618-.874-.507.181-1.125L588.882,610.167Z" transform="translate(-536.885 -610.167)" fill="#95af67"/>
            <path id="Trazado_193784" data-name="Trazado 193784" d="M659.681,704.213l-3.558-2.054v7.318l3.558,2.054Z" transform="translate(-463.457 -512.322)" fill="#728f4c"/>
            <path id="Trazado_193785" data-name="Trazado 193785" d="M659.681,695.89l-3.558-2.054v4.488l3.558,2.054Z" transform="translate(-463.457 -521.174)" fill="#728f4c"/>
            <path id="Trazado_193786" data-name="Trazado 193786" d="M659.681,686.205l-3.558-2.054v4.487l3.558,2.054Z" transform="translate(-463.457 -531.475)" fill="#728f4c"/>
            <path id="Trazado_193787" data-name="Trazado 193787" d="M657.1,713.077l-5.438-8.609v-3.39l5.438,3.139Z" transform="translate(-468.197 -513.471)" fill="#728f4c"/>
            <g id="Grupo_86862" data-name="Grupo 86862" transform="translate(164.001 124.71)">
              <path id="Trazado_193788" data-name="Trazado 193788" d="M644.313,732.318l-2.081-1.2V670.6l2.081,1.2Z" transform="translate(-642.232 -670.599)" fill="#728f4c"/>
              <path id="Trazado_193789" data-name="Trazado 193789" d="M667.138,684.978v2.388l-24.906-14.38V670.6Z" transform="translate(-642.232 -670.599)" fill="#728f4c"/>
              <path id="Trazado_193790" data-name="Trazado 193790" d="M666.066,712.781,643.241,699.6v-3.39l22.825,13.178Z" transform="translate(-641.16 -643.354)" fill="#728f4c"/>
            </g>
            <g id="Grupo_86863" data-name="Grupo 86863" transform="translate(139.095 110.33)">
              <path id="Trazado_193791" data-name="Trazado 193791" d="M632.245,725.35l-2.081-1.2V663.631l2.081,1.2Z" transform="translate(-630.163 -663.631)" fill="#728f4c"/>
              <path id="Trazado_193792" data-name="Trazado 193792" d="M655.069,678.011V680.4l-24.906-14.379v-2.388Z" transform="translate(-630.163 -663.631)" fill="#728f4c"/>
              <path id="Trazado_193793" data-name="Trazado 193793" d="M654,705.813l-22.825-13.178v-3.39L654,702.424Z" transform="translate(-629.091 -636.386)" fill="#728f4c"/>
            </g>
            <g id="Grupo_86864" data-name="Grupo 86864" transform="translate(114.189 95.951)">
              <path id="Trazado_193794" data-name="Trazado 193794" d="M620.176,718.382l-2.081-1.2V656.663l2.081,1.2Z" transform="translate(-618.094 -656.663)" fill="#728f4c"/>
              <path id="Trazado_193795" data-name="Trazado 193795" d="M643,671.043v2.388l-24.906-14.38v-2.388Z" transform="translate(-618.094 -656.663)" fill="#728f4c"/>
              <path id="Trazado_193796" data-name="Trazado 193796" d="M641.928,698.846,619.1,685.668v-3.389l22.825,13.178Z" transform="translate(-617.022 -629.418)" fill="#728f4c"/>
            </g>
            <g id="Grupo_86865" data-name="Grupo 86865" transform="translate(85.694 79.499)">
              <path id="Trazado_193797" data-name="Trazado 193797" d="M606.367,710.41l-2.081-1.2V648.691l2.081,1.2Z" transform="translate(-604.286 -648.691)" fill="#728f4c"/>
              <path id="Trazado_193798" data-name="Trazado 193798" d="M632.781,665.143v2.388l-28.5-16.452v-2.388Z" transform="translate(-604.286 -648.691)" fill="#728f4c"/>
              <path id="Trazado_193799" data-name="Trazado 193799" d="M631.709,692.946,605.295,677.7v-3.39l26.414,15.251Z" transform="translate(-603.214 -621.446)" fill="#728f4c"/>
            </g>
            <g id="Grupo_86866" data-name="Grupo 86866" transform="translate(57.198 63.047)">
              <path id="Trazado_193800" data-name="Trazado 193800" d="M592.559,702.437l-2.081-1.2V640.719l2.081,1.2Z" transform="translate(-590.478 -640.719)" fill="#728f4c"/>
              <path id="Trazado_193801" data-name="Trazado 193801" d="M618.973,657.17v2.388l-28.5-16.452v-2.388Z" transform="translate(-590.478 -640.719)" fill="#728f4c"/>
              <path id="Trazado_193802" data-name="Trazado 193802" d="M617.9,684.973l-26.414-15.25v-3.389l26.414,15.25Z" transform="translate(-589.405 -613.474)" fill="#728f4c"/>
            </g>
            <g id="Grupo_86867" data-name="Grupo 86867" transform="translate(32.293 48.668)">
              <path id="Trazado_193803" data-name="Trazado 193803" d="M580.49,695.469l-2.081-1.2V633.751l2.081,1.2Z" transform="translate(-578.409 -633.751)" fill="#728f4c"/>
              <path id="Trazado_193804" data-name="Trazado 193804" d="M603.315,648.13v2.388l-24.906-14.379v-2.388Z" transform="translate(-578.409 -633.751)" fill="#728f4c"/>
              <path id="Trazado_193805" data-name="Trazado 193805" d="M602.242,675.933l-22.825-13.178v-3.389l22.825,13.178Z" transform="translate(-577.336 -606.506)" fill="#728f4c"/>
            </g>
            <g id="Grupo_86868" data-name="Grupo 86868" transform="translate(7.387 34.288)">
              <path id="Trazado_193806" data-name="Trazado 193806" d="M591.246,641.162v2.388l-24.906-14.38v-2.388Z" transform="translate(-566.34 -626.783)" fill="#728f4c"/>
              <path id="Trazado_193807" data-name="Trazado 193807" d="M590.173,668.965l-22.825-13.178V652.4l22.825,13.178Z" transform="translate(-565.267 -599.538)" fill="#728f4c"/>
            </g>
            <path id="Trazado_193808" data-name="Trazado 193808" d="M562.762,685.234l9.466,5.465V630.182l-9.466-5.465Z" transform="translate(-562.759 -594.692)" fill="#728f4c"/>
            <path id="Trazado_193809" data-name="Trazado 193809" d="M567.348,661.256l5.438-2.33v-3.39l-5.437-3.139Z" transform="translate(-557.881 -565.249)" fill="#728f4c"/>
            <path id="Trazado_193810" data-name="Trazado 193810" d="M579.417,635.49v58.129l1.795-1.036V636.526Z" transform="translate(-545.044 -583.233)" fill="#344236"/>
            <path id="Trazado_193811" data-name="Trazado 193811" d="M580.287,635.992v49.27l1.795-1.038v-47.2Z" transform="translate(-544.119 -582.699)" fill="#344236"/>
            <path id="Trazado_193812" data-name="Trazado 193812" d="M592.356,642.96v49.271l1.795-1.039V644Z" transform="translate(-531.282 -575.287)" fill="#344236"/>
            <path id="Trazado_193813" data-name="Trazado 193813" d="M606.164,650.932V700.2l1.795-1.038v-47.2Z" transform="translate(-516.595 -566.808)" fill="#344236"/>
            <path id="Trazado_193814" data-name="Trazado 193814" d="M619.973,658.9v49.27l1.795-1.038v-47.2Z" transform="translate(-501.908 -558.328)" fill="#344236"/>
            <path id="Trazado_193815" data-name="Trazado 193815" d="M632.042,665.873v49.27l1.795-1.038v-47.2Z" transform="translate(-489.071 -550.917)" fill="#344236"/>
            <path id="Trazado_193816" data-name="Trazado 193816" d="M644.111,672.841v49.27l1.795-1.038v-47.2Z" transform="translate(-476.234 -543.505)" fill="#344236"/>
            <path id="Trazado_193817" data-name="Trazado 193817" d="M591.486,642.458v58.129l1.795-1.036V643.494Z" transform="translate(-532.207 -575.821)" fill="#344236"/>
            <path id="Trazado_193818" data-name="Trazado 193818" d="M605.295,650.43V708.56l1.795-1.036V651.467Z" transform="translate(-517.52 -567.342)" fill="#344236"/>
            <path id="Trazado_193819" data-name="Trazado 193819" d="M619.1,658.4v58.129L620.9,715.5V659.439Z" transform="translate(-502.833 -558.862)" fill="#344236"/>
            <path id="Trazado_193820" data-name="Trazado 193820" d="M631.172,665.371V723.5l1.795-1.036V666.407Z" transform="translate(-489.996 -551.451)" fill="#344236"/>
            <path id="Trazado_193821" data-name="Trazado 193821" d="M643.241,672.339v58.129l1.795-1.036V673.375Z" transform="translate(-477.159 -544.039)" fill="#344236"/>
            <path id="Trazado_193822" data-name="Trazado 193822" d="M659.468,718.5l-1.124-.649v-8.628l1.124.649Z" transform="translate(-461.096 -504.805)" fill="#403935"/>
          </g>
          <g id="Grupo_86874" data-name="Grupo 86874" transform="translate(64.959 99.776)">
            <g id="Grupo_86870" data-name="Grupo 86870" transform="translate(28.495 16.452)">
              <path id="Trazado_193823" data-name="Trazado 193823" d="M623.751,678.376l-15.037-8.682v-1.827l15.037,8.682Z" transform="translate(-607.338 -665.024)" fill="#728f4c"/>
              <path id="Trazado_193824" data-name="Trazado 193824" d="M624.46,678.014l-15.037-8.682-1.376-2.843,18.394,10.62Z" transform="translate(-608.047 -666.489)" fill="#6a8546"/>
              <path id="Trazado_193825" data-name="Trazado 193825" d="M609.423,668.845l15.037,8.682,1.981,1.757-18.394-10.62Z" transform="translate(-608.047 -664.175)" fill="#3e4d3a"/>
              <path id="Trazado_193826" data-name="Trazado 193826" d="M617.982,671.635v4.49L616,674.368v-1.827Z" transform="translate(-599.587 -661.015)" fill="#3f4f34"/>
              <path id="Trazado_193827" data-name="Trazado 193827" d="M608.047,666.489v4.489l1.376.181v-1.827Z" transform="translate(-608.047 -666.489)" fill="#4e683d"/>
            </g>
            <g id="Grupo_86871" data-name="Grupo 86871" transform="translate(28.495 26.714)">
              <path id="Trazado_193828" data-name="Trazado 193828" d="M623.751,683.349l-15.037-8.682V672.84l15.037,8.682Z" transform="translate(-607.338 -669.996)" fill="#728f4c"/>
              <path id="Trazado_193829" data-name="Trazado 193829" d="M624.46,682.987,609.423,674.3l-1.376-2.843,18.394,10.62Z" transform="translate(-608.047 -671.462)" fill="#6a8546"/>
              <path id="Trazado_193830" data-name="Trazado 193830" d="M609.423,673.818,624.46,682.5l1.981,1.757-18.394-10.62Z" transform="translate(-608.047 -669.148)" fill="#3e4d3a"/>
              <path id="Trazado_193831" data-name="Trazado 193831" d="M617.982,676.608v4.49L616,679.341v-1.827Z" transform="translate(-599.587 -665.988)" fill="#3f4f34"/>
              <path id="Trazado_193832" data-name="Trazado 193832" d="M608.047,671.462v4.49l1.376.181V674.3Z" transform="translate(-608.047 -671.462)" fill="#4e683d"/>
            </g>
            <g id="Grupo_86872" data-name="Grupo 86872">
              <path id="Trazado_193833" data-name="Trazado 193833" d="M609.943,670.4l-15.038-8.682v-1.827l15.038,8.682Z" transform="translate(-593.529 -657.051)" fill="#728f4c"/>
              <path id="Trazado_193834" data-name="Trazado 193834" d="M610.652,670.042l-15.038-8.682-1.376-2.843,18.394,10.62Z" transform="translate(-594.239 -658.517)" fill="#6a8546"/>
              <path id="Trazado_193835" data-name="Trazado 193835" d="M595.614,660.873l15.038,8.682,1.981,1.757-18.394-10.62Z" transform="translate(-594.239 -656.203)" fill="#3e4d3a"/>
              <path id="Trazado_193836" data-name="Trazado 193836" d="M604.173,663.663v4.49l-1.981-1.757v-1.827Z" transform="translate(-585.779 -653.043)" fill="#3f4f34"/>
              <path id="Trazado_193837" data-name="Trazado 193837" d="M594.239,658.517v4.489l1.376.181V661.36Z" transform="translate(-594.239 -658.517)" fill="#4e683d"/>
            </g>
            <g id="Grupo_86873" data-name="Grupo 86873" transform="translate(0 10.262)">
              <path id="Trazado_193838" data-name="Trazado 193838" d="M609.943,675.376l-15.038-8.682v-1.827l15.038,8.682Z" transform="translate(-593.529 -662.024)" fill="#728f4c"/>
              <path id="Trazado_193839" data-name="Trazado 193839" d="M610.652,675.015l-15.038-8.682-1.376-2.843,18.394,10.62Z" transform="translate(-594.239 -663.49)" fill="#6a8546"/>
              <path id="Trazado_193840" data-name="Trazado 193840" d="M595.614,665.846l15.038,8.682,1.981,1.757-18.394-10.62Z" transform="translate(-594.239 -661.176)" fill="#3e4d3a"/>
              <path id="Trazado_193841" data-name="Trazado 193841" d="M604.173,668.636v4.49l-1.981-1.757v-1.827Z" transform="translate(-585.779 -658.016)" fill="#3f4f34"/>
              <path id="Trazado_193842" data-name="Trazado 193842" d="M594.239,663.49v4.489l1.376.181v-1.827Z" transform="translate(-594.239 -663.49)" fill="#4e683d"/>
            </g>
          </g>
        </g>
        <path id="Trazado_193843" data-name="Trazado 193843" d="M681.585,664.171v1.23l-.181-.1Z" transform="translate(-436.567 -552.726)" fill="#3e4f41"/>
        <g id="Grupo_86876" data-name="Grupo 86876" transform="translate(198.372 114.534)">
          <path id="Trazado_193844" data-name="Trazado 193844" d="M659.626,695.244V743l48.952-28.262V666.982Z" transform="translate(-658.103 -664.271)" fill="#344236"/>
          <path id="Trazado_193845" data-name="Trazado 193845" d="M658.888,719.6v4.83l2.473,2.38,47.052-27.165,2.473-5.236v-4.83Z" transform="translate(-658.888 -640.24)" fill="#344236"/>
          <path id="Trazado_193846" data-name="Trazado 193846" d="M678.384,695.55l-9.949,5.744v6.822l9.949-5.744Z" transform="translate(-648.734 -633.884)" fill="#1b130f"/>
          <path id="Trazado_193847" data-name="Trazado 193847" d="M684.272,666.982v58.685l-1.795-1.038v-56.61Z" transform="translate(-633.798 -664.271)" fill="#4e683d"/>
          <path id="Trazado_193848" data-name="Trazado 193848" d="M677.663,683.376v20.259l-1.795-1.038V684.412Z" transform="translate(-640.828 -646.833)" fill="#4e683d"/>
          <path id="Trazado_193849" data-name="Trazado 193849" d="M666.292,689.942V710.2l-1.795-1.038V690.978Z" transform="translate(-652.923 -639.85)" fill="#4e683d"/>
          <path id="Trazado_193850" data-name="Trazado 193850" d="M659.626,701.5l48.953-28.263v-2.059l-48.953,28.263Z" transform="translate(-658.103 -659.812)" fill="#3e4f41"/>
          <path id="Trazado_193851" data-name="Trazado 193851" d="M659.626,708.885l48.953-28.263v-2.06l-48.953,28.263Z" transform="translate(-658.103 -651.954)" fill="#3e4f41"/>
          <path id="Trazado_193852" data-name="Trazado 193852" d="M676.738,683.91v20.259l1.795-1.036V682.874Z" transform="translate(-639.903 -647.367)" fill="#3e4f41"/>
          <path id="Trazado_193853" data-name="Trazado 193853" d="M665.367,690.476v20.259l1.795-1.036V689.439Z" transform="translate(-651.998 -640.384)" fill="#3e4f41"/>
          <path id="Trazado_193854" data-name="Trazado 193854" d="M658.888,695.688v60.517l1.522-.879V696.641l48.952-28.262v58.685l1.523-.879V665.668Z" transform="translate(-658.888 -665.668)" fill="#3e4f41"/>
        </g>
        <path id="Trazado_193855" data-name="Trazado 193855" d="M708.579,671.71l-48.953,28.263V697.9l47.16-27.233Z" transform="translate(-459.731 -545.814)" fill="#728f4c"/>
        <path id="Trazado_193856" data-name="Trazado 193856" d="M708.579,679.1l-48.953,28.263v-2.07l47.16-27.233Z" transform="translate(-459.731 -537.956)" fill="#728f4c"/>
        <path id="Trazado_193857" data-name="Trazado 193857" d="M711.81,666.2l-52,30.02-1.793-1.034,52-30.026Z" transform="translate(-461.44 -551.67)" fill="#95af67"/>
        <path id="Trazado_193858" data-name="Trazado 193858" d="M658.218,694.068l-.181,1.13.352.206,1.793-1.034,48.411-27.95,1.793-1.035-.005-.005-1.788.2-1.07-.618-.728.417-48.406,27.955-.719.417Z" transform="translate(-461.812 -551.885)" fill="#95af67"/>
        <g id="Grupo_86877" data-name="Grupo 86877" transform="translate(0.002)">
          <path id="Trazado_193859" data-name="Trazado 193859" d="M617.421,611.708l-52,30.021-1.793-1.035,52-30.026Z" transform="translate(-561.837 -609.633)" fill="#95af67"/>
          <path id="Trazado_193860" data-name="Trazado 193860" d="M616.552,611.206l-52,30.021-1.793-1.035,52-30.026Z" transform="translate(-562.762 -610.167)" fill="#95af67"/>
        </g>
        <path id="Trazado_193861" data-name="Trazado 193861" d="M566.242,638.056l44.814,25.874,146.373,84.516,6.962-4.024,37.861-21.862-191.2-110.385Z" transform="translate(-559.058 -608.03)" fill="#4e683d"/>
        <path id="Trazado_193862" data-name="Trazado 193862" d="M587.958,641.4,734.33,725.912l6.962-4.024L587.958,633.36Z" transform="translate(-535.96 -585.497)" fill="#3f4f34"/>
        <path id="Trazado_193863" data-name="Trazado 193863" d="M566.242,638.056l44.814,25.874V612.175Z" transform="translate(-559.058 -608.03)" fill="#344236"/>
        <path id="Trazado_193864" data-name="Trazado 193864" d="M657.091,684.1l2.59,1.495v.669l-3.558-2.054Z" transform="translate(-463.457 -531.531)" fill="#95af67"/>
        <path id="Trazado_193865" data-name="Trazado 193865" d="M657.091,693.783l2.59,1.5v.669l-3.558-2.054Z" transform="translate(-463.457 -521.23)" fill="#95af67"/>
        <path id="Trazado_193866" data-name="Trazado 193866" d="M657.091,702.106l2.59,1.5v.669l-3.558-2.054Z" transform="translate(-463.457 -512.378)" fill="#95af67"/>
        <g id="Grupo_86878" data-name="Grupo 86878" transform="translate(37.963 91.277)">
          <path id="Trazado_193867" data-name="Trazado 193867" d="M600.392,666.554l-19.235-11.106V654.4L600.392,665.5Z" transform="translate(-581.157 -654.398)" fill="#3f4f34"/>
          <path id="Trazado_193868" data-name="Trazado 193868" d="M600.392,666.731l-19.235-11.106v-.719l19.235,11.106Z" transform="translate(-581.157 -653.857)" fill="#6a8546"/>
        </g>
        <g id="Grupo_86879" data-name="Grupo 86879" transform="translate(37.963 77.689)">
          <path id="Trazado_193869" data-name="Trazado 193869" d="M600.392,659.969l-19.235-11.106v-1.05l19.235,11.105Z" transform="translate(-581.157 -647.814)" fill="#3f4f34"/>
          <path id="Trazado_193870" data-name="Trazado 193870" d="M600.392,660.146l-19.235-11.105v-.719l19.235,11.106Z" transform="translate(-581.157 -647.272)" fill="#6a8546"/>
        </g>
        <g id="Grupo_86880" data-name="Grupo 86880" transform="translate(37.963 66.247)">
          <path id="Trazado_193871" data-name="Trazado 193871" d="M600.392,654.424l-19.235-11.105v-1.05l19.235,11.105Z" transform="translate(-581.157 -642.269)" fill="#3f4f34"/>
          <path id="Trazado_193872" data-name="Trazado 193872" d="M600.392,654.6,581.157,643.5v-.719l19.235,11.105Z" transform="translate(-581.157 -641.727)" fill="#6a8546"/>
        </g>
        <g id="Grupo_86881" data-name="Grupo 86881" transform="translate(119.86 138.56)">
          <path id="Trazado_193873" data-name="Trazado 193873" d="M640.078,689.466l-19.235-11.106v-1.05l19.235,11.106Z" transform="translate(-620.842 -677.31)" fill="#3f4f34"/>
          <path id="Trazado_193874" data-name="Trazado 193874" d="M640.078,689.644l-19.235-11.106v-.719l19.235,11.106Z" transform="translate(-620.842 -676.769)" fill="#6a8546"/>
        </g>
        <g id="Grupo_86882" data-name="Grupo 86882" transform="translate(119.86 124.972)">
          <path id="Trazado_193875" data-name="Trazado 193875" d="M640.078,682.882l-19.235-11.105v-1.05l19.235,11.105Z" transform="translate(-620.842 -670.726)" fill="#3f4f34"/>
          <path id="Trazado_193876" data-name="Trazado 193876" d="M640.078,683.059l-19.235-11.105v-.719l19.235,11.105Z" transform="translate(-620.842 -670.185)" fill="#6a8546"/>
        </g>
        <g id="Grupo_86883" data-name="Grupo 86883" transform="translate(119.86 113.53)">
          <path id="Trazado_193877" data-name="Trazado 193877" d="M640.078,677.337l-19.235-11.105v-1.05l19.235,11.105Z" transform="translate(-620.842 -665.181)" fill="#3f4f34"/>
          <path id="Trazado_193878" data-name="Trazado 193878" d="M640.078,677.514l-19.235-11.105v-.719L640.078,676.8Z" transform="translate(-620.842 -664.64)" fill="#6a8546"/>
        </g>
        <g id="Grupo_86884" data-name="Grupo 86884" transform="translate(144.766 152.939)">
          <path id="Trazado_193879" data-name="Trazado 193879" d="M652.147,696.434l-19.235-11.105v-1.05l19.235,11.105Z" transform="translate(-632.911 -684.278)" fill="#3f4f34"/>
          <path id="Trazado_193880" data-name="Trazado 193880" d="M652.147,696.611l-19.235-11.105v-.719l19.235,11.105Z" transform="translate(-632.911 -683.737)" fill="#6a8546"/>
        </g>
        <g id="Grupo_86885" data-name="Grupo 86885" transform="translate(144.766 139.351)">
          <path id="Trazado_193881" data-name="Trazado 193881" d="M652.147,689.85l-19.235-11.106v-1.05L652.147,688.8Z" transform="translate(-632.911 -677.694)" fill="#3f4f34"/>
          <path id="Trazado_193882" data-name="Trazado 193882" d="M652.147,690.027l-19.235-11.106V678.2l19.235,11.106Z" transform="translate(-632.911 -677.153)" fill="#6a8546"/>
        </g>
        <g id="Grupo_86886" data-name="Grupo 86886" transform="translate(144.766 127.909)">
          <path id="Trazado_193883" data-name="Trazado 193883" d="M652.147,684.305,632.911,673.2v-1.051l19.235,11.106Z" transform="translate(-632.911 -672.149)" fill="#3f4f34"/>
          <path id="Trazado_193884" data-name="Trazado 193884" d="M652.147,684.482l-19.235-11.106v-.719l19.235,11.106Z" transform="translate(-632.911 -671.608)" fill="#6a8546"/>
        </g>
        <g id="Grupo_86887" data-name="Grupo 86887" transform="translate(169.671 167.318)">
          <path id="Trazado_193885" data-name="Trazado 193885" d="M664.216,703.4,644.98,692.3v-1.05l19.235,11.106Z" transform="translate(-644.98 -691.246)" fill="#3f4f34"/>
          <path id="Trazado_193886" data-name="Trazado 193886" d="M664.216,703.58,644.98,692.474v-.719l19.235,11.106Z" transform="translate(-644.98 -690.705)" fill="#6a8546"/>
        </g>
        <g id="Grupo_86888" data-name="Grupo 86888" transform="translate(169.671 153.731)">
          <path id="Trazado_193887" data-name="Trazado 193887" d="M664.216,696.818,644.98,685.712v-1.05l19.235,11.105Z" transform="translate(-644.98 -684.662)" fill="#3f4f34"/>
          <path id="Trazado_193888" data-name="Trazado 193888" d="M664.216,697,644.98,685.89v-.719l19.235,11.105Z" transform="translate(-644.98 -684.121)" fill="#6a8546"/>
        </g>
        <g id="Grupo_86889" data-name="Grupo 86889" transform="translate(169.671 142.289)">
          <path id="Trazado_193889" data-name="Trazado 193889" d="M664.216,691.273,644.98,680.168v-1.05l19.235,11.105Z" transform="translate(-644.98 -679.117)" fill="#3f4f34"/>
          <path id="Trazado_193890" data-name="Trazado 193890" d="M664.216,691.45,644.98,680.345v-.719l19.235,11.105Z" transform="translate(-644.98 -678.576)" fill="#6a8546"/>
        </g>
        <g id="Grupo_86890" data-name="Grupo 86890" transform="translate(11.263 75.861)">
          <path id="Trazado_193891" data-name="Trazado 193891" d="M589.248,660.12l-21.03-12.142v-1.05l21.03,12.142Z" transform="translate(-568.218 -646.928)" fill="#3f4f34"/>
          <path id="Trazado_193892" data-name="Trazado 193892" d="M589.248,660.3l-21.03-12.142v-.719l21.03,12.142Z" transform="translate(-568.218 -646.386)" fill="#6a8546"/>
        </g>
        <g id="Grupo_86891" data-name="Grupo 86891" transform="translate(11.263 62.273)">
          <path id="Trazado_193893" data-name="Trazado 193893" d="M589.248,653.535l-21.03-12.141v-1.05l21.03,12.142Z" transform="translate(-568.218 -640.343)" fill="#3f4f34"/>
          <path id="Trazado_193894" data-name="Trazado 193894" d="M589.248,653.713l-21.03-12.142v-.719l21.03,12.141Z" transform="translate(-568.218 -639.802)" fill="#6a8546"/>
        </g>
        <g id="Grupo_86892" data-name="Grupo 86892" transform="translate(11.263 50.831)">
          <path id="Trazado_193895" data-name="Trazado 193895" d="M589.248,647.991l-21.03-12.142V634.8l21.03,12.142Z" transform="translate(-568.218 -634.799)" fill="#3f4f34"/>
          <path id="Trazado_193896" data-name="Trazado 193896" d="M589.248,648.168l-21.03-12.142v-.719l21.03,12.142Z" transform="translate(-568.218 -634.257)" fill="#6a8546"/>
        </g>
      </g>
      <path id="Trazado_193897" data-name="Trazado 193897" d="M660.339,717.763l-1.451.838v-8.628l1.451-.838Z" transform="translate(105.382 105.266)" fill="#2d2622"/>
      <path id="Trazado_193898" data-name="Trazado 193898" d="M566.242,624.717l44.814,17.838v8.036Z" transform="translate(6.84 15.475)" fill="#223124"/>
      <path id="Trazado_193899" data-name="Trazado 193899" d="M574.152,637.935a39.957,39.957,0,0,1,10.582-9.885,60.213,60.213,0,0,1,17.908-6.936c5.029-.984,34.811,21.262,50.943,29.244s58.5,25.416,69.619,33.934,37.546,24.9,43.14,29.017,15.634,6.624,15.634,6.624L749.014,738.97Z" transform="translate(15.254 11.611)" fill="#252229"/>
    </g>
  </g>
</svg>
