<svg xmlns="http://www.w3.org/2000/svg" width="118" height="118" viewBox="0 0 118 118">
  <g id="Grupo_93155" data-name="Grupo 93155" transform="translate(4800 -13776)">
    <g id="Elipse_4990" data-name="Elipse 4990" transform="translate(-4800 13776)" fill="#fff" stroke="#472ea6" stroke-width="3" stroke-dasharray="3 4">
      <circle cx="59" cy="59" r="59" stroke="none"/>
      <circle cx="59" cy="59" r="57.5" fill="none"/>
    </g>
    <circle id="Elipse_4991" data-name="Elipse 4991" cx="47" cy="47" r="47" transform="translate(-4788 13788)" fill="#bbabf5"/>
    <g id="Grupo_87552" data-name="Grupo 87552" transform="translate(-8468.361 14140.941)">
      <path id="Trazado_196512" data-name="Trazado 196512" d="M3705.592-310.173c-1.179-.687-2.245-1.313-3.315-1.933-1.687-.977-3.376-1.948-5.062-2.927-1.135-.659-1.139-1.507,0-2.165q7.031-4.078,14.068-8.145c.689-.4,1.247-.319,1.587.2a1.045,1.045,0,0,1-.472,1.514c-1.435.854-2.883,1.688-4.329,2.525q-4.031,2.335-8.064,4.665c-.144.083-.277.183-.472.314.222.147.39.272.57.376,2.39,1.386,4.778,2.776,7.181,4.14a.883.883,0,0,0,.737.036q5.91-3.385,11.794-6.815a2.17,2.17,0,0,0,.241-.2c-.27-.394-.543-.77-.792-1.16a1.042,1.042,0,0,1,.915-1.727c.941-.024,1.883-.005,2.818-.005a4.045,4.045,0,0,0-3.348-5.036c-1.68-.149-3.38-.074-5.071-.1a6.323,6.323,0,0,1-.834-.027.954.954,0,0,1-.895-1,.962.962,0,0,1,.833-.994.518.518,0,0,1,.126-.024,62.458,62.458,0,0,1,6.35.148,5.991,5.991,0,0,1,4.991,5.666c.038.748.031,1.5.013,2.249a1.081,1.081,0,0,1-1.216,1.178c-.577.015-1.155.017-1.732.027-.016,0-.03.023-.119.1l5.127,7.334,5.221-7.455h-1.333c-1.619,0-1.821-.2-1.827-1.795a13.269,13.269,0,0,0-2.513-8.014,13.186,13.186,0,0,0-11.075-5.611c-3.149-.029-6.3-.005-9.448-.006-.192,0-.386.008-.578-.007a1.049,1.049,0,0,1-1.054-1,1.018,1.018,0,0,1,1.079-1.04c3.792,0,7.594-.15,11.372.085a15.22,15.22,0,0,1,13.955,12.278c.205.977.263,1.985.4,3.053.85,0,1.722.011,2.594,0,.539-.009,1.041.037,1.321.583s-.006.985-.316,1.412c-.21.29-.412.585-.647.92.236.148.41.265.591.37q5.641,3.272,11.279,6.551a.886.886,0,0,0,1.042.008c2.3-1.362,4.627-2.693,6.943-4.036.218-.126.429-.262.7-.429-.2-.139-.328-.242-.469-.324q-8.229-4.767-16.454-9.538a.824.824,0,0,0-.995,0,8.99,8.99,0,0,1-1.115.635.994.994,0,0,1-1.345-.366.974.974,0,0,1,.313-1.354c.7-.455,1.432-.859,2.159-1.269a1.252,1.252,0,0,1,1.327.181q4.5,2.613,9.005,5.22,4.92,2.85,9.841,5.7c1.212.7,1.2,1.515-.028,2.225q-3.836,2.222-7.674,4.442c-.18.1-.352.22-.6.379.254.165.439.3.634.409q3.806,2.21,7.616,4.413c.456.263.919.518.924,1.125s-.446.876-.9,1.141c-2.948,1.7-5.889,3.421-8.844,5.113a.9.9,0,0,0-.529.907c.018,3.02-.007,6.041.021,9.061a1.631,1.631,0,0,1-.921,1.6q-9.415,5.411-18.8,10.872a1.531,1.531,0,0,1-1.727-.006q-9.332-5.426-18.691-10.8a1.809,1.809,0,0,1-1.029-1.8c.04-2.934,0-5.869.026-8.8a1.041,1.041,0,0,0-.592-1.065c-2.942-1.672-5.862-3.382-8.79-5.079-1.212-.7-1.222-1.532-.02-2.229q3.779-2.192,7.561-4.38C3705.039-309.829,3705.253-309.967,3705.592-310.173Zm4.2-.02c.213.147.341.25.481.331q8.282,4.8,16.575,9.58a.941.941,0,0,0,.79-.021q8.188-4.7,16.354-9.449c.208-.121.409-.257.685-.432l-11.512-6.659c-.184.255-.322.443-.455.634q-2.213,3.157-4.424,6.314-1.059,1.51-2.114.018c-.9-1.278-1.792-2.562-2.69-3.842-.722-1.03-1.447-2.059-2.2-3.125Zm16.334,32.081v-18.9c-.277.152-.463.25-.645.355-2.481,1.437-4.978,2.85-7.435,4.328a1.859,1.859,0,0,1-2.183.02c-2.139-1.3-4.325-2.524-6.494-3.776-.179-.1-.366-.19-.592-.307a1.8,1.8,0,0,0-.06.29c0,2.526-.016,5.052.017,7.577a.977.977,0,0,0,.466.658q8.155,4.751,16.331,9.466C3725.706-278.3,3725.9-278.224,3726.125-278.112Zm2.169-18.928V-278.1c.254-.125.443-.2.619-.306q8.172-4.725,16.345-9.447a.859.859,0,0,0,.483-.869c-.018-2.355-.007-4.71-.01-7.065,0-.184-.024-.367-.042-.623-.245.127-.432.214-.61.318-2.243,1.295-4.491,2.581-6.722,3.9a1.473,1.473,0,0,1-1.674.019c-1.393-.84-2.809-1.642-4.216-2.457C3731.118-295.412,3729.767-296.19,3728.293-297.04Zm-3.212-1.814c-.143-.111-.189-.156-.244-.188q-8.365-4.847-16.726-9.7a.811.811,0,0,0-.936.049c-2.4,1.4-4.816,2.792-7.224,4.189a5.018,5.018,0,0,0-.411.3,3.092,3.092,0,0,0,.251.188q8.394,4.862,16.8,9.7a.955.955,0,0,0,.792-.055c2.383-1.354,4.75-2.736,7.119-4.112C3724.679-298.584,3724.849-298.7,3725.082-298.854Zm4.276-.037a4.78,4.78,0,0,0,.405.305c2.46,1.431,4.917,2.867,7.393,4.269a.949.949,0,0,0,.79-.048q6.654-3.816,13.286-7.671c1.22-.706,2.439-1.416,3.721-2.16-.211-.139-.362-.249-.522-.343-2.332-1.354-4.672-2.693-6.991-4.068a1.133,1.133,0,0,0-1.332-.015c-4.69,2.746-9.4,5.46-14.1,8.185C3731.143-299.936,3730.282-299.431,3729.357-298.891Z" fill="#472ea6"/>
      <path id="Trazado_196513" data-name="Trazado 196513" d="M3749.685-302.61c-1.284,0-2.569.006-3.853,0-.806-.005-1.28-.406-1.269-1.044.01-.612.473-1.006,1.243-1.009q3.885-.013,7.77,0c.769,0,1.227.4,1.233,1.015.006.639-.464,1.034-1.271,1.04C3752.254-302.6,3750.969-302.609,3749.685-302.61Z" transform="translate(-42.007 -28.122)" fill="#472ea6"/>
      <path id="Trazado_196514" data-name="Trazado 196514" d="M3778.66-270.6c-.364,0-.729.026-1.09-.006a.991.991,0,0,1-.966-1,.931.931,0,0,1,.892-1,15.41,15.41,0,0,1,2.3.006.907.907,0,0,1,.868,1.013.945.945,0,0,1-.918.977,9.971,9.971,0,0,1-1.089.007Z" transform="translate(-69.929 -56.033)" fill="#472ea6"/>
      <path id="Trazado_196515" data-name="Trazado 196515" d="M3714.569-334.676c-.364,0-.73.029-1.091-.007a1.028,1.028,0,0,1-.959-1.023,1.014,1.014,0,0,1,.982-1c.7-.036,1.414-.035,2.119,0a1.013,1.013,0,0,1,.988.993,1.029,1.029,0,0,1-1.011,1.039c-.34.028-.685.005-1.027.005Z" transform="translate(-14.08 -0.182)" fill="#472ea6"/>
      <path id="Trazado_196516" data-name="Trazado 196516" d="M4018.637,25.584a9.383,9.383,0,0,1-.009,1.155.948.948,0,0,1-.993.9.884.884,0,0,1-.979-.83,15.917,15.917,0,0,1,0-2.432.882.882,0,0,1,1-.811.95.95,0,0,1,.976.923,10.551,10.551,0,0,1,.007,1.091Z" transform="translate(-279.091 -314.177)" fill="#472ea6"/>
      <path id="Trazado_196517" data-name="Trazado 196517" d="M4048.57,9.548a10.818,10.818,0,0,1,.006-1.09,1,1,0,0,1,1.016-.956.946.946,0,0,1,.981.917,17.374,17.374,0,0,1,0,2.244.948.948,0,0,1-.976.924.994.994,0,0,1-1.022-.949A10.743,10.743,0,0,1,4048.57,9.548Z" transform="translate(-306.932 -300.174)" fill="#472ea6"/>
    </g>
  </g>
</svg>
