<svg xmlns="http://www.w3.org/2000/svg" xmlns:xlink="http://www.w3.org/1999/xlink" width="160" height="160" viewBox="0 0 160 160">
  <defs>
    <clipPath id="clip-path">
      <rect id="Rectángulo_36969" data-name="Rectángulo 36969" width="85" height="85" transform="translate(371 6754)" fill="#fff" stroke="#707070" stroke-width="1"/>
    </clipPath>
  </defs>
  <g id="Grupo_93028" data-name="Grupo 93028" transform="translate(1642 -15798)">
    <circle id="Elipse_5010" data-name="Elipse 5010" cx="80" cy="80" r="80" transform="translate(-1642 15798)" fill="#bbabf5"/>
    <g id="Elipse_5011" data-name="Elipse 5011" transform="translate(-1631 15809)" fill="#fff" stroke="#472ea6" stroke-width="2">
      <circle cx="69" cy="69" r="69" stroke="none"/>
      <circle cx="69" cy="69" r="68" fill="none"/>
    </g>
    <g id="Enmascarar_grupo_182" data-name="Enmascarar grupo 182" transform="translate(-1975 9082)" clip-path="url(#clip-path)">
      <g id="Grupo_87870" data-name="Grupo 87870" transform="translate(-1013.457 7228.802)">
        <path id="Trazado_197551" data-name="Trazado 197551" d="M1412.012-460.341q10.7,0,21.4,0a3.8,3.8,0,0,1,4.061,3.043,5.378,5.378,0,0,1,.085,1.1c.008,1.925.028,3.85-.01,5.774-.011.574.17.69.708.688,4.985-.02,9.97-.014,14.955-.012,3.749,0,5.947,1.645,7.023,5.21.233.771.2,1.834.806,2.223.564.361,1.528.108,2.316.109,2.523.006,2.445-.247,3.234,2.393.409,1.37.879,2.721,1.306,4.086a1.2,1.2,0,0,1-.719,1.677c-.706.239-1.295-.086-1.573-.921-.466-1.4-.92-2.81-1.344-4.225a.678.678,0,0,0-.773-.57c-1.868-.009-1.84-.034-1.333,1.714.981,3.382,2.191,6.7,2.842,10.174a23.189,23.189,0,0,1,.369,4.271q0,4,0,8a3.171,3.171,0,0,1-3.5,3.48c-1.678.009-3.357.018-5.034-.008-.471-.007-.69.106-.793.607a9,9,0,0,1-8.859,7.266,9.027,9.027,0,0,1-8.933-7.274c-.095-.474-.276-.6-.723-.6q-13.215.014-26.431,0c-.471,0-.621.161-.714.607a9.038,9.038,0,0,1-8.949,7.265,9.058,9.058,0,0,1-8.872-7.273c-.1-.469-.256-.609-.713-.6-1.135.027-2.27.02-3.405,0a3.138,3.138,0,0,1-3.349-3.4c0-1.234,0-2.468,0-3.7a2.914,2.914,0,0,1,.873-2.205,1.365,1.365,0,0,0,.409-1.112q-.01-16.843,0-33.685a3.8,3.8,0,0,1,2.926-4,6.28,6.28,0,0,1,1.4-.107Q1401.35-460.346,1412.012-460.341Zm35.634,30.91-.146-.121-.037-.011.039.006a.234.234,0,0,0-.223-.173.077.077,0,0,0-.1-.066,1.192,1.192,0,0,0-.215-.2,4.533,4.533,0,0,0-2.25-.245c-2.409-.017-3.5-1.08-3.5-3.459,0-2.711-.014-5.423.01-8.134,0-.535-.121-.759-.7-.721a14.266,14.266,0,0,1-2.143,0c-.693-.059-.855.189-.853.861.024,7.123.015,14.247.015,21.37,0,1.725,0,3.451,0,5.176,0,.224-.1.549.277.571.345.02.348-.283.392-.521a8.911,8.911,0,0,1,.676-2.1,10,10,0,0,1,3.976-4.247l-.013.009a1.137,1.137,0,0,0,.655-.316l.056-.015a.31.31,0,0,0,.325-.138l-.009.007a1.945,1.945,0,0,0,.9-.292l-.007.012a2.656,2.656,0,0,0,1.01-.217l.891-.07a.448.448,0,0,0,.422-.015l1.507.1a5.206,5.206,0,0,0,1.323.319l-.008,0c.112.16.286.148.451.163.2.1.391.2.588.294a9.019,9.019,0,0,1,4.9,5.71c.408,1.37.4,1.345,1.828,1.358.584.005.706-.219.692-.741-.031-1.108.052-2.222-.024-3.327a2.821,2.821,0,0,1,3.21-3.2c1.382.09,1.356.015,1.379-1.407.01-.582-.2-.7-.725-.686-1.676.03-3.355-.045-5.028.028a6.08,6.08,0,0,1-4.6-1.63,1.364,1.364,0,0,1-.487-1.868c.8-.654,1.188-.668,2.007-.02a3.552,3.552,0,0,0,2.274,1.065c1.89-.024,3.78,0,5.669-.008.2,0,.453.121.577-.166l.006-.33c0-.088-.01-.176-.015-.264a1,1,0,0,0-.134-.629.31.31,0,0,0-.073-.339,2.983,2.983,0,0,0-.164-1.012c-1.177-3.988-2.347-7.978-3.535-11.962-.448-1.5-.468-1.5-2.076-1.5-.394,0-.788,0-1.182,0l-8.344.044c-.961-.014-1.922-.012-2.882-.05-.462-.018-.588.164-.586.6q.022,4.257,0,8.514c0,.546.218.753.749.741a12.8,12.8,0,0,1,2.869.178,10.162,10.162,0,0,1,1.836,1l.212.142-.012,0a1.564,1.564,0,0,1,.334,1.98,1.48,1.48,0,0,1-1.708.178.364.364,0,0,0-.285-.215Zm13.833,10.105c-.482-.183-.693.009-.694.5,0,1.27-.008,2.54,0,3.81,0,.234-.03.55.389.393.147.015.293.031.44.043,1.1.089,1.34-.135,1.339-1.271q0-1.144,0-2.289c0-1.324,0-1.324-1.328-1.222A.821.821,0,0,0,1461.479-419.326Zm-69.871-.648c-1.083-.013-2.166-.023-3.248-.038a.744.744,0,0,0-.843.81c-.019,1.281-.011,2.562-.005,3.843a.715.715,0,0,0,.781.791,25.989,25.989,0,0,0,3.315-.05c.605.249.818-.093.94-.607a9.351,9.351,0,0,1,1.83-3.818c.239-.293.484-.58.778-.931Zm55.091,13.247a6.61,6.61,0,0,0,7.09-7.067,6.572,6.572,0,0,0-6.8-6.179,5,5,0,0,0-.807.017,6.619,6.619,0,0,0-4.731,10.031A6.205,6.205,0,0,0,1446.7-406.726Zm-45.61,0a6.545,6.545,0,0,0,7.046-6.694,6.537,6.537,0,0,0-7.045-6.548,3.964,3.964,0,0,0-.66.011,6.711,6.711,0,0,0-5.226,8.891A6.667,6.667,0,0,0,1401.088-406.722Zm41.3-40.526a23.2,23.2,0,0,0-4.4-.024c-.933.078-.274,1-.413,1.516-.078.291-.2.8.43.787,1.47-.026,2.941.086,4.409-.061a9.518,9.518,0,0,0,2.306.011c2.306.137,4.614.043,6.92.053a33.279,33.279,0,0,0,3.823-.055,3.107,3.107,0,0,0,1.233,0,.353.353,0,0,0,.415.01c.575-.119.169-.4.059-.552a4.281,4.281,0,0,0-3.711-1.756c-3.5.013-6.992,0-10.488.006A4.944,4.944,0,0,0,1442.393-447.248Zm-49.3-10.632c-1.009-.012-2.02-.068-3.027-.025a1.56,1.56,0,0,0-1.273,2.092.366.366,0,0,0,.406.242,33.572,33.572,0,0,0,3.613-.077c.269.019.537.054.806.054q7.54.005,15.079,0c1.115,0,1.362.187,1.688,1.247-.361.984-.617,1.162-1.692,1.165-1.135,0-2.269,0-3.4,0l-12.356.029c-1.083-.011-2.171.036-3.248-.051-.8-.064-.917.246-.915.953q.034,14.009.017,28.017c0,.444,0,.887,0,1.331,0,.279.061.487.4.476,1.253-.04,2.509.087,3.759-.07.243.02.487.058.73.058q20.3,0,40.589,0a1.443,1.443,0,0,0,.726-.074c.163.048.115-.064.11-.144.011-.3.032-.59.032-.885q0-13.876,0-27.751a11.986,11.986,0,0,1,.009-1.257c.057-.544-.173-.669-.672-.643-.738.038-1.48.01-2.22.01q-8.585,0-17.169,0c-.965,0-1.391-.333-1.558-1.186.343-1.068.565-1.225,1.706-1.224q2.219,0,4.439,0,7.361,0,14.722.005c.475,0,.783-.008.761-.645-.041-1.18-.544-1.692-1.818-1.692q-19.6,0-39.209,0C1393.781-457.919,1393.437-457.894,1393.093-457.88Zm14.6,37.87a9.486,9.486,0,0,1,2.755,5.134c.069.388.372.321.637.321q11.73,0,23.461.01c.5,0,.615-.166.6-.635-.029-1.356-.043-2.715,0-4.07.021-.6-.127-.778-.758-.776-7.6.024-15.2.016-22.8.016Z" fill="#12263f"/>
        <path id="Trazado_197552" data-name="Trazado 197552" d="M1479.651-388.124a1.442,1.442,0,0,1-.726.074q-20.295,0-40.59,0c-.243,0-.487-.038-.73-.058-.208-.481,0-.966,0-1.449q-.017-14.6-.01-29.207l12.356-.029c1.135,0,2.269,0,3.4,0,1.075,0,1.331-.181,1.692-1.165l3.14-.023c.167.853.593,1.185,1.558,1.186q8.585,0,17.169,0c.74,0,1.482.028,2.22-.01.5-.026.729.1.672.643a12.02,12.02,0,0,0-.009,1.257q0,13.876,0,27.751c0,.3-.021.59-.032.885Z" transform="translate(-44.661 -34.381)" fill="#bbabf5"/>
        <path id="Trazado_197553" data-name="Trazado 197553" d="M1803.928-340.1l8.344-.044c.394,0,.788,0,1.182,0,1.608,0,1.628-.005,2.076,1.5,1.188,3.984,2.357,7.974,3.535,11.962a2.98,2.98,0,0,1,.164,1.012.276.276,0,0,0,.073.339,1,1,0,0,1,.134.629c-.116.095-.109.182.015.264l-.006.33q-2.028-.008-4.056-.016a1.04,1.04,0,0,1-.7-.139c-1.348-1.056-2.761-2.039-4.035-3.177a5.111,5.111,0,0,0-4.535-1.534l.012,0a.182.182,0,0,0-.212-.142,10.145,10.145,0,0,0-1.836-1,2.716,2.716,0,0,1-.15-1.008Q1803.936-335.607,1803.928-340.1Z" transform="translate(-356.798 -102.395)" fill="#24a6fa"/>
        <path id="Trazado_197554" data-name="Trazado 197554" d="M1537.675-188.163h3.909c7.6,0,15.2.008,22.8-.016.63,0,.779.172.758.776-.047,1.355-.034,2.714,0,4.07.01.469-.1.637-.6.635q-11.73-.022-23.461-.01c-.265,0-.568.067-.637-.321A9.487,9.487,0,0,0,1537.675-188.163Z" transform="translate(-129.986 -231.847)" fill="#dbe6f6"/>
        <path id="Trazado_197555" data-name="Trazado 197555" d="M1414.111-412.1q0,14.6.01,29.207c0,.482-.2.968,0,1.449-1.251.158-2.507.031-3.759.07-.344.011-.407-.2-.4-.476,0-.444,0-.887,0-1.331q0-14.009-.017-28.017c0-.707.117-1.017.915-.953C1411.94-412.069,1413.028-412.116,1414.111-412.1Z" transform="translate(-21.179 -41.042)" fill="#866ce1"/>
        <path id="Trazado_197556" data-name="Trazado 197556" d="M1775.909-257.146a.077.077,0,0,1,.1.066c.021.127.068.22.223.173l-.039-.006.037.012c-.014.117.031.161.146.12l.011.005c-.023.228.13.223.285.215a1.48,1.48,0,0,0,1.708-.178l2.47,2.016a1.364,1.364,0,0,0,.487,1.868,6.08,6.08,0,0,0,4.6,1.63c1.673-.073,3.353,0,5.028-.028.528-.009.734.1.725.686-.023,1.423,0,1.5-1.379,1.407a2.821,2.821,0,0,0-3.21,3.2c.075,1.1-.007,2.218.024,3.327.015.522-.108.747-.692.741-1.432-.013-1.42.013-1.828-1.358a9.019,9.019,0,0,0-4.9-5.71c-.2-.1-.392-.2-.588-.294-.095-.208-.275-.18-.451-.163l.008,0c-.387-.329-.773-.665-1.323-.319l-1.507-.1c-.145-.109-.294-.329-.422.015l-.891.07a.851.851,0,0,0-1.01.217l.007-.012c-.338-.019-.722-.177-.9.292l.009-.007a.27.27,0,0,0-.325.138l-.057.015a.576.576,0,0,0-.655.316l.013-.009c-.516-.035-.652-.374-.623-.814a7.269,7.269,0,0,0,.124-.717c-.093-2.227.155-4.458-.1-6.684-.043-.38.245-.76.622-.634C1773.031-257.178,1774.533-257.7,1775.909-257.146Zm-2.32,1.512v-.008c-.2,0-.4-.01-.592,0a1.2,1.2,0,0,0-1.2,1.159,1.189,1.189,0,0,0,1.041,1.233,4.039,4.039,0,0,0,1.545-.019,1.117,1.117,0,0,0,.944-1.234,1.132,1.132,0,0,0-1.072-1.128A5.564,5.564,0,0,0,1773.589-255.634Z" transform="translate(-328.73 -172.651)" fill="#f9cf06"/>
        <path id="Trazado_197557" data-name="Trazado 197557" d="M1748.8-327.548c-1.376-.558-2.878-.032-4.277-.5-.377-.126-.665.255-.622.634.251,2.226,0,4.457.1,6.684a7.268,7.268,0,0,1-.124.717c-.029.44.107.779.623.814a10,10,0,0,0-3.976,4.248,8.917,8.917,0,0,0-.676,2.1c-.044.238-.047.541-.392.521-.38-.022-.276-.347-.277-.571-.007-1.725,0-3.451,0-5.176,0-7.123.009-14.247-.015-21.37,0-.672.16-.92.853-.861a14.274,14.274,0,0,0,2.143,0c.574-.038.7.186.7.721-.024,2.711-.011,5.423-.01,8.134,0,2.379,1.089,3.442,3.5,3.459a4.532,4.532,0,0,1,2.25.245A1.191,1.191,0,0,1,1748.8-327.548Z" transform="translate(-301.621 -102.248)" fill="#f5bc0f"/>
        <path id="Trazado_197558" data-name="Trazado 197558" d="M1457.954-440.437l-3.14.023c-.326-1.061-.572-1.247-1.687-1.247q-7.54,0-15.079,0c-.269,0-.537-.035-.806-.054q.14-1.117.281-2.233c.344-.014.688-.039,1.033-.039q19.6,0,39.209,0c1.274,0,1.777.511,1.818,1.692.022.636-.286.645-.761.645q-7.361-.016-14.722-.005-2.219,0-4.439,0C1458.519-441.662,1458.3-441.5,1457.954-440.437Z" transform="translate(-44.429 -13.927)" fill="#866ce1"/>
        <path id="Trazado_197559" data-name="Trazado 197559" d="M1783.983-340.132q0,4.49,0,8.98a2.716,2.716,0,0,0,.15,1.008,12.8,12.8,0,0,0-2.869-.178c-.53.012-.752-.2-.749-.741q.022-4.257,0-8.514c0-.44.124-.622.586-.6C1782.061-340.144,1783.022-340.147,1783.983-340.132Z" transform="translate(-336.853 -102.36)" fill="#0391f5"/>
        <path id="Trazado_197560" data-name="Trazado 197560" d="M1774.275-370.138a9.52,9.52,0,0,1-2.306-.011l-.023-2.218a4.922,4.922,0,0,1,.58-.068c3.5,0,6.992.007,10.488-.006a4.281,4.281,0,0,1,3.711,1.756c.11.15.515.433-.058.552l-.416-.009a3.1,3.1,0,0,1-1.232,0Z" transform="translate(-329.553 -74.881)" fill="#f7df5b"/>
        <path id="Trazado_197561" data-name="Trazado 197561" d="M1485.438-187.918a6.537,6.537,0,0,1,7.046,6.548,6.546,6.546,0,0,1-7.046,6.694c-.065-.3-.387-.345-.54-.56-.258-.363-.771-.538-.794-1.075.269.024.54.033.806.075a5.111,5.111,0,0,0,5.7-3.171,5.156,5.156,0,0,0-2.061-6.266,5.445,5.445,0,0,0-4.257-.618c-.337-.267,0-.392.115-.57C1484.674-187.289,1485.3-187.362,1485.438-187.918Z" transform="translate(-84.35 -232.046)" fill="#625b64"/>
        <path id="Trazado_197562" data-name="Trazado 197562" d="M1793.571-187.809a6.571,6.571,0,0,1,6.8,6.178,6.611,6.611,0,0,1-7.09,7.067c-.029-.22-.2-.3-.355-.433a2.392,2.392,0,0,1-.99-1.308c.119.031.237.063.356.093a5.025,5.025,0,0,0,5.3-1.562,4.908,4.908,0,0,0,.991-5.166,5.2,5.2,0,0,0-6.485-3.178c-.027-.5.4-.695.677-.987C1793.01-187.365,1793.435-187.421,1793.571-187.809Z" transform="translate(-346.579 -232.162)" fill="#625b64"/>
        <path id="Trazado_197563" data-name="Trazado 197563" d="M1763.875-176.353a2.391,2.391,0,0,0,.99,1.308c.15.128.327.213.355.433a6.207,6.207,0,0,1-5.244-3.2,6.619,6.619,0,0,1,4.731-10.031,4.971,4.971,0,0,1,.807-.017c-.135.388-.561.444-.8.7-.273.292-.7.486-.677.987a5.076,5.076,0,0,0-3.522,5.109A5.071,5.071,0,0,0,1763.875-176.353Z" transform="translate(-318.521 -232.113)" fill="#514a51"/>
        <path id="Trazado_197564" data-name="Trazado 197564" d="M1457.054-187.811c-.135.557-.764.629-1.033,1.056-.112.178-.452.3-.115.57-.174.09-.346.185-.523.269a5.125,5.125,0,0,0-2.285,7.512,6.94,6.94,0,0,0,2.621,2.2c.024.537.536.712.794,1.075.153.215.475.263.54.56a6.667,6.667,0,0,1-5.885-4.341,6.711,6.711,0,0,1,5.226-8.891A3.96,3.96,0,0,1,1457.054-187.811Z" transform="translate(-55.966 -232.153)" fill="#514a51"/>
        <path id="Trazado_197565" data-name="Trazado 197565" d="M1405.514-182.688a25.978,25.978,0,0,1-3.315.05.715.715,0,0,1-.781-.791c-.006-1.281-.014-2.562.005-3.843a.744.744,0,0,1,.843-.81c1.083.015,2.165.026,3.248.038Q1405.514-185.366,1405.514-182.688Z" transform="translate(-13.907 -231.93)" fill="#add4f3"/>
        <path id="Trazado_197566" data-name="Trazado 197566" d="M1821.489-261.231l-2.47-2.016a1.563,1.563,0,0,0-.334-1.979,5.112,5.112,0,0,1,4.535,1.534c1.275,1.138,2.687,2.121,4.035,3.177a1.04,1.04,0,0,0,.7.139q2.028.011,4.056.016c-.124.288-.381.165-.577.166-1.89.008-3.78-.016-5.67.008a3.552,3.552,0,0,1-2.274-1.066C1822.678-261.9,1822.293-261.885,1821.489-261.231Z" transform="translate(-369.369 -166.141)" fill="#0790ef"/>
        <path id="Trazado_197567" data-name="Trazado 197567" d="M1743.685-372.615l.023,2.218c-1.468.148-2.94.035-4.409.061-.626.011-.508-.5-.43-.787.139-.518-.52-1.438.413-1.516A23.2,23.2,0,0,1,1743.685-372.615Z" transform="translate(-301.293 -74.633)" fill="#f9cf06"/>
        <path id="Trazado_197568" data-name="Trazado 197568" d="M1429.111-182.467q0-2.678,0-5.355h3.548c-.294.351-.539.638-.778.931a9.351,9.351,0,0,0-1.83,3.818C1429.929-182.559,1429.716-182.217,1429.111-182.467Z" transform="translate(-37.504 -232.151)" fill="#dbe6f6"/>
        <path id="Trazado_197569" data-name="Trazado 197569" d="M1413.85-443.954l-.281,2.233a33.6,33.6,0,0,1-3.613.077.365.365,0,0,1-.406-.242,1.559,1.559,0,0,1,1.273-2.092C1411.83-444.022,1412.841-443.966,1413.85-443.954Z" transform="translate(-20.758 -13.926)" fill="#866ce1"/>
        <path id="Trazado_197570" data-name="Trazado 197570" d="M1899.022-183.89a.821.821,0,0,1,.143-.037c1.329-.1,1.328-.1,1.328,1.221q0,1.144,0,2.289c0,1.136-.234,1.36-1.339,1.271-.147-.012-.294-.029-.44-.043a1.053,1.053,0,0,0,.329-.854C1899.019-181.325,1899.027-182.607,1899.022-183.89Z" transform="translate(-437.544 -235.436)" fill="#f54754"/>
        <path id="Trazado_197571" data-name="Trazado 197571" d="M1896.769-183.842c0,1.282,0,2.565.021,3.847a1.053,1.053,0,0,1-.329.854c-.419.157-.388-.158-.389-.393-.006-1.27,0-2.54,0-3.81C1896.076-183.833,1896.287-184.024,1896.769-183.842Z" transform="translate(-435.29 -235.484)" fill="#d82c36"/>
        <path id="Trazado_197572" data-name="Trazado 197572" d="M1787.668-356.909l10.744,0a33.3,33.3,0,0,1-3.824.055C1792.282-356.866,1789.974-356.772,1787.668-356.909Z" transform="translate(-342.946 -88.11)" fill="#f9cf06"/>
        <path id="Trazado_197573" data-name="Trazado 197573" d="M1813.954-204.889c.55-.346.936-.011,1.323.319A5.2,5.2,0,0,1,1813.954-204.889Z" transform="translate(-365.338 -217.488)" fill="#f5bc0f"/>
        <path id="Trazado_197574" data-name="Trazado 197574" d="M1782.062-202.733c.18-.469.563-.311.9-.292A1.944,1.944,0,0,1,1782.062-202.733Z" transform="translate(-338.171 -219.165)" fill="#f5bc0f"/>
        <path id="Trazado_197575" data-name="Trazado 197575" d="M1788.1-204.462a.851.851,0,0,1,1.01-.217A2.655,2.655,0,0,1,1788.1-204.462Z" transform="translate(-343.315 -217.717)" fill="#f5bc0f"/>
        <path id="Trazado_197576" data-name="Trazado 197576" d="M1775.124-199.543a.576.576,0,0,1,.655-.316A1.136,1.136,0,0,1,1775.124-199.543Z" transform="translate(-332.261 -221.894)" fill="#f5bc0f"/>
        <path id="Trazado_197577" data-name="Trazado 197577" d="M1800.929-205.711c.129-.344.278-.124.422-.015A.448.448,0,0,1,1800.929-205.711Z" transform="translate(-354.243 -216.754)" fill="#f5bc0f"/>
        <path id="Trazado_197578" data-name="Trazado 197578" d="M1868.515-356.923l.416.009A.354.354,0,0,1,1868.515-356.923Z" transform="translate(-411.817 -88.1)" fill="#f9cf06"/>
        <path id="Trazado_197579" data-name="Trazado 197579" d="M1822.834-201.992c.176-.016.356-.044.45.163C1823.12-201.845,1822.946-201.832,1822.834-201.992Z" transform="translate(-372.903 -220.07)" fill="#f5bc0f"/>
        <path id="Trazado_197580" data-name="Trazado 197580" d="M1805.148-253.516c-.156.047-.2-.047-.223-.173A.234.234,0,0,1,1805.148-253.516Z" transform="translate(-357.647 -176.041)" fill="#f5bc0f"/>
        <path id="Trazado_197581" data-name="Trazado 197581" d="M1779.929-200.778a.27.27,0,0,1,.325-.138A.31.31,0,0,1,1779.929-200.778Z" transform="translate(-336.354 -220.99)" fill="#f5bc0f"/>
        <path id="Trazado_197582" data-name="Trazado 197582" d="M1721.976-205.747l.11-.145C1722.091-205.812,1722.139-205.7,1721.976-205.747Z" transform="translate(-286.985 -216.758)" fill="#f54754"/>
        <path id="Trazado_197583" data-name="Trazado 197583" d="M1908.163-235.636c-.123-.081-.13-.169-.015-.264Q1908.156-235.768,1908.163-235.636Z" transform="translate(-445.509 -191.195)" fill="#0790ef"/>
        <path id="Trazado_197584" data-name="Trazado 197584" d="M1907.148-242.1a.276.276,0,0,1-.073-.339A.309.309,0,0,1,1907.148-242.1Z" transform="translate(-444.642 -185.628)" fill="#0790ef"/>
        <path id="Trazado_197585" data-name="Trazado 197585" d="M1807.756-251.416c-.154.008-.308.013-.285-.215A.363.363,0,0,1,1807.756-251.416Z" transform="translate(-359.814 -177.794)" fill="#f5bc0f"/>
        <path id="Trazado_197586" data-name="Trazado 197586" d="M1817.335-265.689a.182.182,0,0,1,.212.142Z" transform="translate(-368.219 -165.818)" fill="#0790ef"/>
        <path id="Trazado_197587" data-name="Trazado 197587" d="M1806.554-252.359c-.115.041-.16,0-.146-.12Z" transform="translate(-358.908 -177.072)" fill="#f5bc0f"/>
        <path id="Trazado_197588" data-name="Trazado 197588" d="M1778.286-244a5.564,5.564,0,0,1,.665,0,1.132,1.132,0,0,1,1.072,1.128,1.117,1.117,0,0,1-.944,1.234,4.039,4.039,0,0,1-1.545.019,1.189,1.189,0,0,1-1.041-1.233,1.2,1.2,0,0,1,1.2-1.159c.2-.012.395,0,.592,0Z" transform="translate(-333.427 -184.285)" fill="#0a0705"/>
        <path id="Trazado_197589" data-name="Trazado 197589" d="M1464.319-167.777a6.94,6.94,0,0,1-2.621-2.2,5.125,5.125,0,0,1,2.285-7.512c.177-.084.348-.18.523-.269a5.447,5.447,0,0,1,4.257.618,5.156,5.156,0,0,1,2.061,6.267,5.111,5.111,0,0,1-5.7,3.171C1464.859-167.744,1464.588-167.753,1464.319-167.777Zm2.826-2.554a2.471,2.471,0,0,0,1.6-2.63,2.412,2.412,0,0,0-1.764-2.3,2.6,2.6,0,0,0-3.133.867,2.742,2.742,0,0,0,.067,3.348A2.616,2.616,0,0,0,1467.145-170.331Z" transform="translate(-64.565 -240.58)" fill="#12263f"/>
        <path id="Trazado_197590" data-name="Trazado 197590" d="M1772.57-167.878a5.071,5.071,0,0,1-3.365-4.705,5.076,5.076,0,0,1,3.522-5.109,5.2,5.2,0,0,1,6.485,3.179,4.908,4.908,0,0,1-.991,5.166,5.025,5.025,0,0,1-5.3,1.562C1772.807-167.815,1772.689-167.847,1772.57-167.878Zm2.833-7.338a2.585,2.585,0,0,0-3.158.744,2.718,2.718,0,0,0-.072,3.345,2.593,2.593,0,0,0,3.065.888,2.144,2.144,0,0,0,1.464-1.14C1777.544-172.793,1777.053-174.219,1775.4-175.216Z" transform="translate(-327.217 -240.588)" fill="#12263f"/>
        <path id="Trazado_197591" data-name="Trazado 197591" d="M1481.11-156.238a2.616,2.616,0,0,1-3.234-.718,2.742,2.742,0,0,1-.067-3.348,2.6,2.6,0,0,1,3.133-.867,1.117,1.117,0,0,1-.087.568A3.964,3.964,0,0,0,1481.11-156.238Z" transform="translate(-78.53 -254.673)" fill="#add4f3"/>
        <path id="Trazado_197592" data-name="Trazado 197592" d="M1498.647-155.02a3.964,3.964,0,0,1-.255-4.366,1.118,1.118,0,0,0,.087-.568,2.412,2.412,0,0,1,1.764,2.3A2.471,2.471,0,0,1,1498.647-155.02Z" transform="translate(-96.067 -255.891)" fill="#dbe6f6"/>
        <path id="Trazado_197593" data-name="Trazado 197593" d="M1789.206-156.164a2.593,2.593,0,0,1-3.065-.888,2.718,2.718,0,0,1,.072-3.345,2.585,2.585,0,0,1,3.158-.744c.01.241-.154.4-.255.6a3.68,3.68,0,0,0-.144,3.465A1.606,1.606,0,0,1,1789.206-156.164Z" transform="translate(-341.185 -254.664)" fill="#add4f3"/>
        <path id="Trazado_197594" data-name="Trazado 197594" d="M1806.48-154.7a1.608,1.608,0,0,0-.234-.913,3.68,3.68,0,0,1,.144-3.465c.1-.195.265-.358.255-.6,1.651,1,2.141,2.423,1.3,3.837A2.145,2.145,0,0,1,1806.48-154.7Z" transform="translate(-358.459 -256.125)" fill="#dbe6f6"/>
      </g>
    </g>
  </g>
</svg>
