<svg xmlns="http://www.w3.org/2000/svg" width="118" height="118" viewBox="0 0 118 118">
  <g id="Grupo_93185" data-name="Grupo 93185" transform="translate(-4116 7053)">
    <g id="Grupo_93183" data-name="Grupo 93183" transform="translate(3760 -31673)">
      <g id="Elipse_4980" data-name="Elipse 4980" transform="translate(356 24620)" fill="#fff" stroke="#005045" stroke-width="3" stroke-dasharray="3 4">
        <circle cx="59" cy="59" r="59" stroke="none"/>
        <circle cx="59" cy="59" r="57.5" fill="none"/>
      </g>
      <circle id="Elipse_4981" data-name="Elipse 4981" cx="47" cy="47" r="47" transform="translate(368 24632)" fill="#35e9d0"/>
    </g>
    <g id="Grupo_93184" data-name="Grupo 93184" transform="translate(-581.073 -7853.286)">
      <path id="Trazado_210148" data-name="Trazado 210148" d="M4785.986,872.3a2.812,2.812,0,0,1,1.148,3.511,12.412,12.412,0,0,1-3.7,6.376,11.191,11.191,0,0,1-7.035,2.83c-.371.016-.743.015-1.114.015h-45.509v-.711q0-15.942-.011-31.883c0-.541.148-.76.693-.829.838-.1,1.662-.32,2.5-.443.412-.061.549-.232.542-.642-.021-1.258-.007-2.518-.007-3.776v-.7h1.856v4.641c.59-.107,1.093-.181,1.584-.3.112-.028.224-.206.263-.337a1.775,1.775,0,0,0,.011-.492V831.9l5.557,1.028v-3.593h1.878c0,1-.009,1.981,0,2.963.014,1.168-.161.925,1,1.163.24.049.483.085.814.142v-6.116h1.859c.011.2.033.42.033.637,0,1.775.012,3.55,0,5.324,0,.4.112.574.532.644,1.444.24,2.876.554,4.322.782.553.087.745.277.738.858-.033,2.559,0,5.118-.026,7.677,0,.506.111.771.653.8a10.745,10.745,0,0,1,1.175.193v-3.9h1.9c0,1.225.021,2.437-.011,3.647-.013.483.112.723.626.751a9.939,9.939,0,0,1,1.21.218v-8.328h1.887v.735c0,2.456.011,4.912-.01,7.367,0,.462.121.652.6.714.837.108,1.661.323,2.5.44.479.067.657.248.642.749-.036,1.193-.012,2.388.066,3.612.715-.929,1.854-1.484,1.818-2.982a7.381,7.381,0,0,0-1.006-4.053,9.371,9.371,0,0,1-.479-.936c-.592-1.177-.552-1.457.344-2.433a4.035,4.035,0,0,1,2.512-1.342c.37-.047.49-.19.461-.557-.034-.426-.008-.857-.008-1.344a20.46,20.46,0,0,1,5.076.37,9.751,9.751,0,0,1,3.59,1.447,1.274,1.274,0,0,1,.619,1.234,10.06,10.06,0,0,1-1.47,4.925,3.322,3.322,0,0,0-.412,1.446,4.7,4.7,0,0,0,1.463,4.022c2.23,2.4,4.335,4.925,6.422,7.456a12.881,12.881,0,0,1,2,14.286c-.033.075-.062.152-.089.229A.609.609,0,0,0,4785.986,872.3Zm-13.234,5.295c.929,0,1.857.008,2.785,0a6.372,6.372,0,0,0,4.941-2.306c.554-.639,1.055-1.327,1.64-1.936a13.9,13.9,0,0,1,1.3-1.023,2.75,2.75,0,0,0,.722-.694,11.131,11.131,0,0,0-1.219-12.469c-2.541-3.039-5.141-6.028-7.735-9.02a1.253,1.253,0,0,0-.826-.388c-1.856-.034-3.714-.032-5.57,0a1.177,1.177,0,0,0-.788.34c-2.634,3.041-5.282,6.071-7.852,9.165a11.205,11.205,0,0,0-.7,13.178c.319.482.594.518,1.113.25a32.7,32.7,0,0,1,4.075-1.9,18.762,18.762,0,0,1,7.3-.559,2.89,2.89,0,0,1,1.566.762,2.573,2.573,0,0,1,.738,2.776,2.9,2.9,0,0,1-2.222,2.187c-.82.2-1.66.315-2.495.449-.407.065-.755.192-.709.674.043.448.4.518.782.517C4770.648,877.589,4771.7,877.591,4772.752,877.59Zm-18.88,5.576a3.751,3.751,0,0,0,.046-.38c0-2.764-.007-5.527.013-8.291,0-.47-.234-.524-.6-.57q-7.211-.891-14.419-1.8c-2.389-.3-4.779-.587-7.237-.889-.012.281-.032.521-.032.761,0,3.465.014,6.93-.016,10.395-.006.622.151.791.784.789,6.908-.024,13.815-.015,20.723-.014Zm-9.279-32.247a4.064,4.064,0,0,0-.448.032c-3.969.743-7.937,1.5-11.909,2.224-.456.083-.606.243-.6.711.016,4.97.009,9.94.012,14.909,0,.178.029.355.048.56l12.9,1.6Zm5.621-5.628v1.9q0,11.888-.012,23.777c0,.544.145.75.7.8,1.294.117,2.582.305,3.872.462.81.1,1.62.191,2.552.3a13.6,13.6,0,0,1-1.229-9.639,1.348,1.348,0,0,1-.362-.637c-.047-.238.015-.5-.016-.74-.067-.536.126-.778.684-.7a.666.666,0,0,0,.749-.378,24.115,24.115,0,0,1,1.7-2.576,2.4,2.4,0,0,0,.6-1.732c-.055-.881-.011-.9.853-.88a1.181,1.181,0,0,0,1.149-.425c.562-.836,1.58-1.346,1.753-2.458a.8.8,0,0,0,0-.124c0-1.3-.023-2.6.014-3.9.015-.505-.177-.668-.642-.752-2.759-.5-5.514-1.028-8.27-1.543C4752.977,845.8,4751.641,845.554,4750.214,845.291Zm1.815-1.556c.015-.292.036-.512.036-.732,0-1.9-.023-3.8.015-5.695.011-.568-.16-.779-.716-.879-3.084-.554-6.161-1.147-9.241-1.724-.987-.185-1.977-.361-3.007-.549v15.837l7.39-1.367V871.2l1.831.225V842.99Zm9.328,39.381c.206.023.324.048.443.048,4.829,0,9.657.021,14.484-.017a8.993,8.993,0,0,0,5.681-2.153,10.153,10.153,0,0,0,3.414-5.947c.067-.3.03-.824-.149-.934a1.574,1.574,0,0,0-1.08-.057,1.542,1.542,0,0,0-.656.535c-.5.573-.983,1.168-1.473,1.754a8.246,8.246,0,0,1-6.538,3.106c-1.98.014-3.961.01-5.942,0a3.252,3.252,0,0,1-.973-.14,2.4,2.4,0,0,1-1.631-2.5,2.442,2.442,0,0,1,2.081-2.217c.831-.155,1.672-.258,2.5-.433a1.2,1.2,0,0,0,.959-1.325c-.076-.542-.456-.808-1.194-.811-.99,0-1.981-.016-2.971.014a13.021,13.021,0,0,0-6.488,2,.859.859,0,0,0-.475.845c.025,1.114.009,2.229.009,3.343Zm-5.522-8.871v8.921c1.035,0,2.021-.026,3.006.011.51.019.672-.131.667-.653-.026-2.414-.012-4.828-.015-7.242,0-.18-.024-.36-.041-.587Zm14.9-35.617a3.368,3.368,0,0,0,.006.679c.287,1.217.527,2.451.91,3.639.4,1.231.459,1.211,1.773,1.211a6.8,6.8,0,0,0,.985-.014.85.85,0,0,0,.543-.29,7.338,7.338,0,0,0,1.2-3.524.619.619,0,0,0-.229-.5A11.584,11.584,0,0,0,4770.735,838.627Zm-1.909,9.21h5.474v-1.773h-5.474Zm1.2-3.684c-.293-1-.588-1.912-.829-2.841s-.452-1.054-1.323-.588a1.542,1.542,0,0,0-.537.4.7.7,0,0,0-.121.573c.328.733.7,1.448,1.079,2.154a.616.616,0,0,0,.415.285C4769.137,844.178,4769.566,844.153,4770.029,844.153Z" fill="#005045"/>
      <path id="Trazado_210149" data-name="Trazado 210149" d="M4970.023,1035.012c-1.052,0-2.1,0-3.156,0-.381,0-.738-.07-.782-.517-.046-.482.3-.609.709-.674.834-.134,1.675-.251,2.495-.449a2.9,2.9,0,0,0,2.222-2.187,2.573,2.573,0,0,0-.738-2.776,2.89,2.89,0,0,0-1.566-.762,18.761,18.761,0,0,0-7.3.559,32.7,32.7,0,0,0-4.075,1.9c-.519.268-.793.232-1.113-.25a11.205,11.205,0,0,1,.7-13.178c2.57-3.094,5.218-6.125,7.852-9.165a1.177,1.177,0,0,1,.788-.34c1.856-.029,3.713-.032,5.57,0a1.253,1.253,0,0,1,.826.388c2.595,2.992,5.195,5.982,7.735,9.02a11.131,11.131,0,0,1,1.219,12.469,2.75,2.75,0,0,1-.722.694,13.914,13.914,0,0,0-1.3,1.023c-.584.609-1.085,1.3-1.64,1.936a6.372,6.372,0,0,1-4.941,2.306C4971.88,1035.02,4970.952,1035.012,4970.023,1035.012Zm1.572-11.143c0-1.124.067-2.157-.017-3.179a2.694,2.694,0,0,0-2.414-2.371c-1.162-.146-1.471-.633-1.153-1.818,1.37-.2,1.49-.085,1.829,1.748h1.75a3.056,3.056,0,0,0-1.55-3.4.755.755,0,0,1-.259-.547c-.036-.506-.012-1.015-.012-1.542h-1.881v1.852h-1.817c0,1.061-.052,2.052.013,3.036a2.71,2.71,0,0,0,2.378,2.479c1.235.176,1.52.607,1.212,1.836-1.406.166-1.5.08-1.837-1.761h-1.753a3.068,3.068,0,0,0,1.552,3.395.755.755,0,0,1,.259.546c.036.506.012,1.017.012,1.53h1.9v-1.805Z" transform="translate(-197.27 -157.421)" fill="#f4b55b"/>
      <path id="Trazado_210150" data-name="Trazado 210150" d="M4767.029,1192.828h-.738c-6.908,0-13.815-.01-20.723.014-.633,0-.79-.167-.784-.789.03-3.465.014-6.93.016-10.394,0-.24.02-.48.032-.761,2.458.3,4.848.591,7.237.889q7.209.9,14.418,1.8c.367.045.6.1.6.57-.021,2.763-.011,5.527-.014,8.291A3.753,3.753,0,0,1,4767.029,1192.828Z" transform="translate(-13.157 -309.662)" fill="#fff"/>
      <path id="Trazado_210151" data-name="Trazado 210151" d="M4757.782,1016.777v20.035l-12.9-1.6c-.019-.2-.048-.382-.048-.56,0-4.97,0-9.94-.012-14.909,0-.468.149-.628.6-.711,3.972-.727,7.939-1.481,11.909-2.224A4.064,4.064,0,0,1,4757.782,1016.777Zm-6.465,6.3c1,0,1,0,1-.86-.008-1.289.1-1.04-1.16-1.058-.817-.012-.817,0-.818.91C4750.338,1023.081,4750.338,1023.081,4751.317,1023.081Zm4.654-1.894c-.252-.013-.4-.026-.538-.027-1.5-.013-1.51-.011-1.359,1.471.017.162.288.439.412.424.492-.06,1.06.29,1.474-.228.021-.026.011-.08.011-.121C4755.972,1022.215,4755.972,1021.726,4755.972,1021.187Zm-9.285,12.951c.245.015.387.029.53.031,1.5.015,1.508.014,1.367-1.464-.016-.163-.281-.444-.4-.431-.495.054-1.059-.279-1.48.221-.021.026-.012.08-.012.121C4746.687,1033.1,4746.687,1033.595,4746.687,1034.138Zm4.688.031c.992-.012.94.155.943-.972,0-.95,0-.956-.849-.948-1.169.01-1.13-.174-1.129.917C4750.342,1034.358,4750.277,1034.15,4751.375,1034.169Zm4.6-.028c0-.55.017-1.041-.012-1.529-.007-.121-.154-.326-.249-.334a8.73,8.73,0,0,0-1.356-.005c-.1.008-.259.191-.283.314-.268,1.354-.066,1.591,1.313,1.582C4755.547,1034.167,4755.709,1034.153,4755.971,1034.141Zm-9.254-11.063c.54,0,1.011.016,1.48-.01.132-.008.363-.134.369-.219a12.45,12.45,0,0,0,0-1.479c0-.072-.167-.19-.261-.193-.525-.019-1.051-.009-1.591-.009Zm4.631,3.6c-1.006,0-1.013,0-1.006.924.008,1.14-.125,1.048.937,1.054,1.038.006,1.038,0,1.039-.953C4752.319,1026.675,4752.319,1026.675,4751.348,1026.674Zm4.623.974c0-1.056.126-.966-.936-.972-.978-.005-.985,0-.977.819.012,1.164-.181,1.162.824,1.156C4756.131,1028.643,4755.963,1028.775,4755.971,1027.648Zm-7.37-.011c0-.96,0-.96-.839-.962-1.076,0-1.076,0-1.078,1.261,0,.715,0,.716.946.715C4748.717,1028.65,4748.595,1028.733,4748.6,1027.637Z" transform="translate(-13.189 -165.858)" fill="#fff"/>
      <path id="Trazado_210152" data-name="Trazado 210152" d="M4894.851,971.311c1.427.263,2.763.507,4.1.756,2.756.516,5.51,1.043,8.27,1.543.464.084.656.247.642.752-.037,1.3-.013,2.6-.014,3.9a.8.8,0,0,1,0,.124c-.174,1.112-1.192,1.622-1.753,2.458a1.181,1.181,0,0,1-1.149.425c-.864-.022-.908,0-.853.88a2.4,2.4,0,0,1-.6,1.732,24.115,24.115,0,0,0-1.7,2.576.666.666,0,0,1-.749.378c-.558-.078-.75.165-.684.7.031.244-.032.5.016.74a1.348,1.348,0,0,0,.362.637,13.6,13.6,0,0,0,1.229,9.639c-.932-.11-1.742-.2-2.552-.3-1.291-.157-2.578-.345-3.872-.462-.555-.05-.7-.256-.7-.8q.026-11.888.012-23.777Zm5.509,10.932c0,1,0,1.006.871,1,1.179-.01,1.108.129,1.1-.885,0-1.2.144-1.084-1.022-1.093C4900.359,981.256,4900.359,981.262,4900.36,982.243Zm-3.657-.065c.018,1.114-.164,1.054.85,1.063,1.066.009,1.073,0,1.066-.855-.009-1.187.137-1.123-.858-1.123C4896.551,981.264,4896.723,981.176,4896.7,982.179Zm9.288-6.372c-1.878-.218-2.03-.1-1.916,1.4,0,.062-.013.137.016.182.061.1.143.246.221.25a14.033,14.033,0,0,0,1.48-.008c.072,0,.184-.21.189-.327C4906,976.818,4905.99,976.327,4905.99,975.806Zm-9.259-.056c-.013.268-.026.43-.028.593-.015,1.431.069,1.513,1.521,1.3.148-.021.388-.281.372-.4-.062-.5.281-1.059-.219-1.483-.025-.022-.08-.011-.121-.011Zm-.029,12.067c.017,1.076-.167.989.976.994.94,0,.947,0,.939-.855-.01-1.156.164-1.122-.862-1.117C4896.542,986.846,4896.72,986.73,4896.7,987.818Zm0,6.512c.569,0,1.058,0,1.547,0,.422,0,.413-.314.357-.56-.1-.451.342-1.036-.315-1.353-.017-.008-.041,0-.061,0-1.472-.188-1.544-.126-1.528,1.317C4896.705,993.893,4896.7,994.057,4896.7,994.33Zm4.655-18.58c-1,0-1.007,0-1,.741.018,1.265-.174,1.173,1.008,1.178.967,0,.972,0,.966-.912C4902.329,975.617,4902.441,975.76,4901.358,975.75Z" transform="translate(-144.637 -126.02)" fill="#fff"/>
      <path id="Trazado_210153" data-name="Trazado 210153" d="M4818.2,890.933l-3.692-.745v28.436l-1.831-.225V895.822l-7.39,1.367V881.353c1.031.188,2.02.364,3.007.549,3.08.577,6.157,1.17,9.241,1.724.556.1.727.311.716.879-.039,1.9-.013,3.8-.015,5.695C4818.235,890.421,4818.214,890.641,4818.2,890.933Zm-6.459-5.151c-.99,0-.994,0-.989.876.007,1.2-.121,1.031,1.138,1.043.837.008.837,0,.836-1.1C4812.725,885.781,4812.725,885.781,4811.74,885.781Zm-4.646.045c0,.524.011.976,0,1.428-.01.312.117.51.424.435.494-.12,1.111.357,1.487-.3.019-.032.006-.081.01-.122.138-1.476.108-1.51-1.365-1.481C4807.486,885.785,4807.327,885.807,4807.094,885.827Zm9.288-.017c-.27-.013-.433-.026-.6-.028-1.427-.016-1.515.076-1.3,1.523.022.147.282.385.406.37.495-.059,1.058.279,1.48-.221.021-.025.011-.08.011-.121C4816.382,886.844,4816.382,886.355,4816.382,885.81Zm-9.258,7.405c.553,0,1.044.017,1.532-.012.119-.007.32-.16.327-.257a9.657,9.657,0,0,0,0-1.355.385.385,0,0,0-.26-.268c-.523-.026-1.047-.012-1.6-.012Zm4.543,0c1.059-.024,1.06.206,1.06-.866,0-1.056,0-1.06-.949-1.055-1.156.007-1.016-.1-1.027,1.1C4810.744,893.218,4810.75,893.218,4811.667,893.217Z" transform="translate(-66.17 -47.198)" fill="#fff"/>
      <path id="Trazado_210154" data-name="Trazado 210154" d="M4984.884,1198.329v-4.889c0-1.115.017-2.229-.009-3.343a.859.859,0,0,1,.475-.845,13.021,13.021,0,0,1,6.488-2c.989-.03,1.98-.017,2.971-.014.738,0,1.118.268,1.194.811a1.2,1.2,0,0,1-.959,1.325c-.826.175-1.667.278-2.5.433a2.442,2.442,0,0,0-2.081,2.217,2.4,2.4,0,0,0,1.631,2.5,3.256,3.256,0,0,0,.973.14c1.981.012,3.961.016,5.942,0a8.246,8.246,0,0,0,6.538-3.106c.49-.585.969-1.181,1.473-1.754a1.543,1.543,0,0,1,.656-.535,1.574,1.574,0,0,1,1.08.057c.179.11.216.633.149.934a10.153,10.153,0,0,1-3.414,5.947,8.993,8.993,0,0,1-5.681,2.153c-4.828.038-9.656.016-14.484.017C4985.208,1198.377,4985.089,1198.352,4984.884,1198.329Z" transform="translate(-223.527 -315.213)" fill="#fff"/>
      <path id="Trazado_210155" data-name="Trazado 210155" d="M4940.34,1205.2l3.617.451c.017.226.041.407.041.587,0,2.414-.012,4.828.015,7.242.005.522-.156.672-.667.653-.984-.037-1.972-.011-3.006-.011Z" transform="translate(-184.505 -330.958)" fill="#fff"/>
      <path id="Trazado_210156" data-name="Trazado 210156" d="M5060.6,917.481a11.584,11.584,0,0,1,5.189,1.2.619.619,0,0,1,.229.5,7.338,7.338,0,0,1-1.2,3.524.85.85,0,0,1-.543.29,6.8,6.8,0,0,1-.985.014c-1.314,0-1.377.021-1.773-1.211-.383-1.188-.623-2.422-.91-3.639A3.368,3.368,0,0,1,5060.6,917.481Z" transform="translate(-289.864 -78.854)" fill="#f4b55b"/>
      <path id="Trazado_210157" data-name="Trazado 210157" d="M5045.287,979.328v-1.773h5.474v1.773Z" transform="translate(-276.461 -131.491)" fill="#fff"/>
      <path id="Trazado_210158" data-name="Trazado 210158" d="M5034.946,935.962c-.462,0-.893.025-1.316-.013a.617.617,0,0,1-.415-.285c-.382-.706-.751-1.421-1.079-2.154a.7.7,0,0,1,.121-.573,1.542,1.542,0,0,1,.537-.4c.872-.466,1.079-.352,1.323.588S5034.653,934.965,5034.946,935.962Z" transform="translate(-264.917 -91.809)" fill="#f4b55b"/>
      <path id="Trazado_210159" data-name="Trazado 210159" d="M5050.444,1063.594h-1.785v1.805h-1.9c0-.513.023-1.024-.012-1.53a.755.755,0,0,0-.259-.546,3.068,3.068,0,0,1-1.552-3.395h1.753c.339,1.841.431,1.927,1.837,1.761.308-1.229.023-1.661-1.212-1.836a2.71,2.71,0,0,1-2.378-2.479c-.065-.984-.013-1.975-.013-3.036h1.817v-1.852h1.881c0,.527-.023,1.037.012,1.542a.756.756,0,0,0,.259.547,3.056,3.056,0,0,1,1.55,3.4h-1.75c-.339-1.833-.459-1.948-1.829-1.748-.317,1.185-.009,1.672,1.153,1.818a2.693,2.693,0,0,1,2.414,2.371C5050.511,1061.437,5050.444,1062.47,5050.444,1063.594Z" transform="translate(-276.12 -197.146)" fill="#005045"/>
      <path id="Trazado_210166" data-name="Trazado 210166" d="M4790.416,1096.731c.971,0,.971,0,.97,1.024,0,.956,0,.959-1.039.953-1.062-.006-.929.086-.937-1.054C4789.4,1096.731,4789.41,1096.73,4790.416,1096.731Z" transform="translate(-52.257 -235.914)" fill="#005045"/>
      <g id="Grupo_93011" data-name="Grupo 93011">
        <path id="Trazado_210160" data-name="Trazado 210160" d="M4790.377,1054.066c-.979,0-.979,0-.978-1.008,0-.913,0-.922.818-.91,1.257.018,1.152-.231,1.16,1.058C4791.382,1054.066,4791.377,1054.066,4790.377,1054.066Z" transform="translate(-52.25 -196.843)" fill="#005045"/>
        <path id="Trazado_210161" data-name="Trazado 210161" d="M4821.029,1052.19c0,.54,0,1.029,0,1.518,0,.041.01.095-.011.121-.415.518-.982.169-1.474.228-.125.015-.4-.262-.412-.424-.15-1.483-.139-1.484,1.359-1.471C4820.634,1052.164,4820.777,1052.177,4821.029,1052.19Z" transform="translate(-78.247 -196.862)" fill="#005045"/>
        <path id="Trazado_210162" data-name="Trazado 210162" d="M4759.886,1143.406c0-.543,0-1.033,0-1.522,0-.041-.009-.1.012-.121.422-.5.986-.167,1.48-.221.123-.013.388.268.4.431.141,1.477.128,1.479-1.367,1.464C4760.273,1143.435,4760.131,1143.421,4759.886,1143.406Z" transform="translate(-26.389 -275.126)" fill="#005045"/>
        <path id="Trazado_210163" data-name="Trazado 210163" d="M4790.44,1143.638c-1.1-.019-1.032.189-1.034-1,0-1.091-.04-.906,1.129-.917.85-.008.851,0,.849.948C4791.38,1143.792,4791.432,1143.626,4790.44,1143.638Z" transform="translate(-52.255 -275.327)" fill="#005045"/>
        <path id="Trazado_210164" data-name="Trazado 210164" d="M4820.723,1143.648c-.262.013-.424.026-.586.027-1.379.009-1.582-.228-1.313-1.582.024-.123.178-.306.283-.314a8.715,8.715,0,0,1,1.356.005c.1.008.242.213.249.334C4820.739,1142.608,4820.723,1143.1,4820.723,1143.648Z" transform="translate(-77.941 -275.366)" fill="#005045"/>
        <path id="Trazado_210165" data-name="Trazado 210165" d="M4760.137,1054.137v-1.91c.54,0,1.066-.01,1.591.009.093,0,.257.122.261.193a12.449,12.449,0,0,1,0,1.479c-.006.085-.236.211-.369.219C4761.148,1054.154,4760.677,1054.137,4760.137,1054.137Z" transform="translate(-26.61 -196.917)" fill="#005045"/>
        <path id="Trazado_210167" data-name="Trazado 210167" d="M4821.3,1097.712c-.008,1.127.16.995-1.089,1-1,.006-.812.008-.824-1.156-.008-.821,0-.824.977-.819C4821.427,1096.746,4821.3,1096.656,4821.3,1097.712Z" transform="translate(-78.519 -235.922)" fill="#005045"/>
        <path id="Trazado_210168" data-name="Trazado 210168" d="M4761.793,1097.7c-.006,1.1.116,1.012-.971,1.014-.947,0-.947,0-.946-.715,0-1.262,0-1.262,1.078-1.261C4761.793,1096.741,4761.793,1096.741,4761.793,1097.7Z" transform="translate(-26.381 -235.923)" fill="#005045"/>
        <path id="Trazado_210169" data-name="Trazado 210169" d="M4939.441,1052.681c0-.981,0-.987.953-.98,1.166.009,1.017-.1,1.022,1.093,0,1.015.075.875-1.1.885C4939.441,1053.687,4939.441,1053.681,4939.441,1052.681Z" transform="translate(-183.718 -196.458)" fill="#005045"/>
        <path id="Trazado_210170" data-name="Trazado 210170" d="M4909.878,1052.61c.02-1-.152-.915,1.058-.915,1,0,.85-.064.858,1.123.006.86,0,.865-1.066.855C4909.714,1053.664,4909.9,1053.724,4909.878,1052.61Z" transform="translate(-157.812 -196.452)" fill="#005045"/>
        <path id="Trazado_210171" data-name="Trazado 210171" d="M4971.162,1007.028c0,.521.012,1.011-.009,1.5,0,.116-.117.322-.189.327a14.023,14.023,0,0,1-1.479.008c-.079,0-.161-.154-.221-.25-.029-.046-.011-.121-.016-.182C4969.131,1006.929,4969.283,1006.81,4971.162,1007.028Z" transform="translate(-209.808 -157.242)" fill="#005045"/>
        <path id="Trazado_210172" data-name="Trazado 210172" d="M4909.921,1007.162h1.525c.041,0,.1-.01.121.012.5.423.157.988.219,1.483.016.122-.225.382-.372.4-1.452.209-1.536.127-1.521-1.3C4909.9,1007.593,4909.908,1007.43,4909.921,1007.162Z" transform="translate(-157.826 -157.432)" fill="#005045"/>
        <path id="Trazado_210173" data-name="Trazado 210173" d="M4909.885,1097.727c.017-1.088-.161-.972,1.054-.978,1.026,0,.852-.039.862,1.117.007.856,0,.859-.939.855C4909.718,1098.717,4909.9,1098.8,4909.885,1097.727Z" transform="translate(-157.819 -235.93)" fill="#005045"/>
        <path id="Trazado_210174" data-name="Trazado 210174" d="M4909.891,1143.153c0-.273,0-.437,0-.6-.016-1.443.056-1.5,1.528-1.317.02,0,.044,0,.061,0,.657.317.213.9.315,1.353.056.246.065.564-.357.56C4910.949,1143.15,4910.46,1143.153,4909.891,1143.153Z" transform="translate(-157.824 -274.844)" fill="#005045"/>
        <path id="Trazado_210175" data-name="Trazado 210175" d="M4940.439,1007.159c1.083.01.971-.133.978,1.008.006.913,0,.916-.965.912-1.183-.005-.991.087-1.009-1.178C4939.432,1007.16,4939.441,1007.16,4940.439,1007.159Z" transform="translate(-183.717 -157.43)" fill="#005045"/>
        <path id="Trazado_210176" data-name="Trazado 210176" d="M4850.418,917.125c.985,0,.985,0,.986.817,0,1.1,0,1.109-.836,1.1-1.258-.012-1.131.153-1.138-1.043C4849.425,917.125,4849.429,917.125,4850.418,917.125Z" transform="translate(-104.848 -78.542)" fill="#005045"/>
        <path id="Trazado_210177" data-name="Trazado 210177" d="M4819.857,917.139c.233-.019.393-.041.552-.044,1.473-.029,1.5.005,1.365,1.481,0,.041.009.09-.01.122-.376.661-.994.184-1.487.3-.308.075-.435-.123-.424-.435C4819.869,918.115,4819.857,917.663,4819.857,917.139Z" transform="translate(-78.933 -78.511)" fill="#005045"/>
        <path id="Trazado_210178" data-name="Trazado 210178" d="M4880.871,917.146c0,.545,0,1.034,0,1.524,0,.041.01.1-.011.121-.422.5-.985.162-1.48.221-.124.015-.384-.223-.406-.37-.213-1.448-.125-1.54,1.3-1.523C4880.438,917.12,4880.6,917.133,4880.871,917.146Z" transform="translate(-130.659 -78.534)" fill="#005045"/>
        <path id="Trazado_210179" data-name="Trazado 210179" d="M4820.133,963.667v-1.9c.553,0,1.078-.014,1.6.012a.385.385,0,0,1,.26.268,9.657,9.657,0,0,1,0,1.355c-.007.1-.208.25-.327.257C4821.177,963.684,4820.686,963.667,4820.133,963.667Z" transform="translate(-79.178 -117.65)" fill="#005045"/>
        <path id="Trazado_210180" data-name="Trazado 210180" d="M4850.339,963.593c-.917,0-.924,0-.917-.822.011-1.2-.129-1.092,1.027-1.1.949-.006.949,0,.949,1.055C4851.4,963.8,4851.4,963.569,4850.339,963.593Z" transform="translate(-104.842 -117.573)" fill="#005045"/>
      </g>
    </g>
  </g>
</svg>
