<svg xmlns="http://www.w3.org/2000/svg" width="118" height="118" viewBox="0 0 118 118">
  <g id="Grupo_93182" data-name="Grupo 93182" transform="translate(-3969 7295)">
    <g id="Grupo_93180" data-name="Grupo 93180" transform="translate(3613 -31915)">
      <g id="Elipse_4980" data-name="Elipse 4980" transform="translate(356 24620)" fill="#fff" stroke="#005045" stroke-width="3" stroke-dasharray="3 4">
        <circle cx="59" cy="59" r="59" stroke="none"/>
        <circle cx="59" cy="59" r="57.5" fill="none"/>
      </g>
      <circle id="Elipse_4981" data-name="Elipse 4981" cx="47" cy="47" r="47" transform="translate(368 24632)" fill="#35e9d0"/>
    </g>
    <g id="Grupo_93181" data-name="Grupo 93181" transform="translate(-294.156 -7895.069)">
      <path id="Trazado_210124" data-name="Trazado 210124" d="M4328.838,626.895c.631.38,1.194.715,1.754,1.056.938.571,1.513.328,1.781-.756.127-.515.229-1.04.4-1.54a.642.642,0,0,1,.458-.367q3.223-.037,6.446,0a.7.7,0,0,1,.494.4c.188.54.3,1.107.439,1.662a.993.993,0,0,0,1.605.681c.619-.359,1.288-1.008,1.87-.943.55.061,1.019.88,1.519,1.371,1.2,1.175,2.389,2.354,3.6,3.548-.427.708-.814,1.341-1.192,1.979a.959.959,0,0,0,.607,1.466c.575.154,1.147.321,1.73.436.358.07.495.217.492.591q-.023,3.159,0,6.318c0,.33-.09.5-.437.567-.624.126-1.239.3-1.854.466a.963.963,0,0,0-.562,1.4c.324.55.687,1.079.974,1.647a.691.691,0,0,1-.078.63c-1.485,1.523-3,3.016-4.5,4.529a.477.477,0,0,1-.711.083c-.514-.34-1.048-.65-1.58-.963a.99.99,0,0,0-1.445.581,2.562,2.562,0,0,0,.6,3.038,7.464,7.464,0,0,1-.9,10.887c-.143.117-.277.243-.473.416.514.2.968.353,1.4.548,5.855,2.616,9.061,7.118,9.523,13.518.1,1.456.015,2.925.015,4.481h-.72q-24.8,0-49.594,0c-1.629,0-2.334-.707-2.336-2.325,0-.489-.01-.979,0-1.468a1.9,1.9,0,0,1,1.937-1.947c1.232-.026,2.466-.006,3.752-.006v-3.827h-.688c-2.213,0-4.425.006-6.638,0a4.78,4.78,0,0,1-5.067-5.095q-.01-11.168,0-22.335a4.78,4.78,0,0,1,5.108-5.117q12.382-.012,24.764.009c.616,0,.8-.155.782-.776-.042-1.722,0-3.446-.022-5.169,0-.4.092-.622.527-.694.522-.086,1.033-.246,1.547-.377a.994.994,0,0,0,.669-1.652q-.183-.3-.364-.6c-.73-1.22-.723-1.212.26-2.2C4326.1,629.677,4327.458,628.3,4328.838,626.895Zm-10.55,27.125v13.331h1.92V650.211h5.758v17.132h1.842V648.3h-30.545v19.051h7.612v-9.474h5.78v9.464h1.9V654.019Zm20.158-1.381a12.39,12.39,0,0,0,.395-1.575c.1-.872.567-1.244,1.356-1.646a2.529,2.529,0,0,1,3.191.278c.293.262.513.128.752-.12.634-.659,1.3-1.289,1.936-1.944.837-.86.822-.575.166-1.538a2.123,2.123,0,0,1-.2-2.233,2.507,2.507,0,0,1,2.386-1.982c.405-.02.505-.267.5-.649-.023-1-.046-2,.005-3,.031-.59-.169-.84-.745-.915a2.184,2.184,0,0,1-1.977-1.492,2.56,2.56,0,0,1,.314-3.078c.243-.274.187-.5-.082-.758-.664-.629-1.288-1.3-1.947-1.933-.867-.834-.545-.87-1.59-.172a2.092,2.092,0,0,1-2.177.191,2.56,2.56,0,0,1-2.018-2.435c-.021-.376-.263-.464-.615-.456-.829.021-1.658,0-2.488,0-1.265,0-1.306-.007-1.54,1.207a1.844,1.844,0,0,1-1.2,1.4,2.668,2.668,0,0,1-3.376-.247.6.6,0,0,0-.576.068q-1.273,1.207-2.481,2.48a.555.555,0,0,0-.056.53c1.039,1.116.867,2.211.222,3.491a1.739,1.739,0,0,1-1.34,1.1c-1.234.256-1.228.285-1.228,1.523v3.7h4.249c-.875-5.1.483-8.452,4.2-10.449a8.615,8.615,0,1,1,1.191,15.791v4.52A8.01,8.01,0,0,1,4338.446,652.638Zm-45.057,14.7h1.909V666.4q0-8.965,0-17.93a1.925,1.925,0,0,1,2.13-2.139q15.093-.007,30.187,0a1.936,1.936,0,0,1,2.153,2.184c.006,1.765,0,3.531,0,5.3,0,.218.022.437.038.722a17.443,17.443,0,0,1,1.379-1.084.952.952,0,0,0,.5-.928c-.024-1.637,0-3.275-.011-4.913a2.9,2.9,0,0,0-3.217-3.185q-15.923,0-31.847,0a2.9,2.9,0,0,0-3.228,3.235q-.005,9.476,0,18.951Zm31.72,2.034h-31.672c-.259,2.444.908,3.762,3.283,3.762q10.241,0,20.484,0c1.511,0,3.021.01,4.53-.01a.949.949,0,0,0,.661-.239C4323.319,671.733,4324.206,670.551,4325.109,669.372Zm16.141-9.61a5.736,5.736,0,1,0-5.746,5.707A5.729,5.729,0,0,0,4341.25,659.762Zm-4.289-26.82c-5.248-.048-8.564,4.948-6.625,9.317a3.166,3.166,0,0,0,.732.812,21.912,21.912,0,0,1,1.9,1.922,2.423,2.423,0,0,0,1.036.863,6.691,6.691,0,0,0,7.24-1.532,6.617,6.617,0,0,0,1.4-7.26A6.454,6.454,0,0,0,4336.962,632.942Zm-10.038,42.15v7.569h4.96c-.129-.251-.218-.438-.319-.617-.789-1.386-1.537-2.8-2.388-4.144a1.42,1.42,0,0,1-.021-1.832.91.91,0,0,0-.249-1.483,2.91,2.91,0,0,1-1.228-2.324,18.8,18.8,0,0,0-.312-1.951c-3.584,2.4-5.815,7.46-5.158,12.364h2.759v-7.58Zm16.744-4.823c-.142.843-.311,1.613-.389,2.391a2.468,2.468,0,0,1-.843,1.641c-.986.921-.984.95-.337,2.177a.94.94,0,0,1-.044,1.046c-.9,1.52-1.759,3.06-2.631,4.594-.089.157-.158.327-.26.54h4.987v-7.553h1.924v7.6h2.761A13.4,13.4,0,0,0,4343.668,670.269Zm-37.808,8.611h12.668c.467,0,.937.02,1.4-.014.151-.011.39-.143.421-.262.3-1.16.561-2.33.835-3.5H4305.86Zm26.278-10.947,3.3,11.852h.156l3.3-11.853A11.283,11.283,0,0,0,4332.138,667.933Zm-32.023,14.717h20.018v-1.8h-20.018Zm23.908-30.531h-1.909v.783q0,6.659,0,13.319c0,1.364-.2,1.121,1.178,1.184.593.027.746-.167.743-.746-.023-4.61-.014-9.219-.015-13.829Zm-9.53,3.833v11.4h1.83v-11.4Zm22.352,26.532.1.042c.1-.152.207-.3.3-.456.7-1.217,1.306-2.5,2.109-3.637a2.28,2.28,0,0,0,.055-3.028.606.606,0,0,1,.159-.969,5.1,5.1,0,0,0,2.17-4.291,1.259,1.259,0,0,1,.031-.188c.183-1.024.04-1.219-1.061-1.383Zm-6.548-14.015a5.286,5.286,0,0,0-.864.417.649.649,0,0,0-.248.492c.218,1.9.388,3.826,2.229,5,.069.045.157.112.172.182.049.236.187.568.082.7a2.463,2.463,0,0,0,.148,3.367,7.454,7.454,0,0,1,.544.936l1.708,2.971.12-.049C4332.9,677.838,4331.605,673.185,4330.3,668.468Zm-21.649-1.114v-7.561h-1.809v7.561Zm22.528-1.256-1.354-1.193v1.665Z" fill="#005045"/>
      <path id="Trazado_210125" data-name="Trazado 210125" d="M4357.919,811.429h-5.736v13.319h-1.9v-9.464H4344.5v9.474h-7.611V805.707h30.545v19.046H4365.6V807.621h-5.757v17.14h-1.92Zm-9.607.022H4338.8v1.817h9.514Zm-1.846-3.844v1.821h1.824v-1.821Zm-7.664,0v1.854h1.831v-1.854Zm5.667.017h-1.843v1.816h1.843Z" transform="translate(-39.632 -157.41)" fill="#fff"/>
      <path id="Trazado_210126" data-name="Trazado 210126" d="M4561.035,665.731a8.012,8.012,0,0,0-4.777-.331V660.88a8.62,8.62,0,1,0-1.191-15.791c-3.718,2-5.077,5.347-4.2,10.449h-4.249v-3.7c0-1.238-.006-1.267,1.229-1.523a1.74,1.74,0,0,0,1.339-1.1c.646-1.279.816-2.375-.222-3.491a.556.556,0,0,1,.056-.53q1.211-1.269,2.481-2.48a.606.606,0,0,1,.577-.068,2.668,2.668,0,0,0,3.376.247,1.844,1.844,0,0,0,1.2-1.4c.234-1.214.275-1.207,1.54-1.207.829,0,1.659.017,2.488,0,.353-.009.594.079.615.456a2.558,2.558,0,0,0,2.018,2.434,2.092,2.092,0,0,0,2.176-.191c1.044-.7.723-.663,1.59.172.659.634,1.283,1.3,1.946,1.933.27.255.325.484.083.758a2.559,2.559,0,0,0-.315,3.078,2.186,2.186,0,0,0,1.978,1.492c.575.075.775.325.745.915-.051,1-.028,2-.005,3,.009.382-.092.628-.5.648a2.508,2.508,0,0,0-2.387,1.982,2.126,2.126,0,0,0,.2,2.233c.657.963.671.678-.166,1.538-.638.656-1.3,1.285-1.936,1.944-.239.248-.458.382-.752.12a2.528,2.528,0,0,0-3.191-.278c-.79.4-1.256.774-1.356,1.646A12.476,12.476,0,0,1,4561.035,665.731Z" transform="translate(-222.589 -13.093)" fill="#fff"/>
      <path id="Trazado_210127" data-name="Trazado 210127" d="M4306.532,798.261v-.728q0-9.476,0-18.951a2.9,2.9,0,0,1,3.229-3.235q15.924,0,31.847,0a2.9,2.9,0,0,1,3.218,3.185c0,1.638-.014,3.276.01,4.913a.951.951,0,0,1-.5.928,17.368,17.368,0,0,0-1.379,1.084c-.016-.286-.038-.5-.038-.722,0-1.765,0-3.531,0-5.3a1.935,1.935,0,0,0-2.153-2.184q-15.093-.008-30.187,0a1.924,1.924,0,0,0-2.129,2.139q-.01,8.965,0,17.93v.936Z" transform="translate(-13.144 -130.923)" fill="#fff"/>
      <path id="Trazado_210128" data-name="Trazado 210128" d="M4338.351,970.847c-.9,1.178-1.791,2.361-2.715,3.514a.949.949,0,0,1-.661.239c-1.509.02-3.02.01-4.53.01q-10.243,0-20.484,0c-2.374,0-3.541-1.318-3.282-3.763Z" transform="translate(-13.242 -301.475)" fill="#fff"/>
      <path id="Trazado_210129" data-name="Trazado 210129" d="M4603.155,856.165a5.736,5.736,0,1,1-5.694-5.761A5.728,5.728,0,0,1,4603.155,856.165Z" transform="translate(-261.905 -196.402)" fill="#fff"/>
      <path id="Trazado_210130" data-name="Trazado 210130" d="M4598.857,685.39a6.453,6.453,0,0,1,5.686,4.121,6.616,6.616,0,0,1-1.4,7.26,6.691,6.691,0,0,1-7.24,1.532,2.417,2.417,0,0,1-1.036-.863,21.993,21.993,0,0,0-1.9-1.922,3.164,3.164,0,0,1-.731-.812C4590.293,690.337,4593.61,685.341,4598.857,685.39Zm-.519,11.472a4.783,4.783,0,1,0-4.754-4.813A4.785,4.785,0,0,0,4598.338,696.862Z" transform="translate(-261.896 -52.447)" fill="#fff"/>
      <path id="Trazado_210131" data-name="Trazado 210131" d="M4536.31,982.969h-1.955v7.58H4531.6c-.656-4.9,1.573-9.961,5.158-12.364a18.93,18.93,0,0,1,.313,1.951,2.909,2.909,0,0,0,1.228,2.324.91.91,0,0,1,.249,1.483,1.419,1.419,0,0,0,.021,1.832c.851,1.347,1.6,2.758,2.387,4.144.1.179.19.366.319.617h-4.96Z" transform="translate(-209.386 -307.877)" fill="#f4b55b"/>
      <path id="Trazado_210132" data-name="Trazado 210132" d="M4669.724,977.873a13.4,13.4,0,0,1,5.167,12.441h-2.762v-7.6h-1.924v7.553h-4.987c.1-.213.17-.382.26-.54.872-1.534,1.734-3.074,2.63-4.594a.941.941,0,0,0,.044-1.046c-.647-1.227-.649-1.256.337-2.177a2.465,2.465,0,0,0,.842-1.641C4669.414,979.486,4669.583,978.716,4669.724,977.873Z" transform="translate(-326.056 -307.604)" fill="#f4b55b"/>
      <path id="Trazado_210133" data-name="Trazado 210133" d="M4404.259,1019.53v-3.777h15.326c-.274,1.171-.537,2.34-.835,3.5-.031.12-.27.251-.421.262-.465.035-.934.014-1.4.014h-12.667Z" transform="translate(-98.4 -340.65)" fill="#fff"/>
      <path id="Trazado_210134" data-name="Trazado 210134" d="M4610.166,956.027a11.283,11.283,0,0,1,6.754,0q-1.646,5.916-3.3,11.853h-.156C4612.369,963.94,4611.272,960,4610.166,956.027Z" transform="translate(-278.029 -288.095)" fill="#fff"/>
      <path id="Trazado_210135" data-name="Trazado 210135" d="M4359.24,1062.569v-1.8h20.018v1.8Z" transform="translate(-59.126 -379.92)" fill="#fff"/>
      <path id="Trazado_210136" data-name="Trazado 210136" d="M4533.479,835.651v.711c0,4.61-.009,9.219.014,13.829,0,.579-.15.773-.742.746-1.376-.063-1.176.18-1.178-1.184q-.012-6.66,0-13.319v-.783Z" transform="translate(-209.457 -183.533)" fill="#fff"/>
      <path id="Trazado_210137" data-name="Trazado 210137" d="M4471.9,865.687h1.83v11.4h-1.83Z" transform="translate(-157.408 -209.735)" fill="#fff"/>
      <path id="Trazado_210138" data-name="Trazado 210138" d="M4647.041,978.492l3.861-13.911c1.1.164,1.244.359,1.061,1.383a1.2,1.2,0,0,0-.031.188,5.1,5.1,0,0,1-2.171,4.291.606.606,0,0,0-.158.969,2.28,2.28,0,0,1-.055,3.028c-.8,1.141-1.413,2.42-2.11,3.637-.09.157-.2.3-.3.456Z" transform="translate(-310.198 -296.008)" fill="#f4b55b"/>
      <path id="Trazado_210139" data-name="Trazado 210139" d="M4588.125,963.763c1.309,4.716,2.6,9.37,3.893,14.023l-.12.049q-.854-1.486-1.708-2.971a7.465,7.465,0,0,0-.545-.936,2.463,2.463,0,0,1-.147-3.367c.1-.135-.033-.467-.083-.7-.015-.07-.1-.137-.172-.182-1.842-1.178-2.012-3.106-2.23-5a.653.653,0,0,1,.248-.492A5.315,5.315,0,0,1,4588.125,963.763Z" transform="translate(-257.83 -295.295)" fill="#f4b55b"/>
      <path id="Trazado_210140" data-name="Trazado 210140" d="M4413.731,903.352h-1.809v-7.561h1.809Z" transform="translate(-105.085 -235.997)" fill="#fff"/>
      <path id="Trazado_210141" data-name="Trazado 210141" d="M4593.362,937.034l-1.354.472V935.84Z" transform="translate(-262.188 -270.935)" fill="#fff"/>
      <path id="Trazado_210142" data-name="Trazado 210142" d="M4361.329,850.722v1.817h-9.514v-1.817Z" transform="translate(-52.649 -196.68)" fill="#369488"/>
      <path id="Trazado_210143" data-name="Trazado 210143" d="M4411.9,820.6h1.823v1.821H4411.9Z" transform="translate(-105.069 -170.406)" fill="#369488"/>
      <path id="Trazado_210144" data-name="Trazado 210144" d="M4351.852,820.586h1.831v1.854h-1.831Z" transform="translate(-52.681 -170.39)" fill="#369488"/>
      <path id="Trazado_210145" data-name="Trazado 210145" d="M4383.656,820.719v1.816h-1.843v-1.816Z" transform="translate(-78.818 -170.506)" fill="#369488"/>
      <path id="Trazado_210146" data-name="Trazado 210146" d="M4611.4,709.889a4.783,4.783,0,1,1,4.814-4.752A4.786,4.786,0,0,1,4611.4,709.889Zm.041-1.919a2.864,2.864,0,1,0-2.876-2.868A2.86,2.86,0,0,0,4611.441,707.97Z" transform="translate(-274.958 -65.475)" fill="#369488"/>
      <path id="Trazado_210147" data-name="Trazado 210147" d="M4624.561,721.094a2.864,2.864,0,1,1,2.854-2.891A2.858,2.858,0,0,1,4624.561,721.094Z" transform="translate(-288.078 -78.599)" fill="#fff"/>
    </g>
  </g>
</svg>
