<svg xmlns="http://www.w3.org/2000/svg" width="238.674" height="236.925" viewBox="0 0 238.674 236.925">
  <g id="Grupo_87986" data-name="Grupo 87986" transform="translate(-31.585 -39.753)">
    <g id="Floor" transform="translate(31.585 151.992)" opacity="0.25">
      <path id="Floor-2" data-name="Floor" d="M66.538,353.449c46.6,24.346,122.165,24.347,168.768,0s46.6-63.82,0-88.166-122.164-24.347-168.768,0S19.934,329.1,66.538,353.449Z" transform="translate(-31.585 -247.023)" fill="#66aa78"/>
    </g>
    <g id="Shadows" transform="translate(170.76 194.725)">
      <ellipse id="Shadow" cx="22.144" cy="12.785" rx="22.144" ry="12.785" transform="translate(0 19.112)" fill="#8ad1ba"/>
      <ellipse id="Shadow-2" data-name="Shadow" cx="19.585" cy="11.308" rx="19.585" ry="11.308" transform="translate(43.019)" fill="#8ad1ba"/>
    </g>
    <g id="Plants" transform="translate(32.001 177.344)">
      <g id="Plants-2" data-name="Plants" transform="translate(0 22.511)">
        <path id="Trazado_197733" data-name="Trazado 197733" d="M57.333,368.1c-.345.187-6.721,2-9.083-1.123s1.557-7.983-.658-9.775-8.425.01-9.919-3.765,2.936-5.393.446-9.194c-1.568-2.393-5.96-3.717-5.758-5.946.295-3.259,6.291-4.137,11.532-.645s7.68.631,9.344.4,5.248.282,5.132,6.12S57.333,368.1,57.333,368.1Z" transform="translate(-32.353 -335.411)" fill="#455a64"/>
        <g id="Grupo_87914" data-name="Grupo 87914" transform="translate(3.41 1.386)">
          <path id="Trazado_197734" data-name="Trazado 197734" d="M60.641,360.972a.348.348,0,0,1-.342-.291c-1.825-11.078-14.7-20.094-21.4-22.029a.347.347,0,1,1,.193-.667c6.847,1.978,20.018,11.217,21.891,22.583a.348.348,0,0,1-.286.4A.4.4,0,0,1,60.641,360.972Z" transform="translate(-38.649 -337.971)" fill="#fff"/>
        </g>
        <g id="Grupo_87915" data-name="Grupo 87915" transform="translate(9.871 12.444)">
          <path id="Trazado_197735" data-name="Trazado 197735" d="M50.929,361.061a.347.347,0,0,1-.178-.646c.208-.124,5.163-3.02,10.045-1.665a.347.347,0,0,1-.186.669c-4.592-1.275-9.455,1.565-9.5,1.593A.349.349,0,0,1,50.929,361.061Z" transform="translate(-50.581 -358.39)" fill="#fff"/>
        </g>
      </g>
      <g id="Plants-3" data-name="Plants" transform="translate(209.668)">
        <g id="Grupo_87926" data-name="Grupo 87926">
          <g id="Grupo_87922" data-name="Grupo 87922">
            <g id="Grupo_87917" data-name="Grupo 87917">
              <g id="Grupo_87916" data-name="Grupo 87916">
                <path id="Trazado_197736" data-name="Trazado 197736" d="M421.467,319.626l-1.687-.781a54.772,54.772,0,0,1,.025-10.1c1.073-7.532,6.344-14.026,11.025-14.789,6.036-.983,4.963,4.571,1.512,6.965C426.849,304.732,422.55,310.566,421.467,319.626Z" transform="translate(-419.543 -293.84)" fill="#27debf"/>
              </g>
            </g>
            <g id="Grupo_87919" data-name="Grupo 87919" opacity="0.1">
              <g id="Grupo_87918" data-name="Grupo 87918">
                <path id="Trazado_197737" data-name="Trazado 197737" d="M421.467,319.626l-1.687-.781a54.772,54.772,0,0,1,.025-10.1c1.073-7.532,6.344-14.026,11.025-14.789,6.036-.983,4.963,4.571,1.512,6.965C426.849,304.732,422.55,310.566,421.467,319.626Z" transform="translate(-419.543 -293.84)"/>
              </g>
            </g>
            <g id="Grupo_87921" data-name="Grupo 87921" transform="translate(0.802 1.532)">
              <g id="Grupo_87920" data-name="Grupo 87920">
                <path id="Trazado_197738" data-name="Trazado 197738" d="M421.51,318.5l.03,0a.294.294,0,0,0,.234-.344c-1.169-6.188,3.928-17.664,10.742-20.92a.294.294,0,1,0-.254-.531c-7.021,3.355-12.272,15.181-11.067,21.56A.294.294,0,0,0,421.51,318.5Z" transform="translate(-421.023 -296.669)" fill="#fff"/>
              </g>
            </g>
          </g>
          <g id="Grupo_87925" data-name="Grupo 87925" transform="translate(0.029 6.087)">
            <g id="Grupo_87924" data-name="Grupo 87924">
              <g id="Grupo_87923" data-name="Grupo 87923">
                <path id="Trazado_197739" data-name="Trazado 197739" d="M419.806,324c-.123-.9-.178-2.208-.2-2.53a8.279,8.279,0,0,1,.491-3.356,6.625,6.625,0,0,1,2.8-3.4,5.516,5.516,0,0,0,1.984-1.373,4.445,4.445,0,0,0,.517-2.008,4.343,4.343,0,0,1,1.4-3.02,4.563,4.563,0,0,1,3.266-.592c1.625.172,3.145.392,4.662-.353a32.907,32.907,0,0,1,3.747-1.688c1.62-.557,5.259-1.353,6.025.926a2.2,2.2,0,0,1-.333,1.859,6.515,6.515,0,0,1-1.365,1.388l-2.54,2.112a3.247,3.247,0,0,0-.771.807c-.494.843-.144,1.913-.253,2.883a3.441,3.441,0,0,1-1.555,2.425,4.622,4.622,0,0,1-2.841.687c-1.326-.09-3.491-1.109-4.3.457a5,5,0,0,0-.392,1.679,2.533,2.533,0,0,1-2.838,2.56,13.153,13.153,0,0,0-3.492.561c-.455.178-.742.76-1.007,1.144C421.983,324.864,421.073,324.531,419.806,324Z" transform="translate(-419.597 -305.081)" fill="#27debf"/>
              </g>
            </g>
          </g>
        </g>
        <g id="Grupo_87928" data-name="Grupo 87928" transform="translate(0.693 7.598)">
          <g id="Grupo_87927" data-name="Grupo 87927">
            <path id="Trazado_197740" data-name="Trazado 197740" d="M421.12,324.814a.273.273,0,0,1-.277-.375c3.413-8.474,14.3-14.544,20.782-16.556a.273.273,0,0,1,.162.522c-6.384,1.982-17.1,7.942-20.437,16.239A.274.274,0,0,1,421.12,324.814Z" transform="translate(-420.823 -307.871)" fill="#fff"/>
          </g>
        </g>
      </g>
    </g>
    <g id="Pen" transform="translate(94.771 184.579)">
      <g id="Pen-2" data-name="Pen">
        <g id="Grupo_87929" data-name="Grupo 87929" transform="translate(6.781)">
          <path id="Trazado_197741" data-name="Trazado 197741" d="M278.841,309.368a6.7,6.7,0,0,0,3.037,5.256,2.413,2.413,0,0,0,1.744.37,1.346,1.346,0,0,1-.329.258l.728-.415a.289.289,0,0,1,.041-.026c.037-.022.071-.049.108-.075a.952.952,0,0,0,.134-.116c.027-.026.053-.052.078-.082a.027.027,0,0,0,.015-.015,1.015,1.015,0,0,0,.071-.09,1.81,1.81,0,0,0,.25-.452c.019-.049.037-.1.053-.146a.311.311,0,0,0,.022-.075.881.881,0,0,0,.034-.135,3.139,3.139,0,0,0,.082-.754,6.713,6.713,0,0,0-3.033-5.256,2.741,2.741,0,0,0-1.36-.415h-.011a1.507,1.507,0,0,0-.187.011l-.175.03a.934.934,0,0,0-.1.03l-.064.019a.916.916,0,0,0-.123.052l-.027.011c-.037.019-.078.037-.115.06l-.635.362a1.212,1.212,0,0,1,.329-.116A2.41,2.41,0,0,0,278.841,309.368Zm5,5.556c.018-.008.035-.017.053-.025C283.876,314.906,283.859,314.916,283.841,314.923Z" transform="translate(-214.916 -307.201)" fill="#fd8f25"/>
          <path id="Trazado_197742" data-name="Trazado 197742" d="M162.432,344.654l4.281,7.441.725-.418L229.922,315.6a1.347,1.347,0,0,0,.329-.258,2.427,2.427,0,0,0,.56-1.707,6.7,6.7,0,0,0-3.037-5.256,2.719,2.719,0,0,0-1.356-.415,1.623,1.623,0,0,0-.384.045,1.209,1.209,0,0,0-.329.116c-.019.008-.037.018-.053.026l-.018.011s0,0-.008,0Z" transform="translate(-161.544 -307.552)" fill="#ebebeb"/>
          <path id="Trazado_197743" data-name="Trazado 197743" d="M163.827,375.757c-1.676-.968-3.035-.183-3.035,1.752a6.708,6.708,0,0,0,3.035,5.256c1.676.968,3.035.184,3.035-1.752A6.708,6.708,0,0,0,163.827,375.757Z" transform="translate(-160.792 -338.443)" fill="#27debf"/>
        </g>
        <path id="Trazado_197744" data-name="Trazado 197744" d="M154.12,380.268a.87.87,0,0,1,.075-.086l3.874-4.258s0-.008.007-.011l.03-.032c.023-.027.047-.052.071-.077l.041-.044,0,0a1.956,1.956,0,0,1,2.425,0,6.708,6.708,0,0,1,3.035,5.256,1.975,1.975,0,0,1-1.171,2.085l0,0-.047.01a1.532,1.532,0,0,1-.22.047l-.048.01s-.011,0-.015,0l-5.614,1.225a1.378,1.378,0,0,1-.979-.213,3.83,3.83,0,0,1-1.737-3A1.431,1.431,0,0,1,154.12,380.268Z" transform="translate(-150.828 -338.445)" fill="#e0e0e0"/>
        <g id="Grupo_87930" data-name="Grupo 87930" transform="translate(5.263 14.071)">
          <path id="Trazado_197745" data-name="Trazado 197745" d="M205.625,333.3a.021.021,0,0,1,.019-.011l.1-.06a.786.786,0,0,1,.706.1,2.4,2.4,0,0,1,1.08,1.871.8.8,0,0,1-.251.65,0,0,0,0,1,0,0l-.131.075-46.123,26.627-3.034-1.752Z" transform="translate(-157.989 -333.186)" fill="#455a64"/>
          <path id="Trazado_197746" data-name="Trazado 197746" d="M165.305,380.638l-4.283,2.473-3.034-1.752,5.8-3.348A7.3,7.3,0,0,1,165.305,380.638Z" transform="translate(-157.989 -353.737)" fill="#37474f"/>
        </g>
        <g id="Grupo_87933" data-name="Grupo 87933" transform="translate(1.57 39.57)">
          <g id="Grupo_87931" data-name="Grupo 87931" transform="translate(0.001)">
            <path id="Trazado_197747" data-name="Trazado 197747" d="M151.364,384.552h0l0,0,3.513-3.863a.972.972,0,0,1,.094-.1,1.377,1.377,0,0,1,1.731-.014,4.741,4.741,0,0,1,2.145,3.715,1.408,1.408,0,0,1-.817,1.476l-.034.01-.141.03-5.151,1.123,0,0a.782.782,0,0,1-.554-.12,2.157,2.157,0,0,1-.976-1.691A.756.756,0,0,1,151.364,384.552Z" transform="translate(-151.169 -380.274)" fill="#27debf"/>
            <path id="Trazado_197748" data-name="Trazado 197748" d="M151.364,384.552h0l0,0,3.513-3.863a.972.972,0,0,1,.094-.1,1.377,1.377,0,0,1,1.731-.014,4.741,4.741,0,0,1,2.145,3.715,1.408,1.408,0,0,1-.817,1.476l-.034.01-.141.03-5.151,1.123,0,0a.782.782,0,0,1-.554-.12,2.157,2.157,0,0,1-.976-1.691A.756.756,0,0,1,151.364,384.552Z" transform="translate(-151.169 -380.274)" opacity="0.1"/>
          </g>
          <g id="Grupo_87932" data-name="Grupo 87932" transform="translate(0 2.068)">
            <path id="Trazado_197749" data-name="Trazado 197749" d="M151.168,386.86a2.157,2.157,0,0,0,.979,1.691.77.77,0,0,0,.551.118l0,0,2.6-.568c.41-.088.679-.474.679-1.093a3.459,3.459,0,0,0-1.56-2.707,1.006,1.006,0,0,0-1.251,0l-.07.077L151.36,386.3l0,0A.756.756,0,0,0,151.168,386.86Z" transform="translate(-151.168 -384.092)" fill="#27debf"/>
            <path id="Trazado_197750" data-name="Trazado 197750" d="M152.145,388.049c-.539-.311-.976-.059-.976.564a2.158,2.158,0,0,0,.976,1.691c.539.311.976.059.976-.564A2.158,2.158,0,0,0,152.145,388.049Z" transform="translate(-151.168 -385.845)" opacity="0.1"/>
          </g>
        </g>
        <g id="Grupo_87934" data-name="Grupo 87934" transform="translate(53.019 7.48)">
          <path id="Trazado_197751" data-name="Trazado 197751" d="M257.545,321.087a.75.75,0,0,1,.762.075,2.361,2.361,0,0,1,1.072,1.86.745.745,0,0,1-.317.7h0l-11.348,6.552a.8.8,0,0,0,.251-.65,2.4,2.4,0,0,0-1.08-1.871.786.786,0,0,0-.706-.1Z" transform="translate(-246.178 -321.014)" fill="#fafafa"/>
          <path id="Trazado_197752" data-name="Trazado 197752" d="M266.59,321.782a2.378,2.378,0,0,0,1.076,1.86.747.747,0,0,0,.75.075.739.739,0,0,0,.321-.695,2.361,2.361,0,0,0-1.072-1.86.655.655,0,0,0-1.076.62Z" transform="translate(-255.537 -321.014)" fill="#f5f5f5"/>
        </g>
        <path id="Trazado_197753" data-name="Trazado 197753" d="M270.395,311.538l0,0,.035-.019.048-.028,4.477-2.582c.034-.022.069-.042.1-.061l.025-.014v0a1.965,1.965,0,0,1,1.85.23,6.036,6.036,0,0,1,2.731,4.731,1.913,1.913,0,0,1-.809,1.772h0l-4.532,2.616-.024.014-.026.015,0,0a1.942,1.942,0,0,1-1.89-.211,6.036,6.036,0,0,1-2.731-4.731A1.953,1.953,0,0,1,270.395,311.538Z" transform="translate(-203.921 -307.885)" fill="#fd8f25"/>
        <path id="Trazado_197755" data-name="Trazado 197755" d="M272.381,313.914c-1.509-.871-2.731-.165-2.731,1.577a6.036,6.036,0,0,0,2.731,4.731c1.509.871,2.731.165,2.731-1.577A6.037,6.037,0,0,0,272.381,313.914Z" transform="translate(-203.921 -310.108)" opacity="0.1"/>
        <g id="Grupo_87935" data-name="Grupo 87935" transform="translate(0 44.323)">
          <path id="Trazado_197756" data-name="Trazado 197756" d="M148.6,390.2h0l1.853-1.112v0a.343.343,0,0,1,.363.027,1.106,1.106,0,0,1,.5.867.35.35,0,0,1-.147.324h0l-1.845,1.117h0a.712.712,0,0,1-.725-1.224Z" transform="translate(-148.269 -389.052)" fill="#455a64"/>
          <path id="Trazado_197757" data-name="Trazado 197757" d="M148.492,391.247l0,0a1.072,1.072,0,0,1,.1-.078s0,0,.008,0a.38.38,0,0,1,.322.056,1.1,1.1,0,0,1,.5.866.341.341,0,0,1-.142.317.164.164,0,0,1-.037.019.233.233,0,0,1-.036.017.579.579,0,0,1-.229.039.712.712,0,0,1-.71-.713A.7.7,0,0,1,148.492,391.247Z" transform="translate(-148.269 -390.012)" fill="#263238"/>
        </g>
      </g>
    </g>
    <g id="Agreement" transform="translate(56.278 39.753)">
      <g id="Contract">
        <g id="Grupo_87936" data-name="Grupo 87936">
          <path id="Trazado_197758" data-name="Trazado 197758" d="M80.154,235l-1.889-1.091a2.385,2.385,0,0,1-1.079-1.868V92.028a2.383,2.383,0,0,1,1.078-1.868l86.862-50.15a2.383,2.383,0,0,1,2.156,0l1.89,1.091a2.384,2.384,0,0,1,1.078,1.868V182.984a2.383,2.383,0,0,1-1.078,1.868L82.31,235A2.383,2.383,0,0,1,80.154,235Z" transform="translate(-77.185 -39.753)" fill="#bbabf5"/>
          <path id="Trazado_197759" data-name="Trazado 197759" d="M170.5,42.795c-.074-.558-.528-.762-1.066-.448L82.575,92.5a2.189,2.189,0,0,0-.762.8l-4.049-2.336a2.231,2.231,0,0,1,.762-.8l86.862-50.15a2.384,2.384,0,0,1,2.157,0l1.893,1.091A2.415,2.415,0,0,1,170.5,42.795Z" transform="translate(-77.45 -39.753)" fill="#fff" opacity="0.4"/>
          <path id="Trazado_197760" data-name="Trazado 197760" d="M82.121,278.446a.171.171,0,0,1-.065.025.685.685,0,0,1-.109.04l-.045.015c-.065.02-.129.035-.2.05h-.025a2.432,2.432,0,0,1-1.285-.1,1.727,1.727,0,0,1-.239-.11l-1.893-1.091a2.4,2.4,0,0,1-1.076-1.868V135.387a2.221,2.221,0,0,1,.314-1.066l4.049,2.336a2.18,2.18,0,0,0-.319,1.066V277.738a.9.9,0,0,0,.165.568.563.563,0,0,0,.578.185A.875.875,0,0,0,82.121,278.446Z" transform="translate(-77.185 -83.111)" opacity="0.15"/>
        </g>
        <g id="Grupo_87937" data-name="Grupo 87937" transform="translate(28.325 14.816)">
          <path id="Trazado_197761" data-name="Trazado 197761" d="M167.1,78.335c-.05-.03-.1-.06-.159-.095l-1.793-1.031a6.741,6.741,0,0,0-2.092-.742c-.309-.07-.588-.149-.832-.229a6.534,6.534,0,0,1-.792-.324l.135-.165v0l-2.027-1.17v0a2.046,2.046,0,0,0-.533-.214c-.762-.184-1.9.259-3.043.129a2.859,2.859,0,0,1-2.067-1.23,25.2,25.2,0,0,1-1.723-3.915l.533-.787c-.055-.035-.109-.064-.169-.095l-1.857-1.075a2.023,2.023,0,0,0-1.036-.279,3.968,3.968,0,0,0-1.948.632c-4.447,2.57-4.6,8.671-6.2,12.681s-3.87,5.269-5.105,7-1.32,3-4.054,6.773-2.844,4.692-2.844,5.4v5.618l2.022,1.165,36.4-21.023Zm-33.38,21.651c-.473.269-.862-.095-.862-.827a2.285,2.285,0,0,1,.862-1.823c.473-.274.857.1.857.832A2.273,2.273,0,0,1,133.721,99.986Zm15.993-15.763a1.834,1.834,0,0,1-2.8-.857c-1.41.273-2.461-1.091-2.461-3.432,0-2.759,1.455-5.832,3.247-6.868a1.828,1.828,0,0,1,2.8.857c1.414-.279,2.461,1.081,2.461,3.432C152.956,80.113,151.506,83.186,149.713,84.223Zm12.088-.453c-.473.273-.857-.095-.857-.822a2.264,2.264,0,0,1,.857-1.818c.478-.274.862.095.862.827A2.251,2.251,0,0,1,161.8,83.769Z" transform="translate(-129.492 -67.114)" fill="#455a64"/>
          <path id="Trazado_197762" data-name="Trazado 197762" d="M133.535,127.76l-3.915-2.26a2.752,2.752,0,0,0-.129.872v5.618l2.022,1.165,2.021-1.167Z" transform="translate(-129.492 -93.883)" fill="#37474f" opacity="0.5"/>
          <path id="Trazado_197763" data-name="Trazado 197763" d="M141.319,111.179l2.023-4.673-3.215-1.886h0c-.943,1.306-1.217,2.36-2.484,4.435Z" transform="translate(-133.229 -84.31)" fill="#37474f" opacity="0.5"/>
          <path id="Trazado_197764" data-name="Trazado 197764" d="M155.287,88.819l.262-1.361c-.894-.375-1.489-1.582-1.489-3.343a9.3,9.3,0,0,1,2.464-6.264l-2.8-1.618c-1.2,2.722-1.638,5.934-2.614,8.375-.207.518-.425.989-.65,1.423Z" transform="translate(-139.104 -71.295)" fill="#37474f" opacity="0.5"/>
          <path id="Trazado_197765" data-name="Trazado 197765" d="M168.813,79.322c-.05-.03-.1-.06-.159-.095a8.015,8.015,0,0,0-1.868-.608,5.842,5.842,0,0,1-2.849-1.394,4.143,4.143,0,0,0-.657-.488,1.9,1.9,0,0,0-.543-.219c-1.225-.294-3.456,1.041-5.06-1.036l-.05-.064c-1.12-1.509-1.529-4.876-3.207-5.867-.055-.035-.109-.064-.17-.095a3,3,0,0,0-2.824.444c-4.447,2.57-4.6,8.671-6.2,12.681s-3.87,5.269-5.1,7-1.315,3-4.054,6.774-2.839,4.692-2.839,5.4v5.618l36.4-21.023V80.737A1.418,1.418,0,0,0,168.813,79.322ZM137.45,102.138c-.473.274-.857-.094-.857-.826a2.283,2.283,0,0,1,.857-1.823c.478-.274.857.1.857.832A2.257,2.257,0,0,1,137.45,102.138ZM151.425,85.21a1.834,1.834,0,0,1-2.8-.857,5.184,5.184,0,0,1-.443-2.267c0-2.759,1.454-5.832,3.247-6.868a2.631,2.631,0,0,1,.782-.309c1.414-.279,2.461,1.081,2.461,3.432C154.668,81.1,153.218,84.173,151.425,85.21Zm14.11.712c-.478.274-.862-.095-.862-.822a2.253,2.253,0,0,1,.862-1.818c.473-.274.857.095.857.827A2.261,2.261,0,0,1,165.535,85.922Z" transform="translate(-131.204 -68.101)" fill="#37474f"/>
          <path id="Trazado_197766" data-name="Trazado 197766" d="M167.7,83.088c0,2.759-1.45,5.832-3.243,6.869a1.834,1.834,0,0,1-2.8-.857,2.532,2.532,0,0,0,.787-.309c1.793-1.036,3.243-4.109,3.243-6.868a5.174,5.174,0,0,0-.444-2.266C166.656,79.378,167.7,80.737,167.7,83.088Z" transform="translate(-144.239 -72.848)" fill="#263238"/>
          <path id="Trazado_197767" data-name="Trazado 197767" d="M140.3,127.65c-.474.274-.861-.094-.861-.824A2.277,2.277,0,0,1,140.3,125c.474-.273.857.1.857.83a2.262,2.262,0,0,1-.857,1.816" transform="translate(-134.053 -93.615)" fill="#263238"/>
          <path id="Trazado_197768" data-name="Trazado 197768" d="M192.158,97.713c-.474.274-.86-.094-.86-.824a2.278,2.278,0,0,1,.86-1.822c.474-.273.858.1.858.83a2.26,2.26,0,0,1-.858,1.816" transform="translate(-157.829 -79.889)" fill="#263238"/>
        </g>
        <g id="Grupo_87938" data-name="Grupo 87938" transform="translate(10.114 22.045)">
          <path id="Trazado_197769" data-name="Trazado 197769" d="M96.509,124.26l75.586-43.639a1.43,1.43,0,0,1,1.294,0l.729.421a1.43,1.43,0,0,1,.647,1.12V197.476a1.429,1.429,0,0,1-.647,1.12l-75.585,43.64a1.43,1.43,0,0,1-1.294,0l-.731-.422a1.43,1.43,0,0,1-.647-1.12V125.381A1.431,1.431,0,0,1,96.509,124.26Z" transform="translate(-95.862 -80.465)" fill="#fff"/>
          <path id="Trazado_197770" data-name="Trazado 197770" d="M174.9,81.965c-.08-.264-.329-.349-.622-.179L98.7,125.427a1.3,1.3,0,0,0-.458.483l-2.022-1.165a1.259,1.259,0,0,1,.458-.484l75.586-43.64a1.4,1.4,0,0,1,1.29,0l.733.418A1.434,1.434,0,0,1,174.9,81.965Z" transform="translate(-96.024 -80.464)" fill="#fafafa"/>
          <path id="Trazado_197771" data-name="Trazado 197771" d="M98.38,279.794a1.187,1.187,0,0,1-.239.064l-.125.015a1.742,1.742,0,0,1-.394-.015,1.188,1.188,0,0,1-.239-.064,1.279,1.279,0,0,1-.145-.07l-.727-.419a1.43,1.43,0,0,1-.648-1.12V162.873a1.276,1.276,0,0,1,.19-.637l2.022,1.165a1.364,1.364,0,0,0-.189.637V279.35C97.888,279.7,98.1,279.878,98.38,279.794Z" transform="translate(-95.863 -117.955)" fill="#e0e0e0"/>
        </g>
        <g id="Grupo_87939" data-name="Grupo 87939" transform="translate(26.045 18.452)">
          <path id="Trazado_197772" data-name="Trazado 197772" d="M171.227,93.91l-2.012-1.165a2.184,2.184,0,0,0-2.023.06c-2.351,1.036-3.367,1.5-4.582,2.012-.279.114-.563.229-.877.354-.473.189-1.425.03-1.131-1.629l3.123-8.412c-.015-.01-.03-.015-.045-.025L161.7,83.959a.889.889,0,0,0-.329-.115,1.468,1.468,0,0,0-.219-.02c-1.28-.03-1.644-8.278-1.654-8.532v0l-.089-.05-1.958-1.126a2.189,2.189,0,0,0-1.116-.284,4.087,4.087,0,0,0-1.853.523c-3.073,1.614-6.176,6.395-6.933,10.688-.478,2.709-3.2,6.878-4.776,8.412a5.027,5.027,0,0,0-1.684,2.819l-1.225,6.943-.393,2.221a7.29,7.29,0,0,1-1.987,3.263l-6.341,4.751c-3.969,3.3-5.09,6.624-5.852,10.743,0,.005,0,.025,0,.03-.025.144,0,.244.069.284a.072.072,0,0,0,.07,0v0c.005,0,.005,0,.01,0l.812-.463,43.62-25.158a.957.957,0,0,0,.4-.608s0-.015.01-.02,0-.01,0-.015c.249-1.5.976-4.319.976-4.319ZM158.616,81.164c-.468,2.64-2.371,5.583-4.263,6.575-1.305.682-2.256.259-2.575-.941a1.492,1.492,0,0,1-1.43-.185c-.608-.478,4.951-10.016,5.4-9.807a1.613,1.613,0,0,1,.837,1.14C158.148,77.473,159.034,78.794,158.616,81.164Z" transform="translate(-125.282 -73.828)" fill="#455a64"/>
          <path id="Trazado_197773" data-name="Trazado 197773" d="M131.606,154.005l-3.178-1.834a17.574,17.574,0,0,0-3.133,7.94c0,.005,0,.025,0,.03-.025.144,0,.244.069.284a.072.072,0,0,0,.07,0v0c.005,0,.005,0,.01,0l.009-.005,2.507-1.986Z" transform="translate(-125.282 -109.747)" fill="#37474f" opacity="0.5"/>
          <path id="Trazado_197774" data-name="Trazado 197774" d="M151.1,123.851l4.48,2.586,2.023-11.681-4.04-2.332a3.822,3.822,0,0,0-.634,1.542l-1.225,6.943-.393,2.221A3.736,3.736,0,0,1,151.1,123.851Z" transform="translate(-137.121 -91.524)" fill="#37474f" opacity="0.5"/>
          <path id="Trazado_197775" data-name="Trazado 197775" d="M167.194,84.231a17.381,17.381,0,0,0-2.124,5.578,13.866,13.866,0,0,1-1.584,3.961l3.845,2.22,1.91-4.412a1.474,1.474,0,0,1-1.377-.2c-.312-.246,1.006-2.887,2.422-5.367Z" transform="translate(-142.798 -78.598)" fill="#37474f" opacity="0.5"/>
          <path id="Trazado_197776" data-name="Trazado 197776" d="M171.379,94.909l-.03-.015a2.2,2.2,0,0,0-2.012.064c-2.884,1.27-3.755,1.688-5.464,2.366-.458.185-1.38.035-1.14-1.524a.759.759,0,0,1,.015-.1l.394-2.222,1.091-6.051s.249-.951-.383-1.31c-.015-.01-.03-.015-.045-.025a1.18,1.18,0,0,0-.5-.109,2.46,2.46,0,0,1-1.8-1.151,4.547,4.547,0,0,1-.677-3.461c.458-2.595-.045-4.413-1.2-5.09a.8.8,0,0,0-.089-.055,3.088,3.088,0,0,0-2.9.284c-3.073,1.614-6.176,6.4-6.934,10.688-.478,2.71-3.2,6.878-4.776,8.412a5.026,5.026,0,0,0-1.684,2.819l-1.225,6.943-.393,2.222a7.283,7.283,0,0,1-1.992,3.262l-6.336,4.752a15.284,15.284,0,0,0-5.215,7.894s-2.376,1.843-2.525,1.992v0s0,0,.005,0l0,0,.812-.463L170.119,99.88s.5-.274.612-.344S172.6,97.8,172.6,97.8C172.53,96.368,172.112,95.348,171.379,94.909Zm-12.641-12.76c-.468,2.64-2.371,5.583-4.263,6.574-1.305.682-2.257.259-2.575-.941a4.991,4.991,0,0,1,0-2.047c.468-2.64,2.376-5.583,4.268-6.569a3.352,3.352,0,0,1,.548-.234C158.271,78.458,159.157,79.778,158.738,82.149Z" transform="translate(-125.404 -74.812)" fill="#37474f"/>
          <path id="Trazado_197777" data-name="Trazado 197777" d="M181.049,84.571c-.468,2.64-2.371,5.583-4.263,6.575-1.305.682-2.256.259-2.575-.941a3.584,3.584,0,0,0,.553-.23c1.893-.991,3.8-3.935,4.263-6.574a4.916,4.916,0,0,0,0-2.047C180.581,80.88,181.468,82.2,181.049,84.571Z" transform="translate(-147.715 -77.234)" fill="#263238"/>
          <path id="Trazado_197778" data-name="Trazado 197778" d="M179.133,81.54h0a1.036,1.036,0,0,1,.912.441c.784,1.114.033,3.955-.292,4.862-.453,1.264-3.385,4.228-4.2,4.228a1.972,1.972,0,0,1-1.323-.846,4.946,4.946,0,0,1,0-1.973c.462-2.606,2.348-5.514,4.2-6.481a3.262,3.262,0,0,1,.515-.221c.061-.006.12-.009.177-.009m0-.125a2.01,2.01,0,0,0-.2.01,3.351,3.351,0,0,0-.548.234c-1.893.986-3.8,3.929-4.268,6.569a4.991,4.991,0,0,0,0,2.047,2.12,2.12,0,0,0,1.432.918h.017c.876,0,3.828-2.99,4.3-4.311.463-1.293,1.493-5.47-.738-5.469Z" transform="translate(-147.624 -77.307)" fill="#263238"/>
          <path id="Trazado_197779" data-name="Trazado 197779" d="M125.558,143.976l44.559-25.615s.505-.276.614-.342,1.873-1.737,1.873-1.737l-44.525,25.7S125.381,144.069,125.558,143.976Z" transform="translate(-125.405 -93.292)" fill="#263238"/>
        </g>
        <g id="Grupo_87946" data-name="Grupo 87946" transform="translate(20.229 51.437)">
          <g id="Grupo_87941" data-name="Grupo 87941" transform="translate(0 0)">
            <g id="Grupo_87940" data-name="Grupo 87940">
              <path id="Trazado_197780" data-name="Trazado 197780" d="M114.542,170.4v1.014c0,.55.386.773.863.5l58.97-34.043a1.906,1.906,0,0,0,.863-1.494v-1.018c0-.55-.386-.773-.863-.5L115.4,168.9A1.907,1.907,0,0,0,114.542,170.4Z" transform="translate(-114.542 -134.74)" fill="#e0e0e0"/>
              <path id="Trazado_197781" data-name="Trazado 197781" d="M114.542,181.706v1.014c0,.55.386.773.863.5l58.97-34.043a1.906,1.906,0,0,0,.863-1.494v-1.017c0-.55-.386-.773-.863-.5L115.4,180.211A1.908,1.908,0,0,0,114.542,181.706Z" transform="translate(-114.542 -139.924)" fill="#e0e0e0"/>
              <path id="Trazado_197782" data-name="Trazado 197782" d="M114.542,192.949v1.014c0,.55.386.773.863.5l58.97-34.043a1.906,1.906,0,0,0,.863-1.494v-1.018c0-.55-.386-.773-.863-.5L115.4,191.455A1.907,1.907,0,0,0,114.542,192.949Z" transform="translate(-114.542 -145.079)" fill="#e0e0e0"/>
            </g>
          </g>
          <g id="Grupo_87943" data-name="Grupo 87943" transform="translate(0 25.699)">
            <g id="Grupo_87942" data-name="Grupo 87942">
              <path id="Trazado_197783" data-name="Trazado 197783" d="M114.542,217.856v1.014c0,.55.386.773.863.5l58.97-34.043a1.905,1.905,0,0,0,.863-1.494v-1.017c0-.55-.386-.773-.863-.5L115.4,216.362A1.906,1.906,0,0,0,114.542,217.856Z" transform="translate(-114.542 -182.197)" fill="#e0e0e0"/>
              <path id="Trazado_197784" data-name="Trazado 197784" d="M114.542,229.162v1.014c0,.55.386.773.863.5l58.97-34.043a1.907,1.907,0,0,0,.863-1.495v-1.017c0-.55-.386-.773-.863-.5L115.4,227.668A1.906,1.906,0,0,0,114.542,229.162Z" transform="translate(-114.542 -187.381)" fill="#e0e0e0"/>
              <path id="Trazado_197785" data-name="Trazado 197785" d="M114.542,240.406v1.014c0,.55.386.773.863.5l58.97-34.043a1.906,1.906,0,0,0,.863-1.494v-1.017c0-.55-.386-.773-.863-.5L115.4,238.912A1.906,1.906,0,0,0,114.542,240.406Z" transform="translate(-114.542 -192.536)" fill="#e0e0e0"/>
            </g>
          </g>
          <g id="Grupo_87945" data-name="Grupo 87945" transform="translate(0 51.397)">
            <g id="Grupo_87944" data-name="Grupo 87944">
              <path id="Trazado_197786" data-name="Trazado 197786" d="M114.542,265.312v1.014c0,.55.386.773.863.5l58.97-34.043a1.906,1.906,0,0,0,.863-1.494v-1.018c0-.55-.386-.773-.863-.5L115.4,263.818A1.907,1.907,0,0,0,114.542,265.312Z" transform="translate(-114.542 -229.653)" fill="#e0e0e0"/>
              <path id="Trazado_197787" data-name="Trazado 197787" d="M114.542,276.618v1.014c0,.55.386.773.863.5l58.97-34.043a1.906,1.906,0,0,0,.863-1.494v-1.018c0-.55-.386-.773-.863-.5L115.4,275.124A1.907,1.907,0,0,0,114.542,276.618Z" transform="translate(-114.542 -234.837)" fill="#e0e0e0"/>
              <path id="Trazado_197788" data-name="Trazado 197788" d="M114.542,287.862v1.014c0,.55.386.773.863.5l58.97-34.043a1.907,1.907,0,0,0,.863-1.494v-1.017c0-.55-.386-.773-.863-.5L115.4,286.368A1.907,1.907,0,0,0,114.542,287.862Z" transform="translate(-114.542 -239.992)" fill="#e0e0e0"/>
            </g>
          </g>
        </g>
        <path id="Trazado_197789" data-name="Trazado 197789" d="M170.584,304.73l30.347-17.521v.584l-30.348,17.52Z" transform="translate(-120.007 -153.208)" fill="#e0e0e0"/>
        <path id="Trazado_197790" data-name="Trazado 197790" d="M180.484,293.733c1.263-.847,2.671-2.27,2.443-3.957a1.292,1.292,0,0,0-1.91-1.054c-1.848.707-3.015,3.49-3.66,5.168-.564,1.467-1.279,4.234.922,4.7,2.586.55,4.584-3.243,5.165-5.219.081-.276-.368-.426-.495-.179-.23.449-1.753,3.414-.079,3.045.6-.132.94-1.056,1.152-1.528a12.242,12.242,0,0,1,1.168-2.748l-.439-.2a2.7,2.7,0,0,0,.521,1.916.266.266,0,0,0,.367.063c.853-.8.915-2.091,1.856-2.813l-.384-.182c-.011.246-.11.956-.129,1.29-.009.155.213.256.338.209a.734.734,0,0,0,.538-.466l-.411-.15c.356,1.908,1.987.011,2.546-.726a12.164,12.164,0,0,0,2.829-7.265c0-.223-.419-.333-.423-.067-.039,2.131-.969,4.088-1.569,6.1a67.642,67.642,0,0,0-1.61,6.615l.387.139a13.278,13.278,0,0,1,1.191-4.558,8.99,8.99,0,0,1,2.048-3.422l-.355-.134a3.868,3.868,0,0,1-.866,3.151c-.115.148.141.42.256.276.6-.748,1.576-.986,2.212-1.709a19.238,19.238,0,0,0,1.6-2.578l-.292-.147c-.039,1.817,1.678-1.019,1.909-1.323l-.282-.108c.114.375.269.624.691.627.837.006,1.153-1.223,1.784-1.365.005,0,.279.237.374.245a1.56,1.56,0,0,0,1.013-.191,4.717,4.717,0,0,0,1.659-1.851c.095-.171-.234-.388-.345-.2-.413.7-1.714,2.57-2.659,1.655-.056-.055-.184-.105-.246-.028-.253.312-1.709,1.982-1.98,1.1-.034-.109-.192-.227-.282-.107-.22.294-.4.619-.6.924-.112.167-.75,1.236-.726.694.006-.127-.2-.283-.292-.147a13.32,13.32,0,0,1-1.844,2.828c-.612.547-1.419.75-1.946,1.4l.256.276a4.161,4.161,0,0,0,.989-3.421.226.226,0,0,0-.355-.134,9.206,9.206,0,0,0-2.086,3.5,13.644,13.644,0,0,0-1.215,4.653c0,.168.344.355.386.139a64.96,64.96,0,0,1,1.782-7.128,20.416,20.416,0,0,0,1.442-5.7l-.423-.067a10.536,10.536,0,0,1-1.878,5.791c-.307.474-.625.942-.97,1.389-.154.2-1.5,1.953-1.671.934-.025-.147-.312-.35-.411-.15l-.391.345.338.21c.026-.439.112-.853.133-1.294.008-.172-.259-.279-.385-.183-.956.732-1.025,2.025-1.889,2.821l.368.064a2.937,2.937,0,0,1-.408-1.633c0-.188-.293-.376-.439-.2a13.607,13.607,0,0,0-1.3,2.975c-.238.5-1.1,1.848-.808.413a7.071,7.071,0,0,1,.76-1.681l-.495-.179c-.511,1.723-1.869,4.337-3.727,4.894-2.374.712-1.961-2.23-1.525-3.537a14.532,14.532,0,0,1,2.261-4.237,5.361,5.361,0,0,1,.61-.7c.482-.436.627-.52,1.3-.16.7.377.7.6.518,1.321a3.885,3.885,0,0,1-.443,1.026,6.726,6.726,0,0,1-1.594,1.7c-.087.069.04.3.138.235Z" transform="translate(-122.848 -151.308)" fill="#455a64"/>
      </g>
    </g>
    <g id="Characters" transform="translate(176.966 112.243)">
      <g id="Characters-2" data-name="Characters" transform="translate(0 0)">
        <g id="Grupo_87968" data-name="Grupo 87968" transform="translate(0 18.977)">
          <g id="Grupo_87964" data-name="Grupo 87964">
            <g id="Grupo_87947" data-name="Grupo 87947" transform="translate(0 17.086)">
              <path id="Trazado_197791" data-name="Trazado 197791" d="M309.757,240.3c-1.962-.464-4.118.931-5.381,4.011s-3.787,10.934-4.313,12.992c-.235.922,6.76,9.08,6.51,8.958-.077-.037,2.279-3.979,2.279-3.979l-3.395-5.224,2.126-5.673Z" transform="translate(-300.057 -240.216)" fill="#b16668"/>
            </g>
            <g id="Grupo_87954" data-name="Grupo 87954" transform="translate(3.85 38.138)">
              <g id="Grupo_87948" data-name="Grupo 87948" transform="translate(0.924 47.308)">
                <path id="Trazado_197792" data-name="Trazado 197792" d="M309.277,371.18c-.266.1-.333.606-.373,1.613-.03.762-.193,2.091.7,2.357a2.792,2.792,0,0,0,2.771-.588c.714-.9,1.2-1.685,2.215-2.778a7.73,7.73,0,0,0,2.2-3.164c.322-1.2.054-1.724-.766-2.073-1.127-.481-2.9,1.09-3.783,1.337C311.473,368.1,309.543,371.079,309.277,371.18Z" transform="translate(-308.873 -366.456)" fill="#263238"/>
              </g>
              <g id="Grupo_87949" data-name="Grupo 87949" transform="translate(1.328 50.652)">
                <path id="Trazado_197793" data-name="Trazado 197793" d="M309.619,373.079v1.236a3.027,3.027,0,0,0,3.123.084c.054-.119.324-1.768.324-1.768Z" transform="translate(-309.619 -372.632)" fill="#b16668"/>
              </g>
              <g id="Grupo_87950" data-name="Grupo 87950" transform="translate(9.749 58.6)">
                <path id="Trazado_197794" data-name="Trazado 197794" d="M325.946,387.308s-.355,1.075-.546,2.015a5.454,5.454,0,0,0-.108,2.558c.262.562,1.282.925,2.865.913a9.283,9.283,0,0,1,3.716,1.3,5.684,5.684,0,0,0,3.55.492c1.408-.165,2.867-.982,3.094-1.564s-.065-.863-3.383-2.277a19.044,19.044,0,0,1-5.1-3.351Z" transform="translate(-325.171 -387.308)" fill="#263238"/>
              </g>
              <g id="Grupo_87951" data-name="Grupo 87951" transform="translate(10.525 57.264)">
                <path id="Trazado_197795" data-name="Trazado 197795" d="M326.6,384.841s0,.917,0,1.441.615,1.3,2.217,1.248c1.125-.04,1.911-.343,1.867-1.27v-1.336Z" transform="translate(-326.603 -384.841)" fill="#b16668"/>
              </g>
              <g id="Grupo_87952" data-name="Grupo 87952">
                <path id="Trazado_197796" data-name="Trazado 197796" d="M307.278,313.059a29.283,29.283,0,0,1,1.509-6.357s-.7-5.468-1.1-10.722c-.725-9.414-.143-12.492,1.708-16.714,0,0,15.8-1.6,16.28,4.965.6,8.176-.2,23.977-.413,26.865a99.726,99.726,0,0,1-1.507,10.226c-.778,4.592-1.978,15.12-1.978,15.12a4.334,4.334,0,0,1-4.083-.083s-1.292-13.146-1.156-16.479A28.473,28.473,0,0,1,317.8,312.6s-.98-13.325-1.266-15.446c0,0-.493,4.226-.71,7.115s-1.075,5.647-1.91,11.012c-.725,4.654-2.071,15.057-2.071,15.057a2.754,2.754,0,0,1-3.348-.149S306.712,317.1,307.278,313.059Z" transform="translate(-307.167 -279.093)" fill="#472ea6"/>
              </g>
            </g>
            <g id="Grupo_87956" data-name="Grupo 87956" transform="translate(11.682 13.891)">
              <g id="Grupo_87955" data-name="Grupo 87955">
                <path id="Trazado_197798" data-name="Trazado 197798" d="M327.739,235.473l-.742,6.1-5.367-.485.613-6.776Z" transform="translate(-321.629 -234.317)" fill="#b16668"/>
              </g>
            </g>
            <g id="Grupo_87958" data-name="Grupo 87958" transform="translate(4.051 17.169)">
              <g id="Grupo_87957" data-name="Grupo 87957">
                <path id="Trazado_197799" data-name="Trazado 197799" d="M309.279,243.432c.59-1.606,2.6-3.394,4.66-3.011.537.1,1.01.178,1.516.28.047,1.406,2.7,2.135,5.338,1.281q1.192.342,2.181.7c1.889.675,2.648,3.813,2.69,9.062s.6,18.343.6,18.343l-2.209.694-1.032-3.83-.416,4.588a16.411,16.411,0,0,1-7.627-.037c-5.676-1.24-7.443-4.3-7.443-4.3a27.664,27.664,0,0,1,4.048-9.923C308.741,249.7,308.4,245.816,309.279,243.432Z" transform="translate(-307.538 -240.369)" fill="#fff"/>
              </g>
            </g>
            <g id="Grupo_87963" data-name="Grupo 87963" transform="translate(6.075)">
              <g id="Grupo_87959" data-name="Grupo 87959" transform="translate(0.756)">
                <path id="Trazado_197800" data-name="Trazado 197800" d="M327.619,215.957a4.708,4.708,0,0,0-.4-4.538c-1.8-2.829-5.275-3.311-9.391-2.208a7.3,7.3,0,0,0-5.149,6.629c-.2,3.018,8.221,5.245,8.029,7.313Z" transform="translate(-312.672 -208.664)" fill="#263238"/>
              </g>
              <g id="Grupo_87960" data-name="Grupo 87960" transform="translate(15.885 8.439)">
                <path id="Trazado_197801" data-name="Trazado 197801" d="M340.61,224.249s1.142,1.832.982,2.018a2.852,2.852,0,0,1-.923.368Z" transform="translate(-340.61 -224.249)" fill="#9a4a4d"/>
              </g>
              <g id="Grupo_87961" data-name="Grupo 87961" transform="translate(4.327 2.096)">
                <path id="Trazado_197802" data-name="Trazado 197802" d="M327.34,213.077c1.142.629,3.112,1.788,3.511,6.065.41,4.391-.605,5.885-1.217,6.443-.414.376-2.5.461-3.57.095a11.281,11.281,0,0,1-5.561-4.284c-1.549-2.7-1.788-6.252.12-7.59A6.992,6.992,0,0,1,327.34,213.077Z" transform="translate(-319.266 -212.534)" fill="#b16668"/>
              </g>
              <g id="Grupo_87962" data-name="Grupo 87962" transform="translate(0.751 1.118)">
                <path id="Trazado_197803" data-name="Trazado 197803" d="M324.649,212.442s.9,4.02-.375,6.51c0,0-.666-1.577-2.017-1.166s-1.285,2.214-.249,3.162a2.008,2.008,0,0,0,2.078.5,9.017,9.017,0,0,1-2.008,3.032,6.588,6.588,0,0,1-7.465-2.127c-3.143-3.548-2.559-9.736,2.255-11.2A8.2,8.2,0,0,1,324.649,212.442Z" transform="translate(-312.661 -210.73)" fill="#263238"/>
              </g>
              <path id="Trazado_197804" data-name="Trazado 197804" d="M312.606,214.464a.943.943,0,0,1,.1,1.331l-1.43-1.23A.943.943,0,0,1,312.606,214.464Z" transform="translate(-311.275 -211.219)" fill="#263238"/>
            </g>
          </g>
          <g id="Grupo_87965" data-name="Grupo 87965" transform="translate(33.071 22.998)">
            <path id="Trazado_197805" data-name="Trazado 197805" d="M361.128,257.283c.779-.89,1.077-2.87,2.115-4.222,1.014-1.321,1.416-2.347,1.827-1.755.541.782-.681,2.349-.411,2.505a8.148,8.148,0,0,1,1.392,3.369c.1,1.147-2.934,4.03-2.934,4.03Z" transform="translate(-361.128 -251.135)" fill="#b16668"/>
          </g>
          <g id="Grupo_87966" data-name="Grupo 87966" transform="translate(36.517 25.356)">
            <path id="Trazado_197806" data-name="Trazado 197806" d="M367.493,255.633s3.672-.319,4.207-.01.373,1.907,0,2.882-2.247,1.609-3.985,2.786C367.711,261.123,367.493,255.633,367.493,255.633Z" transform="translate(-367.493 -255.488)" fill="#b16668"/>
          </g>
          <g id="Grupo_87967" data-name="Grupo 87967" transform="translate(17.514 19.316)">
            <path id="Trazado_197807" data-name="Trazado 197807" d="M333.9,244.334c1.578.549,2.959,1.184,4.432,3.952,1.892,3.556,5.333,10.522,5.333,10.522l4.288-4.642s.624-.879,1.785,1.039.648,2.449.648,2.449-4.989,6.682-5.9,7.532-2.421.189-3.4-1.148-7.179-9.087-7.179-9.087S330.519,250.5,333.9,244.334Z" transform="translate(-332.399 -244.334)" fill="#b16668"/>
          </g>
          <path id="Trazado_197808" data-name="Trazado 197808" d="M320.131,308.205l-.3-3.193a12.057,12.057,0,0,1-4.819-1.824,6.543,6.543,0,0,0,3.843,2.393l.293,4.062.173,6.658Z" transform="translate(-306.914 -252.002)" opacity="0.2"/>
          <path id="Trazado_197809" data-name="Trazado 197809" d="M303.7,230.737h0a5.556,5.556,0,0,0,5.556-5.556v-8.441h0a4.248,4.248,0,0,0-5.556,4.041Z" transform="translate(-301.726 -212.271)" fill="#263238"/>
          <path id="Trazado_197810" data-name="Trazado 197810" d="M337.8,266.829s-3.083-3.973-4.065-5.573l4.171,8.816Z" transform="translate(-315.498 -232.777)" fill="#e0e0e0"/>
        </g>
        <g id="Grupo_87985" data-name="Grupo 87985" transform="translate(35.058)">
          <g id="Grupo_87969" data-name="Grupo 87969" transform="translate(2.154 17.236)">
            <path id="Trazado_197811" data-name="Trazado 197811" d="M380.884,208.6c-1.171,3.446-3.667,13.734-3.667,13.734s-4.764,6.334-6.071,7.54c-.728.671-2.37,1.88-2.37,1.88l1.365,1.006s2.278-.693,2.463.56a69.879,69.879,0,0,0,6.717-6.175,4.352,4.352,0,0,0,1.064-1.984l2.039-8.748s-.013-7.039,1.079-7.963.654-3,.654-3C383.429,205.471,381.8,205.9,380.884,208.6Z" transform="translate(-368.777 -205.449)" fill="#ffa8a7"/>
          </g>
          <g id="Grupo_87983" data-name="Grupo 87983" transform="translate(5.241)">
            <path id="Trazado_197812" data-name="Trazado 197812" d="M386.826,204.815a20.109,20.109,0,0,0,1.2,2.722c.478.816-3.17,15.52-3.411,16.613s-7.309,7.465-7.309,7.465a5.285,5.285,0,0,1-2.829-2.838l5.1-6.635s1.584-6.968,2.421-10.159S383.724,205.158,386.826,204.815Z" transform="translate(-374.477 -187.922)" fill="#27debf"/>
            <g id="Grupo_87970" data-name="Grupo 87970" transform="translate(0 16.893)">
              <path id="Trazado_197813" data-name="Trazado 197813" d="M386.826,204.815a20.109,20.109,0,0,0,1.2,2.722c.478.816-3.17,15.52-3.411,16.613s-7.309,7.465-7.309,7.465a5.285,5.285,0,0,1-2.829-2.838l5.1-6.635s1.584-6.968,2.421-10.159S383.724,205.158,386.826,204.815Z" transform="translate(-374.477 -204.815)" opacity="0.1"/>
            </g>
            <g id="Grupo_87982" data-name="Grupo 87982" transform="translate(0.936)">
              <g id="Grupo_87971" data-name="Grupo 87971" transform="translate(0 42.209)">
                <rect id="Rectángulo_37052" data-name="Rectángulo 37052" width="3.522" height="6.03" transform="translate(22.818 43.774)" fill="#ffa8a7"/>
                <path id="Trazado_197814" data-name="Trazado 197814" d="M395.112,329.7l-3.52.121-.176-6.381,3.7-.121Z" transform="translate(-383.178 -284.464)" fill="#ffa8a7"/>
                <path id="Trazado_197815" data-name="Trazado 197815" d="M408.685,252.293c0,3.364.232,22.921.232,22.921.082.968,1.014,2.689,1.086,6.175.105,5.056-.672,16.965-.672,16.965a4.635,4.635,0,0,1-3.922.077s-2.767-16.845-3.4-21.849c-.551-4.367-2.451-16.027-2.451-16.027l-2.692,14.763a20.026,20.026,0,0,1,.436,5.6c-.165,2.315-2.308,13.909-2.308,13.909a4.808,4.808,0,0,1-4.067.311s-.211-18.2-.251-20.323c-.046-2.421,1.01-23.249,1.01-23.249Z" transform="translate(-382.84 -251.565)" fill="#37474f"/>
                <path id="Trazado_197816" data-name="Trazado 197816" d="M414.508,339.9v-.5c-.189,0-.306.184-.378.637-.052.324-.1.569-.206,1a11.756,11.756,0,0,1-.615,1.8,10.967,10.967,0,0,1-2.056,3.119,13.4,13.4,0,0,0-1.094,1.26c-.213.379-.288,1.434.074,1.675a6.122,6.122,0,0,0,4.778.492,2.883,2.883,0,0,0,2.074-2.33c.052-.325.033-.657.07-.983a4.665,4.665,0,0,1,.882-2.046,6.2,6.2,0,0,0,.676-1.113,3.615,3.615,0,0,0-.13-2.26c-.164-.623-.341-1.308-.553-1.249,0,.076,0,.384,0,.384a2.787,2.787,0,0,1-1.762.6C415.754,340.391,414.5,340.289,414.508,339.9Z" transform="translate(-391.69 -291.831)" fill="#263238"/>
                <path id="Trazado_197817" data-name="Trazado 197817" d="M384.581,333.126c-.183.006-.332.264-.735.7a7.688,7.688,0,0,1-2.072,1.491c-1.319.661-3.883,1.677-5.044,2.2-.725.327-.691,1.2.058,1.7a6.789,6.789,0,0,0,4.732.371c1.183-.265,2.724-1.358,3.7-1.3s2.8.045,3.52-.451.432-1.556.229-2.467c-.222-.994-.5-2.543-.828-2.475v.342c-.423.642-2.609.9-3.539.43Z" transform="translate(-376.205 -288.854)" fill="#263238"/>
                <path id="Trazado_197818" data-name="Trazado 197818" d="M402.928,265.787a13.043,13.043,0,0,1-4.9-2.812,10.152,10.152,0,0,0,3.761,3.421l-1.362,13.132Z" transform="translate(-386.208 -256.796)" fill="#263238"/>
              </g>
              <g id="Grupo_87974" data-name="Grupo 87974" transform="translate(8.15 16.366)">
                <path id="Trazado_197819" data-name="Trazado 197819" d="M403.172,205.126c1.2.288,3.613.683,4.156,3.072a69.71,69.71,0,0,1,.863,9.112l.223,13.894c-2.426,1.768-11.335,2.729-16.441-1,0,0,.625-16.684.625-19.281s1.443-5.717,5.427-5.949Z" transform="translate(-391.584 -204.361)" fill="#f5f5f5"/>
                <path id="Trazado_197820" data-name="Trazado 197820" d="M397.751,204.186a7.127,7.127,0,0,0-2.275,3.523c-.485,2.1-.563,25.563-.563,25.563a10.665,10.665,0,0,1-3.657-1.376s.151-18.521.388-21.583c.36-4.643.322-5.982,6.1-6.472Z" transform="translate(-391.255 -203.841)" fill="#27debf"/>
                <path id="Trazado_197821" data-name="Trazado 197821" d="M411.524,203.841s-3.319,2.043-3.356,10.169c-.032,7.025-.267,19.263-.267,19.263s5.5.807,8.978-1.273c0,0,.415-17.036.349-19.674-.076-3.021-.783-6.925-1.75-7.314A28.05,28.05,0,0,0,411.524,203.841Z" transform="translate(-398.887 -203.841)" fill="#27debf"/>
                <g id="Grupo_87973" data-name="Grupo 87973" transform="translate(14.108 0.478)">
                  <g id="Grupo_87972" data-name="Grupo 87972" transform="translate(0.428 0.222)">
                    <path id="Trazado_197822" data-name="Trazado 197822" d="M428.548,223.094c-3.3-13.507-5.748-18.012-9.762-17.96-1.171,1.4-.848,5.632,1,8.2,0,0,4.129,8.712,4.788,11.809a43.6,43.6,0,0,1,1.193,8.482,1.692,1.692,0,0,1-.459,1.113,8.789,8.789,0,0,0-1.246,2.379c-.382.707-.8.972-.681,1.131a.914.914,0,0,0,1.24.092,4.659,4.659,0,0,0,.939-.9,9.372,9.372,0,0,1-.745,2.506c-.848,1.912-.641,2.886,1.939,2.206,1.616-.426,2.631-1.773,2.874-5.658a30.05,30.05,0,0,0,.042-4.3A74.472,74.472,0,0,0,428.548,223.094Z" transform="translate(-418.099 -205.134)" fill="#ffa8a7"/>
                  </g>
                  <path id="Trazado_197823" data-name="Trazado 197823" d="M417.737,204.727s2.661-.121,4.1,1.336,3.386,4.522,5.27,11.223a61.842,61.842,0,0,1,2.556,15.364,5.321,5.321,0,0,1-4.538-.155s-.965-5.829-1.82-8.931a83.883,83.883,0,0,0-4.046-9.641S416.209,209.392,417.737,204.727Z" transform="translate(-417.308 -204.724)" fill="#27debf"/>
                  <path id="Trazado_197824" data-name="Trazado 197824" d="M417.737,204.727s2.661-.121,4.1,1.336,3.386,4.522,5.27,11.223a61.842,61.842,0,0,1,2.556,15.364,5.321,5.321,0,0,1-4.538-.155s-.965-5.829-1.82-8.931a83.883,83.883,0,0,0-4.046-9.641S416.209,209.392,417.737,204.727Z" transform="translate(-417.308 -204.724)" opacity="0.1"/>
                </g>
                <path id="Trazado_197825" data-name="Trazado 197825" d="M412.944,212.047l-1.52,1.881.76,2.142-2,5.121,2.41-5.121-.843-2.022Z" transform="translate(-399.934 -207.604)" opacity="0.1"/>
                <path id="Trazado_197826" data-name="Trazado 197826" d="M394.642,210.93l.33,1.945-1.317,1.714,1.831,5.766-1.417-5.7,1.214-1.6Z" transform="translate(-392.356 -207.091)" opacity="0.1"/>
              </g>
              <g id="Grupo_87981" data-name="Grupo 87981" transform="translate(8.484)">
                <g id="Grupo_87975" data-name="Grupo 87975" transform="translate(0)">
                  <circle id="Elipse_5046" data-name="Elipse 5046" cx="4.841" cy="4.841" r="4.841" transform="translate(0 9.557) rotate(-80.783)" fill="#263238"/>
                  <path id="Trazado_197827" data-name="Trazado 197827" d="M415.834,190.231a41.819,41.819,0,0,1-1.1,4.291,1.669,1.669,0,0,1-.964.778l.055-2.592Z" transform="translate(-401.912 -181.235)" fill="#263238"/>
                  <path id="Trazado_197828" data-name="Trazado 197828" d="M415.345,180.47a1.816,1.816,0,0,1,1.5.529c.645.66.285,2.727-.519,4.751l-1.478.169Z" transform="translate(-402.408 -176.754)" fill="#263238"/>
                  <path id="Trazado_197829" data-name="Trazado 197829" d="M405.115,184.007c.3.177.719-.393,1.084-.775a1.286,1.286,0,0,1,2.154.349,2.685,2.685,0,0,1-1.465,3.261c-1.618.508-1.861-.53-1.861-.53l-.12,6.016h0c-1.119,1.434-3.633,3.121-4.986,2.88-1.08-.192-1.316-2.017-.283-3.213l0-1.777a10.211,10.211,0,0,1-2.182.112,2.967,2.967,0,0,1-2.3-2.411c-.58-2.07-.8-3.74-.308-7.81.539-4.46,5.727-4.507,8.529-2.743S405.115,184.007,405.115,184.007Z" transform="translate(-393.114 -174.84)" fill="#ffa8a7"/>
                  <path id="Trazado_197830" data-name="Trazado 197830" d="M404.631,183.3c.149,0,.715-.937,1.084-1.273.511-.465-.148-4.676-.148-4.676a2.044,2.044,0,0,0-.352-2.273c-.7-.771-1.677-1.711-4.854-1.336-2.265.268-4.73.974-6.721,0a3.389,3.389,0,0,0,1.181,3.6,6.807,6.807,0,0,0,2.617.7,28.077,28.077,0,0,0,5.253-.1c.55-.075.667.458.963,1.913C403.914,181.127,404.13,183.292,404.631,183.3Z" transform="translate(-392.63 -173.637)" fill="#263238"/>
                  <path id="Trazado_197831" data-name="Trazado 197831" d="M415.663,179.793l1.792-.962a.987.987,0,0,0-1.357-.448A1.069,1.069,0,0,0,415.663,179.793Z" transform="translate(-402.729 -175.749)" fill="#263238"/>
                  <path id="Trazado_197832" data-name="Trazado 197832" d="M403.928,200.071a20.407,20.407,0,0,0,3.585-1.029,3.065,3.065,0,0,0,1.284-1.27,4.19,4.19,0,0,1-.73,1.5c-.679.868-4.14,1.508-4.14,1.508Z" transform="translate(-397.4 -184.693)" fill="#f28f8f"/>
                </g>
                <g id="Grupo_87976" data-name="Grupo 87976" transform="translate(2.293 5.865)">
                  <path id="Trazado_197833" data-name="Trazado 197833" d="M405.107,188.851a.533.533,0,1,0,.532-.555A.542.542,0,0,0,405.107,188.851Z" transform="translate(-400.233 -186.213)" fill="#263238"/>
                  <path id="Trazado_197834" data-name="Trazado 197834" d="M406.15,185.306l1.139.629a.683.683,0,0,0-.265-.907A.635.635,0,0,0,406.15,185.306Z" transform="translate(-400.712 -184.679)" fill="#263238"/>
                  <path id="Trazado_197835" data-name="Trazado 197835" d="M403.343,196.112l-1.215.456a.638.638,0,0,0,.825.4A.679.679,0,0,0,403.343,196.112Z" transform="translate(-398.867 -189.797)" fill="#f28f8f"/>
                  <path id="Trazado_197836" data-name="Trazado 197836" d="M396.233,185.52l1.039-.8a.629.629,0,0,0-.9-.138A.689.689,0,0,0,396.233,185.52Z" transform="translate(-396.107 -184.449)" fill="#263238"/>
                  <path id="Trazado_197837" data-name="Trazado 197837" d="M396.93,188.571a.533.533,0,1,0,.533-.554A.542.542,0,0,0,396.93,188.571Z" transform="translate(-396.484 -186.085)" fill="#263238"/>
                  <path id="Trazado_197838" data-name="Trazado 197838" d="M400.376,188.108l-.175,3.2-1.672-.57Z" transform="translate(-397.217 -186.127)" fill="#f28f8f"/>
                </g>
                <g id="Grupo_87980" data-name="Grupo 87980" transform="translate(4.192 15.189)">
                  <path id="Trazado_197839" data-name="Trazado 197839" d="M400.871,209.421c.327.775.929,1.092,2.021,1.215a4.057,4.057,0,0,0,3.022-1.052l-1.359-1.352-1.722,1.3-.147-1.446Z" transform="translate(-400.19 -204.609)" fill="#27debf"/>
                  <path id="Trazado_197840" data-name="Trazado 197840" d="M400.871,209.421c.327.775.929,1.092,2.021,1.215a4.057,4.057,0,0,0,3.022-1.052l-1.359-1.352-1.722,1.3-.147-1.446Z" transform="translate(-400.19 -204.609)" opacity="0.1"/>
                  <g id="Grupo_87977" data-name="Grupo 87977" transform="translate(0 4.388)">
                    <path id="Trazado_197841" data-name="Trazado 197841" d="M402.284,209.771a3.618,3.618,0,0,0-.18,1.454,2.489,2.489,0,0,0,.485,1.211,1.335,1.335,0,0,0,1.175.128,3.206,3.206,0,0,0,1.117-2.431l-1.491.171Z" transform="translate(-400.747 -209.771)" fill="#27debf"/>
                    <path id="Trazado_197842" data-name="Trazado 197842" d="M401.456,214.693s-1.767,9.758-1.839,10.545,1.015,3.585,1.689,3.609,2-2.509,2.018-3.225-.693-10.8-.693-10.8Z" transform="translate(-399.614 -212.028)" fill="#27debf"/>
                    <path id="Trazado_197843" data-name="Trazado 197843" d="M404.167,214.821a1.182,1.182,0,0,1-1.175-.128l-.028.154a1.345,1.345,0,0,0,1.221.242Z" transform="translate(-401.15 -212.028)" opacity="0.1"/>
                  </g>
                  <g id="Grupo_87979" data-name="Grupo 87979" transform="translate(0.334)">
                    <g id="Grupo_87978" data-name="Grupo 87978">
                      <path id="Trazado_197844" data-name="Trazado 197844" d="M404.495,206.588l4.981-3.795.022-1.125s1.158.439,1.418,2.483a8.784,8.784,0,0,1-3.884,4.132l-1.046-1.866Z" transform="translate(-402.186 -201.668)" fill="#e0e0e0"/>
                      <path id="Trazado_197845" data-name="Trazado 197845" d="M402.233,202.623a2.484,2.484,0,0,0-1.607.988c-.5.822-.385,3.965-.385,3.965l1.192-1.082,1.106.532c-.106-1.048-.311-2.954-.311-2.954Z" transform="translate(-400.23 -202.106)" fill="#e0e0e0"/>
                    </g>
                  </g>
                </g>
              </g>
            </g>
          </g>
          <g id="Grupo_87984" data-name="Grupo 87984" transform="translate(0 42.552)">
            <path id="Trazado_197846" data-name="Trazado 197846" d="M368.038,263.02a4.311,4.311,0,0,0,.788-2.225c.138-1.025,2.946-2.123,3.035-1.36a2.253,2.253,0,0,1-.518,2.322C370.48,262.679,369.322,263.705,368.038,263.02Z" transform="translate(-366.284 -255.4)" fill="#ffa8a7"/>
            <path id="Trazado_197847" data-name="Trazado 197847" d="M366.678,253.206a24.244,24.244,0,0,0-1.44,3.119c-.354.566-.779,1.061,0,1.168s1.911-1.415,2.336-2.336a2.462,2.462,0,0,1,.725-.93,1.651,1.651,0,0,1,.407-.24c-.367-.123-.173-1.586-.432-1.787C368.274,252.2,366.952,252.739,366.678,253.206Z" transform="translate(-364.799 -252.199)" fill="#ffa8a7"/>
          </g>
        </g>
      </g>
    </g>
  </g>
</svg>
