<svg xmlns="http://www.w3.org/2000/svg" width="250" height="221.791" viewBox="0 0 250 221.791">
  <g id="Grupo_87913" data-name="Grupo 87913" transform="translate(-40.207 -287.591)">
    <g id="Grupo_87879" data-name="Grupo 87879" transform="translate(40.207 489.203)" style="mix-blend-mode: multiply;isolation: isolate">
      <path id="Trazado_197607" data-name="Trazado 197607" d="M67.066,367.232c-14.835,0-26.859,3.185-26.859,7.109s12.025,7.114,26.859,7.114,26.862-3.185,26.862-7.114S81.9,367.232,67.066,367.232Z" transform="translate(-40.207 -367.232)" fill="#9eafb9"/>
      <path id="Trazado_197608" data-name="Trazado 197608" d="M192.9,374.546c0-3.926-28.113-7.111-62.789-7.111s-62.792,3.185-62.792,7.111,28.112,7.109,62.792,7.109S192.9,378.472,192.9,374.546Z" transform="translate(1.314 -366.921)" fill="#9eafb9"/>
      <path id="Trazado_197609" data-name="Trazado 197609" d="M154.477,373.1c-1.851,0-3.635.04-5.339.111a104.319,104.319,0,0,0-13.232-.759c-11.258,0-20.381,1.418-20.381,3.162s9.124,3.164,20.381,3.164c1.848,0,3.63-.04,5.331-.114a104.364,104.364,0,0,0,13.24.762c11.255,0,20.379-1.415,20.379-3.162S165.733,373.1,154.477,373.1Z" transform="translate(75.144 -359.244)" fill="#9eafb9"/>
    </g>
    <g id="Grupo_87903" data-name="Grupo 87903" transform="translate(49.801 287.591)">
      <path id="Trazado_197610" data-name="Trazado 197610" d="M55.076,297.09s2.64-1.813,4.02-2.949c4-2.592,9.536-1.524,9.536-1.524s.084,1.633-4.177,3.767C60.473,298.381,55.076,297.09,55.076,297.09Z" transform="translate(-27.029 -280.228)" fill="#a65100"/>
      <g id="Grupo_87880" data-name="Grupo 87880" transform="translate(15.097 49.423)">
        <path id="Trazado_197611" data-name="Trazado 197611" d="M83.139,337.909s-23.705-4.2-25.239-6.271c-2.858-3.866-5.871-14.609-5.871-14.609l6.448-2.964,4.709,12.222,20.12,8.126Z" transform="translate(-46.793 -296.469)" fill="#f9ab78"/>
        <path id="Trazado_197612" data-name="Trazado 197612" d="M63.882,327.442c-1.9-7.3-5.468-17.123-5.992-18.47-1.957-5.01-8.724,1.337-7.853,4.689.451,1.739,2.521,8.26,4.729,16.148Z" transform="translate(-49.961 -307.114)" fill="#ad9bef"/>
        <path id="Trazado_197613" data-name="Trazado 197613" d="M70.675,329.762c-2.1-.565-6.357-4.015-6.357-4.015l.167-3.5s3.987-.552,5.638,0S72.776,330.329,70.675,329.762Z" transform="translate(-27.972 -284.307)" fill="#f9ab78"/>
      </g>
      <path id="Trazado_197614" data-name="Trazado 197614" d="M48.759,366.412c-.78,3.018-1.835,6.177,1.195,7.526a70.752,70.752,0,0,0,14.814,2.9c2.473.018,5.476.124,5.79-.942s-.476-3.4-1.9-3.587c-3.562-.456-7.071-1.18-9.86-5.028C57.832,365.946,48.438,365.349,48.759,366.412Z" transform="translate(-37.977 -167.711)" fill="#0e0000"/>
      <path id="Trazado_197615" data-name="Trazado 197615" d="M71.265,339.384s-21.806-24.715-25.74-9.025c-4.023,16.055,2.215,30.378,2.215,30.378l7.734,23.285c2.364,17.035-.965,44.757-.965,44.757L66.4,430.873l3.372-46.851Z" transform="translate(-43.727 -230.078)" fill="#352086"/>
      <path id="Trazado_197616" data-name="Trazado 197616" d="M45.41,367.437c-1,2.957-2.281,6.03.64,7.595,1.7.911,10.691,4.1,14.146,4.1,1.711,0,5.871.392,6.26-.648s-.225-3.428-1.628-3.714c-3.519-.714-6.967-1.694-9.47-5.734C54.49,367.637,45.164,366.353,45.41,367.437Z" transform="translate(-43.609 -165.926)" fill="#240c00"/>
      <path id="Trazado_197617" data-name="Trazado 197617" d="M63.692,353.735s9.521-9.134,7.941-21.763c-1.061-8.5-25.409-7.607-27.024-.306S46.2,362.479,46.2,362.479l3.886,25.257-5.483,42.679,12.65,2.987,7.6-46.443Z" transform="translate(-43.753 -228.934)" fill="#472ea6"/>
      <path id="Trazado_197618" data-name="Trazado 197618" d="M61.328,321.042c-3.288,0-12.311-7.835-12.311-7.835s1.772-5.5-1.445-10.283c-.327-.491,1.959-.372,4.663.094.21.045.443.068.653.117h.046c1.1.21,2.24.466,3.263.77h.048c2.286.63,4.035,1.445,3.686,2.215-.094.233-.21.466-.3.676a.179.179,0,0,0-.048.091c-1.139,2.5-2.167,4.549-1.213,5.691a2.467,2.467,0,0,0,1.005.63C60.49,313.418,64.617,321.042,61.328,321.042Z" transform="translate(-38.569 -264.592)" fill="#f9ab78"/>
      <path id="Trazado_197619" data-name="Trazado 197619" d="M57.043,305.871c-.094.233-.185.443-.256.676a.179.179,0,0,0-.048.091c-1.139,2.5-2.167,4.549-1.213,5.691a11.1,11.1,0,0,1-4.615-3.729,10.277,10.277,0,0,1-1.516-5.83c.21.046.443.068.653.116h.046c1.119.21,2.24.491,3.263.77H53.4C55.668,304.307,57.395,305.1,57.043,305.871Z" transform="translate(-35.729 -264.344)" fill="#da895f"/>
      <path id="Trazado_197620" data-name="Trazado 197620" d="M44.853,360.911l27.024.306s-1.147-15.447-.435-26.8c0-26.923-6.643-27.626-6.643-27.626s-.428,1.886-3.924,1.886c-4.663,0-6.43-1.886-6.43-1.886a29.561,29.561,0,0,0-7.557,3.957C41.929,314.633,44.853,360.911,44.853,360.911Z" transform="translate(-43.997 -258.18)" fill="#bbabf5"/>
      <path id="Trazado_197621" data-name="Trazado 197621" d="M71.113,323.6c0-3.731-.132-6.944-.352-9.736H58.167v30.315H44.211c.17,3.6,0,8.154,0,8.154l27.338-.868S70.4,334.947,71.113,323.6Z" transform="translate(-43.669 -247.357)" fill="#472ea6"/>
      <g id="Grupo_87884" data-name="Grupo 87884" transform="translate(1.527 0.977)">
        <path id="Trazado_197622" data-name="Trazado 197622" d="M71.013,314.367c-.521,12.222-5.359,14.533-10.941,14.533-4.972,0-13.344-2.392-13.344-15.556,0-13.511-2.764-23.528,10.189-23.528C73.57,289.816,71.586,300.871,71.013,314.367Z" transform="translate(-41.719 -285.161)" fill="#f9ab78"/>
        <g id="Grupo_87883" data-name="Grupo 87883" transform="translate(10.098 18.439)">
          <path id="Trazado_197623" data-name="Trazado 197623" d="M58.041,301.436a4.186,4.186,0,0,1-3.7,2.5c-2.094.147-3.314-2.569-3.314-2.569Z" transform="translate(-44.852 -285.907)" fill="#fff"/>
          <path id="Trazado_197624" data-name="Trazado 197624" d="M58.041,301.436c-.428,1.028-1.17,3.448-3.818,3.3-2.083-.122-2.954-2.306-3.195-3.364a3.836,3.836,0,0,0,3.509,2.575C56.6,303.975,58.041,301.436,58.041,301.436Z" transform="translate(-44.852 -285.907)" fill="#da895f"/>
          <path id="Trazado_197625" data-name="Trazado 197625" d="M54.805,300.462c0,.256-.673.7-1.883.7s-1.342-2.048-1.342-2.048a1.3,1.3,0,0,0,1.342,1.132C54.132,300.242,54.805,300.209,54.805,300.462Z" transform="translate(-44.008 -289.365)" fill="#cebdbc" style="mix-blend-mode: multiply;isolation: isolate"/>
          <g id="Grupo_87881" data-name="Grupo 87881" transform="translate(14.946 4.601)">
            <path id="Trazado_197626" data-name="Trazado 197626" d="M56.84,298.275a1.174,1.174,0,1,1-1.17-1.2A1.185,1.185,0,0,1,56.84,298.275Z" transform="translate(-54.493 -297.078)" fill="#181114"/>
            <path id="Trazado_197627" data-name="Trazado 197627" d="M55.751,297.645a.438.438,0,1,1-.438-.446A.44.44,0,0,1,55.751,297.645Z" transform="translate(-53.908 -296.893)" fill="#fff"/>
          </g>
          <path id="Trazado_197628" data-name="Trazado 197628" d="M58.913,299.43c0,.532-1.071.962-2.39.962s-2.392-.43-2.392-.962,1.071-.964,2.392-.964S58.913,298.9,58.913,299.43Z" transform="translate(-40.101 -290.352)" fill="#f2917b"/>
          <g id="Grupo_87882" data-name="Grupo 87882" transform="translate(1.516 4.601)">
            <path id="Trazado_197629" data-name="Trazado 197629" d="M49.188,298.275a1.175,1.175,0,1,0,1.175-1.2A1.188,1.188,0,0,0,49.188,298.275Z" transform="translate(-49.188 -297.078)" fill="#181114"/>
            <path id="Trazado_197630" data-name="Trazado 197630" d="M49.388,297.645a.438.438,0,1,0,.44-.446A.442.442,0,0,0,49.388,297.645Z" transform="translate(-48.882 -296.893)" fill="#fff"/>
          </g>
          <path id="Trazado_197631" data-name="Trazado 197631" d="M48.944,296.074a5.739,5.739,0,0,1,1.347-.61,4.148,4.148,0,0,1,1.534-.172,2.735,2.735,0,0,1,.714.185l.565.372c.352.205-.314.782-.471.759a3.851,3.851,0,0,0-.97-.165,4.891,4.891,0,0,0-1.19-.1,5.039,5.039,0,0,0-1.22.306C48.85,296.778,48.534,296.282,48.944,296.074Z" transform="translate(-48.339 -295.261)" fill="#181114"/>
          <path id="Trazado_197632" data-name="Trazado 197632" d="M58.255,296.074a5.693,5.693,0,0,0-1.347-.61,4.135,4.135,0,0,0-1.532-.172,2.727,2.727,0,0,0-.716.185c-.2.132-.387.256-.565.372-.352.205.316.782.471.759a3.852,3.852,0,0,1,.972-.165,4.868,4.868,0,0,1,1.19-.1,5.1,5.1,0,0,1,1.22.306C58.349,296.778,58.668,296.282,58.255,296.074Z" transform="translate(-40.309 -295.261)" fill="#181114"/>
          <path id="Trazado_197633" data-name="Trazado 197633" d="M48.589,299.43c0,.532,1.071.962,2.39.962s2.392-.43,2.392-.962-1.073-.964-2.392-.964S48.589,298.9,48.589,299.43Z" transform="translate(-48.589 -290.352)" fill="#f2917b"/>
        </g>
        <path id="Trazado_197634" data-name="Trazado 197634" d="M74.246,309.409s2.076-8.341.028-14.027-7.291-7.174-12-7.359c-4.734-.187-11.655.071-12.908,3.357-7.146-1.554-4.129,22.472-4.129,22.472a20.846,20.846,0,0,1,7.017-4.06c-3.326-8.686,6-9.475,15.06-8.944C73.894,301.234,74.246,309.409,74.246,309.409Z" transform="translate(-44.6 -287.977)" fill="#181114"/>
        <path id="Trazado_197635" data-name="Trazado 197635" d="M44.687,300.686c.018,2.114,1.848,5.731,4.868,4.878,2.187-.62,3.337-1.8,3.337-4.121s-2.261.23-3.114-1.919C48.5,296.324,44.659,297.554,44.687,300.686Z" transform="translate(-44.467 -273.166)" fill="#f9ab78"/>
        <path id="Trazado_197636" data-name="Trazado 197636" d="M49,305.7c-.59-1.273-1.992-3.514-4.129-.678-.3-2.931,1.3-5.377,1.615-7.567,1.205-8.362,1.357-.575,5.4,3.506-3.612,2.015-.542,6.157-.542,6.157L50.1,308.356A9.308,9.308,0,0,1,49,305.7Z" transform="translate(-44.241 -279.15)" fill="#181114"/>
      </g>
      <path id="Trazado_197637" data-name="Trazado 197637" d="M70.762,303.608c-8.962.286-26.368.134-26.368-.448,0-11.549,5.891-15.569,15.873-15.569,9.356,0,14.959,1.539,15.625,13.116C75.937,301.481,73.724,302.069,70.762,303.608Z" transform="translate(-43.389 -287.591)" fill="#fd8f25"/>
      <path id="Trazado_197638" data-name="Trazado 197638" d="M67.561,295.781c-3.825,2.964-11.65,3.033-14.356,2.547-3.8-.683-4.453-1.792-4.453-1.792s10.612-2.744,17.326-3.7c8.453-1.205,12.24-.041,12.24-.041S71.733,292.545,67.561,295.781Z" transform="translate(-36.714 -280.402)" fill="#fd8f25"/>
      <g id="Grupo_87900" data-name="Grupo 87900" transform="translate(29.047 76.206)">
        <g id="Grupo_87890" data-name="Grupo 87890" transform="translate(0 5.38)">
          <g id="Grupo_87885" data-name="Grupo 87885" transform="translate(130.943 113.789)">
            <path id="Trazado_197639" data-name="Trazado 197639" d="M121.017,372.631a7.864,7.864,0,0,1-7.863,7.863H110.5s-1.686-15.726,2.658-15.726A7.864,7.864,0,0,1,121.017,372.631Z" transform="translate(-102.635 -364.768)" fill="#171417"/>
            <path id="Trazado_197640" data-name="Trazado 197640" d="M122.919,372.631a7.862,7.862,0,1,1-7.863-7.863A7.863,7.863,0,0,1,122.919,372.631Z" transform="translate(-107.196 -364.768)" fill="#272228"/>
            <path id="Trazado_197641" data-name="Trazado 197641" d="M117.481,370.58a4.473,4.473,0,1,1-4.476-4.473A4.475,4.475,0,0,1,117.481,370.58Z" transform="translate(-105.145 -362.717)" fill="#979797"/>
            <path id="Trazado_197642" data-name="Trazado 197642" d="M113.631,373.819a4.472,4.472,0,0,1-4.471-4.473,4.418,4.418,0,0,1,1.043-2.838,4.455,4.455,0,1,0,6.235,6.3A4.43,4.43,0,0,1,113.631,373.819Z" transform="translate(-105.145 -362.103)" fill="#5d5c5c"/>
          </g>
          <g id="Grupo_87886" data-name="Grupo 87886" transform="translate(49.018 111.658)">
            <path id="Trazado_197643" data-name="Trazado 197643" d="M88.653,371.789a7.862,7.862,0,0,1-7.86,7.863H78.135s-1.686-15.726,2.658-15.726A7.86,7.86,0,0,1,88.653,371.789Z" transform="translate(-70.272 -363.926)" fill="#171417"/>
            <path id="Trazado_197644" data-name="Trazado 197644" d="M90.56,371.789a7.863,7.863,0,1,1-7.863-7.863A7.864,7.864,0,0,1,90.56,371.789Z" transform="translate(-74.834 -363.926)" fill="#272228"/>
            <path id="Trazado_197645" data-name="Trazado 197645" d="M85.119,369.738a4.473,4.473,0,1,1-4.473-4.473A4.472,4.472,0,0,1,85.119,369.738Z" transform="translate(-72.783 -361.875)" fill="#979797"/>
            <path id="Trazado_197646" data-name="Trazado 197646" d="M81.271,372.979a4.448,4.448,0,0,1-3.428-7.314,4.455,4.455,0,1,0,6.233,6.3A4.444,4.444,0,0,1,81.271,372.979Z" transform="translate(-72.783 -361.263)" fill="#5d5c5c"/>
          </g>
          <g id="Grupo_87887" data-name="Grupo 87887" transform="translate(39.828 113.789)">
            <path id="Trazado_197647" data-name="Trazado 197647" d="M85.023,372.631a7.864,7.864,0,0,1-7.863,7.863H74.5s-1.686-15.726,2.656-15.726A7.864,7.864,0,0,1,85.023,372.631Z" transform="translate(-66.642 -364.768)" fill="#171417"/>
            <path id="Trazado_197648" data-name="Trazado 197648" d="M86.927,372.631a7.862,7.862,0,1,1-7.86-7.863A7.862,7.862,0,0,1,86.927,372.631Z" transform="translate(-71.204 -364.768)" fill="#272228"/>
            <path id="Trazado_197649" data-name="Trazado 197649" d="M81.487,370.58a4.472,4.472,0,1,1-4.471-4.473A4.472,4.472,0,0,1,81.487,370.58Z" transform="translate(-69.153 -362.717)" fill="#979797"/>
            <path id="Trazado_197650" data-name="Trazado 197650" d="M77.641,373.819a4.473,4.473,0,0,1-4.473-4.473,4.418,4.418,0,0,1,1.043-2.838,4.455,4.455,0,1,0,6.235,6.3A4.434,4.434,0,0,1,77.641,373.819Z" transform="translate(-69.153 -362.103)" fill="#5d5c5c"/>
          </g>
          <g id="Grupo_87888" data-name="Grupo 87888" transform="translate(121.751 113.789)">
            <path id="Trazado_197651" data-name="Trazado 197651" d="M117.387,372.631a7.864,7.864,0,0,1-7.863,7.863h-2.658s-1.686-15.726,2.658-15.726A7.864,7.864,0,0,1,117.387,372.631Z" transform="translate(-99.003 -364.768)" fill="#171417"/>
            <path id="Trazado_197652" data-name="Trazado 197652" d="M119.288,372.631a7.862,7.862,0,1,1-7.86-7.863A7.862,7.862,0,0,1,119.288,372.631Z" transform="translate(-103.565 -364.768)" fill="#272228"/>
            <path id="Trazado_197653" data-name="Trazado 197653" d="M113.85,370.58a4.473,4.473,0,1,1-4.473-4.473A4.474,4.474,0,0,1,113.85,370.58Z" transform="translate(-101.514 -362.717)" fill="#979797"/>
            <path id="Trazado_197654" data-name="Trazado 197654" d="M110,373.819a4.473,4.473,0,0,1-4.473-4.473,4.42,4.42,0,0,1,1.046-2.838,4.454,4.454,0,1,0,6.233,6.3A4.429,4.429,0,0,1,110,373.819Z" transform="translate(-101.514 -362.103)" fill="#5d5c5c"/>
          </g>
          <path id="Trazado_197655" data-name="Trazado 197655" d="M76.38,347.117s26.837,1.456,26.837,13.458v25.54H80.889Z" transform="translate(-23.449 -278.012)" fill="#c63500"/>
          <g id="Grupo_87889" data-name="Grupo 87889">
            <path id="Trazado_197656" data-name="Trazado 197656" d="M72.2,322.391s9.05,10.706,10.47,12.465c4.828,5.979,6.319,12.779,1.721,16.49s-10.931.818-15.756-5.159c-1.42-1.762-9.974-12.868-9.974-12.868l-3.187,2.572,10.222,12.663c6.531,8.091,15.559,11.632,21.779,6.61s4.663-14.592-1.866-22.68c-1.385-1.716-10.227-12.665-10.227-12.665Z" transform="translate(-55.471 -319.819)" fill="#353e44"/>
            <path id="Trazado_197657" data-name="Trazado 197657" d="M74.036,321.692a1.732,1.732,0,0,1,.056,2.407L59.513,335.871a1.731,1.731,0,0,1-2.342-.564h0a1.729,1.729,0,0,1-.058-2.4l14.582-11.774a1.734,1.734,0,0,1,2.342.565Z" transform="translate(-53.655 -318.217)" fill="#353e44"/>
          </g>
          <path id="Trazado_197658" data-name="Trazado 197658" d="M84.054,370.964,66.909,333.286l3.637-1.553L87.693,369.41Z" transform="translate(-37.953 -301.571)" fill="#353e44"/>
          <path id="Trazado_197659" data-name="Trazado 197659" d="M81.82,347.117s-8.992,1.228-8.992,11.354v21.553h9Z" transform="translate(-28.888 -278.012)" fill="#353e44"/>
          <path id="Trazado_197660" data-name="Trazado 197660" d="M76.394,347.117s8.992,1.456,8.992,13.458v25.54h-9Z" transform="translate(-23.442 -278.012)" fill="#e74e00"/>
          <path id="Trazado_197661" data-name="Trazado 197661" d="M81.83,349.953a4.5,4.5,0,1,1-4.5-4.5A4.5,4.5,0,0,1,81.83,349.953Z" transform="translate(-28.888 -280.562)" fill="#2c3337"/>
          <path id="Trazado_197662" data-name="Trazado 197662" d="M78.181,348.578a2.228,2.228,0,1,1-2.228-2.228A2.228,2.228,0,0,1,78.181,348.578Z" transform="translate(-27.513 -279.186)" fill="#1e2426"/>
          <path id="Trazado_197663" data-name="Trazado 197663" d="M75.277,335.466a4.5,4.5,0,1,1-4.5-4.5A4.5,4.5,0,0,1,75.277,335.466Z" transform="translate(-38.929 -302.749)" fill="#2c3337"/>
          <path id="Trazado_197664" data-name="Trazado 197664" d="M71.625,334.091a2.228,2.228,0,1,1-2.225-2.228A2.226,2.226,0,0,1,71.625,334.091Z" transform="translate(-37.554 -301.373)" fill="#1e2426"/>
          <rect id="Rectángulo_36983" data-name="Rectángulo 36983" width="13.911" height="7.91" transform="translate(39.03 99.285)" fill="#353e44"/>
          <rect id="Rectángulo_36984" data-name="Rectángulo 36984" width="113.514" height="7.91" transform="translate(35.823 107.194)" fill="#e74e00"/>
        </g>
        <g id="Grupo_87899" data-name="Grupo 87899" transform="translate(67.4)">
          <g id="Grupo_87891" data-name="Grupo 87891">
            <rect id="Rectángulo_36985" data-name="Rectángulo 36985" width="14.072" height="28.143" transform="translate(25.955)" fill="#ce6a2b"/>
            <rect id="Rectángulo_36986" data-name="Rectángulo 36986" width="4.429" height="8.443" transform="translate(30.335)" fill="#e8d6c7" style="mix-blend-mode: multiply;isolation: isolate"/>
            <rect id="Rectángulo_36987" data-name="Rectángulo 36987" width="25.955" height="28.143" fill="#f7933e"/>
            <path id="Trazado_197665" data-name="Trazado 197665" d="M82.5,344.068V318.129h23.92Z" transform="translate(-81.479 -317.027)" fill="#fdd3bc" opacity="0.5" style="mix-blend-mode: soft-light;isolation: isolate"/>
            <rect id="Rectángulo_36988" data-name="Rectángulo 36988" width="4.274" height="8.131" transform="translate(30.854)" fill="#e8e8e8"/>
            <rect id="Rectángulo_36989" data-name="Rectángulo 36989" width="9.577" height="1.336" transform="translate(14.509 19.372)" fill="#5d3314"/>
            <rect id="Rectángulo_36990" data-name="Rectángulo 36990" width="6.484" height="1.334" transform="translate(17.602 21.91)" fill="#5d3314"/>
            <rect id="Rectángulo_36991" data-name="Rectángulo 36991" width="2.294" height="2.067" transform="translate(21.472 24.044)" fill="none" stroke="#5d3314" stroke-linecap="round" stroke-linejoin="round" stroke-width="0.247"/>
            <rect id="Rectángulo_36992" data-name="Rectángulo 36992" width="2.296" height="2.067" transform="translate(17.948 24.044)" fill="none" stroke="#5d3314" stroke-linecap="round" stroke-linejoin="round" stroke-width="0.247"/>
          </g>
          <g id="Grupo_87892" data-name="Grupo 87892" transform="translate(40.027)">
            <rect id="Rectángulo_36993" data-name="Rectángulo 36993" width="14.07" height="28.143" transform="translate(25.955)" fill="#ce6a2b"/>
            <rect id="Rectángulo_36994" data-name="Rectángulo 36994" width="4.429" height="8.443" transform="translate(30.334)" fill="#e8d6c7" style="mix-blend-mode: multiply;isolation: isolate"/>
            <rect id="Rectángulo_36995" data-name="Rectángulo 36995" width="25.955" height="28.143" fill="#f7933e"/>
            <path id="Trazado_197666" data-name="Trazado 197666" d="M98.309,344.068V318.129h23.92Z" transform="translate(-97.291 -317.027)" fill="#fdd3bc" opacity="0.5" style="mix-blend-mode: soft-light;isolation: isolate"/>
            <rect id="Rectángulo_36996" data-name="Rectángulo 36996" width="4.277" height="8.131" transform="translate(30.853)" fill="#e8e8e8"/>
            <rect id="Rectángulo_36997" data-name="Rectángulo 36997" width="9.578" height="1.336" transform="translate(14.508 19.372)" fill="#5d3314"/>
            <rect id="Rectángulo_36998" data-name="Rectángulo 36998" width="6.485" height="1.334" transform="translate(17.602 21.91)" fill="#5d3314"/>
            <rect id="Rectángulo_36999" data-name="Rectángulo 36999" width="2.294" height="2.067" transform="translate(21.473 24.044)" fill="none" stroke="#5d3314" stroke-linecap="round" stroke-linejoin="round" stroke-width="0.247"/>
            <rect id="Rectángulo_37000" data-name="Rectángulo 37000" width="2.292" height="2.067" transform="translate(17.949 24.044)" fill="none" stroke="#5d3314" stroke-linecap="round" stroke-linejoin="round" stroke-width="0.247"/>
          </g>
          <g id="Grupo_87893" data-name="Grupo 87893" transform="translate(0 56.289)">
            <rect id="Rectángulo_37001" data-name="Rectángulo 37001" width="14.072" height="28.141" transform="translate(25.955)" fill="#ce6a2b"/>
            <rect id="Rectángulo_37002" data-name="Rectángulo 37002" width="4.429" height="8.44" transform="translate(30.335)" fill="#e8d6c7" style="mix-blend-mode: multiply;isolation: isolate"/>
            <rect id="Rectángulo_37003" data-name="Rectángulo 37003" width="25.955" height="28.141" fill="#f7933e"/>
            <path id="Trazado_197667" data-name="Trazado 197667" d="M82.5,366.3V340.364h23.92Z" transform="translate(-81.479 -339.263)" fill="#fdd3bc" opacity="0.5" style="mix-blend-mode: soft-light;isolation: isolate"/>
            <rect id="Rectángulo_37004" data-name="Rectángulo 37004" width="4.274" height="8.129" transform="translate(30.854)" fill="#e8e8e8"/>
            <rect id="Rectángulo_37005" data-name="Rectángulo 37005" width="9.577" height="1.336" transform="translate(14.509 19.372)" fill="#5d3314"/>
            <rect id="Rectángulo_37006" data-name="Rectángulo 37006" width="6.484" height="1.331" transform="translate(17.602 21.91)" fill="#5d3314"/>
            <rect id="Rectángulo_37007" data-name="Rectángulo 37007" width="2.294" height="2.068" transform="translate(21.472 24.043)" fill="none" stroke="#5d3314" stroke-linecap="round" stroke-linejoin="round" stroke-width="0.247"/>
            <rect id="Rectángulo_37008" data-name="Rectángulo 37008" width="2.296" height="2.068" transform="translate(17.948 24.043)" fill="none" stroke="#5d3314" stroke-linecap="round" stroke-linejoin="round" stroke-width="0.247"/>
          </g>
          <g id="Grupo_87894" data-name="Grupo 87894" transform="translate(40.027 56.289)">
            <rect id="Rectángulo_37009" data-name="Rectángulo 37009" width="14.07" height="28.141" transform="translate(25.955)" fill="#ce6a2b"/>
            <rect id="Rectángulo_37010" data-name="Rectángulo 37010" width="4.429" height="8.44" transform="translate(30.334)" fill="#e8d6c7" style="mix-blend-mode: multiply;isolation: isolate"/>
            <rect id="Rectángulo_37011" data-name="Rectángulo 37011" width="25.955" height="28.141" fill="#f7933e"/>
            <path id="Trazado_197668" data-name="Trazado 197668" d="M98.309,366.3V340.364h23.92Z" transform="translate(-97.291 -339.263)" fill="#fdd3bc" opacity="0.5" style="mix-blend-mode: soft-light;isolation: isolate"/>
            <rect id="Rectángulo_37012" data-name="Rectángulo 37012" width="4.277" height="8.129" transform="translate(30.853)" fill="#e8e8e8"/>
            <rect id="Rectángulo_37013" data-name="Rectángulo 37013" width="9.578" height="1.336" transform="translate(14.508 19.372)" fill="#5d3314"/>
            <rect id="Rectángulo_37014" data-name="Rectángulo 37014" width="6.485" height="1.331" transform="translate(17.602 21.91)" fill="#5d3314"/>
            <rect id="Rectángulo_37015" data-name="Rectángulo 37015" width="2.294" height="2.068" transform="translate(21.473 24.043)" fill="none" stroke="#5d3314" stroke-linecap="round" stroke-linejoin="round" stroke-width="0.247"/>
            <rect id="Rectángulo_37016" data-name="Rectángulo 37016" width="2.292" height="2.068" transform="translate(17.949 24.043)" fill="none" stroke="#5d3314" stroke-linecap="round" stroke-linejoin="round" stroke-width="0.247"/>
          </g>
          <g id="Grupo_87895" data-name="Grupo 87895" transform="translate(0 28.143)">
            <rect id="Rectángulo_37017" data-name="Rectángulo 37017" width="14.072" height="28.146" transform="translate(25.955)" fill="#c25d25"/>
            <rect id="Rectángulo_37018" data-name="Rectángulo 37018" width="4.429" height="8.444" transform="translate(30.335)" fill="#e8d6c7" style="mix-blend-mode: multiply;isolation: isolate"/>
            <rect id="Rectángulo_37019" data-name="Rectángulo 37019" width="25.955" height="28.146" fill="#e58334"/>
            <path id="Trazado_197669" data-name="Trazado 197669" d="M82.5,355.183V329.248h23.92Z" transform="translate(-81.479 -328.143)" fill="#fdd3bc" opacity="0.5" style="mix-blend-mode: soft-light;isolation: isolate"/>
            <rect id="Rectángulo_37020" data-name="Rectángulo 37020" width="4.274" height="8.131" transform="translate(30.854)" fill="#e8e8e8"/>
            <rect id="Rectángulo_37021" data-name="Rectángulo 37021" width="9.577" height="1.334" transform="translate(14.509 19.374)" fill="#5d3314"/>
            <rect id="Rectángulo_37022" data-name="Rectángulo 37022" width="6.484" height="1.332" transform="translate(17.602 21.911)" fill="#5d3314"/>
            <rect id="Rectángulo_37023" data-name="Rectángulo 37023" width="2.294" height="2.064" transform="translate(21.472 24.047)" fill="none" stroke="#5d3314" stroke-linecap="round" stroke-linejoin="round" stroke-width="0.247"/>
            <rect id="Rectángulo_37024" data-name="Rectángulo 37024" width="2.296" height="2.064" transform="translate(17.948 24.047)" fill="none" stroke="#5d3314" stroke-linecap="round" stroke-linejoin="round" stroke-width="0.247"/>
          </g>
          <g id="Grupo_87896" data-name="Grupo 87896" transform="translate(40.027 28.143)">
            <rect id="Rectángulo_37025" data-name="Rectángulo 37025" width="14.07" height="28.146" transform="translate(25.955)" fill="#c25d25"/>
            <rect id="Rectángulo_37026" data-name="Rectángulo 37026" width="4.429" height="8.444" transform="translate(30.334)" fill="#e8d6c7" style="mix-blend-mode: multiply;isolation: isolate"/>
            <rect id="Rectángulo_37027" data-name="Rectángulo 37027" width="25.955" height="28.146" fill="#e58334"/>
            <path id="Trazado_197670" data-name="Trazado 197670" d="M98.309,355.183V329.248h23.92Z" transform="translate(-97.291 -328.143)" fill="#fdd3bc" opacity="0.5" style="mix-blend-mode: soft-light;isolation: isolate"/>
            <rect id="Rectángulo_37028" data-name="Rectángulo 37028" width="4.277" height="8.131" transform="translate(30.853)" fill="#e8e8e8"/>
            <rect id="Rectángulo_37029" data-name="Rectángulo 37029" width="9.578" height="1.334" transform="translate(14.508 19.374)" fill="#5d3314"/>
            <rect id="Rectángulo_37030" data-name="Rectángulo 37030" width="6.485" height="1.332" transform="translate(17.602 21.911)" fill="#5d3314"/>
            <rect id="Rectángulo_37031" data-name="Rectángulo 37031" width="2.294" height="2.064" transform="translate(21.473 24.047)" fill="none" stroke="#5d3314" stroke-linecap="round" stroke-linejoin="round" stroke-width="0.247"/>
            <rect id="Rectángulo_37032" data-name="Rectángulo 37032" width="2.292" height="2.064" transform="translate(17.949 24.047)" fill="none" stroke="#5d3314" stroke-linecap="round" stroke-linejoin="round" stroke-width="0.247"/>
          </g>
          <g id="Grupo_87897" data-name="Grupo 87897" transform="translate(0 84.43)">
            <rect id="Rectángulo_37033" data-name="Rectángulo 37033" width="14.072" height="28.144" transform="translate(25.955)" fill="#c25d25"/>
            <rect id="Rectángulo_37034" data-name="Rectángulo 37034" width="4.429" height="8.445" transform="translate(30.335)" fill="#e8d6c7" style="mix-blend-mode: multiply;isolation: isolate"/>
            <rect id="Rectángulo_37035" data-name="Rectángulo 37035" width="25.955" height="28.144" fill="#e58334"/>
            <path id="Trazado_197671" data-name="Trazado 197671" d="M82.5,377.419V351.481h23.92Z" transform="translate(-81.479 -350.378)" fill="#fdd3bc" opacity="0.5" style="mix-blend-mode: soft-light;isolation: isolate"/>
            <rect id="Rectángulo_37036" data-name="Rectángulo 37036" width="4.274" height="8.13" transform="translate(30.854)" fill="#e8e8e8"/>
            <rect id="Rectángulo_37037" data-name="Rectángulo 37037" width="9.577" height="1.334" transform="translate(14.509 19.376)" fill="#5d3314"/>
            <rect id="Rectángulo_37038" data-name="Rectángulo 37038" width="6.484" height="1.335" transform="translate(17.602 21.911)" fill="#5d3314"/>
            <rect id="Rectángulo_37039" data-name="Rectángulo 37039" width="2.294" height="2.064" transform="translate(21.472 24.047)" fill="none" stroke="#5d3314" stroke-linecap="round" stroke-linejoin="round" stroke-width="0.247"/>
            <rect id="Rectángulo_37040" data-name="Rectángulo 37040" width="2.296" height="2.064" transform="translate(17.948 24.047)" fill="none" stroke="#5d3314" stroke-linecap="round" stroke-linejoin="round" stroke-width="0.247"/>
          </g>
          <g id="Grupo_87898" data-name="Grupo 87898" transform="translate(40.027 84.43)">
            <rect id="Rectángulo_37041" data-name="Rectángulo 37041" width="14.07" height="28.144" transform="translate(25.955)" fill="#c25d25"/>
            <rect id="Rectángulo_37042" data-name="Rectángulo 37042" width="4.429" height="8.445" transform="translate(30.334)" fill="#e8d6c7" style="mix-blend-mode: multiply;isolation: isolate"/>
            <rect id="Rectángulo_37043" data-name="Rectángulo 37043" width="25.955" height="28.144" fill="#e58334"/>
            <path id="Trazado_197672" data-name="Trazado 197672" d="M98.309,377.419V351.481h23.92Z" transform="translate(-97.291 -350.378)" fill="#fdd3bc" opacity="0.5" style="mix-blend-mode: soft-light;isolation: isolate"/>
            <rect id="Rectángulo_37044" data-name="Rectángulo 37044" width="4.277" height="8.13" transform="translate(30.853)" fill="#e8e8e8"/>
            <rect id="Rectángulo_37045" data-name="Rectángulo 37045" width="9.578" height="1.334" transform="translate(14.508 19.376)" fill="#5d3314"/>
            <rect id="Rectángulo_37046" data-name="Rectángulo 37046" width="6.485" height="1.335" transform="translate(17.602 21.911)" fill="#5d3314"/>
            <rect id="Rectángulo_37047" data-name="Rectángulo 37047" width="2.294" height="2.064" transform="translate(21.473 24.047)" fill="none" stroke="#5d3314" stroke-linecap="round" stroke-linejoin="round" stroke-width="0.247"/>
            <rect id="Rectángulo_37048" data-name="Rectángulo 37048" width="2.292" height="2.064" transform="translate(17.949 24.047)" fill="none" stroke="#5d3314" stroke-linecap="round" stroke-linejoin="round" stroke-width="0.247"/>
          </g>
        </g>
      </g>
      <path id="Trazado_197673" data-name="Trazado 197673" d="M76.306,342.22s-26.138-5.858-27.1-8.253c-1.795-4.461-3.9-17.64-3.9-17.64l7.653-1.311,2.7,15.1,24.411,8.794Z" transform="translate(-41.986 -245.589)" fill="#f9ab78"/>
      <path id="Trazado_197674" data-name="Trazado 197674" d="M55.46,329.339c0-7.549-1.932-17.427-2.1-18.865-.63-5.341-8.777-.9-8.777,2.559,0,1.8,1.4,8.425,1.552,16.617Z" transform="translate(-43.101 -256.342)" fill="#ad9bef"/>
      <g id="Grupo_87901" data-name="Grupo 87901" transform="translate(50.933 87.032)">
        <path id="Trazado_197675" data-name="Trazado 197675" d="M66.42,326.569c-.9.6-1.557-.671-.886-1.215.833-.681,2.19-1.85,3.362-2.678.944-.671,1.977.919,1.051,1.577S67.463,325.868,66.42,326.569Z" transform="translate(-62.365 -321.138)" fill="#f9ab78"/>
        <path id="Trazado_197676" data-name="Trazado 197676" d="M66.909,326.877c-.81.537-1.489-.714-.883-1.215.752-.623,1.97-1.694,3.028-2.443.856-.607,1.9.977,1.056,1.572S67.856,326.249,66.909,326.877Z" transform="translate(-61.548 -320.268)" fill="#f9ab78"/>
        <path id="Trazado_197677" data-name="Trazado 197677" d="M67.274,326.989c-.719.478-1.3-.6-.759-1.041.666-.549,1.747-1.494,2.686-2.157.759-.539,1.648.823.906,1.347S68.112,326.432,67.274,326.989Z" transform="translate(-60.766 -319.371)" fill="#f9ab78"/>
        <path id="Trazado_197678" data-name="Trazado 197678" d="M66.121,325.761c-.81.539-1.489-.714-.883-1.215.752-.62,1.967-1.691,3.028-2.44.858-.6,1.9.977,1.056,1.57S67.068,325.131,66.121,325.761Z" transform="translate(-62.754 -321.97)" fill="#f9ab78"/>
        <path id="Trazado_197679" data-name="Trazado 197679" d="M67.113,323.254c.661-.066.744,1.352.23,1.486a24.655,24.655,0,0,1-2.572.615c-.7.1-.927-1.782-.238-1.881S66.349,323.33,67.113,323.254Z" transform="translate(-64.116 -320.008)" fill="#f9ab78"/>
      </g>
      <g id="Grupo_87902" data-name="Grupo 87902" transform="translate(33.357 92.923)">
        <path id="Trazado_197680" data-name="Trazado 197680" d="M61.933,328.709c.656.853-.562,1.6-1.152.967-.737-.787-1.995-2.061-2.9-3.172-.732-.9.785-2.035,1.5-1.154S61.166,327.717,61.933,328.709Z" transform="translate(-56.385 -323.172)" fill="#f9ab78"/>
        <path id="Trazado_197681" data-name="Trazado 197681" d="M62.187,327.948c.595.775-.61,1.532-1.149.962-.671-.706-1.823-1.848-2.643-2.853-.663-.813.848-1.959,1.5-1.159S61.5,327.047,62.187,327.948Z" transform="translate(-55.555 -323.793)" fill="#f9ab78"/>
        <path id="Trazado_197682" data-name="Trazado 197682" d="M62.262,327.24c.524.686-.511,1.334-.987.825-.592-.625-1.608-1.638-2.334-2.529-.587-.721.709-1.7,1.283-1S61.646,326.44,62.262,327.24Z" transform="translate(-54.696 -324.298)" fill="#f9ab78"/>
        <path id="Trazado_197683" data-name="Trazado 197683" d="M61.132,328.81c.595.775-.61,1.534-1.149.967-.673-.709-1.823-1.851-2.645-2.858-.661-.815.851-1.957,1.5-1.162S60.441,327.909,61.132,328.81Z" transform="translate(-57.173 -322.475)" fill="#f9ab78"/>
        <path id="Trazado_197684" data-name="Trazado 197684" d="M58.389,327.157c-.109-.656,1.3-.833,1.466-.332a13.757,13.757,0,0,1,.633,1.914c.149.7-1.7.975-1.848.294S58.515,327.914,58.389,327.157Z" transform="translate(-55.321 -320.868)" fill="#f9ab78"/>
      </g>
      <path id="Trazado_197685" data-name="Trazado 197685" d="M57.706,325.664c.147,1.164-1.921,3.207-1.752,1.02-4.276-20.862-9.473-18.414-9.473-18.414l2.683-1.251S56.124,309.923,57.706,325.664Z" transform="translate(-40.192 -257.837)" fill="#472ea6"/>
      <path id="Trazado_197686" data-name="Trazado 197686" d="M58.378,324.809c.149,1.164-1.919,3.207-1.749,1.02-1.937-16.845-4.415-19.034-4.415-19.034S56.8,309.071,58.378,324.809Z" transform="translate(-31.412 -258.18)" fill="#472ea6"/>
    </g>
    <g id="Grupo_87912" data-name="Grupo 87912" transform="translate(213.56 301.555)">
      <path id="Trazado_197687" data-name="Trazado 197687" d="M129.941,302.6s-2.64-1.813-4.017-2.949c-4-2.59-9.539-1.524-9.539-1.524s-.081,1.635,4.177,3.767C124.547,303.9,129.941,302.6,129.941,302.6Z" transform="translate(-96.892 -285.745)" fill="#a65100"/>
      <g id="Grupo_87904" data-name="Grupo 87904" transform="translate(3.201 49.422)">
        <path id="Trazado_197688" data-name="Trazado 197688" d="M112.6,343.42s23.705-4.195,25.239-6.268c2.858-3.866,5.871-14.609,5.871-14.609l-6.445-2.962-4.709,12.22-20.123,8.126Z" transform="translate(-106.147 -301.984)" fill="#f9ab78"/>
        <path id="Trazado_197689" data-name="Trazado 197689" d="M121.356,332.956c1.9-7.306,5.471-17.123,5.995-18.467,1.954-5.012,8.721,1.337,7.85,4.683-.451,1.739-2.521,8.263-4.729,16.154Z" transform="translate(-92.48 -312.63)" fill="#ad9bef"/>
        <path id="Trazado_197690" data-name="Trazado 197690" d="M113.475,334.857c2.1-.57,2.926-3.742,2.926-3.742l-.167-3.493s-5.2-.175-6.159,1.291C109.43,329.9,111.376,335.424,113.475,334.857Z" transform="translate(-109.949 -289.679)" fill="#f9ab78"/>
      </g>
      <path id="Trazado_197691" data-name="Trazado 197691" d="M139.085,370.48c.663,3.048,1.592,6.245-1.486,7.476a70.721,70.721,0,0,1-14.916,2.324c-2.471-.079-5.476-.089-5.749-1.167s.608-3.382,2.035-3.509c3.575-.319,7.111-.906,10.048-4.643C130.037,369.665,139.447,369.43,139.085,370.48Z" transform="translate(-96.127 -175.619)" fill="#0e0000"/>
      <path id="Trazado_197692" data-name="Trazado 197692" d="M124.474,344.9s21.857-24.725,25.738-9.022c2.942,11.885-12.412,20.632-12.412,20.632l-4.947,31.771,1.018,42.178-11.559.628-2.023-43.972Z" transform="translate(-90.913 -235.598)" fill="#352086"/>
      <path id="Trazado_197693" data-name="Trazado 197693" d="M148.7,371.714c.42,3.091,1.094,6.352-2.073,7.336-1.84.569-11.273,1.995-14.665,1.337-1.678-.321-5.84-.727-6.025-1.825s.873-3.324,2.3-3.339c3.59-.03,7.162-.337,10.387-3.83C139.748,370.185,149.15,370.7,148.7,371.714Z" transform="translate(-82.293 -174.286)" fill="#240c00"/>
      <path id="Trazado_197694" data-name="Trazado 197694" d="M129.854,359.25s-9.521-9.134-7.941-21.763c1.063-8.5,25.411-7.607,27.024-.306s-2.468,22.265-2.468,22.265l1.9,32.133,6.736,40.3h-12.08l-6.8-37.58Z" transform="translate(-88.697 -234.452)" fill="#472ea6"/>
      <path id="Trazado_197695" data-name="Trazado 197695" d="M124.583,326.559c3.288,0,12.311-7.838,12.311-7.838s-1.77-5.5,1.448-10.283c.327-.488-1.959-.372-4.666.094-.21.048-.44.071-.651.119h-.048c-1.1.208-2.238.463-3.266.767h-.046c-2.283.63-4.033,1.445-3.683,2.215.091.233.208.468.3.676a.185.185,0,0,1,.048.094c1.142,2.5,2.167,4.549,1.213,5.688a2.5,2.5,0,0,1-1,.63C125.424,318.932,121.295,326.559,124.583,326.559Z" transform="translate(-86.246 -270.109)" fill="#f9ab78"/>
      <path id="Trazado_197696" data-name="Trazado 197696" d="M124.427,311.386c.094.233.187.443.256.676a.184.184,0,0,1,.048.094c1.142,2.5,2.167,4.549,1.213,5.688a11.057,11.057,0,0,0,4.618-3.731,10.247,10.247,0,0,0,1.514-5.828c-.21.048-.44.071-.651.119h-.048c-1.119.208-2.238.489-3.266.767h-.046C125.8,309.824,124.078,310.616,124.427,311.386Z" transform="translate(-84.645 -269.862)" fill="#da895f"/>
      <path id="Trazado_197697" data-name="Trazado 197697" d="M148.83,366.426l-27.024.306s1.147-15.447.438-26.8c0-26.923,6.643-27.626,6.643-27.626s.425,1.886,3.921,1.886c4.666,0,6.43-1.886,6.43-1.886a29.519,29.519,0,0,1,7.557,3.959C151.756,320.148,148.83,366.426,148.83,366.426Z" transform="translate(-88.59 -263.697)" fill="#bbabf5"/>
      <path id="Trazado_197698" data-name="Trazado 197698" d="M122.244,329.112c0-3.734.129-6.944.349-9.734h12.594V349.69h13.956c-.17,3.6,0,8.154,0,8.154l-27.338-.868S122.953,340.46,122.244,329.112Z" transform="translate(-88.59 -252.873)" fill="#472ea6"/>
      <g id="Grupo_87908" data-name="Grupo 87908" transform="translate(28.992 0.975)">
        <path id="Trazado_197699" data-name="Trazado 197699" d="M120.876,319.883c.519,12.22,5.357,14.533,10.939,14.533,4.974,0,13.344-2.392,13.344-15.559,0-13.511,2.764-23.525-10.187-23.525C118.317,295.332,120.3,306.385,120.876,319.883Z" transform="translate(-119.591 -290.674)" fill="#f9ab78"/>
        <g id="Grupo_87907" data-name="Grupo 87907" transform="translate(1.668 18.439)">
          <path id="Trazado_197700" data-name="Trazado 197700" d="M123.018,306.954a4.19,4.19,0,0,0,3.7,2.5c2.091.147,3.311-2.572,3.311-2.572Z" transform="translate(-117.393 -291.422)" fill="#fff"/>
          <path id="Trazado_197701" data-name="Trazado 197701" d="M123.018,306.954c.425,1.025,1.167,3.445,3.815,3.293,2.083-.122,2.954-2.306,3.195-3.364a3.832,3.832,0,0,1-3.506,2.577C124.463,309.49,123.018,306.954,123.018,306.954Z" transform="translate(-117.393 -291.422)" fill="#da895f"/>
          <path id="Trazado_197702" data-name="Trazado 197702" d="M123.963,305.979c0,.251.673.691,1.883.691s1.342-2.046,1.342-2.046a1.3,1.3,0,0,1-1.342,1.129C124.636,305.754,123.963,305.726,123.963,305.979Z" transform="translate(-115.946 -294.881)" fill="#cebdbc" style="mix-blend-mode: multiply;isolation: isolate"/>
          <g id="Grupo_87905" data-name="Grupo 87905" transform="translate(1.519 4.6)">
            <path id="Trazado_197703" data-name="Trazado 197703" d="M121.4,303.793a1.174,1.174,0,1,0,1.172-1.2A1.185,1.185,0,0,0,121.4,303.793Z" transform="translate(-121.396 -302.593)" fill="#181114"/>
            <path id="Trazado_197704" data-name="Trazado 197704" d="M121.595,303.162a.439.439,0,1,0,.438-.448A.443.443,0,0,0,121.595,303.162Z" transform="translate(-121.091 -302.408)" fill="#fff"/>
          </g>
          <path id="Trazado_197705" data-name="Trazado 197705" d="M120.8,304.946c0,.532,1.071.965,2.39.965s2.392-.433,2.392-.965-1.071-.965-2.392-.965S120.8,304.411,120.8,304.946Z" transform="translate(-120.796 -295.867)" fill="#f2917b"/>
          <g id="Grupo_87906" data-name="Grupo 87906" transform="translate(14.949 4.6)">
            <path id="Trazado_197706" data-name="Trazado 197706" d="M129.048,303.793a1.174,1.174,0,1,1-1.175-1.2A1.185,1.185,0,0,1,129.048,303.793Z" transform="translate(-126.701 -302.593)" fill="#181114"/>
            <path id="Trazado_197707" data-name="Trazado 197707" d="M127.956,303.162a.437.437,0,1,1-.438-.448A.443.443,0,0,1,127.956,303.162Z" transform="translate(-126.116 -302.408)" fill="#fff"/>
          </g>
          <path id="Trazado_197708" data-name="Trazado 197708" d="M130.565,301.586a5.668,5.668,0,0,0-1.344-.605,4.158,4.158,0,0,0-1.534-.175,2.83,2.83,0,0,0-.716.185c-.2.132-.387.256-.565.372-.349.208.316.785.471.759a3.739,3.739,0,0,1,.972-.162,4.632,4.632,0,0,1,1.19-.1,4.981,4.981,0,0,1,1.22.3C130.658,302.293,130.977,301.8,130.565,301.586Z" transform="translate(-112.358 -300.776)" fill="#181114"/>
          <path id="Trazado_197709" data-name="Trazado 197709" d="M121.254,301.586a5.735,5.735,0,0,1,1.347-.605,4.152,4.152,0,0,1,1.534-.175,2.838,2.838,0,0,1,.714.185l.565.372c.352.208-.316.785-.471.759a3.737,3.737,0,0,0-.97-.162,4.653,4.653,0,0,0-1.19-.1,4.924,4.924,0,0,0-1.22.3C121.16,302.293,120.844,301.8,121.254,301.586Z" transform="translate(-120.388 -300.776)" fill="#181114"/>
          <path id="Trazado_197710" data-name="Trazado 197710" d="M131.121,304.946c0,.532-1.071.965-2.392.965s-2.39-.433-2.39-.965,1.071-.965,2.39-.965S131.121,304.411,131.121,304.946Z" transform="translate(-112.307 -295.867)" fill="#f2917b"/>
        </g>
        <path id="Trazado_197711" data-name="Trazado 197711" d="M121.068,314.921s-2.076-8.339-.028-14.025,7.293-7.174,12.007-7.359c4.731-.187,11.653.068,12.906,3.354,7.146-1.549,4.131,22.475,4.131,22.475a20.816,20.816,0,0,0-7.017-4.058c3.326-8.688-6-9.478-15.063-8.944C121.423,306.75,121.068,314.921,121.068,314.921Z" transform="translate(-120.137 -293.492)" fill="#181114"/>
        <path id="Trazado_197712" data-name="Trazado 197712" d="M137.094,306.2c-.018,2.111-1.851,5.729-4.868,4.873-2.187-.618-3.337-1.8-3.337-4.119s2.258.23,3.114-1.916C133.276,301.839,137.122,303.069,137.094,306.2Z" transform="translate(-106.734 -278.68)" fill="#f9ab78"/>
        <path id="Trazado_197713" data-name="Trazado 197713" d="M132.081,311.218c.59-1.271,1.992-3.514,4.131-.678.3-2.929-1.3-5.377-1.618-7.564-1.2-8.367-1.357-.575-5.4,3.506,3.612,2.013.542,6.154.542,6.154l1.246,1.238A9.357,9.357,0,0,0,132.081,311.218Z" transform="translate(-106.265 -284.665)" fill="#181114"/>
      </g>
      <path id="Trazado_197714" data-name="Trazado 197714" d="M125.112,309.121c8.959.284,26.366.134,26.366-.451,0-11.546-5.891-15.564-15.873-15.564-9.356,0-14.959,1.537-15.625,13.113C119.937,306.992,122.147,307.582,125.112,309.121Z" transform="translate(-91.387 -293.107)" fill="#fd8f25"/>
      <path id="Trazado_197715" data-name="Trazado 197715" d="M127.144,301.3c3.825,2.967,11.65,3.035,14.354,2.549,3.8-.686,4.453-1.795,4.453-1.795s-10.612-2.742-17.323-3.7c-8.453-1.208-12.242-.04-12.242-.04S122.972,298.059,127.144,301.3Z" transform="translate(-96.892 -285.92)" fill="#fd8f25"/>
      <path id="Trazado_197716" data-name="Trazado 197716" d="M125.905,331.179c-.144,1.165,1.924,3.2,1.754,1.02,4.273-20.862,9.47-18.414,9.47-18.414l-2.681-1.251S127.49,315.438,125.905,331.179Z" transform="translate(-82.323 -263.354)" fill="#472ea6"/>
      <path id="Trazado_197717" data-name="Trazado 197717" d="M122.172,330.324c-.147,1.167,1.921,3.207,1.752,1.02,1.934-16.847,4.415-19.035,4.415-19.035S123.754,314.586,122.172,330.324Z" transform="translate(-88.042 -263.697)" fill="#472ea6"/>
      <path id="Trazado_197718" data-name="Trazado 197718" d="M122.409,347.732s26.138-5.855,27.1-8.25c1.792-4.458,3.893-17.64,3.893-17.64l-7.65-1.311-2.7,15.1-23.09,8.318-2.752-1.987v6.43Z" transform="translate(-95.63 -251.107)" fill="#f9ab78"/>
      <path id="Trazado_197719" data-name="Trazado 197719" d="M127.937,334.853c0-7.549,1.932-17.43,2.1-18.862.63-5.344,8.777-.9,8.777,2.557,0,1.8-1.4,8.425-1.552,16.617Z" transform="translate(-79.2 -261.86)" fill="#ad9bef"/>
      <g id="Grupo_87909" data-name="Grupo 87909" transform="translate(16.451 90.464)">
        <path id="Trazado_197720" data-name="Trazado 197720" d="M115.947,330.11a.752.752,0,0,0-.076,1.5c1.071.114,2.845.347,4.281.4,1.159.043,1.149-1.853.013-1.894S117.2,330.123,115.947,330.11Z" transform="translate(-115.183 -326.918)" fill="#f9ab78"/>
        <path id="Trazado_197721" data-name="Trazado 197721" d="M116.083,329.445c-.975-.005-.856,1.415-.073,1.5.97.109,2.572.339,3.873.385,1.045.038,1.048-1.856.018-1.894S117.219,329.451,116.083,329.445Z" transform="translate(-114.871 -327.955)" fill="#f9ab78"/>
        <path id="Trazado_197722" data-name="Trazado 197722" d="M116.193,328.862c-.863-.008-.754,1.208-.061,1.283.858.094,2.276.291,3.425.334.929.033.927-1.592.02-1.625S117.2,328.865,116.193,328.862Z" transform="translate(-114.579 -328.842)" fill="#f9ab78"/>
        <path id="Trazado_197723" data-name="Trazado 197723" d="M116.034,330.81c-.975-.01-.856,1.413-.076,1.5.97.106,2.575.337,3.873.382,1.051.041,1.048-1.856.02-1.9S117.171,330.815,116.034,330.81Z" transform="translate(-114.947 -325.868)" fill="#f9ab78"/>
      </g>
      <rect id="Rectángulo_37049" data-name="Rectángulo 37049" width="12.041" height="1.621" transform="translate(23.314 94.136) rotate(-51.522)" fill="#003966"/>
      <g id="Grupo_87910" data-name="Grupo 87910" transform="translate(0 80.74)">
        <path id="Trazado_197724" data-name="Trazado 197724" d="M148.014,345.574l.25-.638-20.514-19.6-18.2.325-.864.346Z" transform="translate(-108.685 -324.49)" fill="#9c160b"/>
        <path id="Trazado_197725" data-name="Trazado 197725" d="M129.282,345.168h18.732l-20.6-19.568H108.685Z" transform="translate(-108.685 -324.084)" fill="#e13510"/>
        <path id="Trazado_197726" data-name="Trazado 197726" d="M115.834,343.377H131.79a2.83,2.83,0,0,0,.37-3.413c-2.509-4.521-6.645-12.007-6.921-12.665-.61-1.456,1.089-1.448,1.089-1.448s-.387-.851-1.942-.851c-1.711,0-7.87.253-12.68.253-2.435,0-2.377,1.453-2.377,1.453s6.668,11.706,7.195,13.675A2.919,2.919,0,0,1,115.834,343.377Z" transform="translate(-107.7 -325.001)" fill="#fff"/>
      </g>
      <g id="Grupo_87911" data-name="Grupo 87911" transform="translate(2.504 87.386)">
        <path id="Trazado_197727" data-name="Trazado 197727" d="M114.958,329.509c.9-.577.015-1.694-.754-1.3-.957.486-2.572,1.258-3.8,2-.995.595.048,2.18,1.02,1.595S113.9,330.185,114.958,329.509Z" transform="translate(-109.177 -326.856)" fill="#f9ab78"/>
        <path id="Trazado_197728" data-name="Trazado 197728" d="M114.933,330.159c.823-.527-.053-1.651-.754-1.3-.871.438-2.342,1.122-3.455,1.79-.9.539.134,2.129,1.018,1.6S113.978,330.774,114.933,330.159Z" transform="translate(-108.599 -325.836)" fill="#f9ab78"/>
        <path id="Trazado_197729" data-name="Trazado 197729" d="M114.788,330.619c.727-.466-.025-1.428-.646-1.111-.772.387-2.068,1-3.056,1.59-.795.478.091,1.84.871,1.372S113.942,331.161,114.788,330.619Z" transform="translate(-107.988 -324.84)" fill="#f9ab78"/>
        <path id="Trazado_197730" data-name="Trazado 197730" d="M114.233,328.99c.818-.524-.056-1.651-.757-1.3-.873.438-2.342,1.121-3.456,1.79-.9.542.134,2.129,1.018,1.6S113.276,329.605,114.233,328.99Z" transform="translate(-109.674 -327.626)" fill="#f9ab78"/>
      </g>
    </g>
  </g>
</svg>
