<svg xmlns="http://www.w3.org/2000/svg" xmlns:xlink="http://www.w3.org/1999/xlink" width="160" height="160" viewBox="0 0 160 160">
  <defs>
    <clipPath id="clip-path">
      <rect id="Rectángulo_36968" data-name="Rectángulo 36968" width="85" height="85" transform="translate(371 6754)" fill="#fff" stroke="#707070" stroke-width="1"/>
    </clipPath>
  </defs>
  <g id="Grupo_93034" data-name="Grupo 93034" transform="translate(4038 -18530)">
    <circle id="Elipse_5021" data-name="Elipse 5021" cx="80" cy="80" r="80" transform="translate(-4038 18530)" fill="#35e9d0"/>
    <g id="Elipse_5022" data-name="Elipse 5022" transform="translate(-4027 18541)" fill="#fff" stroke="#472ea6" stroke-width="2">
      <circle cx="69" cy="69" r="69" stroke="none"/>
      <circle cx="69" cy="69" r="68" fill="none"/>
    </g>
    <g id="Enmascarar_grupo_181" data-name="Enmascarar grupo 181" transform="translate(-4372 11814)" clip-path="url(#clip-path)">
      <g id="Grupo_87869" data-name="Grupo 87869" transform="translate(-239.378 6495.955)">
        <path id="Trazado_197539" data-name="Trazado 197539" d="M659.056,277.783c1.755.29,3.51.573,5.263.874.362.062.52-.185.719-.384,3.254-3.255,6.485-6.532,9.766-9.76a25.551,25.551,0,0,1,10.738-6.7,9.829,9.829,0,0,1,5.488-.192,5.992,5.992,0,0,1,4.338,5.766,15.817,15.817,0,0,1-2.415,8.353,38.578,38.578,0,0,1-7.007,8.5c-2.487,2.454-4.937,4.945-7.418,7.406a1.158,1.158,0,0,0-.388,1.142c.3,1.648.545,3.3.846,5.17.963-.979,1.788-1.841,2.638-2.677a4.557,4.557,0,0,1,4.24-1.3,4.5,4.5,0,0,1,3.637,3.24,4.55,4.55,0,0,1-1.185,4.8c-1.882,1.934-3.722,3.922-5.746,5.7a3.978,3.978,0,0,0-1.349,4.241c1.385,7.774,2.573,15.583,3.857,23.375a5.4,5.4,0,0,1-5.362,6.581,5.489,5.489,0,0,1-4.414-2.505q-4.427-6.163-8.881-12.306-4.678-6.472-9.349-12.95c-.349-.487-.535-.477-.942-.064-1.776,1.8-3.558,3.6-5.395,5.337a33.356,33.356,0,0,1-5.263,3.928.762.762,0,0,0-.376,1.041c1.137,3.8,2.267,7.608,3.361,11.424a5.045,5.045,0,0,1-2.212,5.9c-1.668.977-5.4.9-6.912-1.474-2.031-3.187-4.284-6.232-6.41-9.359-.321-.473-.568-.558-1.091-.327-1.914.845-3.855,1.631-5.78,2.453a1.625,1.625,0,0,1-1.942-.238,1.67,1.67,0,0,1-.273-2c.759-1.9,1.516-3.8,2.4-5.648a.823.823,0,0,0-.334-1.264q-4.636-3.141-9.214-6.368a5.1,5.1,0,0,1-.455-8.2,5.041,5.041,0,0,1,4.892-.946q5.677,1.674,11.354,3.349c.322.095.606.253.858-.173,2.381-4.031,5.693-7.267,9-10.5.906-.885.9-.881-.131-1.628q-12.461-9.037-24.916-18.082a5.351,5.351,0,0,1,2.262-9.726,10.612,10.612,0,0,1,3.367.309q11.907,1.937,23.808,3.909a1.04,1.04,0,0,0,1.013-.355c2.338-2.365,4.673-4.732,7.046-7.061a4.723,4.723,0,0,1,7.935,2.158,4.59,4.59,0,0,1-1.311,4.638c-.81.816-1.667,1.586-2.5,2.376ZM628.1,328.725c.424-.171.645-.254.861-.348,3.112-1.359,6.194-2.782,9.18-4.4a50.446,50.446,0,0,0,12.151-8.492q15.611-15.719,31.293-31.367c2.04-2.047,4.153-4.025,6.028-6.232a1.3,1.3,0,0,0,.367-.828,7.623,7.623,0,0,0-6.9-8.261,2.975,2.975,0,0,0-2.982.95c-.257.314-.6.557-.889.847q-15.606,15.623-31.2,31.253c-2.362,2.371-4.876,4.6-7,7.2a67.43,67.43,0,0,0-8.03,13.336C629.986,324.408,629.063,326.465,628.1,328.725Zm-7.563-54a2.205,2.205,0,0,0-2.408,2.267,2.364,2.364,0,0,0,1.18,1.878q3.224,2.324,6.439,4.661,9.591,6.96,19.176,13.929c.383.279.619.364,1.018-.038q7.685-7.748,15.407-15.46c.125-.125.365-.23.269-.455-.074-.174-.3-.124-.456-.151q-6.627-1.089-13.255-2.172-10.978-1.786-21.956-3.565C624.1,275.314,622.247,275,620.539,274.722Zm54.742,20.285c-.178.14-.256.191-.321.255q-7.815,7.82-15.636,15.634c-.379.377-.266.622-.011.974q6.5,8.965,12.983,17.942c1.9,2.634,3.8,5.276,5.717,7.9a2.134,2.134,0,0,0,3.152.571,2.4,2.4,0,0,0,.757-2.55q-1.052-6.448-2.1-12.9-1.782-10.975-3.562-21.95C675.947,298.965,675.621,297.045,675.282,295.006Zm-57.713,18.369a1.872,1.872,0,0,0,.842,1.444q4.537,3.155,9.079,6.3c.309.215.472.223.65-.146.952-1.974,1.942-3.928,3.037-5.827.2-.348.128-.507-.248-.617-3.625-1.062-7.242-2.152-10.875-3.189A1.958,1.958,0,0,0,617.568,313.375Zm27.958,23.841a9.16,9.16,0,0,0-.467-1.743c-.911-3.144-1.843-6.282-2.749-9.428-.141-.489-.285-.615-.776-.325-1.763,1.042-3.59,1.969-5.438,2.85-.532.253-.687.421-.282.965.891,1.2,1.7,2.454,2.552,3.683,1.2,1.745,2.4,3.494,3.623,5.227a1.919,1.919,0,0,0,2.237.732A1.985,1.985,0,0,0,645.527,337.216Zm45.122-64.055a10.783,10.783,0,0,0,1.548-5.772,2.848,2.848,0,0,0-2.792-2.851,10.357,10.357,0,0,0-5.346,1.234c-.152.069-.4.067-.394.33A10.577,10.577,0,0,1,690.648,273.161Zm-39.5,3.329c1.31.22,2.443.408,3.574.6a.538.538,0,0,0,.507-.2c1.34-1.349,2.7-2.679,4.019-4.046a1.536,1.536,0,0,0,.007-2.206,1.512,1.512,0,0,0-2.206-.022C655.108,272.515,653.2,274.448,651.152,276.489Zm29.082,29.09c2.02-2.005,3.958-3.9,5.864-5.834a1.541,1.541,0,0,0,.014-2.2,1.568,1.568,0,0,0-2.261.014c-1.325,1.291-2.62,2.614-3.93,3.92a.668.668,0,0,0-.262.627C679.854,303.229,680.034,304.359,680.234,305.58Z" transform="translate(0)" fill="#12263f"/>
        <path id="Trazado_197540" data-name="Trazado 197540" d="M709.249,372.648c.961-2.26,1.884-4.317,2.877-6.344a67.428,67.428,0,0,1,8.03-13.336c2.126-2.594,4.64-4.827,7-7.2q15.584-15.644,31.2-31.253c.289-.289.631-.532.889-.847a2.975,2.975,0,0,1,2.982-.95,7.623,7.623,0,0,1,6.9,8.261,1.3,1.3,0,0,1-.367.828c-1.875,2.207-3.988,4.185-6.028,6.232q-15.639,15.691-31.293,31.367a50.445,50.445,0,0,1-12.151,8.492c-2.986,1.617-6.068,3.041-9.18,4.4C709.894,372.395,709.673,372.477,709.249,372.648Zm45.027-43.564a1.484,1.484,0,0,0-.945-1.407,1.5,1.5,0,0,0-1.783.371c-1.468,1.456-2.934,2.915-4.38,4.393a1.529,1.529,0,0,0-.064,2.255,1.592,1.592,0,0,0,2.315-.054c1.456-1.435,2.891-2.89,4.336-4.335A1.57,1.57,0,0,0,754.276,329.085Zm-16.548,13.4a1.5,1.5,0,0,0,.9,1.5,1.52,1.52,0,0,0,1.843-.381c1.449-1.44,2.9-2.879,4.325-4.342a1.564,1.564,0,0,0,.061-2.317,1.613,1.613,0,0,0-2.317.112c-1.435,1.421-2.855,2.855-4.285,4.281A1.553,1.553,0,0,0,737.729,342.485Zm-1.359,4.531a1.576,1.576,0,0,0-1.567-1.562,1.622,1.622,0,0,0-1.568,1.579,1.566,1.566,0,0,0,1.622,1.575A1.518,1.518,0,0,0,736.369,347.016Z" transform="translate(-81.147 -43.923)" fill="#f8f9fa"/>
        <path id="Trazado_197541" data-name="Trazado 197541" d="M642.724,353.979c1.707.282,3.56.592,5.413.893q10.978,1.784,21.956,3.565,6.629,1.079,13.255,2.172c.161.026.383-.023.456.151.1.226-.144.33-.269.455q-7.705,7.728-15.407,15.46c-.4.4-.635.317-1.018.038q-9.581-6.974-19.176-13.929-3.217-2.334-6.439-4.661a2.364,2.364,0,0,1-1.18-1.878A2.205,2.205,0,0,1,642.724,353.979Z" transform="translate(-22.184 -79.257)" fill="#bbabf5"/>
        <path id="Trazado_197542" data-name="Trazado 197542" d="M939.591,494.21c.34,2.039.666,3.959.978,5.881q1.785,10.974,3.562,21.95,1.048,6.449,2.1,12.9a2.4,2.4,0,0,1-.757,2.55,2.134,2.134,0,0,1-3.153-.571c-1.917-2.626-3.812-5.267-5.717-7.9q-6.489-8.973-12.983-17.942c-.255-.352-.368-.6.011-.974q7.832-7.8,15.636-15.634C939.335,494.4,939.414,494.35,939.591,494.21Z" transform="translate(-264.31 -199.204)" fill="#bbabf5"/>
        <path id="Trazado_197543" data-name="Trazado 197543" d="M636.43,608.717a1.958,1.958,0,0,1,2.486-2.029c3.632,1.037,7.249,2.127,10.875,3.189.375.11.448.268.248.617-1.095,1.9-2.086,3.853-3.037,5.827-.178.368-.341.361-.65.146q-4.533-3.162-9.079-6.3A1.872,1.872,0,0,1,636.43,608.717Z" transform="translate(-18.862 -295.342)" fill="#472ea6"/>
        <path id="Trazado_197544" data-name="Trazado 197544" d="M770.923,717.11a1.985,1.985,0,0,1-1.3,1.961,1.919,1.919,0,0,1-2.237-.732c-1.221-1.733-2.419-3.482-3.623-5.227-.849-1.229-1.661-2.485-2.552-3.683-.4-.544-.25-.711.282-.965,1.848-.881,3.675-1.808,5.438-2.85.491-.29.635-.164.776.325.906,3.146,1.837,6.284,2.749,9.428A9.155,9.155,0,0,1,770.923,717.11Z" transform="translate(-125.397 -379.894)" fill="#472ea6"/>
        <path id="Trazado_197545" data-name="Trazado 197545" d="M1100.32,292.015a10.577,10.577,0,0,0-6.984-7.06c-.007-.262.243-.261.394-.33a10.358,10.358,0,0,1,5.347-1.234,2.848,2.848,0,0,1,2.792,2.851A10.782,10.782,0,0,1,1100.32,292.015Z" transform="translate(-409.672 -18.854)" fill="#f8f9fa"/>
        <path id="Trazado_197546" data-name="Trazado 197546" d="M868.588,328.734c2.047-2.042,3.955-3.975,5.9-5.87a1.512,1.512,0,0,1,2.206.022,1.536,1.536,0,0,1-.007,2.206c-1.321,1.367-2.679,2.7-4.019,4.046a.538.538,0,0,1-.507.2C871.031,329.142,869.9,328.955,868.588,328.734Z" transform="translate(-217.436 -52.245)" fill="#f8f9fa"/>
        <path id="Trazado_197547" data-name="Trazado 197547" d="M1066.166,516.962c-.2-1.221-.38-2.35-.575-3.477a.668.668,0,0,1,.261-.627c1.31-1.306,2.605-2.629,3.93-3.92a1.568,1.568,0,0,1,2.261-.014,1.541,1.541,0,0,1-.014,2.2C1070.124,513.058,1068.186,514.957,1066.166,516.962Z" transform="translate(-385.932 -211.382)" fill="#f8f9fa"/>
        <path id="Trazado_197548" data-name="Trazado 197548" d="M975.357,416.959a1.57,1.57,0,0,1-.52,1.223c-1.446,1.445-2.881,2.9-4.336,4.335a1.592,1.592,0,0,1-2.315.054,1.529,1.529,0,0,1,.064-2.256c1.446-1.478,2.912-2.936,4.38-4.393a1.5,1.5,0,0,1,1.783-.371A1.484,1.484,0,0,1,975.357,416.959Z" transform="translate(-302.228 -131.798)" fill="#060405"/>
        <path id="Trazado_197549" data-name="Trazado 197549" d="M906.116,483.46a1.553,1.553,0,0,1,.533-1.144c1.43-1.426,2.85-2.86,4.285-4.281a1.614,1.614,0,0,1,2.317-.112,1.564,1.564,0,0,1-.061,2.317c-1.426,1.463-2.877,2.9-4.326,4.342a1.52,1.52,0,0,1-1.843.381A1.5,1.5,0,0,1,906.116,483.46Z" transform="translate(-249.534 -184.898)" fill="#060405"/>
        <path id="Trazado_197550" data-name="Trazado 197550" d="M878.189,540.872a1.518,1.518,0,0,1-1.513,1.591,1.566,1.566,0,0,1-1.621-1.575,1.622,1.622,0,0,1,1.568-1.579A1.576,1.576,0,0,1,878.189,540.872Z" transform="translate(-222.966 -237.779)" fill="#060405"/>
      </g>
    </g>
  </g>
</svg>
