<svg xmlns="http://www.w3.org/2000/svg" width="118" height="118" viewBox="0 0 118 118">
  <g id="Grupo_93156" data-name="Grupo 93156" transform="translate(4700 -13923)">
    <g id="Elipse_5237" data-name="Elipse 5237" transform="translate(-4700 13923)" fill="#fff" stroke="#472ea6" stroke-width="3" stroke-dasharray="3 4">
      <circle cx="59" cy="59" r="59" stroke="none"/>
      <circle cx="59" cy="59" r="57.5" fill="none"/>
    </g>
    <circle id="Elipse_5238" data-name="Elipse 5238" cx="47" cy="47" r="47" transform="translate(-4688 13935)" fill="#bbabf5"/>
    <g id="Grupo_93155" data-name="Grupo 93155" transform="translate(-9613.926 14710.832)">
      <path id="Trazado_196518" data-name="Trazado 196518" d="M4972.591-706.076q-11.785,0-23.57,0a6.79,6.79,0,0,1-6.893-5.245,6.659,6.659,0,0,1,.761-5.047q2.748-4.866,5.507-9.726,9.059-16.008,18.1-32.024a6.828,6.828,0,0,1,10.167-2.337,8.117,8.117,0,0,1,1.934,2.255q9.109,15.98,18.142,32c1.866,3.3,3.741,6.591,5.6,9.9a6.61,6.61,0,0,1,.5,5.724,6.732,6.732,0,0,1-6.425,4.5c-2.746.027-5.493.007-8.24.007Zm.011-2.394h23.184c.319,0,.639,0,.957-.023a4.386,4.386,0,0,0,3.989-3.4,5.144,5.144,0,0,0-.831-3.884q-10.2-17.967-20.367-35.948c-1.018-1.8-2-3.611-3.055-5.389a4.4,4.4,0,0,0-7.777.01c-.119.2-.232.407-.347.611l-14.593,25.788q-4.388,7.753-8.777,15.5a4.294,4.294,0,0,0,.087,4.718,4.479,4.479,0,0,0,4.093,2.022C4956.977-708.48,4964.789-708.47,4972.6-708.47Z" transform="translate(0)" fill="#472ea6"/>
      <path id="Trazado_196519" data-name="Trazado 196519" d="M5031.338-683.22l-22.07-39.914L4987.2-683.22h.877q7.633,0,15.266,0a4.11,4.11,0,0,1,.763.039,1.172,1.172,0,0,1,.938,1.141,1.157,1.157,0,0,1-.911,1.157,3.268,3.268,0,0,1-.7.058q-8.942,0-17.884,0a1.453,1.453,0,0,1-1.4-.578,1.364,1.364,0,0,1,.119-1.5q5.263-9.5,10.516-19,6.615-11.959,13.226-23.92c.289-.524.585-1,1.276-.992s.975.5,1.26,1.02q11.662,21.1,23.33,42.2c.185.335.391.661.552,1.007a1.17,1.17,0,0,1-.963,1.738,4.32,4.32,0,0,1-.573.021q-8.847,0-17.693,0c-1.132,0-1.688-.39-1.7-1.186-.015-.811.558-1.212,1.733-1.212h16.111Z" transform="translate(-36.671 -30.551)" fill="#472ea6"/>
      <path id="Trazado_196520" data-name="Trazado 196520" d="M5127.672-568.172c1.157,0,2.176.009,3.195,0a1.28,1.28,0,0,1,1.327.688,1.29,1.29,0,0,1-.342,1.509q-5.019,5.744-10.027,11.5-.168.192-.342.379a1.164,1.164,0,0,1-1.5.309,1.168,1.168,0,0,1-.6-1.406q.626-2.964,1.239-5.931c.047-.227.081-.456.136-.772-.266-.021-.485-.052-.7-.053-1.128-.005-2.255.008-3.383-.006-1.218-.015-1.743-.85-1.206-1.928,1.65-3.313,3.317-6.617,4.963-9.932a1.458,1.458,0,0,1,1.474-.882c2.446.022,4.894.015,7.34,0a1.313,1.313,0,0,1,1.3.623,1.321,1.321,0,0,1-.15,1.44c-.79,1.263-1.569,2.532-2.35,3.8C5127.935-568.661,5127.841-568.477,5127.672-568.172Zm-9.215,3.821c1.284,0,2.473-.012,3.661,0a1.192,1.192,0,0,1,1.289,1.54c-.054.357-.146.708-.217,1.062q-.231,1.161-.459,2.322l.159.067,5.585-6.42c-1.08,0-1.929.014-2.777,0-1.277-.026-1.774-.943-1.106-2.041.784-1.29,1.585-2.57,2.376-3.857.1-.169.192-.348.331-.6-1.631,0-3.14-.013-4.648.017a.74.74,0,0,0-.492.384c-1.2,2.37-2.387,4.75-3.572,7.129A3.44,3.44,0,0,0,5118.457-564.352Z" transform="translate(-151.186 -163.223)" fill="#472ea6"/>
      <path id="Trazado_196521" data-name="Trazado 196521" d="M5174.089-383.187a1.182,1.182,0,0,1-1.208-1.146,1.186,1.186,0,0,1,1.129-1.226,1.173,1.173,0,0,1,1.235,1.178A1.171,1.171,0,0,1,5174.089-383.187Z" transform="translate(-201.45 -328.202)" fill="#472ea6"/>
    </g>
  </g>
</svg>
