<svg xmlns="http://www.w3.org/2000/svg" width="118" height="118" viewBox="0 0 118 118">
  <g id="Grupo_93156" data-name="Grupo 93156" transform="translate(4988 -13431)">
    <g id="Elipse_5237" data-name="Elipse 5237" transform="translate(-4988 13431)" fill="#fff" stroke="#472ea6" stroke-width="3" stroke-dasharray="3 4">
      <circle cx="59" cy="59" r="59" stroke="none"/>
      <circle cx="59" cy="59" r="57.5" fill="none"/>
    </g>
    <circle id="Elipse_5238" data-name="Elipse 5238" cx="47" cy="47" r="47" transform="translate(-4976 13443)" fill="#bbabf5"/>
    <g id="Grupo_93155" data-name="Grupo 93155" transform="translate(-7551.886 13384.045)">
      <path id="Trazado_196507" data-name="Trazado 196507" d="M2598.429,130.163c-.5-.042-.92-.05-1.328-.114a3.671,3.671,0,0,1-3.189-3.611c-.033-1.708-.037-3.417,0-5.125a3.686,3.686,0,0,1,3.727-3.676c2.271-.023,4.542-.007,6.813-.007h.736c.013-.3.034-.539.034-.781,0-4.855-.011-9.709.016-14.564,0-.643-.14-.873-.821-.964a12.24,12.24,0,1,1,3.594-24.214,12,12,0,0,1,8.188,5.116,1.441,1.441,0,0,1,.248,1.071,1.126,1.126,0,0,1-.791.665,1.231,1.231,0,0,1-.908-.5,10.709,10.709,0,0,0-3.684-3.312,10.261,10.261,0,0,0-15.095,7.674,10.272,10.272,0,0,0,16.348,9.628,1.089,1.089,0,0,0,.359-.772c.03-1.916,0-3.834.022-5.75a4.769,4.769,0,0,1,3.316-4.528,5.222,5.222,0,0,1,1.536-.152q13.377-.013,26.752-.013a4.806,4.806,0,0,1,3.488,1.262,4.975,4.975,0,0,1,1.5,3.836q-.019,10.845-.006,21.689c0,.292.012.584-.007.875a.985.985,0,0,1-1.028,1.026c-.506.016-.833-.335-.907-.989a4.478,4.478,0,0,1-.012-.5c0-7.4-.031-14.793.019-22.189a2.857,2.857,0,0,0-3.106-3.078c-2.437.045-4.875.01-7.313.011-.2,0-.408.019-.664.031-.012.258-.031.48-.032.7,0,1.583.011,3.167-.006,4.75a2.71,2.71,0,0,1-2.9,2.894q-2.344.012-4.688,0a2.713,2.713,0,0,1-2.8-2.676c-.044-1.123-.021-2.25,0-3.375.011-.7.375-1.13.909-1.131.651,0,1.038.4,1.047,1.136.013,1.042-.006,2.084.007,3.125.009.752.273,1.01,1.026,1.014q2.219.011,4.438,0c.747,0,1.014-.266,1.02-1.024.012-1.667-.007-3.334.012-5,0-.423-.16-.527-.552-.524-5.415.035-10.831.046-16.246.093a2.618,2.618,0,0,0-2.746,2.832q-.01,11.845,0,23.69a2.761,2.761,0,0,0,2.723,2.834c.229.013.458.006.687.006q12.658,0,25.315,0c1.666,0,3.332.038,5,.083a3.66,3.66,0,0,1,3.611,3.529c.057,1.811.059,3.626,0,5.437a3.693,3.693,0,0,1-3.589,3.5c-.268.018-.538,0-.913,0,0,.707,0,1.364,0,2.022a2.785,2.785,0,0,1-3.028,3.036q-1.469.006-2.938,0a2.955,2.955,0,0,1-3.042-2.354,18.257,18.257,0,0,1-.439-1.947c-.087-.57-.3-.765-.922-.763q-12.814.038-25.627.014a3.534,3.534,0,0,1-.864-.081.806.806,0,0,1-.61-.9.832.832,0,0,1,.754-.859,6.155,6.155,0,0,1,.811-.025h36.066a5.943,5.943,0,0,0,.872-.036,1.766,1.766,0,0,0,1.614-1.775c.029-1.708.033-3.417,0-5.125a1.785,1.785,0,0,0-1.846-1.806c-.167-.006-.333,0-.5,0h-49.754c-1.75,0-2.359.611-2.361,2.372,0,1.417-.006,2.834,0,4.25a1.9,1.9,0,0,0,2.125,2.123c2.958.009,5.917,0,8.876,0,1.2,0,1.586.487,1.326,1.644-.209.934-.4,1.872-.636,2.8a2.852,2.852,0,0,1-3.17,2.473c-1,0-2,.011-3,0a2.741,2.741,0,0,1-2.857-2.884C2598.423,131.592,2598.429,130.907,2598.429,130.163Zm8.693-12.578h6.612c-1-1.285-.946-2.707-.942-4.129.012-4.353,0-8.706,0-13.059v-.851c-.343.185-.556.3-.766.415a10.92,10.92,0,0,1-4.247,1.381c-.569.058-.708.261-.706.808.02,4.915.011,9.831.013,14.746C2607.091,117.117,2607.111,117.34,2607.123,117.584Zm32.811,12.594a22.083,22.083,0,0,0,.655,2.412,1.169,1.169,0,0,0,.847.6c1.119.072,2.246.054,3.368.023a.828.828,0,0,0,.86-.939c0-.541-.015-1.082.006-1.623.014-.351-.113-.485-.466-.476-.686.018-1.373.005-2.059.005Zm-39.573.033c0,.74-.007,1.4,0,2.066.009.637.26.921.9.935,1.1.025,2.2.01,3.3.006a.833.833,0,0,0,.884-.642c.21-.771.4-1.547.611-2.366Z" fill="#472ea6"/>
      <path id="Trazado_196508" data-name="Trazado 196508" d="M2675.109,113.967c0,.4.019.792,0,1.186a2.363,2.363,0,0,0,.821,2.222,2.363,2.363,0,0,1-.231,3.575,2.488,2.488,0,0,1-3.48-.224,2.434,2.434,0,0,1,.217-3.6,1.467,1.467,0,0,0,.621-1.359c-.034-1.247-.012-2.5-.011-3.744a4.565,4.565,0,0,1,.018-.561,1.067,1.067,0,0,1,1.019-1,1.015,1.015,0,0,1,1,1.006c.039.83.01,1.663.01,2.5Z" transform="translate(-67.935 -29.321)" fill="#472ea6"/>
      <path id="Trazado_196509" data-name="Trazado 196509" d="M2798.874,354.2c1.125,0,2.25-.019,3.374.008a.985.985,0,0,1,.061,1.969,5.609,5.609,0,0,1-.686.028q-2.78,0-5.561,0a5,5,0,0,1-.623-.028.99.99,0,0,1-.971-1.012.979.979,0,0,1,1.033-.959C2796.624,354.185,2797.749,354.2,2798.874,354.2Z" transform="translate(-175.508 -242.587)" fill="#472ea6"/>
      <path id="Trazado_196510" data-name="Trazado 196510" d="M2797.688,309.131c.56,0,1.121-.012,1.681,0a.943.943,0,0,1,1.018,1,.93.93,0,0,1-1.019.934c-1.141.012-2.283.014-3.424,0a.918.918,0,0,1-.971-.979.883.883,0,0,1,.973-.96c.581-.013,1.162,0,1.743,0Z" transform="translate(-175.951 -203.15)" fill="#472ea6"/>
    </g>
  </g>
</svg>
