<svg xmlns="http://www.w3.org/2000/svg" width="118" height="118" viewBox="0 0 118 118">
  <g id="Grupo_93156" data-name="Grupo 93156" transform="translate(4982 -13526)">
    <g id="Elipse_5237" data-name="Elipse 5237" transform="translate(-4982 13526)" fill="#fff" stroke="#472ea6" stroke-width="3" stroke-dasharray="3 4">
      <circle cx="59" cy="59" r="59" stroke="none"/>
      <circle cx="59" cy="59" r="57.5" fill="none"/>
    </g>
    <circle id="Elipse_5238" data-name="Elipse 5238" cx="47" cy="47" r="47" transform="translate(-4970 13538)" fill="#bbabf5"/>
    <g id="Grupo_93155" data-name="Grupo 93155" transform="translate(-8257.613 13437.064)">
      <path id="Trazado_196511" data-name="Trazado 196511" d="M3366.362,167.487v-2.34h-62.541v2.34h40.6c.3,0,.6-.014.9.009a.967.967,0,1,1-.039,1.932c-1.362.023-2.725.01-4.087.012h-.869c0,.634,0,1.2,0,1.766a2.053,2.053,0,0,1-2.261,2.289q-2.979.018-5.958,0a2.045,2.045,0,0,1-2.26-2.287c0-.551,0-1.1,0-1.724-.307-.016-.553-.04-.8-.04-4.41,0-8.821.013-13.231-.017-.667,0-.847.221-.787.831a8.388,8.388,0,0,1,0,1.246,1.948,1.948,0,0,1-1.927,1.972q-3.289.067-6.58,0a1.942,1.942,0,0,1-1.954-2.081c-.01-.439-.029-.879,0-1.316.034-.471-.116-.689-.617-.646a8.495,8.495,0,0,1-1.108,0,.939.939,0,0,1-1.007-1q-.03-2.147,0-4.295a.929.929,0,0,1,1.012-.991c.529-.015,1.058,0,1.672,0,.015-.288.039-.531.039-.774,0-1.663,0-3.325,0-4.988,0-.763.351-1.2.937-1.215.606-.018,1.006.453,1.01,1.227.008,1.64,0,3.279,0,4.919v.794c.3.014.525.033.749.033q13.024,0,26.047.015c.641,0,.812-.177.809-.81q-.035-8.348,0-16.7c0-.629-.159-.827-.806-.82-2.932.033-5.865.026-8.8,0-.539,0-.72.147-.711.7.031,1.939.016,3.879.01,5.819,0,1.062-.311,1.374-1.354,1.379q-2.182.01-4.365,0c-.964-.006-1.3-.337-1.3-1.292-.007-1.917,0-3.833,0-5.75v-.8h-10.244c-.011.227-.034.47-.034.713,0,2.378,0,4.757,0,7.136a2.8,2.8,0,0,1-.063.754.892.892,0,0,1-.989.692.877.877,0,0,1-.877-.823,5.557,5.557,0,0,1-.021-.761q0-4.053,0-8.106c0-1.415.2-1.615,1.584-1.615H3319.3v-.918q0-8.9,0-17.8c0-1.275.262-1.532,1.552-1.531,1.039,0,2.078-.006,3.117.009.756.011,1.185.372,1.194.963s-.41.967-1.168.985c-.669.016-1.342.04-2.008,0-.58-.039-.75.164-.746.741.023,3.464.012,6.928.012,10.391v7.11H3348.8V124.643c-.242-.018-.443-.047-.645-.047-2.956,0-5.911.012-8.867-.014-.579,0-.749.173-.739.747.032,1.939.016,3.879.01,5.819,0,1.017-.31,1.325-1.322,1.329-1.478.006-2.956.009-4.434,0-.941-.007-1.251-.316-1.256-1.252-.01-1.986-.018-3.972,0-5.958.006-.506-.147-.7-.669-.68-.807.035-1.616.013-2.424.006-.894-.008-1.316-.322-1.321-.967s.435-.986,1.3-.989c1.893-.007,3.787,0,5.68,0h15.17c1.258,0,1.51.248,1.51,1.493q0,8.937,0,17.874c0,.883,0,.884.912.884q6.2,0,12.4,0c1.2,0,1.468.265,1.468,1.463,0,5.981.015,11.962-.017,17.943,0,.729.219.96.9.852a2.663,2.663,0,0,1,.415,0c1.217,0,1.467.246,1.469,1.448s0,2.4,0,3.6c0,.891-.325,1.221-1.189,1.251-1.544.052-1.544.052-1.545,1.572,0,1.77-.7,2.479-2.472,2.484q-2.84.009-5.68,0a2.065,2.065,0,0,1-2.316-2.3c-.016-1.752-.016-1.752-1.781-1.752-1.224,0-2.448,0-3.672,0-.946,0-1.4-.31-1.41-.952-.014-.663.458-1,1.442-1q7.9,0,15.795,0Zm-2.773-22.57a1.1,1.1,0,0,0-.209-.061c-3.187-.006-6.373,0-9.559-.02-.5,0-.477.3-.477.637,0,1.986.007,3.972,0,5.958,0,.961-.339,1.293-1.3,1.3q-2.182.013-4.364,0c-1.043,0-1.358-.322-1.361-1.375-.006-1.94-.02-3.88.009-5.819.009-.544-.152-.713-.7-.708-2.909.024-5.819.031-8.728,0-.673-.008-.848.189-.844.853q.039,8.313,0,16.626c0,.663.172.85.842.848q12.989-.033,25.977-.016c.225,0,.45-.021.717-.035Zm-15.313-.073c0,1.931-.009,3.746.02,5.561,0,.126.281.345.44.353a19.37,19.37,0,0,0,2.209,0,.624.624,0,0,0,.428-.43q.046-2.522,0-5.045a.573.573,0,0,0-.374-.415C3350.132,144.825,3349.258,144.844,3348.276,144.844Zm-29.49,5.933c.307,0,.578.007.849,0,.708-.022,1.675.214,2.052-.154s.163-1.336.173-2.043c.017-1.217,0-2.435,0-3.674h-3.078Zm17.786-26.183c-.417,0-.76-.009-1.1,0-.617.02-1.5-.181-1.782.14-.333.375-.169,1.211-.177,1.847-.017,1.285-.005,2.57-.005,3.888h3.068Zm-1.461,44.845h-1.863c-1.484,0-1.46,0-1.459,1.456,0,.539.212.656.7.648,1.472-.023,2.944.011,4.416-.013,1.705-.028,1.449.369,1.485-1.561.008-.445-.191-.543-.584-.535C3336.9,169.451,3336.007,169.439,3335.11,169.439Zm-28.544,2.1h.785c1.431,0,2.864.015,4.294,0,1.661-.022,1.4.3,1.444-1.48.013-.5-.182-.625-.647-.62-1.755.02-3.51.007-5.264.01-.2,0-.4.028-.613.043Zm50.533-2.042c0,.51.027.969-.007,1.424-.037.5.183.631.648.626,1.731-.019,3.463-.006,5.194-.01.221,0,.443-.03.682-.047v-1.993Z" transform="translate(0 0)" fill="#472ea6"/>
    </g>
  </g>
</svg>
