<svg xmlns="http://www.w3.org/2000/svg" width="118" height="118" viewBox="0 0 118 118">
  <g id="Grupo_93155" data-name="Grupo 93155" transform="translate(-356 -24783)">
    <g id="Elipse_4982" data-name="Elipse 4982" transform="translate(356 24783)" fill="#fff" stroke="#472ea6" stroke-width="3" stroke-dasharray="3 4">
      <circle cx="59" cy="59" r="59" stroke="none"/>
      <circle cx="59" cy="59" r="57.5" fill="none"/>
    </g>
    <circle id="Elipse_4983" data-name="Elipse 4983" cx="47" cy="47" r="47" transform="translate(368 24795)" fill="#bbabf5"/>
    <g id="Grupo_87545" data-name="Grupo 87545" transform="translate(-986.251 24567.729)">
      <path id="Trazado_196490" data-name="Trazado 196490" d="M1404.757,261.862l-5.7-3.617q-5.2-3.3-10.389-6.6a.711.711,0,0,0-.918.02c-1.885,1.258-3.785,2.492-5.682,3.731-.622.406-1.057.362-1.376-.128s-.168-.918.437-1.316c2.116-1.389,4.241-2.764,6.346-4.169a1.18,1.18,0,0,1,1.461,0q2.441,1.581,4.917,3.11a1.059,1.059,0,0,0,.723.19c2.06-.58,4.109-1.2,6.313-1.851-.279-.2-.444-.32-.618-.43-2.447-1.553-4.9-3.1-7.339-4.664a1.441,1.441,0,0,1-.591-.653c-.219-.652.39-1.183,1.142-1.035q3.3.654,6.6,1.319,5.67,1.139,11.339,2.289a2.748,2.748,0,0,1,.9.361q8.8,5.555,17.6,11.122a1.424,1.424,0,0,1,.748,1.345q-.022,14.792-.011,29.584c0,.836-.136,1.016-.943,1.261s-1.639.5-2.461.737c-.647.187-1.067-.01-1.213-.546s.1-.906.755-1.107c.585-.18,1.181-.329,1.751-.547a.68.68,0,0,0,.375-.488q.025-13.934.01-27.869a1.456,1.456,0,0,0-.051-.238c-.945.277-1.882.548-2.817.826l-31.919,9.476c-.606.18-1.205.386-1.819.536a.612.612,0,0,0-.54.722c.022,2.266.01,4.532.01,6.8v21.143c.367-.1.656-.182.944-.268l28.988-8.6c.117-.035.232-.077.35-.109.626-.167,1.039.005,1.2.5.177.534-.056.953-.7,1.147-1.913.581-3.832,1.144-5.748,1.712q-12.7,3.769-25.412,7.519a1.561,1.561,0,0,1-1.135-.142q-8.922-5.6-17.813-11.245a1.238,1.238,0,0,1-.634-1.158q.015-14.884.025-29.768a1.365,1.365,0,0,1,.429-.993c1.573-1.1,3.191-2.131,4.8-3.175a.767.767,0,0,1,1.13.217.838.838,0,0,1-.165,1.2,3.062,3.062,0,0,1-.3.21l-2.716,1.776c-.2.133-.4.269-.676.451.179.14.3.256.447.346q7.835,4.968,15.681,9.919a.856.856,0,0,0,.745.056q6.653-4.316,13.274-8.68A2.7,2.7,0,0,0,1404.757,261.862Zm-14.736,38.884c.02-.315.042-.492.042-.669q0-13.5.012-27a.967.967,0,0,0-.538-.921q-7.74-4.882-15.466-9.786c-.14-.088-.295-.153-.506-.262v.65q0,13.438-.012,26.877a1.091,1.091,0,0,0,.58,1.073c3.8,2.383,7.592,4.791,11.385,7.192C1386.981,298.826,1388.445,299.75,1390.021,300.745Zm35.915-40.012v-.125c-.157-.039-.314-.085-.473-.117-4.581-.914-9.163-1.82-13.741-2.748a3.816,3.816,0,0,1-1.231-.487c-2.408-1.5-4.793-3.033-7.2-4.527a1.248,1.248,0,0,0-.892-.127c-1.885.526-3.759,1.1-5.634,1.656a4.23,4.23,0,0,0-.436.195c.258.172.439.3.625.414q4.756,3.016,9.513,6.03c1.1.695,1.116,1.248.05,1.95q-4.653,3.062-9.316,6.109c-.153.1-.3.21-.45.316l.065.107Zm-.944-2.106.021-.119c-.063-.048-.123-.1-.189-.142q-6.647-4.212-13.3-8.419a1.877,1.877,0,0,0-.617-.252q-6.211-1.251-12.425-2.485c-.177-.035-.358-.045-.537-.067a.654.654,0,0,0,.277.312q6.569,4.164,13.144,8.317a2.949,2.949,0,0,0,.969.336q3.657.753,7.319,1.479C1421.434,257.941,1423.213,258.281,1424.992,258.628Z" fill="#472ea6"/>
      <path id="Trazado_196491" data-name="Trazado 196491" d="M1591.082,523.337c0,1.265,0,2.531,0,3.8,0,.881-.121,1.049-.973,1.3q-9.849,2.94-19.7,5.873-4.4,1.31-8.8,2.612c-.96.283-1.4-.049-1.4-1.051q-.008-3.888,0-7.776c0-.8.163-1.014.907-1.236q14.281-4.247,28.565-8.49c.961-.285,1.4.044,1.405,1.049C1591.088,520.724,1591.083,522.03,1591.082,523.337Zm-29.093,11.675c1.081-.323,2.109-.631,3.138-.937q11.817-3.514,23.636-7.018a.7.7,0,0,0,.6-.806c-.029-1.775-.01-3.551-.014-5.326,0-.19-.031-.379-.051-.609-.216.05-.354.075-.488.115q-13.2,3.921-26.393,7.834c-.4.12-.489.316-.486.692.014,1.837.005,3.673.008,5.51C1561.937,534.622,1561.966,534.778,1561.989,535.012Z" transform="translate(-165.285 -240.299)" fill="#472ea6"/>
      <path id="Trazado_196492" data-name="Trazado 196492" d="M1607.49,603.375c0,.408.023.818-.006,1.224a.848.848,0,0,1-1.7-.021c-.028-.815-.026-1.632,0-2.447a.773.773,0,0,1,.855-.827.8.8,0,0,1,.849.848c.016.407,0,.816,0,1.224Z" transform="translate(-205.271 -313.159)" fill="#472ea6"/>
      <path id="Trazado_196493" data-name="Trazado 196493" d="M1696.566,576.311c0,.388.017.776,0,1.163a.814.814,0,0,1-.851.858.8.8,0,0,1-.855-.849c-.026-.815-.023-1.633,0-2.448a.755.755,0,0,1,.814-.806.783.783,0,0,1,.891.8c.027.427.005.857.005,1.285Z" transform="translate(-283.426 -289.403)" fill="#472ea6"/>
      <path id="Trazado_196494" data-name="Trazado 196494" d="M1585.624,608.338c0-.408-.017-.816,0-1.223a.739.739,0,0,1,.795-.756c.456-.015.849.2.875.674a23.249,23.249,0,0,1-.009,2.745.747.747,0,0,1-.868.685.78.78,0,0,1-.789-.781C1585.6,609.236,1585.625,608.786,1585.624,608.338Z" transform="translate(-187.587 -317.596)" fill="#472ea6"/>
      <path id="Trazado_196495" data-name="Trazado 196495" d="M1752.478,558.367c0-.408-.013-.817,0-1.224a.748.748,0,0,1,.77-.786.76.76,0,0,1,.91.705,24.793,24.793,0,0,1,.007,2.629.781.781,0,0,1-.86.778.792.792,0,0,1-.823-.817C1752.459,559.225,1752.478,558.8,1752.478,558.367Z" transform="translate(-334 -273.718)" fill="#472ea6"/>
      <path id="Trazado_196496" data-name="Trazado 196496" d="M1676.67,581.381c0,.387.01.774,0,1.16a.85.85,0,0,1-1.7.03c-.033-.833-.031-1.67,0-2.5a.748.748,0,0,1,.858-.757.771.771,0,0,1,.836.787C1676.684,580.525,1676.669,580.953,1676.67,581.381Z" transform="translate(-265.971 -293.862)" fill="#472ea6"/>
      <path id="Trazado_196497" data-name="Trazado 196497" d="M1639.873,592.685c0,.408.017.816,0,1.222a.8.8,0,0,1-.841.858.782.782,0,0,1-.852-.785c-.044-.853-.04-1.712,0-2.566a.754.754,0,0,1,.868-.749.769.769,0,0,1,.828.8c.014.407,0,.815,0,1.223Z" transform="translate(-233.679 -303.825)" fill="#472ea6"/>
      <path id="Trazado_196498" data-name="Trazado 196498" d="M1774.691,552.9c0,.407.021.815-.005,1.221a.788.788,0,0,1-.824.809.777.777,0,0,1-.866-.766,25.42,25.42,0,0,1,0-2.624.736.736,0,0,1,.847-.7.75.75,0,0,1,.833.717c.035.445.008.895.008,1.342Z" transform="translate(-351.982 -268.883)" fill="#472ea6"/>
      <path id="Trazado_196499" data-name="Trazado 196499" d="M1731.714,564.082c0-.407-.017-.815,0-1.22a.732.732,0,0,1,.8-.747c.467-.016.844.2.869.67a22.977,22.977,0,0,1-.006,2.74.741.741,0,0,1-.87.677.772.772,0,0,1-.786-.777C1731.691,564.978,1731.714,564.529,1731.714,564.082Z" transform="translate(-315.779 -278.771)" fill="#472ea6"/>
    </g>
  </g>
</svg>
