<svg xmlns="http://www.w3.org/2000/svg" xmlns:xlink="http://www.w3.org/1999/xlink" width="85" height="85" viewBox="0 0 85 85">
  <defs>
    <clipPath id="clip-path">
      <rect id="Rectángulo_36687" data-name="Rectángulo 36687" width="85" height="85" transform="translate(371 6754)" fill="#fff" stroke="#707070" stroke-width="1"/>
    </clipPath>
  </defs>
  <g id="Enmascarar_grupo_173" data-name="Enmascarar grupo 173" transform="translate(-371 -6754)" clip-path="url(#clip-path)">
    <g id="Grupo_57737" data-name="Grupo 57737" transform="translate(-1458.298 6084.711)">
      <path id="Trazado_165216" data-name="Trazado 165216" d="M1891.946,693.617a1.465,1.465,0,0,1-1.675,1.189c-1.136-.033-2.275.006-3.411-.01-1.093-.016-1.513-.405-1.521-1.468q-.028-3.892,0-7.786c.007-1.041.456-1.465,1.522-1.477,1.6-.017,3.208,0,4.812-.01.259,0,.624.132.623-.358,0-2.266,0-4.531,0-6.905-2.666,1.078-5.224,2.116-7.784,3.148-3.81,1.536-7.617,3.08-11.438,4.588a1.015,1.015,0,0,0-.787,1.119q.042,10.672.005,21.345c0,.606.079.856.784.843,2.565-.05,5.132-.035,7.7-.008.558.006.753-.126.742-.72-.038-1.982-.02-3.966-.013-5.949,0-1.182.4-1.59,1.57-1.591q13.6-.007,27.207,0c1.2,0,1.59.413,1.591,1.65,0,4.666.018,9.332-.014,14-.005.693.175.928.862.855a1.308,1.308,0,0,1,1.49.817c.275.693-.118,1.156-.587,1.6a46.452,46.452,0,0,0-8.583,10.319,25.75,25.75,0,0,0-3.086,7.67c-.088.416-.018.57.384.657a12.154,12.154,0,0,1,4.847,2.512,9.057,9.057,0,0,0,5.639,2.066,1.283,1.283,0,0,1,1.44,1.006c.167.8-.328,1.241-1.024,1.5a11.628,11.628,0,0,1-7.527-2.6c-.3-.234-.62-.435-.933-.649a8.977,8.977,0,0,0-10.554-.042c-.58.39-1.148.8-1.724,1.2a11.452,11.452,0,0,1-12.976.166c-.706-.464-1.39-.961-2.089-1.436a9.022,9.022,0,0,0-7.93-1.171,11.59,11.59,0,0,0-3.838,2.22,11.641,11.641,0,0,1-13.854.032c-.478-.38-1-.7-1.506-1.05a9.078,9.078,0,0,0-5.516-1.615,9.369,9.369,0,0,0-5.47,2.049,12.592,12.592,0,0,1-7.969,2.9c-.7-.257-1.187-.7-1.021-1.5s.788-1,1.527-1.01a8.446,8.446,0,0,0,4.693-1.456c.395-.266.558-.5.372-.989a7.418,7.418,0,0,1-.388-2.669c.008-2.042-.04-4.084.019-6.124a8.805,8.805,0,0,0-.681-3.566c-1.8-4.549-3.566-9.115-5.341-13.675-.528-1.358-.037-2.065,1.437-2.076.875-.006,1.752-.037,2.624.011.587.033.832-.1.785-.746-.06-.812.01-1.633-.021-2.448a1.279,1.279,0,1,1,2.473,0c-.027.815.022,1.634-.016,2.448-.025.534.08.773.7.751,1.4-.049,2.8-.043,4.2,0,.569.017.677-.194.664-.706-.031-1.224-.033-2.45.005-3.673a1.907,1.907,0,0,1,1.973-2.012c1.514-.052,3.033-.056,4.546,0a1.917,1.917,0,0,1,1.956,2.035c.031.874.006,1.749.013,2.624a3.591,3.591,0,0,0,.088,1.541c.156.29.81.3,1.237.457.329.117.65.256.975.386l3.152,1.264a1.7,1.7,0,0,0,.062-.267c0-5.19-.005-10.379.02-15.569,0-.657-.319-.678-.809-.678q-9.009.01-18.018-.014c-.644,0-.772.222-.76.807.035,1.661-.007,3.324.02,4.985a1.282,1.282,0,1,1-2.477.011c.029-1.837,0-3.674.012-5.511a2.613,2.613,0,0,1,2.748-2.75c.058,0,.117,0,.175,0,1.964-.018,1.964-.018,1.965-2.024,0-3.353.086-6.71-.029-10.059-.081-2.348,1.252-3.591,3.455-3.4.694.06,1.4-.011,2.1.016.426.016.641-.072.614-.566-.04-.727-.03-1.458,0-2.186.016-.436-.095-.674-.578-.607a2.382,2.382,0,0,1-.437,0c-.868-.042-1.4-.518-1.393-1.243a1.193,1.193,0,0,1,1.408-1.2c.907.075,1.116-.286,1-1.079a3.13,3.13,0,0,1,.01-.873,1.125,1.125,0,0,1,1.151-1.089,1.171,1.171,0,0,1,1.277,1.059,1.321,1.321,0,0,1,.015.262,3.908,3.908,0,0,0,.057,1.469c.24.518.886.122,1.338.253a1.19,1.19,0,0,1,.989,1.261,1.175,1.175,0,0,1-1.1,1.165c-1.286.189-1.286.195-1.286,1.479,0,1.889,0,1.889,1.89,1.89.5,0,.992-.008,1.487,0a2.6,2.6,0,0,1,2.732,2.763c.016,3.936.026,7.873-.012,11.809-.007.741.208.966.926.905,2.944-.25,4.1.777,4.02,4.046-.121,5.071-.024,10.147-.045,15.221,0,.571.109.911.709,1.087a12.4,12.4,0,0,1,1.944.783c.662.324.968.311.913-.567-.067-1.045-.015-2.1-.015-3.148q0-10.979,0-21.957v-1.094c-.88.348-1.654.661-2.433.963-.931.361-1.651.146-1.927-.565-.283-.728.068-1.33,1.024-1.725.808-.334,1.609-.688,2.437-.964a1.152,1.152,0,0,0,.922-1.31c-.054-2.886-.024-5.773-.019-8.66a2.352,2.352,0,0,1,1.435-2.462,2.387,2.387,0,0,1,2.746.786q1.62,1.718,3.308,3.371a4.115,4.115,0,0,1,1.4,3.432c-.079.857.253.785.865.535q10.237-4.166,20.487-8.3c1.081-.437,2.162-.874,3.249-1.294a1.28,1.28,0,0,1,1.786.549c.31.695,0,1.353-.863,1.726-.8.349-1.608.69-2.43.983a.8.8,0,0,0-.626.888q.035,3.5,0,7c0,.492.143.654.639.645,1.574-.027,3.149-.019,4.724-.008,1.222.008,1.629.413,1.633,1.635q.012,3.762,0,7.523c-.005,1.178-.4,1.568-1.588,1.578-1.4.012-2.8-.024-4.2.011a1.486,1.486,0,0,1-1.677-1.191,1.411,1.411,0,0,1,1.634-1.314c.9.018,1.8-.032,2.705,0,.5.018.643-.147.633-.64q-.044-2.225,0-4.452c.009-.485-.121-.656-.63-.653q-5.063.024-10.126-.013c-.533,0-.71.147-.695.69.036,1.309.066,2.622-.006,3.927-.048.876.154,1.3,1.113,1.149a8.009,8.009,0,0,1,1.395-.009C1891.373,692.326,1891.679,692.577,1891.946,693.617Zm10.043,35.5a1.164,1.164,0,0,0,.348-.658c.137-.195.334-.418-.092-.485a5.071,5.071,0,0,0-.786-.018l-61.557-.008c-.175,0-.35.01-.524,0-.387-.024-.478.123-.444.52a14.07,14.07,0,0,1,.054,2.442c-.078.866.224,1.039,1.053,1.037q19.892-.041,39.784-.017c1.166,0,1.431.209,1.626,1.232-.183,1.016-.476,1.23-1.723,1.23h-38.045c-3.01,0-3,0-2.646,3.075.08.7.23.873.959.522a11.392,11.392,0,0,1,10.2-.046,25,25,0,0,1,3.362,2.2,9.12,9.12,0,0,0,7.349,1.324c1.862-.4,3.281-1.592,4.8-2.618a11.4,11.4,0,0,1,11.311-1.068,18.4,18.4,0,0,1,3.541,2.238,9.107,9.107,0,0,0,6.453,1.637,10.113,10.113,0,0,0,5.048-2.229,11.229,11.229,0,0,1,6.729-2.6.61.61,0,0,0,.69-.606c.041-.287.13-.567.2-.85.229-.946.21-.972-.777-.973q-6.647-.005-13.294-.01c-1.1,0-1.391-.237-1.668-1.262.171-.907.74-1.213,1.631-1.209,4.812.019,9.625.006,14.437,0,.363,0,.735.091.927-.408C1901.248,730.7,1901.634,729.913,1901.989,729.117Zm7.991-10.589h-1.207q-21.694,0-43.388,0a6.69,6.69,0,0,1-2.634-.514c-3.254-1.359-6.522-2.683-9.778-4.034a4.7,4.7,0,0,0-1.859-.383c-5.569.017-11.139.009-16.708.01-1.061,0-1.065,0-.7.954,1.317,3.4,2.652,6.785,3.943,10.191a.958.958,0,0,0,1.061.749c20.877-.019,41.755-.05,62.632.027,2.022.007,3.409-.38,4.5-2.2A30.2,30.2,0,0,1,1909.98,718.527ZM1865.856,696.4h-.014c0,6.241.011,12.482-.015,18.723,0,.713.174,1,.919.937a15.009,15.009,0,0,1,2.273-.017c.678.046.824-.222.823-.854q-.025-16.973-.006-33.946a1.858,1.858,0,0,0-.572-1.407c-.829-.82-1.641-1.658-2.474-2.475-.216-.212-.4-.63-.752-.478s-.176.578-.176.881Q1865.85,687.081,1865.856,696.4Zm-13.373-8.755h0c0-1.922-.013-3.845.008-5.766.006-.523-.084-.8-.706-.791-2.8.026-5.592.019-8.388-.005-.543,0-.688.182-.686.707q.027,5.81,0,11.62c0,.534.156.7.69.7,2.8-.025,5.592-.033,8.388-.006.617.006.71-.245.7-.777C1852.467,691.43,1852.483,689.536,1852.483,687.643Zm51.224,28.4v-.009c1.691,0,3.383-.013,5.074.009.44.006.616-.1.608-.576-.027-1.516-.024-3.033,0-4.549.006-.444-.115-.612-.586-.61q-5.118.02-10.235-.011c-.492,0-.664.146-.655.646.026,1.458.032,2.916,0,4.374-.014.563.136.755.727.741C1900.324,716.012,1902.016,716.038,1903.707,716.038Zm-.058-8.229v-.018c1.659,0,3.319-.018,4.977.01.546.009.783-.12.766-.721-.038-1.425-.031-2.853,0-4.278.011-.578-.218-.758-.773-.757q-4.977.013-9.955-.022c-.628-.005-.8.242-.793.828.028,1.426.031,2.853,0,4.279-.011.549.2.7.715.688C1900.272,707.794,1901.961,707.809,1903.649,707.809Zm-13.947.006v-.007c1.688,0,3.377-.013,5.065.008.475.006.677-.123.667-.635q-.039-2.226,0-4.453c.01-.54-.19-.7-.712-.7q-5.021.022-10.043-.006c-.53,0-.714.17-.7.7.027,1.455.033,2.911,0,4.366-.014.584.191.744.752.734C1886.383,707.8,1888.043,707.815,1889.7,707.815Zm.093,2.454v-.007c-1.72,0-3.441,0-5.161,0-.387,0-.681.024-.675.542.019,1.574.015,3.149,0,4.724,0,.42.165.555.569.554q5.161-.018,10.323-.006c.468,0,.6-.172.591-.615-.019-1.487-.03-2.975.006-4.461.014-.586-.193-.748-.756-.738C1893.061,710.289,1891.428,710.269,1889.8,710.269Zm-12.935.045V710.3c-1.312,0-2.625.013-3.937-.007-.432-.007-.628.094-.619.579.027,1.545.025,3.091,0,4.636-.006.427.142.546.554.543q4.024-.027,8.048-.012c.413,0,.561-.124.556-.545q-.026-2.274.005-4.549c.008-.5-.193-.648-.675-.639C1879.485,710.33,1878.173,710.314,1876.86,710.314Zm-27.486-1.111v-.348c0-1.614,0-1.614-1.587-1.613-1.94,0-1.94,0-1.94,2.207,0,1.68,0,1.68,1.665,1.68C1849.374,711.129,1849.374,711.129,1849.374,709.2Z" transform="translate(0 0)" fill="#12263f"/>
      <path id="Trazado_165217" data-name="Trazado 165217" d="M1918.2,1083.477c-.171,2.5-.2,5-.167,7.5.007.523-.221.753-.736.724-.174-.01-.349,0-.525,0h-78.945c-1.345,0-1.374,0-1.34-1.336.058-2.3-.1-4.591-.175-6.886.631.3.3.863.326,1.3.055,1,.157,1.056,1.133.936a11.888,11.888,0,0,0,5.93-2.711,9.936,9.936,0,0,1,6.285-2.152,10.425,10.425,0,0,1,6.405,2.088,17.264,17.264,0,0,0,2.288,1.552,10.22,10.22,0,0,0,11.231-.812c1.859-1.283,3.676-2.531,6-2.763a10.639,10.639,0,0,1,4.887.513,18.26,18.26,0,0,1,4.18,2.507,9.162,9.162,0,0,0,2.953,1.458c3.85,1.072,7.189-.074,10.23-2.437a8.586,8.586,0,0,1,3.019-1.637,10.453,10.453,0,0,1,9.78,1.8,11.111,11.111,0,0,0,5.863,2.614c.875.088.978.009,1.051-.868C1917.914,1084.4,1917.535,1083.8,1918.2,1083.477Zm-40.967,1.533a4.1,4.1,0,0,0-2.663.833,3.631,3.631,0,0,1-1.826.766,1.121,1.121,0,0,0-1.132,1.279,1.147,1.147,0,0,0,1.277,1.151,3.608,3.608,0,0,0,2.384-.713,2.8,2.8,0,0,1,3.943-.015,3.579,3.579,0,0,0,2.553.717,1.128,1.128,0,0,0,1.138-1.111,1.042,1.042,0,0,0-.855-1.242,6.1,6.1,0,0,1-2.606-1.139A3.87,3.87,0,0,0,1877.232,1085.01Zm-26.391,0a4.092,4.092,0,0,0-2.631.828,3.69,3.69,0,0,1-1.825.768,1.142,1.142,0,0,0-1.148,1.273,1.2,1.2,0,0,0,1.365,1.159,3.654,3.654,0,0,0,2.3-.711,2.8,2.8,0,0,1,3.944-.023,3.672,3.672,0,0,0,2.468.73,1.178,1.178,0,0,0,1.241-1.115,1.048,1.048,0,0,0-.859-1.244,6.256,6.256,0,0,1-2.607-1.139A3.873,3.873,0,0,0,1850.841,1085.012Zm51.677,0a4.1,4.1,0,0,0-2.681.831,3.541,3.541,0,0,1-1.824.766,1.141,1.141,0,0,0-1.142,1.278,1.206,1.206,0,0,0,1.366,1.156,3.776,3.776,0,0,0,2.372-.761,2.756,2.756,0,0,1,3.865.024,3.656,3.656,0,0,0,2.55.724,1.132,1.132,0,0,0,1.139-1.112,1.042,1.042,0,0,0-.851-1.245,6.216,6.216,0,0,1-2.6-1.137A3.771,3.771,0,0,0,1902.518,1085.012Z" transform="translate(-4.961 -339.1)" fill="#d2edf9"/>
      <path id="Trazado_165218" data-name="Trazado 165218" d="M1866.273,830.125a1.41,1.41,0,0,0,1.234-1.621c-.027-1.661.015-3.324-.02-4.985-.012-.584.116-.81.76-.807q9.009.039,18.018.014c.49,0,.812.021.809.678-.026,5.189-.017,10.379-.02,15.569a1.713,1.713,0,0,1-.062.267l-3.153-1.264c-.324-.13-.646-.269-.975-.386-.427-.152-1.081-.167-1.237-.457a3.592,3.592,0,0,1-.088-1.541c-.007-.875.018-1.75-.013-2.624a1.917,1.917,0,0,0-1.956-2.035c-1.513-.058-3.032-.054-4.546,0a1.907,1.907,0,0,0-1.973,2.012c-.038,1.223-.036,2.449-.005,3.673.013.511-.095.722-.664.706-1.4-.041-2.8-.047-4.2,0-.616.022-.721-.218-.7-.751.038-.815-.011-1.633.016-2.448a1.371,1.371,0,0,0-1.236-1.607Q1866.271,831.32,1866.273,830.125Zm3.46-3.39c-.005,1.167.209,1.64.833,1.812a1.181,1.181,0,0,0,1.39-.448,3.06,3.06,0,0,0,0-2.436,1.151,1.151,0,0,0-1.385-.456A1.283,1.283,0,0,0,1869.733,826.734Zm15.1.065a1.453,1.453,0,0,0-.447-1.369,1.171,1.171,0,0,0-1.657.076,2.508,2.508,0,0,0,.017,2.76,1.185,1.185,0,0,0,1.663.04C1884.883,827.937,1884.853,827.39,1884.838,826.8Zm-8.779,0c-.006,1.319.468,1.922,1.408,1.792.74-.1,1.053-.615,1.051-1.723s-.322-1.613-1.069-1.709C1876.568,825.044,1876.064,825.639,1876.059,826.8Z" transform="translate(-29.674 -126.159)" fill="#bbabf5"/>
      <path id="Trazado_165219" data-name="Trazado 165219" d="M1918.154,1071.639c-.665.325-.286.924-.324,1.387-.073.877-.176.956-1.051.868a11.114,11.114,0,0,1-5.863-2.614,10.453,10.453,0,0,0-9.779-1.8,8.579,8.579,0,0,0-3.019,1.637c-3.041,2.364-6.38,3.509-10.23,2.437a9.158,9.158,0,0,1-2.953-1.458,18.266,18.266,0,0,0-4.18-2.507,10.64,10.64,0,0,0-4.888-.514c-2.326.232-4.143,1.48-6,2.763a10.221,10.221,0,0,1-11.231.812,17.225,17.225,0,0,1-2.289-1.552,10.425,10.425,0,0,0-6.405-2.088,9.935,9.935,0,0,0-6.285,2.152,11.887,11.887,0,0,1-5.93,2.712c-.976.119-1.078.059-1.133-.936-.024-.437.3-1-.326-1.3a.339.339,0,0,1,0-.163,12.592,12.592,0,0,0,7.969-2.9,9.367,9.367,0,0,1,5.47-2.049,9.078,9.078,0,0,1,5.516,1.615c.5.347,1.027.67,1.505,1.049a11.641,11.641,0,0,0,13.854-.032,11.6,11.6,0,0,1,3.839-2.22,9.023,9.023,0,0,1,7.93,1.171c.7.475,1.383.972,2.089,1.436a11.452,11.452,0,0,0,12.976-.165c.575-.4,1.143-.806,1.723-1.2a8.977,8.977,0,0,1,10.554.042c.313.214.636.415.932.649a11.629,11.629,0,0,0,7.527,2.6A.331.331,0,0,1,1918.154,1071.639Z" transform="translate(-4.915 -327.261)" fill="#afdff2"/>
      <path id="Trazado_165220" data-name="Trazado 165220" d="M2162.918,772.615c-.267-1.041-.572-1.291-1.632-1.316a8,8,0,0,0-1.395.009c-.959.148-1.161-.273-1.113-1.149.072-1.305.042-2.618.006-3.927-.015-.543.161-.694.695-.69q5.063.038,10.126.013c.509,0,.639.168.63.653q-.042,2.225,0,4.452c.01.493-.133.659-.633.641-.9-.032-1.8.017-2.705,0a1.412,1.412,0,0,0-1.635,1.314Z" transform="translate(-270.973 -78.997)" fill="#afdff2"/>
      <path id="Trazado_165221" data-name="Trazado 165221" d="M1925.01,925a30.191,30.191,0,0,0-4.134,4.8c-1.092,1.818-2.479,2.205-4.5,2.2-20.877-.076-41.755-.046-62.632-.027a.958.958,0,0,1-1.06-.749c-1.291-3.406-2.626-6.795-3.943-10.191-.369-.95-.364-.954.7-.954,5.57,0,11.138.006,16.708-.01a4.7,4.7,0,0,1,1.86.383c3.257,1.352,6.525,2.676,9.778,4.034a6.685,6.685,0,0,0,2.634.514q21.694-.012,43.388,0Zm-13.551,4.872c.406,0,.816.03,1.219-.006a1.129,1.129,0,0,0,1.127-1.2,1.1,1.1,0,0,0-1.027-1.206,14.547,14.547,0,0,0-2.607,0,1.209,1.209,0,0,0,.07,2.4C1910.644,929.9,1911.053,929.87,1911.459,929.872Z" transform="translate(-15.03 -206.472)" fill="#fd8f25"/>
      <path id="Trazado_165222" data-name="Trazado 165222" d="M1924.373,1031.628c.277,1.025.573,1.26,1.668,1.262q6.647.011,13.294.01c.987,0,1.006.027.777.973-.069.283-.158.563-.2.85a.61.61,0,0,1-.69.606,11.229,11.229,0,0,0-6.729,2.6,10.112,10.112,0,0,1-5.048,2.229,9.106,9.106,0,0,1-6.453-1.637,18.394,18.394,0,0,0-3.54-2.238,11.4,11.4,0,0,0-11.311,1.068c-1.517,1.026-2.935,2.22-4.8,2.618a9.121,9.121,0,0,1-7.349-1.323,24.986,24.986,0,0,0-3.362-2.2,11.391,11.391,0,0,0-10.2.046c-.729.351-.879.174-.959-.522-.354-3.076-.364-3.075,2.646-3.075h38.045c1.247,0,1.54-.214,1.723-1.23Z" transform="translate(-40.435 -298.503)" fill="#fd8f25"/>
      <path id="Trazado_165223" data-name="Trazado 165223" d="M1924.607,1007.215l-2.487.036c-.2-1.024-.46-1.232-1.626-1.232q-19.892,0-39.784.017c-.83,0-1.132-.171-1.053-1.037a14.058,14.058,0,0,0-.054-2.442c-.034-.4.057-.544.444-.52.174.011.35,0,.525,0l61.557.008a5.086,5.086,0,0,1,.786.017c.426.067.228.291.092.485-.388.076-.517.288-.348.658-.355.8-.741,1.581-1.055,2.393-.193.5-.565.407-.927.408-4.812,0-9.625.016-14.437,0C1925.346,1006,1924.777,1006.308,1924.607,1007.215Z" transform="translate(-40.668 -274.089)" fill="#d2edf9"/>
      <path id="Trazado_165224" data-name="Trazado 165224" d="M2033.263,729.706q0-9.318.006-18.635c0-.3-.165-.731.176-.881s.536.266.752.478c.833.817,1.645,1.655,2.474,2.475a1.857,1.857,0,0,1,.572,1.407q-.012,16.973.006,33.946c0,.632-.146.9-.823.854a15.009,15.009,0,0,0-2.273.017c-.745.063-.922-.224-.919-.937.026-6.241.015-12.482.015-18.723Z" transform="translate(-167.407 -33.307)" fill="#bbabf5"/>
      <path id="Trazado_165225" data-name="Trazado 165225" d="M1910.985,740.888c0,1.893-.016,3.786.01,5.679.007.532-.085.783-.7.777-2.8-.027-5.592-.019-8.388.006-.534,0-.693-.163-.69-.7q.031-5.81,0-11.62c0-.525.143-.712.686-.707,2.8.024,5.592.031,8.388.005.622-.006.712.267.706.79-.021,1.922-.008,3.844-.008,5.766Zm-6.092,1.928c-.057.807.027,1.553.98,1.789a1.135,1.135,0,0,0,1.226-.481,2.96,2.96,0,0,0,.026-2.434,1.126,1.126,0,0,0-1.2-.53C1905.022,741.346,1904.823,742.01,1904.893,742.816Zm0-4.844c-.047.666-.016,1.317.69,1.646a1.154,1.154,0,0,0,1.488-.341,2.753,2.753,0,0,0-.019-2.569,1.163,1.163,0,0,0-1.5-.308C1904.9,736.726,1904.843,737.336,1904.892,737.972Z" transform="translate(-58.502 -53.245)" fill="#bbabf5"/>
      <path id="Trazado_165226" data-name="Trazado 165226" d="M2222.3,906.942c-1.692,0-3.383-.026-5.074.014-.591.014-.741-.178-.727-.741.035-1.457.029-2.916,0-4.374-.009-.5.163-.649.655-.646q5.117.031,10.235.011c.471,0,.592.166.586.61-.021,1.516-.024,3.033,0,4.549.009.476-.167.582-.608.576-1.691-.022-3.383-.009-5.074-.009Z" transform="translate(-318.598 -190.904)" fill="#afdff2"/>
      <path id="Trazado_165227" data-name="Trazado 165227" d="M2222.072,859.743c-1.688,0-3.377-.015-5.064.009-.516.007-.727-.139-.715-.688.03-1.426.028-2.853,0-4.279-.012-.586.164-.834.792-.828q4.977.043,9.955.022c.554,0,.784.179.772.757-.028,1.426-.035,2.853,0,4.278.016.6-.221.73-.767.721-1.658-.028-3.318-.01-4.977-.01Z" transform="translate(-318.423 -151.935)" fill="#bbabf5"/>
      <path id="Trazado_165228" data-name="Trazado 165228" d="M2142.635,859.752c-1.659,0-3.319-.02-4.977.011-.562.011-.767-.149-.753-.734.036-1.454.03-2.911,0-4.366-.01-.533.174-.706.7-.7q5.021.029,10.042.006c.522,0,.722.158.712.7q-.041,2.226,0,4.453c.009.511-.193.64-.667.635-1.688-.021-3.377-.008-5.065-.008Z" transform="translate(-252.932 -151.937)" fill="#2cffe2"/>
      <path id="Trazado_165229" data-name="Trazado 165229" d="M2142.668,901.01c1.633,0,3.266.02,4.9-.011.563-.011.77.151.755.738-.036,1.486-.026,2.974-.006,4.461.006.443-.124.617-.592.615q-5.162-.018-10.323.006c-.4,0-.573-.133-.57-.554.015-1.574.019-3.149,0-4.724-.006-.518.288-.544.675-.542,1.72.008,3.441,0,5.162,0Z" transform="translate(-252.873 -190.741)" fill="#2cffe2"/>
      <path id="Trazado_165230" data-name="Trazado 165230" d="M2074.811,901.218c1.312,0,2.625.017,3.936-.009.482-.009.683.134.675.639q-.034,2.274-.005,4.549c0,.421-.143.547-.556.545q-4.024-.016-8.048.012c-.412,0-.56-.116-.554-.543.021-1.545.023-3.091,0-4.636-.009-.485.188-.585.619-.579,1.312.02,2.625.007,3.937.007Z" transform="translate(-197.95 -190.904)" fill="#afdff2"/>
      <path id="Trazado_165231" data-name="Trazado 165231" d="M1922.641,885.728c0,1.927,0,1.927-1.863,1.927-1.665,0-1.665,0-1.665-1.68,0-2.207,0-2.207,1.94-2.208,1.587,0,1.587,0,1.587,1.613Z" transform="translate(-73.268 -176.526)" fill="#afdff2"/>
      <path id="Trazado_165232" data-name="Trazado 165232" d="M2239.488,1005.628c-.169-.37-.04-.583.348-.658A1.164,1.164,0,0,1,2239.488,1005.628Z" transform="translate(-337.498 -276.512)" fill="#afdff2"/>
      <path id="Trazado_165233" data-name="Trazado 165233" d="M2043.566,1104.634a3.87,3.87,0,0,1,2.214.525,6.1,6.1,0,0,0,2.606,1.138,1.042,1.042,0,0,1,.855,1.242,1.128,1.128,0,0,1-1.138,1.111,3.581,3.581,0,0,1-2.553-.717,2.8,2.8,0,0,0-3.943.015,3.608,3.608,0,0,1-2.384.713,1.147,1.147,0,0,1-1.277-1.15,1.121,1.121,0,0,1,1.132-1.279,3.629,3.629,0,0,0,1.826-.766A4.1,4.1,0,0,1,2043.566,1104.634Z" transform="translate(-171.295 -358.723)" fill="#12263f"/>
      <path id="Trazado_165234" data-name="Trazado 165234" d="M1892.9,1104.639a3.871,3.871,0,0,1,2.247.527,6.255,6.255,0,0,0,2.607,1.139,1.048,1.048,0,0,1,.859,1.244,1.178,1.178,0,0,1-1.241,1.115,3.674,3.674,0,0,1-2.468-.73,2.8,2.8,0,0,0-3.944.022,3.653,3.653,0,0,1-2.3.711,1.2,1.2,0,0,1-1.365-1.159,1.142,1.142,0,0,1,1.148-1.273,3.687,3.687,0,0,0,1.825-.768A4.094,4.094,0,0,1,1892.9,1104.639Z" transform="translate(-47.019 -358.726)" fill="#12263f"/>
      <path id="Trazado_165235" data-name="Trazado 165235" d="M2187.9,1104.651a3.771,3.771,0,0,1,2.19.524,6.218,6.218,0,0,0,2.6,1.137,1.042,1.042,0,0,1,.851,1.245,1.132,1.132,0,0,1-1.139,1.112,3.656,3.656,0,0,1-2.55-.724,2.756,2.756,0,0,0-3.865-.024,3.776,3.776,0,0,1-2.372.761,1.206,1.206,0,0,1-1.366-1.156,1.142,1.142,0,0,1,1.142-1.278,3.542,3.542,0,0,0,1.824-.766A4.1,4.1,0,0,1,2187.9,1104.651Z" transform="translate(-290.34 -358.739)" fill="#12263f"/>
      <path id="Trazado_165236" data-name="Trazado 165236" d="M1886.006,838.153a1.283,1.283,0,0,1,.844-1.528,1.151,1.151,0,0,1,1.385.456,3.061,3.061,0,0,1,0,2.436,1.181,1.181,0,0,1-1.39.448C1886.216,839.793,1886,839.32,1886.006,838.153Z" transform="translate(-45.947 -137.577)" fill="#12263f"/>
      <path id="Trazado_165237" data-name="Trazado 165237" d="M1960.516,838.167c.014.591.045,1.137-.425,1.507a1.185,1.185,0,0,1-1.663-.04,2.508,2.508,0,0,1-.017-2.76,1.171,1.171,0,0,1,1.657-.076A1.453,1.453,0,0,1,1960.516,838.167Z" transform="translate(-105.352 -137.526)" fill="#12263f"/>
      <path id="Trazado_165238" data-name="Trazado 165238" d="M1922.193,838.258c.005-1.159.509-1.754,1.389-1.64.747.1,1.067.608,1.07,1.709s-.311,1.621-1.051,1.723C1922.661,840.18,1922.188,839.576,1922.193,838.258Z" transform="translate(-75.808 -137.619)" fill="#12263f"/>
      <path id="Trazado_165239" data-name="Trazado 165239" d="M2197.071,964.428c-.406,0-.815.029-1.218-.008a1.209,1.209,0,0,1-.07-2.4,14.564,14.564,0,0,1,2.607,0,1.1,1.1,0,0,1,1.027,1.206,1.129,1.129,0,0,1-1.127,1.2C2197.886,964.459,2197.478,964.429,2197.071,964.428Z" transform="translate(-300.643 -241.029)" fill="#12263f"/>
      <path id="Trazado_165240" data-name="Trazado 165240" d="M1922.161,774.9c-.07-.807.129-1.471,1.029-1.656a1.126,1.126,0,0,1,1.2.53,2.96,2.96,0,0,1-.025,2.434,1.135,1.135,0,0,1-1.226.481C1922.188,776.455,1922.1,775.709,1922.161,774.9Z" transform="translate(-75.77 -85.331)" fill="#12263f"/>
      <path id="Trazado_165241" data-name="Trazado 165241" d="M1922.154,747.045c-.05-.636.007-1.247.662-1.572a1.163,1.163,0,0,1,1.5.308,2.753,2.753,0,0,1,.019,2.569,1.154,1.154,0,0,1-1.489.341C1922.139,748.362,1922.108,747.711,1922.154,747.045Z" transform="translate(-75.764 -62.318)" fill="#12263f"/>
    </g>
  </g>
</svg>
